# Blender 5.0.1
# www.blender.org
mtllib cofre.mtl
o Front
v -2.172429 -0.312927 0.019642
v -0.726776 -2.016767 -3.543012
v -1.385903 -1.081193 -2.809064
v -1.715307 -0.641073 -1.899623
v -2.053692 -0.381126 -0.608889
v -1.854394 -0.005504 0.109428
v -0.953504 0.130829 0.035654
v -0.231348 -2.196720 -3.742800
v -0.461585 -2.156286 -3.715319
v -0.456988 -0.797209 -3.022723
v -0.993130 -0.863795 -2.977829
v -0.677513 -0.212171 -1.991873
v -1.356533 -0.320916 -1.973256
v -1.694661 -0.041340 -0.612987
v -0.878855 0.083072 -0.626980
v -1.163149 -1.394513 -3.127368
v -0.807729 -1.241098 -3.316937
v -0.351295 -1.212120 -3.379192
v -2.030148 -0.093657 0.141008
v -1.872432 -0.176695 -0.604707
v -1.539498 -0.444752 -1.949617
v -1.193841 -0.941413 -2.926621
v -0.999243 -1.290132 -3.250170
v -0.603482 -2.108094 -3.642750
v -2.101109 -0.171255 0.114286
v -1.963582 -0.262051 -0.607515
v -1.636057 -0.539445 -1.929828
v -1.297194 -1.012004 -2.881777
v -1.097605 -1.336702 -3.201159
v -0.664870 -2.062369 -3.590416
v -0.895752 -1.780063 -3.406162
v -0.843020 -1.763144 -3.446701
v -0.775377 -1.748109 -3.476948
v -0.620950 -1.726393 -3.551810
v -0.289126 -1.711188 -3.617029
v -1.902907 -0.475336 -1.243134
v -1.811803 -0.368824 -1.265530
v -1.712883 -0.279314 -1.278422
v -1.531501 -0.141231 -1.295406
v -0.783792 -0.028294 -1.310786
v -1.558154 -0.846011 -2.397021
v -1.480072 -0.744061 -2.440174
v -1.383634 -0.645761 -2.469991
v -1.192129 -0.530853 -2.500087
v -0.574443 -0.445826 -2.523122
v -0.013965 -0.406092 -2.523006
v -0.013965 -1.708071 -3.630426
v -2.094930 -0.366782 0.041063
v -0.669031 -2.019730 -3.465410
v -1.314346 -1.112275 -2.751805
v -1.639672 -0.688457 -1.862215
v -1.978951 -0.438008 -0.585579
v -1.819409 -0.094549 0.123994
v -0.942193 0.035056 0.043696
v -0.226642 -2.219856 -3.648950
v -0.440686 -2.178752 -3.623538
v -0.447286 -0.867191 -2.956590
v -0.966601 -0.927377 -2.909867
v -0.666896 -0.302388 -1.958504
v -1.321812 -0.403556 -1.936782
v -1.657234 -0.128931 -0.595893
v -0.868171 -0.012287 -0.614423
v -1.135003 -1.406210 -3.081204
v -0.781528 -1.284953 -3.234746
v -0.340795 -1.263083 -3.297597
v -1.973624 -0.169513 0.161406
v -1.811866 -0.248914 -0.582767
v -1.479536 -0.510614 -1.911776
v -1.144995 -0.991707 -2.859914
v -0.954806 -1.323302 -3.170857
v -0.558496 -2.123307 -3.546219
v -2.030705 -0.234056 0.135842
v -1.893903 -0.324999 -0.584114
v -1.565156 -0.593368 -1.892006
v -1.232589 -1.048235 -2.819498
v -1.038643 -1.358154 -3.127481
v -0.619181 -2.076148 -3.506227
v -0.835481 -1.785317 -3.330631
v -0.791514 -1.774773 -3.365601
v -0.732922 -1.767520 -3.392177
v -0.589874 -1.753118 -3.464143
v -0.277989 -1.743711 -3.526567
v -1.829630 -0.531337 -1.213815
v -1.743091 -0.430226 -1.235974
v -1.651999 -0.348762 -1.249520
v -1.494600 -0.226750 -1.269140
v -0.773183 -0.121954 -1.288869
v -1.482245 -0.884659 -2.351093
v -1.408947 -0.788971 -2.392323
v -1.326176 -0.705115 -2.419583
v -1.161253 -0.606994 -2.448955
v -0.564713 -0.528678 -2.474070
v -0.013965 -1.257349 -3.320106
v -0.013965 -0.489947 -2.474700
v 1.328602 -0.320916 -1.973255
v 1.503570 -0.141231 -1.295405
v 0.755861 -0.028294 -1.310786
v 0.649582 -0.212171 -1.991873
v 0.433654 -2.156286 -3.715319
v 0.593019 -1.726393 -3.551810
v 0.261195 -1.711188 -3.617029
v 0.203418 -2.196720 -3.742800
v 0.965200 -0.863795 -2.977828
v 1.164198 -0.530853 -2.500087
v 0.546512 -0.445826 -2.523122
v 0.429058 -0.797209 -3.022723
v 0.925572 0.130829 0.035653
v 0.850924 0.083072 -0.626980
v 1.666729 -0.041340 -0.612986
v 1.826463 -0.005504 0.109428
v 1.511567 -0.444752 -1.949617
v 1.684952 -0.279314 -1.278422
v -0.013966 0.141986 -0.632597
v -0.013966 0.021825 -1.321484
v 0.575551 -2.108094 -3.642750
v 0.747447 -1.748109 -3.476947
v -0.013965 -0.763015 -3.022003
v -0.013965 -1.205122 -3.401577
v 0.323365 -1.212120 -3.379192
v 1.165910 -0.941413 -2.926620
v 1.355703 -0.645761 -2.469991
v -0.013966 -0.166587 -1.996632
v -0.013966 0.194081 -0.019398
v 1.844500 -0.176695 -0.604706
v 2.002216 -0.093657 0.141008
v 0.779798 -1.241098 -3.316937
v 1.357972 -1.081193 -2.809063
v 1.269263 -1.012004 -2.881777
v 1.069674 -1.336702 -3.201159
v 1.135218 -1.394513 -3.127367
v 1.608126 -0.539445 -1.929828
v 1.783872 -0.368824 -1.265530
v 0.636939 -2.062369 -3.590416
v 0.815090 -1.763144 -3.446700
v 1.452141 -0.744061 -2.440173
v 1.935650 -0.262051 -0.607514
v 2.073177 -0.171255 0.114286
v 0.971312 -1.290132 -3.250169
v 1.687375 -0.641073 -1.899622
v 1.874976 -0.475336 -1.243134
v 0.698845 -2.016767 -3.543012
v 0.867821 -1.780063 -3.406161
v 1.530223 -0.846011 -2.397020
v 2.025760 -0.381126 -0.608889
v 2.144497 -0.312927 0.019643
v -0.013965 -2.196804 -3.747847
v 0.745252 -0.121954 -1.288868
v 1.466668 -0.226750 -1.269138
v 1.293882 -0.403556 -1.936782
v 0.638965 -0.302388 -1.958504
v 0.250059 -1.743711 -3.526567
v 0.561944 -1.753118 -3.464143
v 0.412755 -2.178752 -3.623538
v 0.198712 -2.219856 -3.648950
v 0.536783 -0.528678 -2.474070
v 1.133322 -0.606994 -2.448954
v 0.938671 -0.927377 -2.909867
v 0.419356 -0.867191 -2.956590
v 1.629302 -0.128931 -0.595893
v 0.840240 -0.012287 -0.614423
v 0.914261 0.035056 0.043696
v 1.791477 -0.094549 0.123994
v 1.624068 -0.348762 -1.249519
v 1.451604 -0.510614 -1.911775
v -0.013966 -0.072558 -1.300103
v -0.013966 0.046006 -0.620224
v 0.704992 -1.767520 -3.392177
v 0.530566 -2.123307 -3.546219
v 0.312864 -1.263083 -3.297597
v -0.013965 -0.834488 -2.956759
v 1.298245 -0.705115 -2.419584
v 1.117065 -0.991707 -2.859913
v -0.013966 -0.257545 -1.963588
v -0.013966 0.097638 -0.011397
v 1.945692 -0.169513 0.161406
v 1.783935 -0.248914 -0.582766
v 0.753597 -1.284953 -3.234745
v 1.010712 -1.358154 -3.127480
v 1.204659 -1.048235 -2.819498
v 1.286415 -1.112275 -2.751804
v 1.107072 -1.406210 -3.081203
v 1.715160 -0.430226 -1.235973
v 1.537225 -0.593368 -1.892006
v 0.763583 -1.774773 -3.365601
v 0.591250 -2.076148 -3.506227
v 1.381016 -0.788971 -2.392323
v 2.002773 -0.234056 0.135842
v 1.865972 -0.324999 -0.584114
v 0.926875 -1.323302 -3.170857
v 1.801698 -0.531337 -1.213815
v 1.611740 -0.688457 -1.862215
v 0.807550 -1.785317 -3.330630
v 0.641100 -2.019730 -3.465410
v 1.454314 -0.884659 -2.351093
v 2.066998 -0.366782 0.041063
v 1.951019 -0.438008 -0.585578
v -0.013965 -1.739920 -3.539043
v -0.013965 -2.219397 -3.653747
v 0.008386 0.167185 -0.635632
v -0.036318 0.167185 -0.635632
v -0.036318 0.137048 -0.597777
v 0.008386 0.137048 -0.597777
v 0.008386 0.046643 -1.326701
v -0.036318 0.046643 -1.326701
v -0.036318 0.006295 -1.317576
v 0.008386 0.006295 -1.317576
v 0.008386 -0.142577 -2.004747
v -0.036318 -0.142577 -2.004747
v -0.036318 -0.181308 -1.990627
v 0.008386 -0.181308 -1.990627
v 0.008387 -0.383793 -2.534880
v -0.036318 -0.383793 -2.534880
v -0.036318 -0.419102 -2.514477
v 0.008387 -0.419102 -2.514477
v 0.008387 -0.743713 -3.038068
v -0.036317 -0.743713 -3.038068
v -0.036317 -0.773029 -3.011237
v 0.008387 -0.773029 -3.011237
v 0.008387 -1.141982 -3.380004
v -0.036317 -1.141982 -3.380004
v -0.036317 -1.179694 -3.370349
v 0.008387 -1.179694 -3.370349
v -0.142104 0.171761 -0.417938
v -0.124969 0.166187 -0.481645
v -0.078154 0.162107 -0.528281
v -0.075104 0.181515 -0.306439
v -0.124969 0.177334 -0.354230
v -0.123928 0.171761 -0.417938
v -0.109227 0.166979 -0.472591
v -0.069066 0.163479 -0.512600
v -0.066055 0.180165 -0.321876
v -0.109227 0.176542 -0.363284
v -0.136795 0.168898 -0.450661
v -0.103947 0.163939 -0.507339
v -0.047052 0.161076 -0.540063
v -0.047052 0.182445 -0.295812
v -0.101900 0.179719 -0.326968
v -0.136795 0.174624 -0.385214
v -0.120949 0.169297 -0.446099
v -0.091047 0.165000 -0.495211
v -0.042933 0.162416 -0.524748
v -0.042933 0.181105 -0.311127
v -0.090550 0.178727 -0.338309
v -0.121422 0.174265 -0.389318
v -0.033101 0.172413 -0.410481
v -0.017578 0.173735 -0.395376
v -0.054792 0.164943 -0.495865
v -0.078431 0.165408 -0.490547
v -0.017760 0.168820 -0.451554
v -0.030370 0.170806 -0.428849
v -0.142104 0.152171 -0.416224
v -0.124969 0.146598 -0.479931
v -0.078154 0.142517 -0.526567
v -0.075104 0.161926 -0.304725
v -0.124969 0.157745 -0.352516
v -0.123928 0.152171 -0.416224
v -0.109227 0.147390 -0.470877
v -0.069066 0.143889 -0.510886
v -0.066055 0.160576 -0.320162
v -0.109227 0.156953 -0.361570
v -0.136795 0.149309 -0.448947
v -0.103947 0.144350 -0.505626
v -0.047052 0.141487 -0.538349
v -0.047052 0.162856 -0.294098
v -0.101900 0.160130 -0.325254
v -0.136795 0.155034 -0.383500
v -0.120949 0.149708 -0.444385
v -0.091047 0.145411 -0.493497
v -0.042933 0.142827 -0.523034
v -0.042933 0.161516 -0.309413
v -0.090550 0.159138 -0.336595
v -0.121422 0.154675 -0.387604
v -0.033101 0.152824 -0.408767
v -0.017578 0.154145 -0.393662
v -0.054792 0.145354 -0.494151
v -0.078431 0.145819 -0.488833
v -0.017760 0.149230 -0.449840
v -0.030370 0.151217 -0.427135
v -0.014204 0.162054 -0.528882
v -0.014204 0.160613 -0.545351
v -0.014204 0.182850 -0.291186
v -0.014204 0.181407 -0.307685
v -0.014204 0.173735 -0.395376
v -0.014204 0.173496 -0.398105
v -0.014204 0.172413 -0.410481
v -0.014204 0.170804 -0.428866
v -0.014204 0.169693 -0.441570
v -0.014204 0.168818 -0.451572
v -0.014204 0.142465 -0.527168
v -0.014204 0.141024 -0.543638
v -0.014204 0.163261 -0.289472
v -0.014204 0.161817 -0.305971
v -0.014204 0.154145 -0.393662
v -0.014204 0.152824 -0.408767
v -0.014204 0.151215 -0.427152
v -0.014204 0.149229 -0.449858
v 0.108388 0.168898 -0.450661
v 0.092542 0.169297 -0.446099
v 0.080820 0.166979 -0.472591
v 0.096562 0.166187 -0.481645
v 0.075540 0.163939 -0.507339
v 0.062640 0.165000 -0.495211
v 0.040658 0.163479 -0.512600
v 0.049747 0.162107 -0.528281
v 0.018645 0.161076 -0.540063
v 0.018645 0.182445 -0.295812
v 0.014525 0.181105 -0.311127
v 0.037647 0.180165 -0.321876
v 0.046697 0.181515 -0.306439
v 0.073493 0.179719 -0.326968
v 0.062143 0.178727 -0.338309
v 0.080820 0.176542 -0.363284
v 0.096562 0.177334 -0.354230
v 0.108388 0.174624 -0.385214
v 0.093015 0.174265 -0.389318
v 0.095521 0.171761 -0.417938
v 0.113697 0.171761 -0.417938
v 0.014526 0.162416 -0.524748
v 0.026384 0.164943 -0.495865
v 0.050024 0.165408 -0.490547
v -0.010829 0.173735 -0.395376
v 0.004694 0.172413 -0.410481
v 0.001963 0.170806 -0.428849
v -0.010647 0.168820 -0.451554
v 0.080820 0.147390 -0.470877
v 0.092542 0.149708 -0.444385
v 0.108388 0.149309 -0.448947
v 0.096562 0.146598 -0.479931
v 0.040658 0.143889 -0.510886
v 0.062640 0.145411 -0.493497
v 0.075540 0.144350 -0.505626
v 0.049747 0.142517 -0.526567
v 0.018645 0.141487 -0.538349
v 0.037647 0.160576 -0.320162
v 0.014525 0.161516 -0.309413
v 0.018645 0.162856 -0.294098
v 0.046697 0.161926 -0.304725
v 0.080820 0.156953 -0.361570
v 0.062143 0.159138 -0.336595
v 0.073493 0.160130 -0.325254
v 0.096562 0.157745 -0.352516
v 0.095521 0.152171 -0.416224
v 0.093015 0.154675 -0.387604
v 0.108388 0.155034 -0.383500
v 0.113697 0.152171 -0.416224
v 0.014526 0.142827 -0.523034
v 0.026384 0.145354 -0.494151
v 0.050024 0.145819 -0.488833
v -0.010829 0.154145 -0.393662
v 0.004694 0.152824 -0.408767
v 0.001963 0.151217 -0.427135
v -0.010647 0.149230 -0.449840
v -0.057000 -1.540365 -3.561526
v 0.030551 -1.540365 -3.561526
v -0.057000 -1.651229 -3.613477
v 0.030551 -1.651229 -3.613477
v -0.013224 -1.540358 -3.564011
v -0.013225 -1.651222 -3.615961
v -0.056340 -1.545636 -3.549991
v 0.029891 -1.545636 -3.549991
v -0.056340 -1.656500 -3.601942
v 0.029891 -1.656500 -3.601942
v -0.013224 -1.545636 -3.552459
v -0.013225 -1.656500 -3.604410
v -0.015236 -1.213402 -3.398578
v -0.046429 -1.234562 -3.406692
v -0.034514 -1.268801 -3.419822
v 0.004042 -1.268801 -3.419822
v 0.015957 -1.234562 -3.406692
v -0.015236 -1.210580 -3.477660
v -0.046429 -1.233441 -3.477365
v -0.034514 -1.270431 -3.476891
v 0.004042 -1.270431 -3.476891
v 0.015957 -1.233441 -3.477365
v -0.015236 -1.239209 -3.543231
v -0.046429 -1.259373 -3.532074
v -0.034514 -1.291999 -3.514021
v 0.004042 -1.291999 -3.514021
v 0.015957 -1.259373 -3.532074
v -0.015236 -1.305334 -3.603957
v -0.046429 -1.317580 -3.584271
v -0.034514 -1.337394 -3.552419
v 0.004042 -1.337394 -3.552419
v 0.015957 -1.317580 -3.584271
v -0.015236 -1.401922 -3.625673
v -0.046429 -1.406456 -3.603223
v -0.034514 -1.413793 -3.566900
v 0.004042 -1.413793 -3.566900
v 0.015957 -1.406456 -3.603223
v -0.015236 -1.500846 -3.627584
v -0.046429 -1.497651 -3.604714
v -0.034514 -1.492480 -3.567707
v 0.004042 -1.492480 -3.567707
v 0.015957 -1.497651 -3.604714
v -0.015236 -1.661224 -3.596222
v -0.046320 -1.633636 -3.583602
v -0.034447 -1.585365 -3.560692
v 0.003975 -1.585365 -3.560692
v 0.015848 -1.633636 -3.583602
v -1.819253 -0.234844 -0.149045
v -1.762359 -0.234844 -0.149045
v -1.819253 -0.241898 -0.214032
v -1.762359 -0.241898 -0.214032
v -1.819253 -0.299931 -0.109466
v -1.819253 -0.352730 -0.149079
v -1.762359 -0.352730 -0.149079
v -1.762359 -0.299931 -0.109466
v -1.819253 -0.312745 0.031126
v -1.819253 -0.364871 0.062731
v -1.762359 -0.364871 0.062731
v -1.762359 -0.312745 0.031126
v -1.819253 -0.264928 0.120937
v -1.819253 -0.292264 0.169302
v -1.762359 -0.292264 0.169302
v -1.762359 -0.264928 0.120937
v -1.819253 -0.318248 -0.044373
v -1.762359 -0.318248 -0.044373
v -1.762359 -0.376888 -0.049199
v -1.819253 -0.376888 -0.049199
v -1.819253 -0.114972 -0.233322
v -1.762359 -0.114972 -0.233322
v -1.762359 -0.120060 -0.173066
v -1.819253 -0.120060 -0.173066
v -1.819253 -0.199169 0.153770
v -1.819253 -0.219844 0.205334
v -1.762359 -0.219844 0.205334
v -1.762359 -0.199169 0.153770
v 1.791320 -0.234844 -0.149045
v 1.734426 -0.234844 -0.149045
v 1.734426 -0.120060 -0.173067
v 1.791320 -0.120060 -0.173067
v 1.734426 -0.241898 -0.214032
v 1.734426 -0.114972 -0.233323
v 1.791320 -0.241898 -0.214032
v 1.791320 -0.114972 -0.233323
v 1.791320 -0.352730 -0.149080
v 1.791320 -0.299931 -0.109466
v 1.734426 -0.352730 -0.149080
v 1.734426 -0.299931 -0.109466
v 1.791320 -0.376888 -0.049199
v 1.791320 -0.318248 -0.044374
v 1.734426 -0.376888 -0.049199
v 1.734426 -0.318248 -0.044374
v 1.791320 -0.312745 0.031126
v 1.791320 -0.364871 0.062731
v 1.791320 -0.292264 0.169302
v 1.791320 -0.264928 0.120937
v 1.734426 -0.364871 0.062731
v 1.734426 -0.292264 0.169302
v 1.734426 -0.312745 0.031126
v 1.734426 -0.264928 0.120937
v 1.791320 -0.219844 0.205334
v 1.791320 -0.199169 0.153770
v 1.734426 -0.219844 0.205334
v 1.734426 -0.199169 0.153770
vn -0.3585 0.8534 -0.3783
vn -0.1099 0.9678 -0.2265
vn -0.1088 0.9320 -0.3458
vn -0.3783 -0.4919 -0.7842
vn -0.1028 0.3315 -0.9378
vn -0.1337 -0.5312 -0.8366
vn -0.2814 0.6556 -0.7007
vn -0.1030 0.8569 -0.5051
vn -0.0999 0.7228 -0.6838
vn -0.0423 0.7806 0.6237
vn -0.3714 0.9110 -0.1792
vn -0.2424 0.8019 0.5460
vn -0.6198 0.6799 -0.3919
vn -0.3778 0.8854 -0.2707
vn -0.0000 0.9920 -0.1265
vn -0.1107 0.9853 -0.1298
vn -0.6353 -0.5048 -0.5844
vn -0.2912 0.2830 -0.9138
vn -0.0000 0.7385 -0.6742
vn -0.1067 0.5259 -0.8438
vn -0.5142 0.5163 -0.6848
vn -0.3191 0.7873 -0.5276
vn -0.0000 0.9399 -0.3415
vn -0.0000 0.7886 0.6149
vn -0.6178 0.7518 -0.2302
vn -0.2803 0.4540 -0.8458
vn -0.6855 0.3527 -0.6369
vn -0.8873 -0.3838 -0.2559
vn -0.9247 -0.2863 -0.2508
vn -0.7312 0.5597 -0.3901
vn -0.6283 0.7176 -0.3006
vn -0.7403 -0.5015 -0.4478
vn -0.4588 0.1918 -0.8676
vn -0.5814 0.6221 -0.5245
vn -0.8048 0.3285 0.4944
vn -0.5300 0.6178 0.5809
vn -0.4604 0.3429 -0.8188
vn -0.6306 0.1956 -0.7510
vn -0.9565 -0.1963 -0.2160
vn -0.7180 0.6244 -0.3075
vn -0.8085 -0.5200 -0.2754
vn -0.5695 0.0972 -0.8162
vn -0.7213 0.4808 -0.4985
vn -0.7246 0.6447 -0.2436
vn -0.9598 -0.1666 0.2258
vn -0.8604 -0.4425 -0.2526
vn -0.9645 -0.1485 -0.2183
vn -0.9704 -0.1502 -0.1891
vn -0.9425 -0.2559 -0.2149
vn -0.0000 0.5371 -0.8435
vn -0.0000 0.3308 -0.9437
vn -0.0000 -0.5141 -0.8578
vn -0.0000 0.9753 -0.2210
vn -0.0000 0.8665 -0.4992
vn 0.1080 -0.9681 0.2263
vn 0.3616 -0.8519 0.3789
vn 0.1073 -0.9323 0.3453
vn 0.1017 -0.3305 0.9383
vn -0.0881 -0.8705 0.4842
vn -0.0193 -0.8739 0.4857
vn 0.1019 -0.8573 0.5047
vn 0.2816 -0.6548 0.7013
vn 0.0994 -0.7236 0.6830
vn 0.3753 -0.9093 0.1799
vn 0.1240 -0.6205 0.7744
vn 0.3228 -0.4683 0.8225
vn 0.3822 -0.8833 0.2716
vn 0.6246 -0.6757 0.3914
vn -0.0000 -0.9920 0.1265
vn 0.1092 -0.9856 0.1290
vn 0.3068 -0.2712 0.9123
vn -0.0172 -0.7602 0.6495
vn 0.1061 -0.5259 0.8439
vn -0.0000 -0.7384 0.6744
vn 0.3203 -0.7863 0.5283
vn 0.5157 -0.5148 0.6848
vn -0.0000 -0.9399 0.3416
vn -0.0000 -0.6403 0.7681
vn 0.6215 -0.7487 0.2306
vn 0.2822 -0.4518 0.8463
vn 0.6526 -0.4013 0.6428
vn -0.0517 -0.6871 0.7247
vn 0.5598 -0.2643 0.7853
vn 0.7322 -0.5586 0.3897
vn 0.6334 -0.7130 0.3008
vn 0.7183 -0.6241 0.3075
vn 0.4447 -0.1944 0.8743
vn -0.0786 -0.6859 0.7234
vn 0.5845 -0.6197 0.5238
vn 0.1450 -0.5650 0.8123
vn 0.2641 -0.3737 0.8892
vn 0.4605 -0.3413 0.8194
vn 0.1502 -0.9286 0.3393
vn 0.1159 -0.9693 0.2169
vn 0.5335 -0.1198 0.8373
vn 0.0298 -0.5610 0.8273
vn 0.7231 -0.4792 0.4976
vn 0.0928 -0.7914 0.6042
vn 0.0091 -0.8682 0.4962
vn 0.7254 -0.6438 0.2436
vn -0.0240 -0.5422 0.8399
vn 0.1522 -0.8685 0.4717
vn -0.0000 -0.5367 0.8438
vn -0.0000 -0.3300 0.9440
vn -0.0000 -0.8592 0.5117
vn -0.0000 -0.9753 0.2208
vn -0.0000 -0.8666 0.4989
vn 0.1225 -0.9802 0.1553
vn 0.3585 0.8534 -0.3784
vn 0.1099 0.9678 -0.2265
vn 0.3778 0.8854 -0.2707
vn 0.3783 -0.4919 -0.7842
vn 0.1028 0.3315 -0.9378
vn 0.2912 0.2830 -0.9138
vn 0.2814 0.6556 -0.7007
vn 0.1030 0.8569 -0.5051
vn 0.3190 0.7870 -0.5280
vn 0.0423 0.7806 0.6237
vn 0.3714 0.9110 -0.1792
vn 0.1107 0.9853 -0.1298
vn 0.6198 0.6799 -0.3919
vn 0.6283 0.7176 -0.3006
vn 0.6353 -0.5048 -0.5844
vn 0.4588 0.1918 -0.8676
vn 0.1067 0.5259 -0.8438
vn 0.5142 0.5163 -0.6848
vn 0.5813 0.6221 -0.5245
vn 0.6178 0.7518 -0.2302
vn 0.2424 0.8019 0.5460
vn 0.5300 0.6178 0.5809
vn 0.2803 0.4540 -0.8458
vn 0.1000 0.7229 -0.6837
vn 0.8873 -0.3838 -0.2559
vn 0.6855 0.3527 -0.6369
vn 0.9247 -0.2863 -0.2509
vn 0.7312 0.5597 -0.3901
vn 0.7403 -0.5015 -0.4478
vn 0.5695 0.0972 -0.8162
vn 0.7213 0.4808 -0.4985
vn 0.8048 0.3285 0.4944
vn 0.7246 0.6447 -0.2436
vn 0.4604 0.3429 -0.8188
vn 0.6306 0.1956 -0.7511
vn 0.7180 0.6244 -0.3075
vn 0.9565 -0.1963 -0.2160
vn 0.8085 -0.5200 -0.2754
vn 0.8604 -0.4425 -0.2526
vn 0.9425 -0.2559 -0.2149
vn 0.9598 -0.1666 0.2258
vn 0.9704 -0.1502 -0.1891
vn 0.9645 -0.1485 -0.2183
vn 0.1089 0.9320 -0.3457
vn 0.1337 -0.5312 -0.8366
vn -0.1080 -0.9681 0.2263
vn -0.3616 -0.8519 0.3788
vn -0.3822 -0.8833 0.2716
vn -0.1017 -0.3305 0.9383
vn 0.0881 -0.8705 0.4842
vn -0.3068 -0.2712 0.9123
vn -0.1019 -0.8573 0.5047
vn -0.2816 -0.6548 0.7013
vn -0.3203 -0.7864 0.5282
vn -0.3753 -0.9093 0.1799
vn -0.1240 -0.6205 0.7744
vn -0.1093 -0.9856 0.1290
vn -0.6248 -0.6756 0.3914
vn -0.6334 -0.7129 0.3008
vn 0.0172 -0.7602 0.6495
vn -0.4447 -0.1944 0.8743
vn -0.1062 -0.5259 0.8439
vn -0.5157 -0.5148 0.6848
vn -0.5845 -0.6197 0.5238
vn -0.3228 -0.4683 0.8225
vn -0.6215 -0.7487 0.2306
vn -0.2641 -0.3737 0.8892
vn -0.0989 -0.7233 0.6834
vn -0.2822 -0.4518 0.8463
vn 0.0517 -0.6871 0.7247
vn -0.6526 -0.4013 0.6428
vn -0.5598 -0.2643 0.7853
vn -0.7321 -0.5587 0.3897
vn -0.7183 -0.6241 0.3075
vn 0.0786 -0.6859 0.7234
vn -0.5335 -0.1198 0.8373
vn -0.7231 -0.4792 0.4976
vn -0.1450 -0.5650 0.8123
vn -0.7254 -0.6438 0.2436
vn -0.4606 -0.3412 0.8194
vn -0.1502 -0.9286 0.3393
vn -0.1159 -0.9693 0.2169
vn -0.0298 -0.5610 0.8273
vn 0.0240 -0.5422 0.8399
vn -0.0928 -0.7914 0.6042
vn -0.1522 -0.8685 0.4717
vn -0.0091 -0.8682 0.4962
vn -0.1225 -0.9802 0.1553
vn -0.1073 -0.9324 0.3453
vn 0.0193 -0.8739 0.4857
vn 0.6961 0.7003 -0.1584
vn -0.6254 0.7561 0.1929
vn 0.6254 0.7561 0.1929
vn -1.0000 -0.0000 -0.0000
vn -0.4768 0.6877 0.5475
vn 1.0000 -0.0000 -0.0000
vn 0.4768 0.6877 0.5475
vn 0.6901 0.6799 -0.2479
vn -0.6961 0.7003 -0.1584
vn 0.6860 0.6300 -0.3640
vn -0.6901 0.6799 -0.2479
vn 0.6811 0.5401 -0.4943
vn -0.6860 0.6300 -0.3640
vn 0.6164 0.1790 -0.7668
vn -0.6811 0.5401 -0.4943
vn -0.6164 0.1791 -0.7668
vn -0.5270 -0.2108 -0.8233
vn 0.5270 -0.2108 -0.8233
vn -0.0000 0.9962 -0.0872
vn -0.0000 0.9962 -0.0871
vn 0.9664 0.0224 0.2562
vn 0.8550 0.0452 0.5166
vn -0.9659 -0.0226 -0.2578
vn -0.8660 -0.0436 -0.4981
vn 0.6219 0.0683 0.7801
vn 0.7057 0.0618 0.7058
vn -0.5000 -0.0755 -0.8627
vn -0.7071 -0.0616 -0.7044
vn -0.0000 0.0872 0.9962
vn 0.1430 0.0863 0.9860
vn -0.0000 -0.0871 -0.9962
vn -0.2588 -0.0842 -0.9622
vn -0.4877 0.0761 0.8697
vn -0.2493 0.0844 0.9648
vn 0.8019 -0.0521 -0.5951
vn 0.6901 -0.0631 -0.7210
vn -0.6911 0.0630 0.7200
vn -0.8619 0.0442 0.5052
vn 0.9962 -0.0076 -0.0866
vn 1.0000 0.0008 0.0090
vn -0.9659 0.0226 0.2578
vn -0.0000 -0.0872 -0.9962
vn 0.1194 -0.0865 -0.9891
vn 0.5586 -0.0723 -0.8263
vn 0.9256 0.0330 0.3771
vn -0.9210 -0.0340 -0.3882
vn 0.9579 0.0250 0.2861
vn -0.9377 -0.0303 -0.3461
vn -0.9210 -0.0340 -0.3881
vn -0.9400 0.0297 0.3399
vn 0.9460 -0.0283 -0.3229
vn 0.0011 0.0872 0.9962
vn -0.0001 0.0872 0.9962
vn -0.0051 -0.0872 -0.9962
vn -0.8550 0.0452 0.5166
vn -0.9664 0.0224 0.2562
vn 0.9659 -0.0226 -0.2578
vn 0.8660 -0.0436 -0.4981
vn -0.6219 0.0683 0.7801
vn -0.7057 0.0618 0.7058
vn 0.7071 -0.0616 -0.7044
vn 0.5000 -0.0755 -0.8627
vn -0.1430 0.0863 0.9860
vn 0.2588 -0.0842 -0.9622
vn 0.2588 -0.0842 -0.9623
vn 0.2493 0.0844 0.9648
vn 0.4877 0.0761 0.8697
vn -0.8019 -0.0521 -0.5951
vn -0.6901 -0.0631 -0.7210
vn 0.6911 0.0630 0.7200
vn 0.8619 0.0442 0.5052
vn -1.0000 0.0008 0.0090
vn -0.9962 -0.0076 -0.0866
vn 0.9659 0.0226 0.2578
vn -0.1194 -0.0865 -0.9891
vn -0.5586 -0.0723 -0.8263
vn -0.9256 0.0330 0.3771
vn 0.9210 -0.0340 -0.3882
vn -0.9579 0.0250 0.2861
vn 0.9377 -0.0303 -0.3461
vn 0.9400 0.0297 0.3399
vn -0.9460 -0.0283 -0.3229
vn -0.0011 0.0872 0.9962
vn 0.0051 -0.0872 -0.9962
vn 0.7642 0.1321 0.6313
vn -0.7473 0.2442 0.6180
vn 0.7473 0.2442 0.6180
vn 0.6670 -0.2488 -0.7023
vn -0.6478 -0.1145 -0.7531
vn -0.6670 -0.2488 -0.7023
vn -0.7642 0.1321 0.6313
vn -0.6288 -0.6242 -0.4637
vn -0.7996 0.4783 0.3632
vn 0.6288 -0.6242 -0.4637
vn 0.7996 0.4783 0.3632
vn -0.6705 -0.7403 -0.0483
vn -0.7481 0.6602 0.0668
vn 0.6705 -0.7403 -0.0483
vn -0.6563 -0.7081 0.2605
vn -0.7824 0.4345 -0.4461
vn -0.7567 0.6281 -0.1813
vn 0.6563 -0.7081 0.2605
vn -0.6544 -0.4970 0.5699
vn 0.7824 0.4345 -0.4461
vn 0.6544 -0.4970 0.5699
vn 0.7567 0.6281 -0.1813
vn 0.7481 0.6602 0.0668
vn -0.7248 0.3078 -0.6164
vn -0.6883 -0.3231 0.6495
vn 0.7248 0.3078 -0.6164
vn 0.6883 -0.3231 0.6495
vn 0.6478 -0.1145 -0.7531
vn -0.6478 -0.1145 -0.7532
vn 0.6288 -0.6241 -0.4637
vn 0.6478 -0.1145 -0.7532
vn -0.0000 0.9303 -0.3667
vn -0.6122 -0.2872 -0.7367
vn -0.6007 0.7595 -0.2496
vn 0.6122 -0.2872 -0.7367
vn 0.6007 0.7595 -0.2496
vn -0.0000 0.9096 0.4154
vn -0.0000 -0.9096 -0.4154
vn -0.7164 -0.6492 -0.2557
vn -0.6957 0.6375 0.3311
vn 0.7164 -0.6492 -0.2557
vn -0.0000 -0.3370 -0.9415
vn 0.6957 0.6375 0.3311
vn -0.0000 0.9832 -0.1827
vn -0.7672 0.1321 0.6277
vn -0.0000 0.6545 0.7561
vn -0.9241 0.3730 -0.0831
vn -0.4785 -0.7425 0.4688
vn -0.6348 -0.7432 0.2112
vn 0.4785 -0.7425 0.4688
vn 0.9241 0.3730 -0.0831
vn 0.7672 0.1321 0.6276
vn -0.0000 0.8141 -0.5807
vn -0.9283 0.2992 -0.2209
vn 0.6187 -0.6041 0.5023
vn 0.6348 -0.7432 0.2112
vn 0.9283 0.2992 -0.2209
vn -0.0000 0.4662 -0.8847
vn -0.9214 0.1746 -0.3472
vn -0.6187 -0.6041 0.5023
vn -0.6401 -0.3302 0.6937
vn 0.9214 0.1746 -0.3472
vn -0.0000 0.1199 -0.9928
vn -0.9402 0.0390 -0.3385
vn -0.6038 -0.0792 0.7932
vn 0.6401 -0.3302 0.6937
vn 0.9401 0.0390 -0.3385
vn -0.0000 -0.0825 -0.9966
vn -0.9397 -0.0303 -0.3405
vn -0.5896 0.0302 0.8071
vn 0.6037 -0.0792 0.7933
vn 0.9397 -0.0303 -0.3405
vn -0.8209 -0.5515 0.1484
vn -0.5104 -0.1130 0.8525
vn 0.5104 -0.1130 0.8525
vn 0.5897 0.0302 0.8071
vn 0.8209 -0.5515 0.1484
vn -0.0000 -0.9872 -0.1594
vt 0.760331 0.485174
vt 0.635704 0.669378
vt 0.612616 0.493076
vt 0.583371 -0.188540
vt 0.534962 -0.078666
vt 0.529119 -0.206412
vt 0.682462 0.197646
vt 0.590714 0.349163
vt 0.566284 0.197252
vt 0.677148 1.011478
vt 0.836501 0.834005
vt 0.878482 1.015096
vt 0.807338 0.476187
vt 0.798708 0.661144
vt 0.468551 0.846846
vt 0.657387 0.843571
vt 0.617720 -0.165884
vt 0.609452 -0.068766
vt 0.472107 0.201783
vt 0.545195 0.060661
vt 0.729705 0.195052
vt 0.724077 0.343799
vt 0.470486 0.496270
vt 0.467687 1.002814
vt 0.884321 0.825447
vt 0.644600 0.069476
vt 0.757979 0.191343
vt 0.740347 0.068012
vt 0.786846 0.191273
vt 0.836003 0.469032
vt 0.847216 0.652202
vt 0.633391 -0.147572
vt 0.648122 -0.061702
vt 0.770963 0.334232
vt 0.944428 1.001956
vt 0.922617 1.015484
vt 0.689874 0.072140
vt 0.715878 0.071504
vt 0.864169 0.463820
vt 0.875507 0.646223
vt 0.647752 -0.130633
vt 0.665715 -0.058765
vt 0.799891 0.325942
vt 0.910496 0.817172
vt 0.973407 0.968553
vt 0.681086 -0.057504
vt 0.905892 0.641990
vt 0.941896 0.807897
vt 0.828384 0.319327
vt 0.472907 0.056936
vt 0.473664 -0.081845
vt 0.474704 -0.209298
vt 0.469523 0.670988
vt 0.471269 0.353588
vt 0.816350 -0.645470
vt 0.788560 -0.681073
vt 0.821711 -0.679859
vt 0.839982 -0.789058
vt 0.829529 -0.810438
vt 0.841176 -0.813840
vt 0.826767 -0.707563
vt 0.806272 -0.736343
vt 0.832476 -0.736635
vt 0.771079 -0.612823
vt 0.806839 -0.578328
vt 0.761328 -0.577019
vt 0.779782 -0.646661
vt 0.779074 -0.682396
vt 0.854680 -0.610795
vt 0.811341 -0.611396
vt 0.823731 -0.787065
vt 0.822660 -0.805764
vt 0.837475 -0.762487
vt 0.853960 -0.735791
vt 0.796778 -0.708369
vt 0.796499 -0.736491
vt 0.854285 -0.679258
vt 0.854860 -0.580099
vt 0.761306 -0.614020
vt 0.815133 -0.760566
vt 0.790937 -0.736885
vt 0.794596 -0.760188
vt 0.800462 -0.759656
vt 0.773163 -0.683508
vt 0.769895 -0.647992
vt 0.763852 -0.648955
vt 0.815413 -0.785536
vt 0.819357 -0.802280
vt 0.787356 -0.709828
vt 0.748222 -0.578842
vt 0.752355 -0.576424
vt 0.805599 -0.759794
vt 0.766990 -0.684382
vt 0.757129 -0.649681
vt 0.811915 -0.784777
vt 0.816775 -0.798614
vt 0.781564 -0.711139
vt 0.784733 -0.736859
vt 0.742009 -0.585309
vt 0.755842 -0.615410
vt 0.808943 -0.784416
vt 0.775322 -0.712323
vt 0.853801 -0.763241
vt 0.853653 -0.789578
vt 0.853346 -0.814331
vt 0.854481 -0.645206
vt 0.854127 -0.706730
vt 0.168526 1.337703
vt 0.172471 1.348708
vt 0.169435 1.349806
vt 0.800384 -0.554887
vt 0.756523 -0.566359
vt 0.800929 -0.559738
vt 0.171836 1.357267
vt 0.175030 1.354901
vt 0.848005 -0.556553
vt 0.847739 -0.551685
vt 0.754730 -0.561824
vt 0.748838 -0.570596
vt 0.524492 -0.853122
vt 0.537950 -0.867717
vt 0.528330 -0.850051
vt 0.173567 1.360493
vt 0.176352 1.358092
vt 0.742009 -0.570665
vt 0.745867 -0.566725
vt 0.506824 -0.804343
vt 0.500692 -0.767559
vt 0.496762 -0.769132
vt 0.576321 -0.893832
vt 0.563586 -0.881404
vt 0.561043 -0.885917
vt 0.175135 1.363748
vt 0.177703 1.360713
vt 0.515253 -0.831022
vt 0.519324 -0.828558
vt 0.482306 -0.701401
vt 0.492682 -0.733862
vt 0.486462 -0.700252
vt 0.736709 -0.578333
vt 0.745719 -0.573838
vt 0.536438 -0.870196
vt 0.488674 -0.735113
vt 0.510881 -0.802337
vt 0.168359 1.326274
vt 0.171630 1.337455
vt 0.180797 0.480713
vt 0.303376 0.666825
vt 0.140484 0.656087
vt 0.365440 -0.190361
vt 0.412382 -0.079741
vt 0.337837 -0.071016
vt 0.261826 0.194350
vt 0.351888 0.347306
vt 0.218598 0.339883
vt 0.258150 1.008269
vt 0.100787 0.828369
vt 0.279776 0.840675
vt 0.133897 0.470995
vt 0.092084 0.646405
vt 0.330747 -0.168210
vt 0.299090 -0.064527
vt 0.400593 0.059485
vt 0.214617 0.191020
vt 0.171828 0.329590
vt 0.053070 0.819074
vt 0.056802 1.008808
vt 0.012672 1.008516
vt 0.301106 0.066731
vt 0.377986 0.195768
vt 0.205394 0.063799
vt 0.186386 0.186883
vt 0.157523 0.186368
vt 0.105318 0.463406
vt 0.314835 -0.150120
vt 0.281457 -0.061838
vt 0.142995 0.320855
vt -0.008985 0.994655
vt 0.026989 0.810405
vt 0.255815 0.068694
vt 0.229820 0.067664
vt 0.063867 0.639997
vt 0.077212 0.457765
vt 0.300268 -0.133403
vt 0.266065 -0.060819
vt 0.114579 0.313811
vt -0.037590 0.960817
vt -0.004298 0.800647
vt 0.033529 0.635299
vt 0.328404 0.490881
vt 0.420109 -0.207401
vt 0.892604 -0.645923
vt 0.919980 -0.681858
vt 0.929154 -0.647546
vt 0.867306 -0.789275
vt 0.877384 -0.810781
vt 0.883557 -0.787488
vt 0.881474 -0.707895
vt 0.901634 -0.736937
vt 0.911450 -0.709064
vt 0.938249 -0.613808
vt 0.902898 -0.578896
vt 0.898008 -0.611908
vt 0.929449 -0.683294
vt 0.939021 -0.648993
vt 0.884353 -0.806179
vt 0.891897 -0.786051
vt 0.870131 -0.762707
vt 0.911401 -0.737203
vt 0.920852 -0.710636
vt 0.948417 -0.578122
vt 0.948004 -0.615122
vt 0.957393 -0.577632
vt 0.875431 -0.736904
vt 0.892487 -0.761070
vt 0.913023 -0.760933
vt 0.916957 -0.737664
vt 0.907164 -0.760334
vt 0.935344 -0.684477
vt 0.945052 -0.650028
vt 0.887717 -0.802728
vt 0.895408 -0.785327
vt 0.926627 -0.712017
vt 0.961495 -0.580098
vt 0.953451 -0.616577
vt 0.902027 -0.760413
vt 0.941506 -0.685421
vt 0.951765 -0.650831
vt 0.890354 -0.799093
vt 0.898387 -0.785001
vt 0.923159 -0.737709
vt 0.932855 -0.713273
vt 0.967631 -0.586636
vt 0.960349 -0.618375
vt 0.886849 -0.680250
vt 0.865591 -0.814047
vt 0.172471 1.303840
vt 0.168526 1.314845
vt 0.169435 1.302742
vt 0.895085 -0.549716
vt 0.940240 -0.553534
vt 0.941119 -0.548736
vt 0.171836 1.295281
vt 0.948758 -0.556019
vt 0.950739 -0.551559
vt 0.146512 1.038756
vt 0.070243 1.083730
vt 0.061790 1.072957
vt 0.173567 1.292054
vt 0.175030 1.297647
vt 0.955422 -0.554379
vt 0.528349 1.042318
vt 0.369056 1.020898
vt 0.526505 1.021065
vt -0.016703 1.189047
vt -0.083165 1.233531
vt -0.032344 1.170433
vt 0.175135 1.288799
vt 0.176352 1.294456
vt 0.248802 1.024678
vt 0.154660 1.061639
vt 0.823568 1.045154
vt 0.677105 1.050336
vt 0.676688 1.029154
vt 0.952633 -0.558386
vt 0.962490 -0.560450
vt 0.254160 1.047853
vt 0.171630 1.315093
vt 0.748923 -0.617129
vt 0.578681 -0.889220
vt 0.740710 -0.581128
vt 0.171472 1.326274
vt 0.895222 -0.554594
vt 0.372539 1.043368
vt -0.066900 1.251389
vt 0.177703 1.291835
vt 0.823388 1.066912
vt 0.959328 -0.564168
vt 1.505756 -0.678360
vt 1.553847 -0.684432
vt 1.554038 -0.681308
vt 1.348699 -0.703034
vt 1.392279 -0.715711
vt 1.347525 -0.700128
vt 1.490516 -0.737260
vt 1.535835 -0.734781
vt 1.537636 -0.732216
vt 1.458385 -0.675469
vt 1.505566 -0.681484
vt 1.391507 -0.718277
vt 1.436211 -0.726597
vt 1.445260 -0.737916
vt 1.490687 -0.739934
vt 1.421346 -0.673207
vt 1.458194 -0.678592
vt 1.435772 -0.729231
vt 1.473330 -0.729896
vt 1.408358 -0.732724
vt 1.445091 -0.740581
vt 1.386191 -0.671061
vt 1.421156 -0.676331
vt 1.473354 -0.732538
vt 1.512626 -0.725783
vt 1.371014 -0.719819
vt 1.407737 -0.735290
vt 1.501493 -0.714199
vt 1.469415 -0.710599
vt 1.469415 -0.714199
vt 1.545184 -0.716741
vt 1.513204 -0.728292
vt 1.341349 -0.703639
vt 1.369883 -0.722132
vt 1.556683 -0.681469
vt 1.504531 -0.710599
vt 1.504531 -0.714199
vt 1.386000 -0.674185
vt 1.501493 -0.710599
vt 1.545842 -0.714307
vt 1.341259 -0.701120
vt 1.556492 -0.684593
vt 2.497996 0.207044
vt 2.500275 0.206586
vt 2.500066 0.207764
vt 2.502257 0.207796
vt 2.504000 0.206260
vt 2.504409 0.207385
vt 2.507147 0.204184
vt 2.506322 0.206316
vt 2.505721 0.205458
vt 2.494903 0.196380
vt 2.493304 0.197804
vt 2.493954 0.195937
vt 2.493210 0.200028
vt 2.494737 0.201941
vt 2.493614 0.202350
vt 2.495540 0.203662
vt 2.496114 0.205923
vt 2.494682 0.204263
vt 2.498437 0.206052
vt 2.502189 0.206630
vt 2.495110 0.194084
vt 2.494264 0.199937
vt 2.503757 0.204828
vt 2.502487 0.205796
vt 2.494469 0.198003
vt 2.500243 0.198682
vt 2.500351 0.200107
vt 2.503081 0.201078
vt 2.956617 0.297260
vt 2.955259 0.295422
vt 2.956617 0.295422
vt 2.986062 0.179785
vt 2.987448 0.177592
vt 2.987448 0.179785
vt 2.411067 0.762883
vt 2.412363 0.761035
vt 2.412363 0.762883
vt 2.452139 0.862717
vt 2.453486 0.864996
vt 2.452139 0.864996
vt 2.371853 0.079540
vt 2.373789 0.078229
vt 2.373789 0.079540
vt 2.452139 0.858579
vt 2.453486 0.860553
vt 2.452139 0.860553
vt 2.108169 0.963510
vt 2.109538 0.965600
vt 2.108169 0.965600
vt 2.980928 0.426159
vt 2.982245 0.424065
vt 2.982245 0.426159
vt 2.986062 0.188538
vt 2.987448 0.186607
vt 2.987448 0.188538
vt 2.956617 0.301198
vt 2.955259 0.299213
vt 2.956617 0.299213
vt 2.986062 0.184415
vt 2.987448 0.182099
vt 2.987448 0.184415
vt 2.986062 0.182099
vt 2.955259 0.297260
vt 2.986062 0.177592
vt 2.987448 0.175773
vt 2.955259 0.293852
vt 2.956617 0.293852
vt 2.453486 0.862717
vt 2.108169 0.967852
vt 2.987929 0.423505
vt 2.989851 0.422199
vt 2.989851 0.423505
vt 2.109538 0.961256
vt 2.109538 0.963510
vt 2.980928 0.422199
vt 2.980928 0.424065
vt 2.986062 0.186607
vt 2.986062 0.210912
vt 2.987356 0.201442
vt 2.987356 0.210912
vt 2.986062 0.310837
vt 2.987356 0.318105
vt 2.986062 0.318105
vt 2.934723 0.319522
vt 2.936018 0.325337
vt 2.934723 0.325337
vt 2.488076 0.966390
vt 2.489371 0.972636
vt 2.488076 0.972636
vt 2.258346 0.946077
vt 2.257051 0.945855
vt 2.258346 0.945855
vt 2.382752 0.705858
vt 2.381508 0.704562
vt 2.382752 0.704562
vt 2.987356 0.309254
vt 2.987356 0.310837
vt 2.872696 0.069257
vt 2.867983 0.067962
vt 2.872696 0.067962
vt 2.493210 0.021757
vt 2.498325 0.023052
vt 2.493210 0.023052
vt 2.385398 0.714830
vt 2.386462 0.716125
vt 2.385398 0.716125
vt 2.031629 -0.488583
vt 2.031395 -0.489877
vt 2.031629 -0.489877
vt 2.500386 0.198511
vt 2.500524 0.198627
vt 2.501396 0.200749
vt 2.502082 0.199934
vt 2.502725 0.200474
vt 2.508376 0.194676
vt 2.508319 0.196998
vt 2.507473 0.195282
vt 2.509855 0.198741
vt 2.508645 0.200724
vt 2.508694 0.198876
vt 2.509103 0.203002
vt 2.507981 0.204884
vt 2.498459 0.191660
vt 2.497336 0.193482
vt 2.496734 0.192623
vt 2.500634 0.191180
vt 2.502784 0.192353
vt 2.500728 0.192234
vt 2.506943 0.193017
vt 2.504617 0.192844
vt 2.505060 0.191895
vt 2.509443 0.196589
vt 2.508154 0.202559
vt 2.509823 0.200933
vt 2.502991 0.191175
vt 2.507193 0.200733
vt 2.498859 0.192772
vt 2.500529 0.198341
vt 2.503381 0.200719
vt 2.361298 0.057694
vt 2.363136 0.059052
vt 2.361298 0.059052
vt 2.313524 0.189662
vt 2.314909 0.191855
vt 2.313524 0.191855
vt 2.262185 0.084658
vt 2.264034 0.083363
vt 2.264034 0.084658
vt 2.426469 0.793122
vt 2.427816 0.790842
vt 2.427816 0.793122
vt 2.369997 0.078229
vt 2.369997 0.079540
vt 2.426469 0.788679
vt 2.427816 0.786704
vt 2.427816 0.788679
vt 2.109538 0.969875
vt 2.108169 0.971436
vt 2.108169 0.969875
vt 2.482942 0.073095
vt 2.484258 0.075189
vt 2.482942 0.075189
vt 2.313524 0.180907
vt 2.314909 0.182838
vt 2.313524 0.182838
vt 2.365089 0.059052
vt 2.367074 0.057694
vt 2.367074 0.059052
vt 2.313524 0.185030
vt 2.314909 0.187346
vt 2.313524 0.187346
vt 2.363136 0.057694
vt 2.314909 0.193675
vt 2.313524 0.193675
vt 2.359729 0.057694
vt 2.359729 0.059052
vt 2.109538 0.967852
vt 2.986062 0.422199
vt 2.986062 0.423505
vt 2.108169 0.796972
vt 2.109464 0.799198
vt 2.108169 0.799198
vt 2.482942 0.077055
vt 2.314909 0.185030
vt 2.226248 0.396530
vt 2.227542 0.405999
vt 2.226248 0.405999
vt 2.986062 0.338639
vt 2.987356 0.331372
vt 2.987356 0.338639
vt 2.934723 0.345871
vt 2.936018 0.340057
vt 2.936018 0.345871
vt 2.441871 0.916164
vt 2.443166 0.909918
vt 2.443166 0.916164
vt 2.257051 0.946299
vt 2.258346 0.946299
vt 2.380264 0.704562
vt 2.381508 0.705858
vt 2.380264 0.705858
vt 2.986062 0.329789
vt 2.987356 0.329789
vt 2.533860 0.023052
vt 2.529147 0.021757
vt 2.533860 0.021757
vt 2.405934 0.048721
vt 2.411049 0.047426
vt 2.411049 0.048721
vt 2.387527 0.714830
vt 2.386462 0.714830
vt 2.031161 -0.488583
vt 2.031395 -0.488583
vt 2.501951 0.198200
vt 2.501151 0.199152
vt 2.502765 0.199118
vt 2.560390 0.836921
vt 2.542005 0.846034
vt 2.542005 0.836921
vt 2.561301 0.755358
vt 2.579955 0.761629
vt 2.562382 0.765307
vt 2.580630 0.773534
vt 2.589813 0.794021
vt 2.580630 0.794021
vt 2.550917 0.811556
vt 2.531301 0.813129
vt 2.534755 0.803737
vt 2.517242 0.799376
vt 2.526553 0.795447
vt 2.580630 0.811910
vt 2.544334 0.765302
vt 2.531580 0.836921
vt 2.517353 0.783644
vt 2.526243 0.785099
vt 2.658494 0.839479
vt 2.649299 0.823338
vt 2.658494 0.823338
vt 2.552417 0.771366
vt 2.540635 0.780593
vt 2.647063 0.837503
vt 2.637980 0.827111
vt 2.647063 0.827111
vt 2.523283 0.767462
vt 2.540286 0.762517
vt 2.529856 0.774087
vt 2.658494 0.857568
vt 2.649299 0.874791
vt 2.649299 0.857568
vt 2.542475 0.797729
vt 2.557776 0.806640
vt 2.553591 0.814045
vt 2.647063 0.849556
vt 2.637980 0.863894
vt 2.637980 0.849556
vt 2.550455 0.792890
vt 2.549613 0.781332
vt 2.538016 0.754320
vt 2.551270 0.760075
vt 2.658494 0.874791
vt 2.649299 0.886494
vt 2.567843 0.811667
vt 2.564678 0.819561
vt 2.647063 0.874392
vt 2.637980 0.874392
vt 2.560390 0.846034
vt 2.589813 0.773534
vt 2.549441 0.820696
vt 2.649299 0.839479
vt 2.637980 0.837503
vt 2.647063 0.863894
vt 2.496884 0.205005
vt 2.495945 0.194785
vt 2.411067 0.761035
vt 2.371853 0.078229
vt 2.453486 0.858579
vt 2.955259 0.301198
vt 2.986062 0.175773
vt 2.987929 0.422199
vt 2.108169 0.961256
vt 2.982245 0.422199
vt 2.986062 0.201442
vt 2.936018 0.319522
vt 2.489371 0.966390
vt 2.257051 0.946077
vt 2.986062 0.309254
vt 2.867983 0.069257
vt 2.498325 0.021757
vt 2.503232 0.200899
vt 2.506172 0.193934
vt 2.507924 0.199315
vt 2.314909 0.189662
vt 2.262185 0.083363
vt 2.426469 0.790842
vt 2.426469 0.786704
vt 2.109538 0.971436
vt 2.484258 0.073095
vt 2.314909 0.180907
vt 2.365089 0.057694
vt 2.109464 0.796972
vt 2.484258 0.077055
vt 2.227542 0.396530
vt 2.986062 0.331372
vt 2.934723 0.340057
vt 2.441871 0.909918
vt 2.529147 0.023052
vt 2.405934 0.047426
vt 2.387527 0.716125
vt 2.031161 -0.489877
vt 2.580734 0.752405
vt 2.589813 0.811910
vt 2.531580 0.846034
vt 2.550109 0.751650
vt 2.658494 0.886494
vt 3.338500 0.854468
vt 3.322437 0.848127
vt 3.338498 0.848127
vt 3.322437 0.860809
vt 3.338498 0.860809
vt 3.759706 0.089246
vt 3.765725 0.087999
vt 3.765725 0.089588
vt 3.788224 0.943527
vt 3.794246 0.944775
vt 3.788315 0.945113
vt 3.705636 0.347757
vt 3.707601 0.331306
vt 3.707344 0.347799
vt 3.693789 0.109393
vt 3.708577 0.101918
vt 3.709202 0.103509
vt 3.800265 0.943527
vt 3.794246 0.943186
vt 3.771747 0.089246
vt 3.771655 0.087660
vt 3.617808 0.338402
vt 3.626920 0.344915
vt 3.623644 0.348225
vt 3.103465 0.600015
vt 3.094305 0.601232
vt 3.094570 0.596222
vt 3.713444 0.339213
vt 3.708071 0.331263
vt 3.713444 0.331263
vt 3.723215 0.320638
vt 3.715342 0.315800
vt 3.725012 0.315954
vt 3.619172 0.349520
vt 3.612876 0.330278
vt 3.621704 0.336136
vt 3.108860 0.606301
vt 3.101347 0.604612
vt 3.708071 0.344386
vt 3.708071 0.339213
vt 3.715407 0.320861
vt 3.707856 0.319348
vt 3.613954 0.340741
vt 3.612832 0.318348
vt 3.617758 0.329323
vt 3.112144 0.616481
vt 3.104789 0.609375
vt 3.553193 0.593776
vt 3.559555 0.588371
vt 3.559555 0.593776
vt 3.710327 0.323813
vt 3.700714 0.327311
vt 3.607797 0.329364
vt 3.619360 0.306055
vt 3.617800 0.318887
vt 3.109568 0.628645
vt 3.107063 0.617186
vt 3.542483 0.593776
vt 3.553193 0.588371
vt 3.705073 0.330023
vt 3.698122 0.339472
vt 3.609765 0.314719
vt 3.625952 0.293453
vt 3.623636 0.307555
vt 3.104679 0.640126
vt 3.104620 0.627540
vt 3.531453 0.593776
vt 3.542483 0.588371
vt 3.703091 0.340476
vt 3.697918 0.351949
vt 3.615688 0.303398
vt 3.638763 0.278609
vt 3.629713 0.295938
vt 3.094297 0.648639
vt 3.100343 0.637420
vt 3.518433 0.588381
vt 3.531453 0.588371
vt 3.703941 0.363952
vt 3.702979 0.351242
vt 3.630843 0.274466
vt 3.621766 0.291781
vt 3.716762 0.347804
vt 3.715103 0.352573
vt 3.709731 0.352573
vt 3.518433 0.593767
vt 3.511667 0.595431
vt 3.322439 0.854468
vt 3.759797 0.087660
vt 3.705892 0.331263
vt 3.693165 0.107802
vt 3.800174 0.945113
vt 3.713444 0.344386
vt 3.609916 0.333945
vt 3.607613 0.318964
vt 3.636641 0.273024
vt 3.094473 0.655949
vt 3.700807 0.370554
vt 3.708071 0.347804
vt 3.712416 0.344857
vt 3.507801 0.591074
vt 3.511667 0.586717
s 1
g off
g Front_1
usemtl 1
f 13/1/1 40/2/2 12/3/3
f 9/4/4 35/5/5 8/6/6
f 11/7/7 45/8/8 10/9/9
f 7/10/10 14/11/11 6/12/12
f 21/13/13 39/14/14 13/1/1
f 113/15/15 40/2/2 15/16/16
f 24/17/17 34/18/18 9/4/4
f 117/19/19 18/20/20 10/9/9
f 22/21/21 44/22/22 11/7/7
f 122/23/23 45/8/8 12/3/3
f 123/24/24 15/16/16 7/10/10
f 20/25/25 6/12/12 14/11/11
f 17/26/26 10/9/9 18/20/20
f 28/27/27 16/28/28 3/29/29
f 27/30/30 38/31/31 21/13/13
f 30/32/32 33/33/33 24/17/17
f 28/27/27 43/34/34 22/21/21
f 20/25/25 25/35/35 19/36/36
f 11/7/7 23/37/37 22/21/21
f 22/21/21 29/38/38 28/27/27
f 4/39/39 37/40/40 27/30/30
f 2/41/41 32/42/42 30/32/32
f 3/29/29 42/43/43 28/27/27
f 26/44/44 1/45/45 25/35/35
f 34/18/18 18/20/20 35/5/5
f 33/33/33 17/26/26 34/18/18
f 32/42/42 23/37/37 33/33/33
f 31/46/46 29/38/38 32/42/42
f 39/14/14 15/16/16 40/2/2
f 14/11/11 38/31/31 20/25/25
f 20/25/25 37/40/40 26/44/44
f 26/44/44 36/47/47 5/48/48
f 44/22/22 12/3/3 45/8/8
f 43/34/34 13/1/1 44/22/22
f 21/13/13 42/43/43 27/30/30
f 27/30/30 41/49/49 4/39/39
f 35/5/5 118/50/50 47/51/51
f 8/6/6 47/51/51 146/52/52
f 12/3/3 114/53/53 122/23/23
f 10/9/9 46/54/54 117/19/19
f 87/55/55 60/56/56 59/57/57
f 82/58/58 56/59/59 55/60/60
f 92/61/61 58/62/62 57/63/63
f 61/64/64 54/65/65 53/66/66
f 86/67/67 68/68/68 60/56/56
f 87/55/55 166/69/69 62/70/70
f 81/71/71 71/72/72 56/59/59
f 65/73/73 170/74/74 57/63/63
f 91/75/75 69/76/76 58/62/62
f 92/61/61 173/77/77 59/57/57
f 62/70/70 174/78/78 54/65/65
f 53/66/66 67/79/79 61/64/64
f 57/63/63 64/80/80 65/73/73
f 75/81/81 63/82/82 76/83/83
f 74/84/84 85/85/85 84/86/86
f 80/87/87 77/88/88 71/72/72
f 90/89/89 75/81/81 69/76/76
f 72/90/90 67/79/79 66/91/91
f 70/92/92 58/62/62 69/76/76
f 69/76/76 76/83/83 70/92/92
f 51/93/93 84/86/86 83/94/94
f 79/95/95 49/96/96 77/88/88
f 89/97/97 50/98/98 75/81/81
f 48/99/99 73/100/100 72/90/90
f 65/73/73 81/71/71 82/58/58
f 64/80/80 80/87/87 81/71/71
f 70/92/92 79/95/95 80/87/87
f 76/83/83 78/101/101 79/95/95
f 62/70/70 86/67/67 87/55/55
f 61/64/64 85/85/85 86/67/67
f 67/79/79 84/86/86 85/85/85
f 73/100/100 83/94/94 84/86/86
f 59/57/57 91/75/75 92/61/61
f 60/56/56 90/89/89 91/75/75
f 68/68/68 89/97/97 90/89/89
f 74/84/84 88/102/102 89/97/97
f 93/103/103 82/58/58 197/104/104
f 197/104/104 55/60/60 198/105/105
f 165/106/106 59/57/57 173/77/77
f 94/107/107 57/63/63 170/74/74
f 8/108/6 56/109/59 9/110/4
f 7/111/10 53/112/66 54/113/65
f 24/114/17 56/109/59 71/115/72
f 7/111/10 174/116/78 123/117/24
f 6/118/12 66/119/91 53/112/66
f 3/120/29 63/121/82 50/122/98
f 30/123/32 71/115/72 77/124/88
f 25/125/35 66/119/91 19/126/36
f 4/127/39 83/128/94 36/129/47
f 2/130/41 78/131/101 31/132/46
f 2/133/41 77/124/88 49/134/96
f 41/135/49 50/122/98 88/136/102
f 1/137/45 52/138/108 48/139/99
f 1/140/45 72/141/90 25/125/35
f 16/142/28 78/131/101 63/121/82
f 5/143/48 83/128/94 52/138/108
f 4/127/39 88/136/102 51/144/93
f 146/145/52 55/146/60 8/108/6
f 95/147/109 97/148/110 96/149/111
f 99/150/112 101/151/113 100/152/114
f 103/153/115 105/154/116 104/155/117
f 107/156/118 109/157/119 108/158/120
f 111/159/121 96/149/111 112/160/122
f 113/15/15 97/148/110 114/53/53
f 115/161/123 100/152/114 116/162/124
f 117/19/19 119/163/125 118/50/50
f 120/164/126 104/155/117 121/165/127
f 122/23/23 105/154/116 46/54/54
f 123/24/24 108/158/120 113/15/15
f 124/166/128 110/167/129 125/168/130
f 126/169/131 106/170/132 103/153/115
f 130/171/133 128/172/134 127/173/135
f 112/160/122 131/174/136 111/159/121
f 133/175/137 116/162/124 134/176/138
f 128/172/134 121/165/127 135/177/139
f 124/166/128 137/178/140 136/179/141
f 103/153/115 138/180/142 126/169/131
f 129/181/143 120/164/126 128/172/134
f 132/182/144 139/183/145 131/174/136
f 141/184/146 134/176/138 142/185/147
f 127/173/135 135/177/139 143/186/148
f 136/179/141 145/187/149 144/188/150
f 100/152/114 119/163/125 126/169/131
f 116/162/124 126/169/131 138/180/142
f 134/176/138 138/180/142 129/181/143
f 142/185/147 129/181/143 130/171/133
f 96/149/111 108/158/120 109/157/119
f 112/160/122 109/157/119 124/166/128
f 132/182/144 124/166/128 136/179/141
f 140/189/151 136/179/141 144/188/150
f 104/155/117 98/190/152 95/147/109
f 121/165/127 95/147/109 111/159/121
f 135/177/139 111/159/121 131/174/136
f 143/186/148 131/174/136 139/183/145
f 101/151/113 118/50/50 119/163/125
f 102/191/153 47/51/51 101/151/113
f 98/190/152 114/53/53 97/148/110
f 106/170/132 46/54/54 105/154/116
f 147/192/154 149/193/155 148/194/156
f 151/195/157 153/196/158 152/197/159
f 155/198/160 157/199/161 156/200/162
f 159/201/163 161/202/164 160/203/165
f 148/194/156 164/204/166 163/205/167
f 147/192/154 166/69/69 165/106/106
f 152/197/159 168/206/168 167/207/169
f 169/208/170 170/74/74 93/103/103
f 156/200/162 172/209/171 171/210/172
f 155/198/160 173/77/77 94/107/107
f 160/203/165 174/78/78 166/69/69
f 162/211/173 176/212/174 175/213/175
f 158/214/176 177/215/177 157/199/161
f 181/216/178 179/217/179 178/218/180
f 163/205/167 183/219/181 182/220/182
f 167/207/169 185/221/183 184/222/184
f 171/210/172 179/217/179 186/223/185
f 187/224/186 176/212/174 188/225/187
f 189/226/188 157/199/161 177/215/177
f 178/218/180 172/209/171 189/226/188
f 182/220/182 191/227/189 190/228/190
f 184/222/184 193/229/191 192/230/192
f 186/223/185 180/231/193 194/232/194
f 195/233/195 188/225/187 196/234/196
f 169/208/170 152/197/159 177/215/177
f 177/215/177 167/207/169 189/226/188
f 189/226/188 184/222/184 178/218/180
f 178/218/180 192/230/192 181/216/178
f 160/203/165 148/194/156 159/201/163
f 163/205/167 159/201/163 148/194/156
f 182/220/182 176/212/174 163/205/167
f 190/228/190 188/225/187 182/220/182
f 150/235/197 156/200/162 149/193/155
f 149/193/155 171/210/172 164/204/166
f 186/223/185 164/204/166 171/210/172
f 194/232/194 183/219/181 186/223/185
f 93/103/103 151/195/157 169/208/170
f 197/104/104 154/236/198 151/195/157
f 165/106/106 150/235/197 147/192/154
f 94/107/107 158/214/176 155/198/160
f 153/237/158 102/238/153 99/239/112
f 107/240/118 162/241/173 110/242/129
f 115/243/123 153/237/158 99/239/112
f 174/116/78 107/240/118 123/117/24
f 110/242/129 175/244/175 125/245/130
f 127/246/135 181/247/178 130/248/133
f 133/249/137 168/250/168 115/243/123
f 175/244/175 137/251/140 125/245/130
f 190/252/190 139/253/145 140/254/151
f 192/255/192 141/256/146 142/257/147
f 141/258/146 185/259/183 133/249/137
f 143/260/148 180/261/193 127/246/135
f 145/262/149 196/263/196 144/264/150
f 187/265/186 145/266/149 137/251/140
f 130/248/133 192/255/192 142/257/147
f 144/264/150 190/252/190 140/254/151
f 139/253/145 194/267/194 143/260/148
f 154/268/198 146/145/52 102/238/153
f 13/1/1 39/14/14 40/2/2
f 9/4/4 34/18/18 35/5/5
f 11/7/7 44/22/22 45/8/8
f 7/10/10 15/16/16 14/11/11
f 21/13/13 38/31/31 39/14/14
f 113/15/15 114/53/53 40/2/2
f 24/17/17 33/33/33 34/18/18
f 117/19/19 118/50/50 18/20/20
f 22/21/21 43/34/34 44/22/22
f 122/23/23 46/54/54 45/8/8
f 123/24/24 113/15/15 15/16/16
f 20/25/25 19/36/36 6/12/12
f 17/26/26 11/7/7 10/9/9
f 28/27/27 29/38/38 16/28/28
f 27/30/30 37/40/40 38/31/31
f 30/32/32 32/42/42 33/33/33
f 28/27/27 42/43/43 43/34/34
f 20/25/25 26/44/44 25/35/35
f 11/7/7 17/26/26 23/37/37
f 22/21/21 23/37/37 29/38/38
f 4/39/39 36/47/47 37/40/40
f 2/41/41 31/46/46 32/42/42
f 3/29/29 41/49/49 42/43/43
f 26/44/44 5/48/48 1/45/45
f 34/18/18 17/26/26 18/20/20
f 33/33/33 23/37/37 17/26/26
f 32/42/42 29/38/38 23/37/37
f 31/46/46 16/28/28 29/38/38
f 39/14/14 14/11/11 15/16/16
f 14/11/11 39/14/14 38/31/31
f 20/25/25 38/31/31 37/40/40
f 26/44/44 37/40/40 36/47/47
f 44/22/22 13/1/1 12/3/3
f 43/34/34 21/13/13 13/1/1
f 21/13/13 43/34/34 42/43/43
f 27/30/30 42/43/43 41/49/49
f 35/5/5 18/20/20 118/50/50
f 8/6/6 35/5/5 47/51/51
f 12/3/3 40/2/2 114/53/53
f 10/9/9 45/8/8 46/54/54
f 87/55/55 86/67/67 60/56/56
f 82/58/58 81/71/71 56/59/59
f 92/61/61 91/75/75 58/62/62
f 61/64/64 62/70/70 54/65/65
f 86/67/67 85/85/85 68/68/68
f 87/55/55 165/106/106 166/69/69
f 81/71/71 80/87/87 71/72/72
f 65/73/73 93/103/103 170/74/74
f 91/75/75 90/89/89 69/76/76
f 92/61/61 94/107/107 173/77/77
f 62/70/70 166/69/69 174/78/78
f 53/66/66 66/91/91 67/79/79
f 57/63/63 58/62/62 64/80/80
f 75/81/81 50/98/98 63/82/82
f 74/84/84 68/68/68 85/85/85
f 80/87/87 79/95/95 77/88/88
f 90/89/89 89/97/97 75/81/81
f 72/90/90 73/100/100 67/79/79
f 70/92/92 64/80/80 58/62/62
f 69/76/76 75/81/81 76/83/83
f 51/93/93 74/84/84 84/86/86
f 79/95/95 78/101/101 49/96/96
f 89/97/97 88/102/102 50/98/98
f 48/99/99 52/269/108 73/100/100
f 65/73/73 64/80/80 81/71/71
f 64/80/80 70/92/92 80/87/87
f 70/92/92 76/83/83 79/95/95
f 76/83/83 63/82/82 78/101/101
f 62/70/70 61/64/64 86/67/67
f 61/64/64 67/79/79 85/85/85
f 67/79/79 73/100/100 84/86/86
f 73/100/100 52/269/108 83/94/94
f 59/57/57 60/56/56 91/75/75
f 60/56/56 68/68/68 90/89/89
f 68/68/68 74/84/84 89/97/97
f 74/84/84 51/93/93 88/102/102
f 93/103/103 65/73/73 82/58/58
f 197/104/104 82/58/58 55/60/60
f 165/106/106 87/55/55 59/57/57
f 94/107/107 92/61/61 57/63/63
f 8/108/6 55/146/60 56/109/59
f 7/111/10 6/118/12 53/112/66
f 24/114/17 9/110/4 56/109/59
f 7/111/10 54/113/65 174/116/78
f 6/118/12 19/126/36 66/119/91
f 3/120/29 16/142/28 63/121/82
f 30/123/32 24/114/17 71/115/72
f 25/125/35 72/141/90 66/119/91
f 4/127/39 51/144/93 83/128/94
f 2/130/41 49/270/96 78/131/101
f 2/133/41 30/123/32 77/124/88
f 41/135/49 3/120/29 50/122/98
f 1/137/45 5/143/48 52/138/108
f 1/140/45 48/271/99 72/141/90
f 16/142/28 31/132/46 78/131/101
f 5/143/48 36/129/47 83/128/94
f 4/127/39 41/135/49 88/136/102
f 146/145/52 198/272/105 55/146/60
f 95/147/109 98/190/152 97/148/110
f 99/150/112 102/191/153 101/151/113
f 103/153/115 106/170/132 105/154/116
f 107/156/118 110/167/129 109/157/119
f 111/159/121 95/147/109 96/149/111
f 113/15/15 108/158/120 97/148/110
f 115/161/123 99/150/112 100/152/114
f 117/19/19 106/170/132 119/163/125
f 120/164/126 103/153/115 104/155/117
f 122/23/23 98/190/152 105/154/116
f 123/24/24 107/156/118 108/158/120
f 124/166/128 109/157/119 110/167/129
f 126/169/131 119/163/125 106/170/132
f 130/171/133 129/181/143 128/172/134
f 112/160/122 132/182/144 131/174/136
f 133/175/137 115/161/123 116/162/124
f 128/172/134 120/164/126 121/165/127
f 124/166/128 125/168/130 137/178/140
f 103/153/115 120/164/126 138/180/142
f 129/181/143 138/180/142 120/164/126
f 132/182/144 140/189/151 139/183/145
f 141/184/146 133/175/137 134/176/138
f 127/173/135 128/172/134 135/177/139
f 136/179/141 137/178/140 145/187/149
f 100/152/114 101/151/113 119/163/125
f 116/162/124 100/152/114 126/169/131
f 134/176/138 116/162/124 138/180/142
f 142/185/147 134/176/138 129/181/143
f 96/149/111 97/148/110 108/158/120
f 112/160/122 96/149/111 109/157/119
f 132/182/144 112/160/122 124/166/128
f 140/189/151 132/182/144 136/179/141
f 104/155/117 105/154/116 98/190/152
f 121/165/127 104/155/117 95/147/109
f 135/177/139 121/165/127 111/159/121
f 143/186/148 135/177/139 131/174/136
f 101/151/113 47/51/51 118/50/50
f 102/191/153 146/52/52 47/51/51
f 98/190/152 122/23/23 114/53/53
f 106/170/132 117/19/19 46/54/54
f 147/192/154 150/235/197 149/193/155
f 151/195/157 154/236/198 153/196/158
f 155/198/160 158/214/176 157/199/161
f 159/201/163 162/211/173 161/202/164
f 148/194/156 149/193/155 164/204/166
f 147/192/154 160/203/165 166/69/69
f 152/197/159 153/196/158 168/206/168
f 169/208/170 158/214/176 170/74/74
f 156/200/162 157/199/161 172/209/171
f 155/198/160 150/235/197 173/77/77
f 160/203/165 161/202/164 174/78/78
f 162/211/173 159/201/163 176/212/174
f 158/214/176 169/208/170 177/215/177
f 181/216/178 180/231/193 179/217/179
f 163/205/167 164/204/166 183/219/181
f 167/207/169 168/206/168 185/221/183
f 171/210/172 172/209/171 179/217/179
f 187/224/186 175/213/175 176/212/174
f 189/226/188 172/209/171 157/199/161
f 178/218/180 179/217/179 172/209/171
f 182/220/182 183/219/181 191/227/189
f 184/222/184 185/221/183 193/229/191
f 186/223/185 179/217/179 180/231/193
f 195/233/195 187/224/186 188/225/187
f 169/208/170 151/195/157 152/197/159
f 177/215/177 152/197/159 167/207/169
f 189/226/188 167/207/169 184/222/184
f 178/218/180 184/222/184 192/230/192
f 160/203/165 147/192/154 148/194/156
f 163/205/167 176/212/174 159/201/163
f 182/220/182 188/225/187 176/212/174
f 190/228/190 196/234/196 188/225/187
f 150/235/197 155/198/160 156/200/162
f 149/193/155 156/200/162 171/210/172
f 186/223/185 183/219/181 164/204/166
f 194/232/194 191/227/189 183/219/181
f 93/103/103 197/104/104 151/195/157
f 197/104/104 198/105/105 154/236/198
f 165/106/106 173/77/77 150/235/197
f 94/107/107 170/74/74 158/214/176
f 153/237/158 154/268/198 102/238/153
f 107/240/118 161/273/164 162/241/173
f 115/243/123 168/250/168 153/237/158
f 174/116/78 161/273/164 107/240/118
f 110/242/129 162/241/173 175/244/175
f 127/246/135 180/261/193 181/247/178
f 133/249/137 185/259/183 168/250/168
f 175/244/175 187/265/186 137/251/140
f 190/252/190 191/274/189 139/253/145
f 192/255/192 193/275/191 141/256/146
f 141/258/146 193/276/191 185/259/183
f 143/260/148 194/267/194 180/261/193
f 145/262/149 195/277/195 196/263/196
f 187/265/186 195/278/195 145/266/149
f 130/248/133 181/247/178 192/255/192
f 144/264/150 196/263/196 190/252/190
f 139/253/145 191/274/189 194/267/194
f 154/268/198 198/272/105 146/145/52
s 2
g Front_2
usemtl 2
f 203/279/199 200/280/200 199/281/201
f 200/282/200 205/283/202 201/284/203
f 206/285/204 199/286/201 202/287/205
f 207/288/206 204/289/207 203/279/199
f 204/290/207 209/291/202 205/283/202
f 210/292/204 203/293/199 206/285/204
f 211/294/208 208/295/209 207/288/206
f 208/296/209 213/297/202 209/291/202
f 214/298/204 207/299/206 210/292/204
f 215/300/210 212/301/211 211/294/208
f 212/302/211 217/303/202 213/297/202
f 218/304/204 211/305/208 214/298/204
f 219/306/212 216/307/213 215/308/210
f 220/309/214 217/303/202 216/310/213
f 218/304/204 219/311/212 215/312/210
f 200/280/200 202/313/205 199/281/201
f 221/314/215 219/306/212 222/315/216
f 203/279/199 204/289/207 200/280/200
f 200/282/200 204/290/207 205/283/202
f 206/285/204 203/293/199 199/286/201
f 207/288/206 208/295/209 204/289/207
f 204/290/207 208/296/209 209/291/202
f 210/292/204 207/299/206 203/293/199
f 211/294/208 212/301/211 208/295/209
f 208/296/209 212/302/211 213/297/202
f 214/298/204 211/305/208 207/299/206
f 215/300/210 216/316/213 212/301/211
f 212/302/211 216/310/213 217/303/202
f 218/304/204 215/312/210 211/305/208
f 219/306/212 220/317/214 216/307/213
f 220/309/214 221/318/215 217/303/202
f 218/304/204 222/319/216 219/311/212
f 200/280/200 201/320/203 202/313/205
f 221/314/215 220/317/214 219/306/212
s 3
g Front_3
usemtl 3
f 233/321/217 229/322/217 224/323/217
f 234/324/217 230/325/217 225/326/217
f 279/327/217 235/328/217 241/329/217
f 242/330/218 226/331/218 236/332/217
f 237/333/218 232/334/218 227/335/218
f 244/336/218 223/337/217 238/338/218
f 223/337/217 239/339/217 233/321/217
f 234/324/217 229/322/217 240/340/218
f 225/326/217 241/329/217 235/328/217
f 281/341/218 242/330/218 236/332/217
f 226/331/218 243/342/218 237/333/218
f 227/335/218 244/336/218 238/338/218
f 244/336/218 247/343/217 248/344/217
f 231/345/218 246/346/217 245/347/217
f 247/343/217 230/325/217 248/344/217
f 247/343/217 249/348/218 241/329/217
s 4
f 239/349/219 257/350/220 229/351/220
s 5
f 233/352/221 252/353/222 261/354/221
s 4
f 230/355/223 268/356/224 258/357/223
s 5
f 225/358/225 262/359/226 234/360/226
s 6
f 289/361/227 241/362/228 269/363/228
s 5
f 280/364/229 263/365/230 235/366/230
f 226/367/231 264/368/232 236/369/232
s 7
f 232/370/233 271/371/234 260/372/233
s 5
f 237/373/235 255/374/236 265/375/235
s 4
f 244/376/237 256/377/238 228/378/238
s 5
f 238/379/239 251/380/202 266/381/239
f 233/352/221 251/380/202 223/382/202
s 4
f 228/378/238 267/383/219 239/349/219
s 5
f 224/384/222 262/385/226 252/353/222
s 4
f 229/351/220 268/386/224 240/387/224
s 5
f 225/358/225 263/365/230 253/388/225
f 264/368/232 281/389/227 236/369/232
s 8
f 282/390/240 270/391/241 242/392/241
s 5
f 226/367/231 265/393/235 254/394/231
s 7
f 231/395/242 271/371/234 243/396/234
s 5
f 227/397/236 266/381/239 255/374/236
s 9
f 247/398/243 260/399/243 275/400/243
s 10
f 248/401/244 272/402/244 244/403/244
s 11
f 242/404/245 274/405/245 246/406/245
s 12
f 245/407/246 259/408/246 231/409/246
s 13
f 293/410/227 246/411/227 274/412/227
s 14
f 245/413/240 294/414/240 273/415/240
s 15
f 248/401/247 258/416/247 276/417/247
s 16
f 250/418/248 275/419/248 278/420/248
s 17
f 241/421/249 277/422/249 269/423/249
s 18
f 278/424/250 286/425/251 250/426/250
s 19
f 249/427/252 296/428/240 277/429/252
s 3
f 246/346/217 283/430/217 284/431/217
f 250/432/218 286/433/218 287/434/218
f 297/435/217 299/436/217 298/437/217
f 301/438/217 303/439/217 302/440/218
f 279/327/217 305/441/217 280/442/217
f 309/443/218 307/444/218 306/445/217
f 310/446/218 312/447/218 311/448/218
f 317/449/217 315/450/218 314/451/218
f 298/437/217 317/449/217 297/435/217
f 301/438/217 299/436/217 300/452/217
f 318/453/217 304/454/217 305/441/217
f 307/444/218 281/341/218 306/445/217
f 311/448/218 309/443/218 310/446/218
f 315/450/218 313/455/218 314/451/218
f 315/450/218 319/456/217 312/447/218
f 308/457/218 321/458/217 307/444/218
f 319/456/217 303/439/217 318/453/217
f 324/459/218 319/456/217 318/453/217
s 20
f 325/460/253 298/461/254 299/462/253
s 5
f 297/463/255 328/464/256 300/465/256
s 20
f 303/466/257 330/467/258 302/468/258
s 5
f 331/469/259 304/470/260 301/471/259
s 6
f 318/472/261 289/361/227 346/473/261
s 5
f 333/474/262 280/475/229 305/476/263
f 336/477/264 309/478/265 306/479/264
s 21
f 312/480/266 339/481/267 311/482/267
s 5
f 310/483/268 341/484/269 313/485/269
s 22
f 316/486/270 343/487/271 315/488/271
s 5
f 314/489/272 345/490/204 317/491/204
f 345/490/204 297/463/255 317/491/204
s 20
f 326/492/254 316/486/270 298/461/254
s 5
f 300/465/256 331/493/259 301/494/259
s 20
f 330/495/258 299/462/253 302/496/258
s 5
f 304/470/260 333/474/262 305/476/263
f 336/477/264 281/389/227 291/497/227
s 23
f 335/498/273 282/390/240 307/499/273
s 5
f 309/500/265 340/501/268 310/502/268
s 21
f 339/481/267 308/503/274 311/482/267
s 5
f 313/485/269 344/504/272 314/489/272
s 24
f 319/505/275 338/506/275 312/507/275
s 25
f 343/508/276 320/509/276 315/510/276
s 26
f 349/511/277 307/512/277 321/513/277
s 27
f 334/514/278 322/515/278 308/516/278
s 13
f 321/517/227 293/410/227 349/518/227
s 14
f 350/519/240 285/520/240 322/521/240
s 28
f 320/509/276 329/522/276 303/523/276
s 29
f 351/524/279 319/525/279 323/526/279
s 30
f 318/527/280 352/528/280 324/529/280
s 18
f 351/530/281 286/425/251 295/531/227
s 19
f 324/532/282 296/428/240 288/533/240
s 3
f 321/458/217 322/534/217 285/535/217
f 324/459/218 287/434/218 323/536/218
s 31
f 422/537/283 400/538/284 401/539/285
f 403/540/286 422/541/283 401/542/285
f 420/543/287 403/544/286 402/545/288
f 423/546/289 402/547/288 400/548/284
f 400/548/284 405/549/290 404/550/291
f 403/544/286 405/551/290 402/545/288
f 401/542/285 406/552/292 403/540/286
f 400/538/284 407/553/293 401/539/285
f 404/550/291 419/554/294 416/555/295
f 418/556/296 405/557/290 406/558/292
f 407/559/293 418/560/296 406/552/292
f 416/561/295 407/562/293 404/563/291
f 409/564/297 412/565/298 408/566/299
f 410/567/300 413/568/301 409/569/297
f 410/570/300 415/571/302 414/572/303
f 408/573/299 415/574/302 411/575/304
f 419/554/294 408/566/299 416/555/295
f 409/569/297 418/556/296 410/567/300
f 411/576/304 418/560/296 417/577/305
f 411/575/304 416/561/295 408/573/299
f 413/578/301 424/579/306 412/565/298
f 414/580/303 425/581/307 413/568/301
f 414/572/303 427/582/308 426/583/309
f 415/574/302 424/584/306 427/585/308
s 32
f 430/537/289 428/538/285 431/586/283
f 430/541/289 432/540/288 429/542/284
f 435/543/310 432/544/288 433/587/311
f 431/546/283 434/547/286 435/588/310
f 428/548/285 436/549/312 434/547/286
f 436/551/312 432/544/288 434/545/286
f 438/552/290 429/542/284 432/540/288
f 439/553/291 428/538/285 429/539/284
f 437/550/293 440/554/296 436/549/312
f 442/556/294 436/557/312 440/589/296
f 442/560/294 439/559/291 438/552/290
f 441/561/305 439/562/291 443/590/295
f 447/565/302 445/564/300 444/566/304
f 446/568/303 448/567/297 445/569/300
f 448/570/297 451/571/298 450/576/299
f 451/574/298 444/573/304 450/575/299
f 440/554/296 444/566/304 445/564/300
f 445/569/300 442/556/294 440/589/296
f 442/560/294 450/576/299 443/577/295
f 450/575/299 441/561/305 443/590/295
f 453/579/308 446/578/303 447/565/302
f 452/581/309 449/580/301 446/568/303
f 449/572/301 455/582/306 451/571/298
f 455/585/306 447/591/302 451/574/298
s 3
f 233/321/217 239/339/217 229/322/217
f 234/324/217 240/340/218 230/325/217
f 279/327/217 280/442/217 235/328/217
f 242/330/218 231/345/218 226/331/218
f 237/333/218 243/342/218 232/334/218
f 244/336/218 228/592/217 223/337/217
f 223/337/217 228/592/217 239/339/217
f 234/324/217 224/323/217 229/322/217
f 225/326/217 230/325/217 241/329/217
f 281/341/218 282/593/218 242/330/218
f 226/331/218 231/345/218 243/342/218
f 227/335/218 232/334/218 244/336/218
f 244/336/218 232/334/218 247/343/217
f 231/345/218 242/330/218 246/346/217
f 247/343/217 241/329/217 230/325/217
f 247/343/217 250/432/218 249/348/218
s 4
f 239/349/219 267/383/219 257/350/220
s 5
f 233/352/221 224/384/222 252/353/222
s 4
f 230/355/223 240/594/224 268/356/224
s 5
f 225/358/225 253/388/225 262/359/226
s 6
f 289/361/227 279/595/227 241/362/228
s 5
f 280/364/229 290/596/229 263/365/230
f 226/367/231 254/394/231 264/368/232
s 7
f 232/370/233 243/396/234 271/371/234
s 5
f 237/373/235 227/397/236 255/374/236
s 4
f 244/376/237 272/597/237 256/377/238
s 5
f 238/379/239 223/382/202 251/380/202
f 233/352/221 261/354/221 251/380/202
s 4
f 228/378/238 256/377/238 267/383/219
s 5
f 224/384/222 234/598/226 262/385/226
s 4
f 229/351/220 257/350/220 268/386/224
s 5
f 225/358/225 235/366/230 263/365/230
f 264/368/232 291/497/227 281/389/227
s 23
f 282/390/240 292/599/240 270/391/241
s 5
f 226/367/231 237/600/235 265/393/235
s 7
f 231/395/242 259/601/242 271/371/234
s 5
f 227/397/236 238/379/239 266/381/239
s 9
f 247/398/243 232/602/243 260/399/243
s 15
f 248/401/247 276/417/247 272/402/244
s 33
f 242/404/245 270/603/245 274/405/245
s 34
f 245/407/246 273/604/246 259/408/246
s 13
f 293/410/227 283/605/227 246/411/227
s 14
f 245/413/240 285/520/240 294/414/240
s 15
f 248/401/247 230/606/247 258/416/247
s 16
f 250/418/248 247/607/248 275/419/248
s 17
f 241/421/249 249/608/249 277/422/249
s 18
f 278/424/250 295/531/227 286/425/251
s 19
f 249/427/252 288/533/240 296/428/240
s 3
f 284/431/217 285/535/217 246/346/217
f 285/535/217 245/347/217 246/346/217
f 287/434/218 288/609/218 249/348/218
f 249/348/218 250/432/218 287/434/218
f 297/435/217 300/452/217 299/436/217
f 301/438/217 304/454/217 303/439/217
f 279/327/217 318/453/217 305/441/217
f 309/443/218 308/457/218 307/444/218
f 310/446/218 313/455/218 312/447/218
f 317/449/217 316/610/217 315/450/218
f 298/437/217 316/610/217 317/449/217
f 301/438/217 302/440/218 299/436/217
f 318/453/217 303/439/217 304/454/217
f 307/444/218 282/593/218 281/341/218
f 311/448/218 308/457/218 309/443/218
f 315/450/218 312/447/218 313/455/218
f 315/450/218 320/611/217 319/456/217
f 308/457/218 322/534/217 321/458/217
f 319/456/217 320/611/217 303/439/217
f 324/459/218 323/536/218 319/456/217
s 20
f 325/460/253 326/492/254 298/461/254
s 5
f 297/463/255 327/612/255 328/464/256
s 20
f 303/466/257 329/613/257 330/467/258
s 5
f 331/469/259 332/614/260 304/470/260
s 6
f 318/472/261 279/595/227 289/361/227
s 5
f 333/474/262 290/615/229 280/475/229
f 336/477/264 337/616/265 309/478/265
s 21
f 312/480/266 338/617/266 339/481/267
s 5
f 310/483/268 340/618/268 341/484/269
s 20
f 316/486/270 342/619/270 343/487/271
s 5
f 314/489/272 344/504/272 345/490/204
f 345/490/204 327/612/255 297/463/255
s 20
f 326/492/254 342/619/270 316/486/270
s 5
f 300/465/256 328/464/256 331/493/259
s 20
f 330/495/258 325/460/253 299/462/253
s 5
f 304/470/260 332/614/260 333/474/262
f 336/477/264 306/479/264 281/389/227
s 23
f 335/498/273 292/599/240 282/390/240
s 5
f 309/500/265 337/620/265 340/501/268
s 21
f 339/481/267 334/621/274 308/503/274
s 5
f 313/485/269 341/484/269 344/504/272
s 35
f 319/505/275 347/622/275 338/506/275
s 25
f 343/508/276 348/623/276 320/509/276
s 26
f 349/511/277 335/624/277 307/512/277
s 27
f 334/514/278 350/625/278 322/515/278
s 13
f 321/517/227 283/605/227 293/410/227
s 14
f 350/519/240 294/414/240 285/520/240
s 25
f 320/509/276 348/623/276 329/522/276
s 29
f 351/524/279 347/626/279 319/525/279
s 36
f 318/527/280 346/627/280 352/528/280
s 37
f 351/530/281 323/628/281 286/425/227
s 19
f 324/532/282 352/629/282 296/428/240
s 3
f 285/535/217 284/431/217 321/458/217
f 284/431/217 283/430/217 321/458/217
f 288/609/218 287/434/218 324/459/218
f 287/434/218 286/433/218 323/536/218
s 31
f 422/537/283 423/586/289 400/538/284
f 403/540/286 421/630/313 422/541/283
f 420/543/287 421/587/313 403/544/286
f 423/546/289 420/588/287 402/547/288
f 400/548/284 402/547/288 405/549/290
f 403/544/286 406/631/292 405/551/290
f 401/542/285 407/559/293 406/552/292
f 400/538/284 404/632/291 407/553/293
f 404/550/291 405/549/290 419/554/294
f 418/556/296 419/589/294 405/557/290
f 407/559/293 417/577/305 418/560/296
f 416/561/295 417/590/305 407/562/293
f 409/564/297 413/578/301 412/565/298
f 410/567/300 414/580/303 413/568/301
f 410/570/300 411/576/304 415/571/302
f 408/573/299 412/591/298 415/574/302
f 419/554/294 409/564/297 408/566/299
f 409/569/297 419/589/294 418/556/296
f 411/576/304 410/570/300 418/560/296
f 411/575/304 417/590/305 416/561/295
f 413/578/301 425/633/307 424/579/306
f 414/580/303 426/634/309 425/581/307
f 414/572/303 415/571/302 427/582/308
f 415/574/302 412/591/298 424/584/306
s 32
f 430/537/289 429/539/284 428/538/285
f 430/541/289 433/630/311 432/540/288
f 435/543/310 434/545/286 432/544/288
f 431/546/283 428/548/285 434/547/286
f 428/548/285 437/550/293 436/549/312
f 436/551/312 438/631/290 432/544/288
f 438/552/290 439/559/291 429/542/284
f 439/553/291 437/632/293 428/538/285
f 437/550/293 441/555/305 440/554/296
f 442/556/294 438/558/290 436/557/312
f 442/560/294 443/577/295 439/559/291
f 441/561/305 437/563/293 439/562/291
f 447/565/302 446/578/303 445/564/300
f 446/568/303 449/580/301 448/567/297
f 448/570/297 449/572/301 451/571/298
f 451/574/298 447/591/302 444/573/304
f 440/554/296 441/555/305 444/566/304
f 445/569/300 448/567/297 442/556/294
f 442/560/294 448/570/297 450/576/299
f 450/575/299 444/573/304 441/561/305
f 453/579/308 452/633/309 446/578/303
f 452/581/309 454/634/307 449/580/301
f 449/572/301 454/583/307 455/582/306
f 455/585/306 453/584/308 447/591/302
s 38
g Front_4
usemtl 4
f 357/635/314 355/636/315 353/637/316
f 356/638/317 357/635/314 354/639/318
f 353/640/316 363/641/319 357/642/314
f 355/643/315 364/644/320 361/645/321
f 353/646/316 361/647/321 359/648/322
f 354/649/318 362/650/323 356/651/317
f 356/652/317 364/644/320 358/653/324
f 354/654/318 363/641/319 360/655/325
s 39
f 370/656/326 366/657/327 365/658/328
f 371/659/329 367/660/330 366/661/327
f 372/662/331 368/663/332 367/664/330
f 368/665/332 374/666/333 369/667/334
f 369/668/334 370/656/326 365/658/328
f 375/669/335 371/670/329 370/656/326
f 376/671/336 372/672/331 371/659/329
f 372/662/331 378/673/337 373/674/338
f 373/675/338 379/676/339 374/666/333
f 374/677/333 375/669/335 370/656/326
f 380/678/340 376/679/336 375/669/335
f 381/680/341 377/681/342 376/671/336
f 382/682/343 378/683/337 377/684/342
f 378/685/337 384/686/344 379/676/339
f 379/687/339 380/678/340 375/669/335
f 385/688/345 381/689/341 380/678/340
f 386/690/346 382/691/343 381/680/341
f 387/692/347 383/693/348 382/682/343
f 383/694/348 389/695/349 384/686/344
f 384/696/344 385/688/345 380/678/340
f 390/697/350 386/698/346 385/688/345
f 391/699/351 387/700/347 386/690/346
f 392/701/352 388/702/353 387/692/347
f 388/703/353 394/704/354 389/695/349
f 389/705/349 390/697/350 385/688/345
f 390/697/350 396/706/355 391/707/351
f 391/699/351 397/708/356 392/709/352
f 392/701/352 398/710/357 393/711/358
f 398/712/357 394/704/354 393/713/358
f 399/714/359 390/697/350 394/715/354
f 366/716/327 367/717/330 368/718/332
f 398/710/357 397/719/356 396/720/355
s 38
f 357/635/314 358/721/324 355/636/315
f 356/638/317 358/721/324 357/635/314
f 353/640/316 359/722/322 363/641/319
f 355/643/315 358/653/324 364/644/320
f 353/646/316 355/723/315 361/647/321
f 354/649/318 360/724/325 362/650/323
f 356/652/317 362/725/323 364/644/320
f 354/654/318 357/642/314 363/641/319
s 39
f 370/656/326 371/670/329 366/657/327
f 371/659/329 372/672/331 367/660/330
f 372/662/331 373/674/338 368/663/332
f 368/665/332 373/675/338 374/666/333
f 369/668/334 374/677/333 370/656/326
f 375/669/335 376/679/336 371/670/329
f 376/671/336 377/681/342 372/672/331
f 372/662/331 377/726/342 378/673/337
f 373/675/338 378/685/337 379/676/339
f 374/677/333 379/727/339 375/669/335
f 380/678/340 381/689/341 376/679/336
f 381/680/341 382/691/343 377/681/342
f 382/682/343 383/693/348 378/683/337
f 378/685/337 383/694/348 384/686/344
f 379/687/339 384/728/344 380/678/340
f 385/688/345 386/698/346 381/689/341
f 386/690/346 387/700/347 382/691/343
f 387/692/347 388/702/353 383/693/348
f 383/694/348 388/703/353 389/695/349
f 384/696/344 389/705/349 385/688/345
f 390/697/350 391/707/351 386/698/346
f 391/699/351 392/709/352 387/700/347
f 392/701/352 393/711/358 388/702/353
f 388/703/353 393/713/358 394/704/354
f 389/705/349 394/715/354 390/697/350
f 390/697/350 395/729/360 396/706/355
f 391/699/351 396/730/355 397/708/356
f 392/701/352 397/719/356 398/710/357
f 398/712/357 399/731/359 394/704/354
f 399/714/359 395/729/360 390/697/350
f 369/732/334 365/733/328 368/718/332
f 365/733/328 366/716/327 368/718/332
f 396/720/355 395/734/360 399/735/359
f 399/735/359 398/710/357 396/720/355
