# Blender 5.0.1
# www.blender.org
mtllib dadoemocion.mtl
o Cube
v 1.000000 1.000000 -1.000000
v 1.000000 -1.000000 -1.000000
v 1.000000 1.000000 1.000000
v 1.000000 -1.000000 1.000000
v -1.000000 1.000000 -1.000000
v -1.000000 -1.000000 -1.000000
v -1.000000 1.000000 1.000000
v -1.000000 -1.000000 1.000000
vn -0.0000 1.0000 -0.0000
vn -0.0000 -0.0000 1.0000
vn -1.0000 -0.0000 -0.0000
vn -0.0000 -1.0000 -0.0000
vn 1.0000 -0.0000 -0.0000
vn -0.0000 -0.0000 -1.0000
vt 0.994359 0.740285
vt 0.670849 0.511476
vt 0.992508 0.510152
vt 0.660495 0.990980
vt 0.339505 0.759020
vt 0.663984 0.761488
vt 0.658777 0.241579
vt 0.341223 0.008421
vt 0.657851 0.007737
vt 0.291098 0.743764
vt 0.019422 0.506236
vt 0.287105 0.502640
vt 0.623800 0.743681
vt 0.346671 0.506319
vt 0.623914 0.506416
vt 0.636086 0.490924
vt 0.363914 0.259076
vt 0.636431 0.259368
vt 0.672700 0.741610
vt 0.336016 0.988512
vt 0.342149 0.242263
vt 0.023414 0.747360
vt 0.346557 0.743584
vt 0.363569 0.490632
s 0
g off
g Cube_Material
usemtl Material
f 5/1/1 3/2/1 1/3/1
f 3/4/2 8/5/2 4/6/2
f 7/7/3 6/8/3 8/9/3
f 2/10/4 8/11/4 6/12/4
f 1/13/5 4/14/5 2/15/5
f 5/16/6 2/17/6 6/18/6
f 5/1/1 7/19/1 3/2/1
f 3/4/2 7/20/2 8/5/2
f 7/7/3 5/21/3 6/8/3
f 2/10/4 4/22/4 8/11/4
f 1/13/5 3/23/5 4/14/5
f 5/16/6 1/24/6 2/17/6
