# Blender 5.0.1
# www.blender.org
mtllib cajuela.mtl
o Rear
v -0.869617 -1.883268 1.019155
v -1.145863 -1.867988 0.890726
v -0.596976 -1.915108 1.164828
v -0.376204 -1.931217 1.244015
v -0.180333 -1.962807 1.317006
v -0.004455 -1.983389 1.349442
v -1.672999 -1.031723 0.117348
v -1.333098 -0.761658 0.231879
v -0.967645 -0.550965 0.352198
v -0.595771 -0.429968 0.434013
v -0.324614 -0.373679 0.482743
v -0.004455 -0.360367 0.496570
v -1.435054 -1.457565 0.506904
v -1.136077 -1.326603 0.647683
v -0.777383 -1.257718 0.804002
v -0.473298 -1.211021 0.888870
v -0.249579 -1.166031 0.934937
v -1.478008 -0.291984 -0.147905
v -1.780866 -0.682341 -0.169308
v -1.113529 -0.085220 -0.030324
v -0.732469 0.035514 0.056752
v -0.326786 0.095067 0.104496
v -0.679267 -2.285085 1.288423
v -0.869871 -2.132834 1.133400
v -0.420364 -2.460559 1.431984
v -0.277282 -2.492941 1.468719
v -0.116022 -2.512100 1.497787
v -0.004455 -2.514900 1.504892
v -1.648050 -0.476165 -0.170598
v -1.504537 -0.897680 0.174035
v -1.286630 -1.391754 0.576290
v -1.044311 -1.873869 0.934633
v -0.777088 -2.207066 1.208990
v -0.869204 -1.986261 0.945239
v -1.113287 -1.911577 0.810700
v -0.563541 -1.950916 1.069852
v -0.346968 -1.965525 1.158380
v -0.161031 -1.997951 1.228928
v -0.004455 -2.018794 1.259377
v -1.619030 -1.069616 0.046521
v -1.282570 -0.801876 0.159805
v -0.927380 -0.595638 0.276381
v -0.567193 -0.479433 0.355899
v -0.309609 -0.427843 0.403963
v -0.004455 -0.416807 0.417959
v -1.384133 -1.493207 0.432729
v -1.091559 -1.363215 0.569946
v -0.741059 -1.295712 0.711229
v -0.444523 -1.251091 0.805614
v -0.230412 -1.208289 0.850013
v -1.426202 -0.336825 -0.216247
v -1.727154 -0.725249 -0.237423
v -1.071549 -0.135443 -0.101600
v -0.705112 -0.021950 -0.016150
v -0.316040 0.031481 0.032339
v -0.654526 -2.321387 1.196731
v -0.832417 -2.168972 1.051813
v -0.400113 -2.484652 1.344859
v -0.256527 -2.517922 1.392949
v -0.104940 -2.537035 1.419594
v -1.593582 -0.519127 -0.238071
v -1.450681 -0.936071 0.103389
v -1.236432 -1.426824 0.501354
v -0.993726 -1.946863 0.875913
v -0.741830 -2.245744 1.127589
v -0.004455 0.098167 0.116030
v -0.004455 0.033610 0.043937
v 1.639140 -0.476165 -0.170597
v 1.495627 -0.897680 0.174035
v 1.324187 -0.761658 0.231880
v 1.469099 -0.291984 -0.147904
v 0.958735 -0.550965 0.352198
v 1.104620 -0.085220 -0.030324
v 0.586860 -0.429968 0.434013
v 0.723559 0.035514 0.056752
v 0.315704 -0.373679 0.482743
v 0.317876 0.095067 0.104496
v 1.426144 -1.457565 0.506904
v 1.277720 -1.391754 0.576289
v 1.664090 -1.031723 0.117348
v 1.127166 -1.326603 0.647685
v 0.768473 -1.257718 0.804002
v 0.464388 -1.211021 0.888870
v 0.240669 -1.166031 0.934937
v -0.004455 -1.137357 0.957687
v 1.136953 -1.867988 0.890726
v 1.035400 -1.873869 0.934634
v 0.860707 -1.883268 1.019155
v 0.588066 -1.915108 1.164828
v 0.367294 -1.931217 1.244015
v 0.171422 -1.962807 1.317006
v 0.768177 -2.207066 1.208990
v 0.670356 -2.285085 1.288423
v 0.411453 -2.460559 1.431984
v 0.268371 -2.492941 1.468719
v 0.107112 -2.512100 1.497787
v 1.771956 -0.682341 -0.169307
v 0.860961 -2.132834 1.133400
v 1.273660 -0.801876 0.159805
v 1.441771 -0.936071 0.103389
v 1.584672 -0.519127 -0.238071
v 1.417292 -0.336825 -0.216246
v 0.918470 -0.595638 0.276381
v 1.062640 -0.135443 -0.101600
v 0.558283 -0.479433 0.355900
v 0.696201 -0.021950 -0.016150
v 0.300698 -0.427843 0.403963
v 0.307130 0.031481 0.032339
v 1.227522 -1.426824 0.501353
v 1.375224 -1.493207 0.432729
v 1.610120 -1.069616 0.046521
v 0.732149 -1.295712 0.711230
v 1.082649 -1.363215 0.569948
v 0.435612 -1.251091 0.805614
v 0.221502 -1.208289 0.850013
v -0.004455 -1.181302 0.871466
v 0.984815 -1.946863 0.875913
v 1.104377 -1.911577 0.810702
v 0.554630 -1.950916 1.069852
v 0.860293 -1.986261 0.945239
v 0.338057 -1.965525 1.158380
v 0.152120 -1.997951 1.228928
v 0.732920 -2.245744 1.127589
v 0.645616 -2.321387 1.196731
v 0.391203 -2.484652 1.344859
v 0.247617 -2.517922 1.392949
v 0.096029 -2.537035 1.419594
v -0.004455 -2.539694 1.425718
v 1.718245 -0.725249 -0.237422
v 0.823506 -2.168972 1.051813
v -0.396601 -1.038159 0.814576
v -0.346401 -0.999461 0.923294
v -0.350580 -0.873162 0.729231
v -0.322764 -0.880258 0.844641
v -0.340084 -0.935542 0.876938
v -0.384705 -0.938917 0.762718
v 0.437997 -1.038158 0.814576
v 0.387798 -0.999461 0.923294
v 0.382116 -0.870067 0.731050
v 0.366197 -0.880793 0.843725
v 0.396047 -0.935542 0.876938
v 0.426102 -0.938917 0.762718
v -0.189487 -0.907791 0.946341
v 0.020698 -0.887144 0.969968
v 0.230883 -0.907791 0.946341
v 0.230883 -0.845229 0.904569
v 0.020698 -0.824582 0.928197
v -0.189487 -0.845229 0.904569
v 0.230883 -0.815970 0.737935
v 0.020698 -0.796000 0.738015
v -0.189487 -0.815970 0.737935
v 0.230883 -0.978324 0.980752
v 0.020698 -0.970555 1.000493
v -0.189487 -0.978324 0.980752
v -0.189487 -0.820121 0.806198
v 0.020698 -0.798930 0.818434
v 0.230883 -0.820121 0.806199
v 0.382258 -0.874755 0.780287
v 0.420466 -0.939801 0.802460
v 0.434132 -1.024166 0.854099
v -0.392736 -1.024166 0.854099
v -0.379070 -0.939801 0.802459
v -0.345583 -0.876815 0.777269
v -0.387624 -1.039822 0.814065
v -0.340939 -1.004113 0.917624
v -0.345118 -0.880410 0.728112
v -0.317647 -0.886769 0.840762
v -0.334186 -0.940057 0.871605
v -0.376411 -0.942557 0.761470
v 0.429020 -1.039821 0.814065
v 0.382220 -1.003082 0.917017
v 0.376884 -0.877534 0.730355
v 0.361113 -0.887612 0.840368
v 0.389621 -0.939965 0.872168
v 0.417875 -0.942753 0.761614
v -0.186826 -0.912111 0.938733
v 0.020761 -0.891351 0.961850
v 0.228433 -0.912227 0.938730
v 0.228444 -0.852410 0.899460
v 0.020698 -0.832056 0.922929
v -0.186917 -0.852338 0.899423
v 0.228846 -0.824866 0.737367
v 0.020698 -0.805136 0.737637
v -0.187437 -0.824862 0.737354
v 0.228624 -0.982101 0.972737
v 0.020833 -0.973796 0.991944
v -0.187101 -0.982414 0.972929
v -0.187406 -0.828923 0.804855
v 0.020698 -0.807986 0.817171
v 0.228810 -0.828924 0.804851
v 0.376517 -0.881754 0.778995
v 0.412228 -0.943385 0.800753
v 0.425504 -1.026343 0.851993
v -0.384310 -1.026905 0.851834
v -0.370918 -0.943307 0.800254
v -0.339769 -0.883696 0.775698
v -0.127283 -0.580377 0.639319
v -0.111437 -0.584325 0.641639
v -0.099715 -0.561398 0.628164
v -0.115457 -0.553564 0.623559
v -0.094435 -0.531327 0.610488
v -0.081535 -0.541823 0.616659
v -0.059554 -0.526774 0.607813
v -0.068642 -0.513204 0.599837
v -0.004692 -0.512683 0.599533
v -0.004692 -0.498431 0.591153
v -0.037540 -0.503009 0.593845
v -0.033421 -0.516261 0.601634
v -0.037540 -0.714383 0.718084
v -0.033421 -0.701131 0.710293
v -0.056543 -0.691829 0.704826
v -0.065592 -0.705188 0.712679
v -0.092388 -0.687422 0.702236
v -0.081038 -0.677606 0.696467
v -0.099715 -0.655993 0.683765
v -0.115457 -0.663828 0.688368
v -0.127283 -0.637014 0.672610
v -0.111910 -0.633464 0.670521
v -0.114416 -0.608696 0.655965
v -0.132592 -0.608696 0.655965
v -0.004692 -0.718388 0.720436
v -0.004692 -0.704109 0.712043
v -0.045280 -0.541256 0.616328
v -0.068919 -0.545860 0.619031
v -0.008066 -0.628220 0.667439
v -0.023589 -0.615149 0.659756
v -0.020858 -0.599253 0.650413
v -0.008248 -0.579604 0.638864
v -0.111437 -0.594289 0.624687
v -0.099715 -0.571363 0.611214
v -0.115457 -0.563528 0.606607
v -0.127283 -0.590340 0.622367
v -0.081535 -0.551787 0.599705
v -0.059554 -0.536738 0.590860
v -0.068642 -0.523168 0.582886
v -0.094435 -0.541291 0.593536
v -0.033421 -0.526226 0.584680
v -0.004692 -0.522648 0.582579
v -0.004692 -0.508396 0.574201
v -0.037540 -0.512972 0.576892
v -0.065592 -0.715152 0.695726
v -0.037540 -0.724348 0.701130
v -0.081038 -0.687571 0.679516
v -0.099715 -0.665956 0.666810
v -0.115457 -0.673793 0.671416
v -0.092388 -0.697386 0.685285
v -0.111910 -0.643428 0.653571
v -0.114416 -0.618659 0.639011
v -0.132592 -0.618659 0.639011
v -0.127283 -0.646979 0.655656
v -0.004692 -0.728352 0.703484
v -0.004692 -0.714074 0.695094
v -0.033421 -0.711094 0.693339
v -0.056543 -0.701793 0.687873
v -0.045280 -0.551221 0.599372
v -0.068919 -0.555824 0.602079
v -0.008066 -0.638184 0.650485
v -0.023589 -0.625112 0.642805
v -0.004692 -0.638184 0.650485
v -0.004692 -0.628220 0.667439
v -0.004692 -0.615149 0.659755
v -0.004692 -0.625112 0.642805
v -0.020858 -0.609217 0.633460
v -0.008248 -0.589568 0.621912
v -0.004692 -0.609203 0.633452
v -0.004692 -0.599239 0.650405
v -0.004692 -0.579588 0.638856
v -0.004692 -0.589553 0.621903
v -0.004692 -0.625859 0.666052
v -0.004692 -0.588244 0.643943
v 0.102054 -0.584325 0.641639
v 0.117900 -0.580377 0.639319
v 0.106074 -0.553564 0.623559
v 0.090332 -0.561398 0.628164
v 0.072152 -0.541823 0.616659
v 0.085052 -0.531327 0.610488
v 0.059259 -0.513204 0.599837
v 0.050171 -0.526774 0.607813
v 0.024038 -0.516261 0.601634
v 0.028157 -0.503009 0.593845
v 0.024038 -0.701131 0.710293
v 0.028157 -0.714383 0.718084
v 0.056209 -0.705188 0.712679
v 0.047159 -0.691829 0.704826
v 0.071655 -0.677606 0.696467
v 0.083005 -0.687422 0.702236
v 0.106074 -0.663828 0.688368
v 0.090332 -0.655993 0.683765
v 0.102527 -0.633464 0.670521
v 0.117900 -0.637014 0.672610
v 0.123209 -0.608696 0.655964
v 0.105033 -0.608696 0.655965
v 0.059536 -0.545860 0.619031
v 0.035896 -0.541256 0.616328
v 0.014206 -0.615149 0.659755
v -0.001317 -0.628220 0.667439
v -0.001135 -0.579604 0.638864
v 0.011475 -0.599253 0.650413
v 0.090332 -0.571363 0.611214
v 0.102054 -0.594289 0.624687
v 0.117900 -0.590340 0.622367
v 0.106074 -0.563528 0.606607
v 0.050170 -0.536738 0.590860
v 0.072152 -0.551787 0.599705
v 0.085052 -0.541290 0.593535
v 0.059259 -0.523168 0.582886
v 0.024038 -0.526226 0.584680
v 0.028157 -0.512972 0.576892
v 0.028157 -0.724348 0.701130
v 0.056209 -0.715152 0.695726
v 0.090332 -0.665956 0.666810
v 0.071655 -0.687571 0.679516
v 0.083005 -0.697386 0.685285
v 0.106074 -0.673793 0.671416
v 0.105033 -0.618659 0.639011
v 0.102527 -0.643428 0.653571
v 0.117900 -0.646979 0.655656
v 0.123209 -0.618659 0.639011
v 0.024038 -0.711094 0.693339
v 0.047159 -0.701793 0.687873
v 0.035896 -0.551221 0.599372
v 0.059536 -0.555824 0.602079
v -0.001317 -0.638184 0.650485
v 0.014206 -0.625112 0.642805
v 0.011475 -0.609217 0.633460
v -0.001135 -0.589568 0.621912
v -0.608940 -1.181917 0.983999
v 0.600022 -1.181917 0.983998
v 0.600022 -1.167578 0.977685
v -0.608940 -1.167578 0.977687
v -0.653617 -1.210773 0.996703
v -0.643412 -1.182734 0.984359
v -0.643412 -1.175774 1.000167
v -0.653617 -1.203813 1.012511
v -0.629029 -1.186550 1.004911
v -0.634948 -1.203813 1.012511
v -0.634948 -1.210773 0.996703
v -0.629029 -1.193510 0.989103
v -0.629029 -1.190541 0.995844
v -0.634948 -1.207805 1.003444
v -0.608940 -1.160619 0.993494
v -0.608940 -1.174958 0.999807
v -0.608940 -1.178949 0.990740
v -0.608940 -1.207805 1.003444
v -0.608940 -1.210773 0.996703
v -0.608941 -1.513762 1.130094
v 0.600022 -1.513762 1.130096
v 0.600022 -1.210773 0.996703
v 0.600022 -1.160619 0.993493
v 0.600022 -1.174958 0.999806
v 0.644699 -1.210773 0.996703
v 0.626030 -1.210773 0.996703
v 0.626030 -1.513762 1.130096
v 0.644699 -1.513762 1.130096
v 0.600022 -1.178949 0.990739
v 0.600022 -1.207805 1.003443
v 0.644699 -1.203813 1.012510
v 0.634494 -1.175774 1.000165
v 0.634494 -1.182734 0.984358
v 0.626030 -1.203813 1.012510
v 0.620111 -1.186550 1.004909
v 0.620111 -1.193510 0.989102
v 0.626030 -1.207805 1.003443
v 0.620111 -1.190541 0.995842
v 0.600022 -1.510793 1.136837
v -0.608941 -1.510793 1.136835
v 0.644699 -1.506802 1.145903
v 0.626030 -1.506802 1.145903
v 0.626030 -1.510793 1.136837
v -0.653617 -1.506802 1.145903
v -0.653617 -1.513762 1.130094
v -0.608941 -1.542617 1.142799
v -0.608941 -1.556956 1.149112
v 0.600022 -1.556956 1.149112
v 0.600022 -1.542617 1.142799
v -0.634948 -1.513762 1.130094
v -0.643412 -1.534841 1.158248
v -0.643412 -1.541800 1.142439
v -0.634948 -1.506802 1.145903
v -0.629029 -1.524065 1.153504
v -0.629029 -1.531025 1.137695
v -0.634948 -1.510793 1.136835
v -0.629029 -1.528057 1.144436
v -0.608941 -1.549997 1.164919
v -0.608941 -1.535658 1.158607
v -0.608941 -1.539649 1.149540
v 0.600022 -1.549997 1.164920
v 0.600022 -1.535658 1.158608
v 0.600022 -1.539649 1.149540
v 0.634494 -1.541800 1.142440
v 0.634494 -1.534841 1.158248
v 0.620110 -1.524065 1.153504
v 0.620110 -1.531025 1.137696
v 0.620110 -1.528057 1.144436
v -0.055413 -2.309080 1.441287
v 0.045714 -2.309080 1.441287
v -0.055413 -2.166958 1.398388
v 0.045714 -2.166958 1.398388
v -0.004850 -2.166958 1.398388
v -0.004850 -2.309080 1.441287
v -0.055413 -2.238019 1.419838
v 0.045714 -2.238019 1.419837
v -0.004850 -2.232147 1.439291
v -0.055413 -2.161086 1.417841
v -0.055413 -2.232147 1.439291
v -0.055413 -2.303208 1.460740
v -0.004850 -2.303208 1.460740
v 0.045714 -2.303208 1.460740
v 0.045714 -2.232147 1.439291
v 0.045714 -2.161086 1.417841
v -0.004850 -2.161086 1.417841
v -0.055413 -2.328533 1.447159
v -0.004850 -2.328533 1.447159
v 0.045714 -2.328533 1.447159
v 0.045714 -2.322661 1.466612
v -0.004850 -2.322661 1.466612
v -0.055413 -2.322661 1.466612
v -0.004850 -2.283303 1.485273
v -0.055413 -2.283303 1.485273
v -0.055413 -2.302756 1.491145
v -0.004850 -2.302756 1.491145
v 0.045714 -2.302756 1.491145
v 0.045714 -2.283303 1.485273
v -0.004850 -2.277444 1.509193
v -0.055413 -2.277444 1.509193
v -0.055413 -2.296897 1.515065
v -0.004850 -2.296897 1.515065
v 0.045714 -2.296897 1.515065
v 0.045714 -2.277444 1.509193
v -0.004850 -2.295184 1.549339
v -0.036230 -2.295184 1.549339
v -0.047834 -2.303743 1.530910
v -0.004850 -2.303743 1.530910
v 0.038135 -2.303743 1.530910
v 0.026531 -2.295184 1.549339
v -0.004850 -2.305654 1.564360
v -0.025566 -2.305654 1.564360
v -0.025566 -2.325944 1.563263
v -0.004850 -2.325944 1.563263
v 0.015867 -2.325944 1.563263
v 0.015867 -2.305654 1.564360
v 0.031032 -2.231838 1.436262
v 0.020615 -2.207761 1.428994
v -0.004535 -2.197789 1.425984
v -0.029684 -2.207761 1.428994
v -0.040102 -2.231838 1.436262
v -0.029684 -2.255915 1.443529
v -0.004535 -2.265888 1.446539
v 0.020615 -2.255915 1.443529
v 0.031032 -2.222095 1.468540
v 0.020615 -2.198019 1.461272
v -0.004535 -2.188046 1.458262
v -0.029684 -2.198019 1.461272
v -0.040102 -2.222095 1.468540
v -0.029684 -2.246172 1.475807
v -0.004535 -2.256145 1.478817
v 0.020615 -2.246172 1.475807
v -0.702755 0.000605 -0.044250
v -0.645861 0.000605 -0.044250
v -0.645861 0.035420 -0.099575
v -0.702755 0.035420 -0.099575
v -0.702755 -0.155841 -0.193528
v -0.702755 -0.156068 -0.127522
v -0.645861 -0.155841 -0.193528
v -0.645861 -0.156068 -0.127522
v -0.702755 -0.258841 -0.149479
v -0.702755 -0.215866 -0.109291
v -0.645861 -0.258841 -0.149479
v -0.645861 -0.215866 -0.109291
v -0.702755 -0.272383 -0.029077
v -0.702755 -0.332868 -0.036662
v -0.702755 -0.342110 0.091960
v -0.702755 -0.290654 0.071016
v -0.645861 -0.332868 -0.036662
v -0.645861 -0.342110 0.091960
v -0.645861 -0.272383 -0.029077
v -0.645861 -0.290654 0.071016
v -0.702755 -0.260552 0.215269
v -0.702755 -0.212331 0.187681
v -0.645861 -0.260552 0.215269
v -0.645861 -0.212331 0.187681
v -0.702755 -0.058596 -0.175406
v -0.702755 -0.076658 -0.114906
v -0.645861 -0.076658 -0.114906
v -0.645861 -0.058596 -0.175406
v 0.693846 0.035420 -0.099576
v 0.693846 -0.058596 -0.175406
v 0.693846 -0.076658 -0.114906
v 0.693846 0.000605 -0.044250
v 0.636953 0.035420 -0.099576
v 0.636953 -0.058596 -0.175406
v 0.636953 0.000605 -0.044250
v 0.636953 -0.076658 -0.114907
v 0.693846 -0.156068 -0.127522
v 0.693846 -0.155841 -0.193528
v 0.693846 -0.258841 -0.149479
v 0.693846 -0.215866 -0.109291
v 0.636953 -0.155841 -0.193528
v 0.636953 -0.258841 -0.149479
v 0.636953 -0.156068 -0.127522
v 0.636953 -0.215866 -0.109291
v 0.693846 -0.272383 -0.029078
v 0.693846 -0.332868 -0.036662
v 0.693846 -0.342110 0.091960
v 0.693846 -0.290654 0.071015
v 0.636953 -0.332868 -0.036662
v 0.636953 -0.342110 0.091960
v 0.636953 -0.272383 -0.029078
v 0.636953 -0.290654 0.071015
v 0.693846 -0.260552 0.215269
v 0.693846 -0.212331 0.187680
v 0.636953 -0.260552 0.215269
v 0.636953 -0.212331 0.187680
vn -0.5183 0.4047 0.7534
vn -0.6220 0.7830 -0.0036
vn -0.7882 0.6151 -0.0173
vn -0.5571 0.3879 0.7343
vn -0.4116 0.4538 0.7903
vn -0.4206 0.9015 0.1018
vn -0.2940 0.5002 0.8145
vn -0.2518 0.9604 0.1198
vn -0.1547 0.5487 0.8216
vn -0.0868 0.9918 0.0936
vn -0.0000 0.5727 0.8198
vn -0.0000 0.9959 0.0906
vn -0.9413 -0.1386 0.3079
vn -0.8963 -0.1962 0.3976
vn -0.5193 0.3655 0.7725
vn -0.3705 0.4005 0.8380
vn -0.4707 0.3776 0.7974
vn -0.2851 0.4220 0.8606
vn -0.1980 0.4396 0.8761
vn -0.0000 0.4573 0.8893
vn -0.7952 -0.1473 0.5882
vn -0.3676 0.4016 0.8388
vn -0.3370 0.3722 0.8648
vn -0.3953 0.3736 0.8392
vn -0.2775 0.3652 0.8886
vn -0.1962 0.3577 0.9130
vn -0.0000 0.3534 0.9355
vn -0.7287 -0.2547 0.6357
vn -0.6602 -0.2694 0.7011
vn -0.4683 -0.4355 0.7688
vn -0.2801 -0.4628 0.8410
vn -0.1438 -0.4722 0.8697
vn -0.0000 -0.4690 0.8832
vn -0.9811 0.1891 -0.0421
vn -0.7422 -0.2578 0.6186
vn -0.0081 0.0538 -0.9985
vn 0.0806 0.1890 -0.9787
vn 0.5169 -0.4036 -0.7550
vn 0.5573 -0.3877 -0.7343
vn 0.1672 0.2312 -0.9584
vn 0.4123 -0.4507 -0.7918
vn 0.1425 0.1836 -0.9726
vn 0.2945 -0.4999 -0.8144
vn 0.0696 0.1164 -0.9908
vn 0.1550 -0.5485 -0.8217
vn -0.1659 -0.7227 -0.6710
vn -0.1791 -0.6872 -0.7041
vn 0.5195 -0.3661 -0.7721
vn 0.3754 -0.3957 -0.8381
vn 0.4604 -0.3825 -0.8011
vn 0.2979 -0.4164 -0.8590
vn 0.1998 -0.4392 -0.8759
vn -0.0000 -0.5727 -0.8198
vn -0.0000 -0.4571 -0.8894
vn -0.3429 -0.7629 -0.5481
vn 0.3467 -0.4111 -0.8431
vn 0.3511 -0.3728 -0.8589
vn 0.3598 -0.3984 -0.8437
vn 0.2973 -0.3690 -0.8806
vn 0.1953 -0.3696 -0.9084
vn -0.0000 -0.3652 -0.9309
vn -0.2683 -0.8132 -0.5164
vn -0.2698 -0.8090 -0.5223
vn -0.1576 -0.8702 -0.4669
vn -0.0429 -0.8992 -0.4354
vn -0.0137 -0.9014 -0.4329
vn -0.0000 -0.9007 -0.4344
vn -0.2813 -0.3118 -0.9076
vn -0.2177 -0.7987 -0.5610
vn -0.0000 0.0780 -0.9970
vn 0.5183 0.4047 0.7534
vn 0.5571 0.3879 0.7343
vn 0.7882 0.6151 -0.0173
vn 0.6220 0.7830 -0.0036
vn 0.4116 0.4538 0.7903
vn 0.4206 0.9015 0.1018
vn 0.2940 0.5002 0.8145
vn 0.2518 0.9604 0.1198
vn 0.1547 0.5487 0.8216
vn 0.0868 0.9918 0.0936
vn 0.5193 0.3655 0.7725
vn 0.8963 -0.1962 0.3976
vn 0.9413 -0.1386 0.3079
vn 0.3705 0.4005 0.8380
vn 0.4707 0.3776 0.7974
vn 0.2851 0.4220 0.8606
vn 0.1980 0.4396 0.8761
vn 0.3676 0.4016 0.8388
vn 0.7952 -0.1473 0.5882
vn 0.3370 0.3722 0.8648
vn 0.3953 0.3736 0.8392
vn 0.2775 0.3652 0.8886
vn 0.1962 0.3577 0.9130
vn 0.7287 -0.2547 0.6357
vn 0.6602 -0.2694 0.7011
vn 0.4683 -0.4355 0.7688
vn 0.2801 -0.4628 0.8410
vn 0.1438 -0.4722 0.8697
vn 0.9811 0.1891 -0.0421
vn 0.7422 -0.2578 0.6186
vn 0.0081 0.0538 -0.9985
vn -0.5573 -0.3877 -0.7343
vn -0.5169 -0.4036 -0.7550
vn -0.0806 0.1890 -0.9787
vn -0.4123 -0.4507 -0.7918
vn -0.1672 0.2312 -0.9584
vn -0.2945 -0.4999 -0.8144
vn -0.1425 0.1836 -0.9726
vn -0.1550 -0.5485 -0.8217
vn -0.0696 0.1164 -0.9908
vn 0.1659 -0.7227 -0.6710
vn -0.5195 -0.3661 -0.7721
vn 0.1791 -0.6872 -0.7041
vn -0.4604 -0.3825 -0.8011
vn -0.3754 -0.3957 -0.8381
vn -0.2979 -0.4164 -0.8590
vn -0.1998 -0.4392 -0.8759
vn 0.3429 -0.7629 -0.5481
vn -0.3467 -0.4111 -0.8431
vn -0.3598 -0.3984 -0.8437
vn -0.3511 -0.3728 -0.8589
vn -0.2973 -0.3690 -0.8806
vn -0.1953 -0.3696 -0.9084
vn 0.2698 -0.8090 -0.5223
vn 0.2683 -0.8132 -0.5164
vn 0.1576 -0.8702 -0.4669
vn 0.0429 -0.8992 -0.4354
vn 0.0137 -0.9014 -0.4329
vn 0.2813 -0.3118 -0.9076
vn 0.2177 -0.7987 -0.5610
vn -0.6358 0.7525 0.1719
vn -0.5973 0.7926 0.1224
vn -0.9071 0.3981 0.1365
vn -0.8915 0.3835 0.2412
vn -0.9817 0.1819 0.0560
vn -0.9214 0.2995 0.2477
vn 0.9009 0.3919 0.1866
vn 0.6278 0.7654 0.1413
vn 0.5560 0.7457 0.3671
vn 0.7027 0.4838 0.5217
vn 0.9435 0.2381 0.2304
vn 0.6099 0.3960 0.6864
vn -0.2810 0.7774 0.5627
vn -0.2909 0.4724 0.8320
vn -0.0069 0.4601 0.8878
vn -0.0000 0.8174 0.5760
vn -0.0000 0.9904 0.1381
vn -0.2276 0.9626 0.1470
vn -0.2609 0.4472 0.8555
vn -0.0147 0.3545 0.9349
vn 0.2667 0.7853 0.5587
vn 0.2680 0.4852 0.8323
vn -0.5595 0.7120 0.4242
vn -0.6450 0.4938 0.5832
vn 0.2267 0.9627 0.1474
vn -0.2241 0.9725 0.0636
vn 0.2471 0.4130 0.8766
vn -0.5974 0.5087 0.6200
vn 0.8997 0.4195 0.1207
vn 0.5722 0.8166 0.0761
vn 0.9817 0.1819 0.0560
vn -0.0000 0.9991 0.0413
vn 0.2227 0.9729 0.0621
vn 0.9084 -0.3953 -0.1363
vn 0.5984 -0.7919 -0.1219
vn 0.6365 -0.7522 -0.1706
vn 0.8929 -0.3808 -0.2402
vn 0.9829 -0.1773 -0.0505
vn 0.9224 -0.2982 -0.2454
vn -0.5565 -0.7458 -0.3662
vn -0.6277 -0.7656 -0.1406
vn -0.9021 -0.3900 -0.1850
vn -0.7036 -0.4828 -0.5213
vn -0.9448 -0.2352 -0.2281
vn -0.6117 -0.3937 -0.6862
vn 0.0068 -0.4564 -0.8897
vn 0.2902 -0.4696 -0.8338
vn 0.2809 -0.7770 -0.5633
vn -0.0000 -0.8167 -0.5771
vn 0.2265 -0.9633 -0.1441
vn -0.0000 -0.9909 -0.1348
vn 0.0147 -0.3538 -0.9352
vn 0.2608 -0.4473 -0.8555
vn -0.2669 -0.4818 -0.8346
vn -0.2662 -0.7850 -0.5593
vn 0.5599 -0.7117 -0.4242
vn 0.6456 -0.4920 -0.5840
vn -0.2259 -0.9633 -0.1447
vn 0.2229 -0.9728 -0.0628
vn -0.2466 -0.4128 -0.8768
vn 0.5991 -0.5079 -0.6190
vn -0.9007 -0.4173 -0.1208
vn -0.5738 -0.8155 -0.0751
vn -0.9825 -0.1784 -0.0530
vn -0.0000 -0.9992 -0.0407
vn -0.2216 -0.9732 -0.0613
vn -0.2333 -0.0342 -0.9718
vn -0.2930 -0.3774 -0.8784
vn -0.3032 -0.3695 -0.8784
vn -0.2297 -0.0251 -0.9729
vn -0.1598 -0.9261 0.3417
vn -0.1934 -0.9034 0.3828
vn -0.1861 -0.9043 0.3842
vn -0.1522 -0.9269 0.3430
vn -0.1351 -0.4592 -0.8780
vn -0.1440 -0.4571 -0.8777
vn 0.0887 -0.8949 0.4374
vn 0.1393 -0.9159 0.3764
vn 0.1395 -0.9163 0.3755
vn 0.0869 -0.8951 0.4374
vn -0.0236 -0.8896 0.4561
vn 0.0025 -0.9347 0.3555
vn 0.0023 -0.9344 0.3562
vn -0.0255 -0.8878 0.4596
vn 0.0114 0.0692 -0.9975
vn 0.0119 0.0676 -0.9976
vn 0.0173 -0.9060 0.4230
vn 0.0172 -0.9068 0.4211
vn -0.1751 -0.8386 0.5158
vn -0.1708 -0.8383 0.5178
vn 0.2866 -0.3467 -0.8931
vn 0.1993 -0.0491 -0.9787
vn 0.1842 -0.0452 -0.9819
vn 0.2762 -0.3468 -0.8963
vn 0.1424 -0.4456 -0.8838
vn 0.1331 -0.4464 -0.8849
vn 0.1521 -0.9268 0.3435
vn 0.1519 -0.9268 0.3434
vn -0.0005 0.0415 -0.9991
vn -0.0004 0.0416 -0.9991
vn -0.0086 0.0654 -0.9978
vn -0.0084 0.0663 -0.9978
vn -0.0000 0.5067 0.8621
vn 0.0001 0.5067 0.8621
vn -0.0000 0.5068 0.8621
vn -0.0000 0.5068 0.8620
vn -0.0000 0.5069 0.8620
vn -0.0001 0.5067 0.8621
vn -0.0001 0.5068 0.8621
vn 0.9664 -0.2217 0.1303
vn 0.8550 -0.4470 0.2628
vn -0.8660 0.4311 -0.2534
vn -0.9659 0.2231 -0.1311
vn -0.8660 0.4310 -0.2534
vn 0.7057 -0.6108 0.3590
vn 0.6219 -0.6751 0.3968
vn -0.5000 0.7466 -0.4388
vn -0.7071 0.6096 -0.3583
vn -0.0000 -0.8621 0.5067
vn 0.1429 -0.8533 0.5015
vn -0.0000 0.8621 -0.5067
vn -0.2588 0.8327 -0.4894
vn -0.0000 0.8621 -0.5068
vn -0.4877 -0.7526 0.4424
vn -0.2492 -0.8349 0.4907
vn 0.6901 0.6239 -0.3668
vn 0.8020 0.5150 -0.3027
vn 0.8019 0.5150 -0.3027
vn -0.8619 -0.4372 0.2570
vn -0.6911 -0.6231 0.3663
vn 0.9962 0.0749 -0.0440
vn 1.0000 -0.0078 0.0046
vn 1.0000 -0.0077 0.0046
vn -1.0000 -0.0000 -0.0000
vn -0.9659 -0.2231 0.1311
vn 0.1195 0.8560 -0.5030
vn 0.1195 0.8559 -0.5031
vn 0.5586 0.7151 -0.4203
vn 0.9256 -0.3264 0.1918
vn -0.9210 0.3359 -0.1974
vn 0.9579 -0.2476 0.1455
vn -0.9377 0.2995 -0.1760
vn -0.9400 -0.2942 0.1729
vn 0.9460 0.2794 -0.1642
vn 0.0010 -0.8621 0.5067
vn 0.0004 -0.8621 0.5067
vn -0.0050 0.8621 -0.5067
vn -0.0049 0.8621 -0.5067
vn -0.0000 0.5066 0.8622
vn 0.0001 0.5068 0.8621
vn -0.8550 -0.4470 0.2628
vn -0.8551 -0.4470 0.2628
vn -0.9664 -0.2217 0.1303
vn 0.9659 0.2231 -0.1311
vn 0.8660 0.4311 -0.2534
vn 0.8660 0.4310 -0.2534
vn -0.6219 -0.6751 0.3968
vn -0.7057 -0.6108 0.3590
vn 0.7071 0.6096 -0.3583
vn 0.5000 0.7466 -0.4388
vn -0.1429 -0.8533 0.5015
vn -0.0010 -0.8621 0.5067
vn -0.1430 -0.8533 0.5015
vn 0.2588 0.8327 -0.4894
vn 0.2492 -0.8349 0.4907
vn 0.4877 -0.7526 0.4424
vn -0.8019 0.5150 -0.3027
vn -0.8020 0.5150 -0.3027
vn -0.6901 0.6239 -0.3668
vn 0.6911 -0.6231 0.3663
vn 0.8619 -0.4372 0.2570
vn -1.0000 -0.0078 0.0046
vn -0.9962 0.0749 -0.0440
vn -1.0000 -0.0076 0.0045
vn 0.9659 -0.2231 0.1311
vn 1.0000 -0.0000 -0.0000
vn -0.1195 0.8559 -0.5031
vn -0.1195 0.8560 -0.5030
vn -0.5586 0.7151 -0.4204
vn -0.5586 0.7151 -0.4203
vn -0.6893 0.6246 -0.3671
vn -0.9256 -0.3264 0.1918
vn 0.9210 0.3359 -0.1974
vn -0.9579 -0.2476 0.1455
vn 0.9377 0.2995 -0.1760
vn 0.9377 0.2995 -0.1761
vn 0.9400 -0.2942 0.1729
vn -0.9460 0.2794 -0.1642
vn -0.0001 -0.8621 0.5067
vn 0.0050 0.8621 -0.5067
vn 0.0049 0.8621 -0.5067
vn -0.0000 -0.4029 -0.9152
vn -0.9487 0.2892 -0.1273
vn -0.9871 0.1465 -0.0645
vn -0.0000 0.4029 0.9152
vn 0.7923 -0.5584 0.2458
vn 0.9885 -0.1386 0.0610
vn -0.4330 0.8250 -0.3632
vn -0.2220 0.8924 -0.3929
vn 0.2776 -0.8793 0.3871
vn 0.2220 0.8924 -0.3929
vn -0.0000 -0.4030 -0.9152
vn -0.2776 -0.8793 0.3871
vn -0.0000 0.4030 0.9152
vn 0.9488 0.2892 -0.1273
vn 0.9487 0.2892 -0.1273
vn 0.9871 0.1465 -0.0645
vn -0.7923 -0.5584 0.2458
vn -0.9885 -0.1386 0.0610
vn 0.4330 0.8250 -0.3632
vn -0.9885 0.1386 -0.0610
vn -0.9871 -0.1465 0.0645
vn -0.9487 -0.2892 0.1273
vn 0.7923 0.5584 -0.2458
vn 0.7924 0.5584 -0.2458
vn 0.9885 0.1386 -0.0610
vn -0.4330 -0.8250 0.3632
vn -0.2220 -0.8924 0.3929
vn -0.0000 0.4029 0.9153
vn 0.2776 0.8793 -0.3870
vn 0.9871 -0.1465 0.0645
vn 0.2220 -0.8924 0.3929
vn -0.2776 0.8793 -0.3870
vn 0.9487 -0.2892 0.1273
vn 0.9488 -0.2892 0.1273
vn -0.7923 0.5584 -0.2458
vn 0.4330 -0.8250 0.3632
vn -0.0000 0.2890 0.9573
vn -0.0000 -0.9573 0.2890
vn -0.0000 -0.8836 0.4683
vn -0.0000 0.9573 -0.2890
vn -0.0000 -0.2890 -0.9573
vn -0.0000 0.7765 -0.6301
vn -0.0000 0.8956 -0.4448
vn -0.0000 -0.8956 0.4448
vn -0.0000 0.9993 0.0366
vn -0.0000 0.9961 0.0878
vn -0.9524 0.0881 0.2919
vn -0.9822 0.0544 0.1797
vn -0.0000 -0.9965 -0.0837
vn -0.0000 -0.9995 -0.0329
vn 0.9822 0.0543 0.1798
vn 0.9522 0.0885 0.2924
vn -0.0000 0.8859 0.4639
vn -0.0000 0.8716 0.4903
vn -0.8618 0.0943 0.4985
vn -0.8452 0.0071 0.5344
vn -0.0000 -0.8753 -0.4835
vn -0.0000 -0.8893 -0.4573
vn 0.8449 -0.0062 0.5348
vn 0.8608 0.0952 0.4999
vn -0.0000 0.8204 0.5718
vn -0.8306 -0.0364 0.5556
vn -0.8250 -0.0305 0.5644
vn -0.0000 -0.8245 -0.5658
vn 0.8328 -0.0362 0.5523
vn 0.8328 -0.0299 0.5527
vn -0.0000 -0.0540 0.9985
vn 0.7071 0.6769 -0.2043
vn -0.7071 0.6769 -0.2043
vn -0.7071 -0.6769 0.2043
vn 0.7071 -0.6769 0.2043
vn -0.7779 -0.2729 0.5661
vn -0.6632 -0.5051 0.5523
vn -0.7320 0.4277 -0.5303
vn -0.6560 0.3157 -0.6856
vn 0.7320 0.4277 -0.5303
vn 0.6560 0.3157 -0.6856
vn 0.7779 -0.2728 0.5661
vn 0.6632 -0.5051 0.5523
vn -0.6475 -0.4892 -0.5843
vn -0.7880 0.3610 0.4988
vn -0.7614 0.0448 0.6468
vn -0.6473 -0.0836 -0.7576
vn 0.6473 -0.0836 -0.7576
vn 0.6475 -0.4892 -0.5843
vn 0.7614 0.0448 0.6468
vn 0.7879 0.3610 0.4988
vn -0.6413 -0.7422 0.1945
vn -0.8024 0.5842 -0.1217
vn -0.7588 0.6006 0.2519
vn -0.6546 -0.7161 -0.2423
vn 0.6413 -0.7423 0.1945
vn 0.6546 -0.7161 -0.2423
vn 0.8024 0.5842 -0.1217
vn 0.7588 0.6006 0.2519
vn -0.7212 -0.5778 0.3821
vn -0.6905 0.6006 -0.4032
vn 0.7212 -0.5778 0.3821
vn 0.6904 0.6006 -0.4032
vn 0.7779 -0.2729 0.5661
vn 0.7880 0.3610 0.4988
vn -0.7879 0.3610 0.4988
vn 0.6413 -0.7422 0.1945
vn -0.6413 -0.7423 0.1945
vn 0.6905 0.6006 -0.4032
vn -0.6904 0.6006 -0.4032
vt 0.360068 0.931197
vt 0.353872 0.961877
vt 0.343016 0.955152
vt 0.349310 0.927477
vt 0.381625 0.935708
vt 0.375545 0.966318
vt 0.401570 0.937249
vt 0.396449 0.967755
vt 0.415567 0.937191
vt 0.417686 0.967389
vt 0.431487 0.935929
vt 0.434380 0.965764
vt 0.338712 0.923835
vt 0.349997 0.894376
vt 0.358849 0.894864
vt 0.387545 0.892831
vt 0.367794 0.895278
vt 0.403376 0.891378
vt 0.414883 0.891196
vt 0.427109 0.890757
vt 0.363952 0.865679
vt 0.369233 0.863876
vt 0.392886 0.854363
vt 0.378485 0.860560
vt 0.404131 0.850663
vt 0.413946 0.846642
vt 0.422585 0.844167
vt 0.381419 0.841373
vt 0.386177 0.835529
vt 0.398307 0.822982
vt 0.405547 0.819826
vt 0.413876 0.817377
vt 0.419901 0.816470
vt 0.333904 0.946772
vt 0.376941 0.846903
vt 0.715838 0.953717
vt 0.705143 0.960387
vt 0.699016 0.930003
vt 0.709574 0.926321
vt 0.684046 0.964699
vt 0.678058 0.934450
vt 0.663954 0.965912
vt 0.658758 0.935876
vt 0.643604 0.965323
vt 0.645478 0.935685
vt 0.709051 0.893446
vt 0.720165 0.922711
vt 0.700238 0.893978
vt 0.672498 0.892287
vt 0.691615 0.894415
vt 0.656921 0.890543
vt 0.645907 0.890339
vt 0.630324 0.934386
vt 0.634640 0.889942
vt 0.696152 0.864623
vt 0.690102 0.860929
vt 0.667307 0.853965
vt 0.683793 0.856878
vt 0.656122 0.850147
vt 0.646811 0.846169
vt 0.639120 0.843805
vt 0.674409 0.835091
vt 0.678551 0.840537
vt 0.662325 0.823026
vt 0.655012 0.819610
vt 0.647204 0.817269
vt 0.641775 0.816447
vt 0.724998 0.945365
vt 0.682888 0.846177
vt 0.295284 0.563381
vt 0.283221 0.571841
vt 0.280579 0.568668
vt 0.292682 0.559950
vt 0.314101 0.557411
vt 0.311882 0.553643
vt 0.333472 0.552894
vt 0.332026 0.549040
vt 0.354041 0.550331
vt 0.353473 0.546516
vt 0.370512 0.545906
vt 0.370512 0.549717
vt 0.976980 0.162168
vt 0.978982 0.193601
vt 0.974742 0.195172
vt 0.972779 0.163521
vt 0.981091 0.224509
vt 0.976313 0.226008
vt 0.656535 0.296756
vt 0.651641 0.292880
vt 0.653028 0.287739
vt 0.658511 0.292192
vt 0.637378 0.284575
vt 0.638512 0.279691
vt 0.629328 0.281879
vt 0.630492 0.277631
vt 0.620829 0.280385
vt 0.621451 0.276001
vt 0.615196 0.280042
vt 0.615196 0.275603
vt 0.974207 0.137802
vt 0.969911 0.138856
vt 0.272902 0.582195
vt 0.270303 0.579034
vt 0.677360 0.314522
vt 0.661614 0.301004
vt 0.663714 0.296430
vt 0.679186 0.310035
vt 0.627479 0.963701
vt 0.500667 0.917561
vt 0.510510 0.911844
vt 0.522001 0.937796
vt 0.512638 0.946481
vt 0.480378 0.926129
vt 0.492225 0.955002
vt 0.461101 0.931475
vt 0.471987 0.960428
vt 0.447354 0.934108
vt 0.451075 0.964151
vt 0.494890 0.881665
vt 0.503485 0.879488
vt 0.520212 0.906236
vt 0.466341 0.885184
vt 0.486193 0.883789
vt 0.450522 0.886804
vt 0.439192 0.888839
vt 0.478767 0.853230
vt 0.484296 0.853984
vt 0.453734 0.848447
vt 0.469050 0.851755
vt 0.441968 0.847004
vt 0.431538 0.844941
vt 0.462448 0.833512
vt 0.456636 0.828692
vt 0.442263 0.818737
vt 0.434575 0.817045
vt 0.425987 0.816209
vt 0.529333 0.927824
vt 0.467916 0.838073
vt 0.542688 0.936905
vt 0.554106 0.911226
vt 0.563759 0.916871
vt 0.551901 0.945508
vt 0.583470 0.925266
vt 0.571774 0.953798
vt 0.602136 0.930379
vt 0.591259 0.958854
vt 0.615204 0.932746
vt 0.611342 0.962191
vt 0.560946 0.879065
vt 0.569493 0.881283
vt 0.544409 0.905646
vt 0.577870 0.883372
vt 0.597039 0.884962
vt 0.612660 0.886246
vt 0.623507 0.888164
vt 0.579150 0.853263
vt 0.585797 0.850802
vt 0.592767 0.848041
vt 0.609504 0.848354
vt 0.621214 0.846758
vt 0.631117 0.844645
vt 0.601055 0.833014
vt 0.606167 0.828466
vt 0.620345 0.818950
vt 0.628177 0.817006
vt 0.636289 0.816209
vt 0.535306 0.926946
vt 0.595714 0.837713
vt 0.445741 0.563381
vt 0.448343 0.559950
vt 0.460446 0.568668
vt 0.457805 0.571841
vt 0.426924 0.557411
vt 0.429143 0.553643
vt 0.407553 0.552894
vt 0.408999 0.549040
vt 0.386984 0.550331
vt 0.387552 0.546516
vt 0.969911 0.263004
vt 0.974197 0.264061
vt 0.974446 0.295771
vt 0.970108 0.294500
vt 0.975030 0.326642
vt 0.970159 0.325480
vt 0.573857 0.296756
vt 0.571880 0.292192
vt 0.577364 0.287739
vt 0.578751 0.292880
vt 0.591879 0.279691
vt 0.593015 0.284575
vt 0.599901 0.277631
vt 0.601064 0.281879
vt 0.608941 0.276001
vt 0.609563 0.280385
vt 0.970978 0.238503
vt 0.975336 0.239255
vt 0.470722 0.579034
vt 0.468123 0.582195
vt 0.553032 0.314521
vt 0.551206 0.310035
vt 0.566679 0.296430
vt 0.568779 0.301004
vt 0.112182 0.068087
vt 0.111571 0.070398
vt 0.108422 0.067402
vt 0.109246 0.065503
vt 0.105174 0.062518
vt 0.106856 0.060987
vt 0.152897 0.062039
vt 0.150010 0.064933
vt 0.148473 0.062151
vt 0.150256 0.059118
vt 0.154723 0.057162
vt 0.150325 0.055072
vt 0.120530 0.062788
vt 0.119978 0.059189
vt 0.130611 0.057926
vt 0.130791 0.061619
vt 0.131259 0.067236
vt 0.120687 0.067822
vt 0.119000 0.055439
vt 0.130070 0.053516
vt 0.141110 0.061130
vt 0.141303 0.057388
vt 0.113654 0.064972
vt 0.112044 0.062178
vt 0.141836 0.066132
vt 0.120457 0.071240
vt 0.141385 0.053409
vt 0.110717 0.058441
vt 0.153937 0.063821
vt 0.150762 0.067262
vt 0.156565 0.058547
vt 0.131592 0.071252
vt 0.142627 0.069448
vt 0.152228 0.101438
vt 0.149298 0.104354
vt 0.148667 0.102070
vt 0.151416 0.099585
vt 0.155353 0.096564
vt 0.153763 0.095088
vt 0.112919 0.096317
vt 0.111448 0.099014
vt 0.108732 0.096251
vt 0.111211 0.093421
vt 0.106944 0.091441
vt 0.111088 0.089458
vt 0.130500 0.092310
vt 0.141004 0.093525
vt 0.140486 0.096945
vt 0.130344 0.095785
vt 0.140371 0.101774
vt 0.129901 0.101187
vt 0.131024 0.087951
vt 0.141985 0.089792
vt 0.119938 0.091773
vt 0.120136 0.095329
vt 0.147235 0.099070
vt 0.148778 0.096384
vt 0.119425 0.100126
vt 0.140602 0.105153
vt 0.119838 0.087835
vt 0.150123 0.092655
vt 0.107702 0.098004
vt 0.110685 0.101306
vt 0.105174 0.092780
vt 0.129577 0.105158
vt 0.118652 0.103407
vt 0.146130 0.082770
vt 0.147766 0.079519
vt 0.148201 0.079710
vt 0.146415 0.083149
vt 0.155856 0.080621
vt 0.155685 0.078676
vt 0.156119 0.078559
vt 0.156318 0.080595
vt 0.148352 0.074432
vt 0.148822 0.074520
vt 0.116193 0.075317
vt 0.113964 0.078667
vt 0.113519 0.078559
vt 0.115906 0.074994
vt 0.145525 0.072436
vt 0.134812 0.071457
vt 0.134819 0.071016
vt 0.145647 0.072034
vt 0.137883 0.085675
vt 0.137990 0.086140
vt 0.124107 0.072446
vt 0.123990 0.072034
vt 0.153450 0.075286
vt 0.153732 0.074994
vt 0.106226 0.079509
vt 0.108370 0.082921
vt 0.108095 0.083311
vt 0.105795 0.079710
vt 0.105643 0.074432
vt 0.105174 0.074520
vt 0.113782 0.080621
vt 0.113320 0.080595
vt 0.126998 0.086706
vt 0.126998 0.087185
vt 0.116111 0.085675
vt 0.116005 0.086140
vt 2.500275 0.206586
vt 2.500066 0.207764
vt 2.497996 0.207044
vt 2.498437 0.206052
vt 2.504000 0.206260
vt 2.504409 0.207385
vt 2.502257 0.207796
vt 2.502189 0.206630
vt 2.506322 0.206316
vt 2.505721 0.205458
vt 2.507147 0.204184
vt 2.507981 0.204884
vt 2.494469 0.198003
vt 2.493304 0.197804
vt 2.493954 0.195937
vt 2.494903 0.196380
vt 2.494737 0.201941
vt 2.493614 0.202350
vt 2.493210 0.200028
vt 2.494264 0.199937
vt 2.496884 0.205005
vt 2.496114 0.205923
vt 2.494682 0.204263
vt 2.495540 0.203662
vt 2.495945 0.194785
vt 2.495110 0.194084
vt 2.503757 0.204828
vt 2.502487 0.205796
vt 2.500243 0.198682
vt 2.500351 0.200107
vt 2.501396 0.200749
vt 2.503081 0.201078
vt 2.955259 0.297260
vt 2.955259 0.295422
vt 2.956617 0.295422
vt 2.956617 0.297260
vt 2.987448 0.177592
vt 2.987448 0.179785
vt 2.986062 0.179785
vt 2.986062 0.177592
vt 2.412363 0.761035
vt 2.412363 0.762883
vt 2.411067 0.762883
vt 2.411067 0.761035
vt 2.453486 0.862717
vt 2.453486 0.864996
vt 2.452139 0.864996
vt 2.452139 0.862717
vt 2.371853 0.078229
vt 2.373789 0.078229
vt 2.373789 0.079540
vt 2.371853 0.079540
vt 2.453486 0.858579
vt 2.453486 0.860553
vt 2.452139 0.860553
vt 2.452139 0.858579
vt 2.109538 0.963510
vt 2.109538 0.965600
vt 2.108169 0.965600
vt 2.108169 0.963510
vt 2.982245 0.424065
vt 2.982245 0.426159
vt 2.980928 0.426159
vt 2.980928 0.424065
vt 2.987448 0.186607
vt 2.987448 0.188538
vt 2.986062 0.188538
vt 2.986062 0.186607
vt 2.955259 0.301198
vt 2.955259 0.299213
vt 2.956617 0.299213
vt 2.956617 0.301198
vt 2.987448 0.182099
vt 2.987448 0.184415
vt 2.986062 0.184415
vt 2.986062 0.182099
vt 2.987448 0.175773
vt 2.986062 0.175773
vt 2.955259 0.293852
vt 2.956617 0.293852
vt 2.108169 0.967852
vt 2.109538 0.967852
vt 2.987929 0.422199
vt 2.989851 0.422199
vt 2.989851 0.423505
vt 2.987929 0.423505
vt 2.109538 0.961256
vt 2.108169 0.961256
vt 2.982245 0.422199
vt 2.980928 0.422199
vt 2.987356 0.201442
vt 2.987356 0.210912
vt 2.986062 0.210912
vt 2.986062 0.201442
vt 2.987356 0.310837
vt 2.987356 0.318105
vt 2.986062 0.318105
vt 2.986062 0.310837
vt 2.936018 0.319522
vt 2.936018 0.325337
vt 2.934723 0.325337
vt 2.934723 0.319522
vt 2.489371 0.966390
vt 2.489371 0.972636
vt 2.488076 0.972636
vt 2.488076 0.966390
vt 2.258346 0.945855
vt 2.258346 0.946077
vt 2.257051 0.946077
vt 2.257051 0.945855
vt 2.382752 0.705858
vt 2.381508 0.705858
vt 2.381508 0.704562
vt 2.382752 0.704562
vt 2.987356 0.309254
vt 2.986062 0.309254
vt 2.867983 0.067962
vt 2.872696 0.067962
vt 2.872696 0.069257
vt 2.867983 0.069257
vt 2.498325 0.023052
vt 2.493210 0.023052
vt 2.493210 0.021757
vt 2.498325 0.021757
vt 2.385398 0.714830
vt 2.386462 0.714830
vt 2.386462 0.716125
vt 2.385398 0.716125
vt 2.031629 0.659652
vt 2.031395 0.659652
vt 2.031395 0.658358
vt 2.031629 0.658358
vt 2.500524 0.198627
vt 2.501151 0.199152
vt 2.500386 0.198511
vt 2.502725 0.200474
vt 2.503232 0.200899
vt 2.502082 0.199934
vt 2.508376 0.194676
vt 2.509443 0.196589
vt 2.508319 0.196998
vt 2.507473 0.195282
vt 2.509855 0.198741
vt 2.509823 0.200933
vt 2.508645 0.200724
vt 2.508694 0.198876
vt 2.508154 0.202559
vt 2.509103 0.203002
vt 2.496734 0.192623
vt 2.498459 0.191660
vt 2.498859 0.192772
vt 2.497336 0.193482
vt 2.500634 0.191180
vt 2.502991 0.191175
vt 2.502784 0.192353
vt 2.500728 0.192234
vt 2.505060 0.191895
vt 2.506943 0.193017
vt 2.506172 0.193934
vt 2.504617 0.192844
vt 2.507924 0.199315
vt 2.507193 0.200733
vt 2.501951 0.198200
vt 2.500529 0.198341
vt 2.503381 0.200719
vt 2.502765 0.199118
vt 2.361298 0.059052
vt 2.361298 0.057694
vt 2.363136 0.057694
vt 2.363136 0.059052
vt 2.313524 0.189662
vt 2.314909 0.189662
vt 2.314909 0.191855
vt 2.313524 0.191855
vt 2.262185 0.084658
vt 2.262185 0.083363
vt 2.264034 0.083363
vt 2.264034 0.084658
vt 2.427816 0.793122
vt 2.426469 0.793122
vt 2.426469 0.790842
vt 2.427816 0.790842
vt 2.369997 0.079540
vt 2.369997 0.078229
vt 2.427816 0.788679
vt 2.426469 0.788679
vt 2.426469 0.786704
vt 2.427816 0.786704
vt 2.108169 0.969875
vt 2.109538 0.969875
vt 2.109538 0.971436
vt 2.108169 0.971436
vt 2.482942 0.073095
vt 2.484258 0.073095
vt 2.484258 0.075189
vt 2.482942 0.075189
vt 2.313524 0.180907
vt 2.314909 0.180907
vt 2.314909 0.182838
vt 2.313524 0.182838
vt 2.365089 0.059052
vt 2.365089 0.057694
vt 2.367074 0.057694
vt 2.367074 0.059052
vt 2.313524 0.185030
vt 2.314909 0.185030
vt 2.314909 0.187346
vt 2.313524 0.187346
vt 2.314909 0.193675
vt 2.313524 0.193675
vt 2.359729 0.059052
vt 2.359729 0.057694
vt 2.986062 0.423505
vt 2.986062 0.422199
vt 2.108169 0.796972
vt 2.109464 0.796972
vt 2.109464 0.799198
vt 2.108169 0.799198
vt 2.484258 0.077055
vt 2.482942 0.077055
vt 2.226248 0.396530
vt 2.227542 0.396530
vt 2.227542 0.405999
vt 2.226248 0.405999
vt 2.987356 0.338639
vt 2.986062 0.338639
vt 2.986062 0.331372
vt 2.987356 0.331372
vt 2.936018 0.345871
vt 2.934723 0.345871
vt 2.934723 0.340057
vt 2.936018 0.340057
vt 2.443166 0.916164
vt 2.441871 0.916164
vt 2.441871 0.909918
vt 2.443166 0.909918
vt 2.258346 0.946299
vt 2.257051 0.946299
vt 2.380264 0.705858
vt 2.380264 0.704562
vt 2.986062 0.329789
vt 2.987356 0.329789
vt 2.533860 0.021757
vt 2.533860 0.023052
vt 2.529147 0.023052
vt 2.529147 0.021757
vt 2.405934 0.048721
vt 2.405934 0.047426
vt 2.411049 0.047426
vt 2.411049 0.048721
vt 2.387527 0.714830
vt 2.387527 0.716125
vt 2.031161 0.659652
vt 2.031161 0.658358
vt 2.458619 0.310051
vt 2.268570 0.310051
vt 2.268570 0.312514
vt 2.458619 0.312514
vt 2.634036 0.482672
vt 2.629220 0.482672
vt 2.629220 0.485387
vt 2.634036 0.485387
vt 2.764644 0.540782
vt 2.766248 0.535966
vt 2.763313 0.535966
vt 2.762383 0.538931
vt 2.265412 0.308060
vt 2.264482 0.305095
vt 2.261547 0.305095
vt 2.263151 0.309911
vt 2.634138 0.481411
vt 2.637103 0.481411
vt 2.637103 0.479854
vt 2.634138 0.479854
vt 2.261547 0.315969
vt 2.266966 0.315969
vt 2.266966 0.313254
vt 2.261547 0.313254
vt 2.759225 0.540922
vt 2.759225 0.543385
vt 2.457912 0.383948
vt 2.454754 0.383948
vt 2.454754 0.385505
vt 2.457912 0.385505
vt 2.459773 0.376399
vt 2.455684 0.376399
vt 2.455684 0.381356
vt 2.458843 0.379364
vt 2.268570 0.305095
vt 2.458619 0.305095
vt 2.458619 0.253053
vt 2.268570 0.253053
vt 2.457015 0.313254
vt 2.457015 0.315969
vt 2.569176 0.540922
vt 2.569176 0.543385
vt 2.462708 0.305095
vt 2.465642 0.305095
vt 2.465642 0.253053
vt 2.462708 0.253053
vt 2.264705 0.383948
vt 2.264705 0.385505
vt 2.265635 0.376399
vt 2.265635 0.381356
vt 2.572362 0.479854
vt 2.572362 0.482570
vt 2.577178 0.482570
vt 2.577178 0.479854
vt 2.563757 0.540782
vt 2.566018 0.538931
vt 2.565087 0.535966
vt 2.562153 0.535966
vt 2.461777 0.308060
vt 2.464038 0.309911
vt 2.630334 0.487046
vt 2.630334 0.485489
vt 2.627369 0.485489
vt 2.627369 0.487046
vt 2.462434 0.315969
vt 2.462434 0.313254
vt 2.261547 0.383948
vt 2.261547 0.385505
vt 2.261547 0.376399
vt 2.262478 0.379364
vt 2.455684 0.324358
vt 2.265635 0.324358
vt 2.565087 0.483924
vt 2.562153 0.483924
vt 2.575328 0.485489
vt 2.575328 0.487046
vt 2.261547 0.324358
vt 2.577178 0.482672
vt 2.577178 0.485387
vt 2.268570 0.245634
vt 2.268570 0.248097
vt 2.458619 0.248097
vt 2.458619 0.245634
vt 2.264482 0.253053
vt 2.261547 0.253053
vt 2.572362 0.482672
vt 2.572362 0.485387
vt 2.764644 0.479108
vt 2.762383 0.480959
vt 2.763313 0.483924
vt 2.766248 0.483924
vt 2.265412 0.250088
vt 2.263151 0.248237
vt 2.692110 0.481411
vt 2.692110 0.479854
vt 2.689145 0.479854
vt 2.689145 0.481411
vt 2.462434 0.319043
vt 2.462434 0.316328
vt 2.457015 0.316328
vt 2.457015 0.319043
vt 2.759225 0.476505
vt 2.759225 0.478968
vt 2.261547 0.381899
vt 2.261547 0.383456
vt 2.264705 0.383456
vt 2.264705 0.381899
vt 2.459773 0.324358
vt 2.458843 0.321393
vt 2.455684 0.319401
vt 2.629220 0.482570
vt 2.629220 0.479854
vt 2.266966 0.316328
vt 2.266966 0.319043
vt 2.569176 0.476505
vt 2.569176 0.478968
vt 2.454754 0.383456
vt 2.454754 0.381899
vt 2.265635 0.319401
vt 2.634036 0.479854
vt 2.634036 0.482570
vt 2.563757 0.479108
vt 2.566018 0.480959
vt 2.461777 0.250088
vt 2.464038 0.248237
vt 2.572362 0.487046
vt 2.572362 0.485489
vt 2.261547 0.319043
vt 2.261547 0.316328
vt 2.457912 0.381899
vt 2.457912 0.383456
vt 2.262478 0.321393
vt 3.674575 0.220742
vt 3.674575 0.227505
vt 3.664648 0.227505
vt 3.664648 0.220742
vt 3.684506 0.234269
vt 3.674575 0.234269
vt 3.684506 0.227505
vt 3.684506 0.220742
vt 3.664648 0.234269
vt 3.984744 0.843374
vt 3.984894 0.853540
vt 3.982111 0.853581
vt 3.981960 0.843416
vt 3.985044 0.863708
vt 3.982260 0.863750
vt 3.626624 0.201730
vt 3.633536 0.201730
vt 3.633536 0.204506
vt 3.626624 0.204506
vt 3.640447 0.201730
vt 3.640447 0.204506
vt 3.553320 0.224797
vt 3.548414 0.233703
vt 3.545975 0.232362
vt 3.550882 0.223455
vt 3.543508 0.242611
vt 3.541071 0.241269
vt 3.398484 0.220742
vt 3.405246 0.220742
vt 3.405246 0.223461
vt 3.398484 0.223461
vt 3.412009 0.220742
vt 3.412009 0.223461
vt 3.350955 0.097166
vt 3.357720 0.097166
vt 3.357720 0.099884
vt 3.350955 0.099884
vt 3.364483 0.097166
vt 3.364483 0.099884
vt 3.552224 0.221017
vt 3.554663 0.222361
vt 3.985085 0.866491
vt 3.982303 0.866531
vt 3.735941 0.864773
vt 3.735941 0.857633
vt 3.740095 0.857633
vt 3.740095 0.864773
vt 3.978273 0.864953
vt 3.978233 0.862168
vt 3.633536 0.208526
vt 3.626624 0.208526
vt 3.640447 0.208526
vt 3.546582 0.222959
vt 3.547925 0.220521
vt 3.735941 0.871914
vt 3.740095 0.871914
vt 3.743564 0.857633
vt 3.743564 0.864773
vt 3.974908 0.865180
vt 3.974866 0.862397
vt 3.633536 0.211884
vt 3.626624 0.211884
vt 3.640447 0.211884
vt 3.543718 0.221176
vt 3.545061 0.218740
vt 3.743564 0.871914
vt 3.748209 0.860341
vt 3.748209 0.864773
vt 3.973124 0.866732
vt 3.970362 0.866379
vt 3.633536 0.213665
vt 3.627662 0.213665
vt 3.639410 0.213665
vt 3.541610 0.215547
vt 3.544213 0.216531
vt 3.748209 0.869204
vt 3.750258 0.861847
vt 3.750258 0.864773
vt 3.969821 0.870972
vt 3.968835 0.868370
vt 3.702671 0.984525
vt 3.702671 0.978114
vt 3.707289 0.978114
vt 3.707289 0.981203
vt 3.702671 0.971703
vt 3.707289 0.975024
vt 3.541197 0.213071
vt 3.543290 0.211236
vt 3.750258 0.867699
vt 3.752942 0.864773
vt 3.752942 0.867699
vt 3.752942 0.861847
vt 3.758505 0.111475
vt 3.761988 0.111526
vt 3.761919 0.116195
vt 3.758435 0.116143
vt 3.669338 0.125683
vt 3.669317 0.129166
vt 3.664648 0.129166
vt 3.664668 0.125683
vt 3.669338 0.132648
vt 3.664668 0.132648
vt 3.797834 0.047163
vt 3.797781 0.043680
vt 3.802451 0.043611
vt 3.802502 0.047093
vt 3.797729 0.040197
vt 3.802399 0.040130
vt 3.974710 0.860164
vt 3.974687 0.856681
vt 3.979355 0.856681
vt 3.979379 0.860164
vt 3.974710 0.853198
vt 3.979379 0.853198
vt 3.755022 0.111424
vt 3.754953 0.116092
vt 3.982412 0.773519
vt 3.979860 0.776117
vt 3.976218 0.776149
vt 3.973619 0.773597
vt 3.973588 0.769957
vt 3.976139 0.767359
vt 3.979781 0.767328
vt 3.982380 0.769879
vt 2.565553 0.787127
vt 2.565572 0.803147
vt 2.555727 0.801377
vt 2.556852 0.782930
vt 2.507432 0.771949
vt 2.507432 0.752405
vt 2.516639 0.752405
vt 2.516639 0.771949
vt 2.569788 0.846966
vt 2.578761 0.843386
vt 2.578596 0.861867
vt 2.568653 0.862946
vt 2.598137 0.760776
vt 2.581384 0.760776
vt 2.581384 0.751650
vt 2.598137 0.751650
vt 2.580434 0.762969
vt 2.580544 0.771971
vt 2.572317 0.776850
vt 2.564832 0.770069
vt 2.507432 0.802041
vt 2.507432 0.786106
vt 2.516639 0.786106
vt 2.516639 0.802041
vt 2.556629 0.821829
vt 2.571697 0.830000
vt 2.563758 0.836243
vt 2.555891 0.830802
vt 2.617627 0.760776
vt 2.609380 0.760776
vt 2.609380 0.751650
vt 2.617627 0.751650
vt 2.616312 0.778457
vt 2.608638 0.782113
vt 2.595440 0.773855
vt 2.600820 0.766236
vt 2.516639 0.841035
vt 2.507432 0.841035
vt 2.507432 0.823790
vt 2.516639 0.823790
vt 2.527158 0.838959
vt 2.519758 0.834776
vt 2.536065 0.823666
vt 2.540901 0.831642
vt 2.647750 0.751650
vt 2.647750 0.760776
vt 2.633343 0.760776
vt 2.633343 0.751650
vt 2.621839 0.800392
vt 2.613748 0.802998
vt 2.539855 0.795831
vt 2.530825 0.795831
vt 2.530825 0.773534
vt 2.539855 0.773534
vt 2.520605 0.859436
vt 2.512714 0.856273
vt 2.578321 0.803030
vt 2.569311 0.803030
vt 2.569311 0.781834
vt 2.578321 0.781834
s 1
g off
g Rear_1
usemtl 1
f 8/1/1 18/2/2 29/3/3
f 29/3/3 30/4/4 8/1/1
f 9/5/5 20/6/6 18/2/2
f 18/2/2 8/1/1 9/5/5
f 10/7/7 21/8/8 20/6/6
f 20/6/6 9/5/5 10/7/7
f 11/9/9 22/10/10 21/8/8
f 21/8/8 10/7/7 11/9/9
f 12/11/11 66/12/12 22/10/10
f 22/10/10 11/9/9 12/11/11
f 30/4/4 7/13/13 13/14/14
f 13/14/14 31/15/15 30/4/4
f 15/16/16 9/5/5 8/1/1
f 8/1/1 14/17/17 15/16/16
f 16/18/18 10/7/7 9/5/5
f 9/5/5 15/16/16 16/18/18
f 17/19/19 11/9/9 10/7/7
f 10/7/7 16/18/18 17/19/19
f 85/20/20 12/11/11 11/9/9
f 11/9/9 17/19/19 85/20/20
f 31/15/15 13/14/14 2/21/21
f 2/21/21 32/22/22 31/15/15
f 3/23/23 15/16/16 14/17/17
f 14/17/17 1/24/24 3/23/23
f 4/25/25 16/18/18 15/16/16
f 15/16/16 3/23/23 4/25/25
f 5/26/26 17/19/19 16/18/18
f 16/18/18 4/25/25 5/26/26
f 6/27/27 85/20/20 17/19/19
f 17/19/19 5/26/26 6/27/27
f 33/28/28 23/29/29 1/24/24
f 1/24/24 32/22/22 33/28/28
f 23/29/29 25/30/30 3/23/23
f 3/23/23 1/24/24 23/29/29
f 25/30/30 26/31/31 4/25/25
f 4/25/25 3/23/23 25/30/30
f 26/31/31 27/32/32 5/26/26
f 5/26/26 4/25/25 26/31/31
f 27/32/32 28/33/33 6/27/27
f 6/27/27 5/26/26 27/32/32
f 30/4/4 29/3/3 19/34/34
f 19/34/34 7/13/13 30/4/4
f 8/1/1 30/4/4 31/15/15
f 31/15/15 14/17/17 8/1/1
f 14/17/17 31/15/15 32/22/22
f 32/22/22 1/24/24 14/17/17
f 24/35/35 33/28/28 32/22/22
f 32/22/22 2/21/21 24/35/35
f 61/36/36 51/37/37 41/38/38
f 41/38/38 62/39/39 61/36/36
f 51/37/37 53/40/40 42/41/41
f 42/41/41 41/38/38 51/37/37
f 53/40/40 54/42/42 43/43/43
f 43/43/43 42/41/41 53/40/40
f 54/42/42 55/44/44 44/45/45
f 44/45/45 43/43/43 54/42/42
f 46/46/46 40/47/47 62/39/39
f 62/39/39 63/48/48 46/46/46
f 41/38/38 42/41/41 48/49/49
f 48/49/49 47/50/50 41/38/38
f 42/41/41 43/43/43 49/51/51
f 49/51/51 48/49/49 42/41/41
f 43/43/43 44/45/45 50/52/52
f 50/52/52 49/51/51 43/43/43
f 44/45/45 45/53/53 116/54/54
f 116/54/54 50/52/52 44/45/45
f 35/55/55 46/46/46 63/48/48
f 63/48/48 64/56/56 35/55/55
f 47/50/50 48/49/49 36/57/57
f 36/57/57 34/58/58 47/50/50
f 48/49/49 49/51/51 37/59/59
f 37/59/59 36/57/57 48/49/49
f 49/51/51 50/52/52 38/60/60
f 38/60/60 37/59/59 49/51/51
f 50/52/52 116/54/54 39/61/61
f 39/61/61 38/60/60 50/52/52
f 34/58/58 56/62/62 65/63/63
f 65/63/63 64/56/56 34/58/58
f 36/57/57 58/64/64 56/62/62
f 56/62/62 34/58/58 36/57/57
f 37/59/59 59/65/65 58/64/64
f 58/64/64 36/57/57 37/59/59
f 38/60/60 60/66/66 59/65/65
f 59/65/65 37/59/59 38/60/60
f 39/61/61 128/67/67 60/66/66
f 60/66/66 38/60/60 39/61/61
f 52/68/68 61/36/36 62/39/39
f 62/39/39 40/47/47 52/68/68
f 63/48/48 62/39/39 41/38/38
f 41/38/38 47/50/50 63/48/48
f 64/56/56 63/48/48 47/50/50
f 47/50/50 34/58/58 64/56/56
f 64/56/56 65/63/63 57/69/69
f 57/69/69 35/55/55 64/56/56
f 51/70/37 61/71/36 29/72/3
f 29/72/3 18/73/2 51/70/37
f 53/74/40 51/70/37 18/73/2
f 18/73/2 20/75/6 53/74/40
f 54/76/42 53/74/40 20/75/6
f 20/75/6 21/77/8 54/76/42
f 55/78/44 54/76/42 21/77/8
f 21/77/8 22/79/10 55/78/44
f 66/80/12 67/81/70 55/78/44
f 55/78/44 22/79/10 66/80/12
f 40/82/47 46/83/46 13/84/14
f 13/84/14 7/85/13 40/82/47
f 46/83/46 35/86/55 2/87/21
f 2/87/21 13/84/14 46/83/46
f 65/88/63 56/89/62 23/90/29
f 23/90/29 33/91/28 65/88/63
f 56/89/62 58/92/64 25/93/30
f 25/93/30 23/90/29 56/89/62
f 58/92/64 59/94/65 26/95/31
f 26/95/31 25/93/30 58/92/64
f 59/94/65 60/96/66 27/97/32
f 27/97/32 26/95/31 59/94/65
f 60/96/66 128/98/67 28/99/33
f 28/99/33 27/97/32 60/96/66
f 52/100/68 40/82/47 7/85/13
f 7/85/13 19/101/34 52/100/68
f 61/71/36 52/102/68 19/103/34
f 19/103/34 29/72/3 61/71/36
f 35/104/55 57/105/69 24/106/35
f 24/106/35 2/107/21 35/104/55
f 57/105/69 65/88/63 33/91/28
f 33/91/28 24/106/35 57/105/69
f 55/44/44 67/108/70 45/53/53
f 45/53/53 44/45/45 55/44/44
f 70/109/71 69/110/72 68/111/73
f 68/111/73 71/112/74 70/109/71
f 72/113/75 70/109/71 71/112/74
f 71/112/74 73/114/76 72/113/75
f 74/115/77 72/113/75 73/114/76
f 73/114/76 75/116/78 74/115/77
f 76/117/79 74/115/77 75/116/78
f 75/116/78 77/118/80 76/117/79
f 12/11/11 76/117/79 77/118/80
f 77/118/80 66/12/12 12/11/11
f 69/110/72 79/119/81 78/120/82
f 78/120/82 80/121/83 69/110/72
f 82/122/84 81/123/85 70/109/71
f 70/109/71 72/113/75 82/122/84
f 83/124/86 82/122/84 72/113/75
f 72/113/75 74/115/77 83/124/86
f 84/125/87 83/124/86 74/115/77
f 74/115/77 76/117/79 84/125/87
f 85/20/20 84/125/87 76/117/79
f 76/117/79 12/11/11 85/20/20
f 79/119/81 87/126/88 86/127/89
f 86/127/89 78/120/82 79/119/81
f 89/128/90 88/129/91 81/123/85
f 81/123/85 82/122/84 89/128/90
f 90/130/92 89/128/90 82/122/84
f 82/122/84 83/124/86 90/130/92
f 91/131/93 90/130/92 83/124/86
f 83/124/86 84/125/87 91/131/93
f 6/27/27 91/131/93 84/125/87
f 84/125/87 85/20/20 6/27/27
f 92/132/94 87/126/88 88/129/91
f 88/129/91 93/133/95 92/132/94
f 93/133/95 88/129/91 89/128/90
f 89/128/90 94/134/96 93/133/95
f 94/134/96 89/128/90 90/130/92
f 90/130/92 95/135/97 94/134/96
f 95/135/97 90/130/92 91/131/93
f 91/131/93 96/136/98 95/135/97
f 96/136/98 91/131/93 6/27/27
f 6/27/27 28/33/33 96/136/98
f 69/110/72 80/121/83 97/137/99
f 97/137/99 68/111/73 69/110/72
f 70/109/71 81/123/85 79/119/81
f 79/119/81 69/110/72 70/109/71
f 81/123/85 88/129/91 87/126/88
f 87/126/88 79/119/81 81/123/85
f 98/138/100 86/127/89 87/126/88
f 87/126/88 92/132/94 98/138/100
f 101/139/101 100/140/102 99/141/103
f 99/141/103 102/142/104 101/139/101
f 102/142/104 99/141/103 103/143/105
f 103/143/105 104/144/106 102/142/104
f 104/144/106 103/143/105 105/145/107
f 105/145/107 106/146/108 104/144/106
f 106/146/108 105/145/107 107/147/109
f 107/147/109 108/148/110 106/146/108
f 110/149/111 109/150/112 100/140/102
f 100/140/102 111/151/113 110/149/111
f 99/141/103 113/152/114 112/153/115
f 112/153/115 103/143/105 99/141/103
f 103/143/105 112/153/115 114/154/116
f 114/154/116 105/145/107 103/143/105
f 105/145/107 114/154/116 115/155/117
f 115/155/117 107/147/109 105/145/107
f 107/147/109 115/155/117 116/54/54
f 116/54/54 45/53/53 107/147/109
f 118/156/118 117/157/119 109/150/112
f 109/150/112 110/149/111 118/156/118
f 113/152/114 120/158/120 119/159/121
f 119/159/121 112/153/115 113/152/114
f 112/153/115 119/159/121 121/160/122
f 121/160/122 114/154/116 112/153/115
f 114/154/116 121/160/122 122/161/123
f 122/161/123 115/155/117 114/154/116
f 115/155/117 122/161/123 39/61/61
f 39/61/61 116/54/54 115/155/117
f 120/158/120 117/157/119 123/162/124
f 123/162/124 124/163/125 120/158/120
f 119/159/121 120/158/120 124/163/125
f 124/163/125 125/164/126 119/159/121
f 121/160/122 119/159/121 125/164/126
f 125/164/126 126/165/127 121/160/122
f 122/161/123 121/160/122 126/165/127
f 126/165/127 127/166/128 122/161/123
f 39/61/61 122/161/123 127/166/128
f 127/166/128 128/67/67 39/61/61
f 129/167/129 111/151/113 100/140/102
f 100/140/102 101/139/101 129/167/129
f 109/150/112 113/152/114 99/141/103
f 99/141/103 100/140/102 109/150/112
f 117/157/119 120/158/120 113/152/114
f 113/152/114 109/150/112 117/157/119
f 117/157/119 118/156/118 130/168/130
f 130/168/130 123/162/124 117/157/119
f 102/169/104 71/170/74 68/171/73
f 68/171/73 101/172/101 102/169/104
f 104/173/106 73/174/76 71/170/74
f 71/170/74 102/169/104 104/173/106
f 106/175/108 75/176/78 73/174/76
f 73/174/76 104/173/106 106/175/108
f 108/177/110 77/178/80 75/176/78
f 75/176/78 106/175/108 108/177/110
f 66/80/12 77/178/80 108/177/110
f 108/177/110 67/81/70 66/80/12
f 111/179/113 80/180/83 78/181/82
f 78/181/82 110/182/111 111/179/113
f 110/182/111 78/181/82 86/183/89
f 86/183/89 118/184/118 110/182/111
f 123/185/124 92/186/94 93/187/95
f 93/187/95 124/188/125 123/185/124
f 124/188/125 93/187/95 94/189/96
f 94/189/96 125/190/126 124/188/125
f 125/190/126 94/189/96 95/191/97
f 95/191/97 126/192/127 125/190/126
f 126/192/127 95/191/97 96/193/98
f 96/193/98 127/194/128 126/192/127
f 127/194/128 96/193/98 28/99/33
f 28/99/33 128/98/67 127/194/128
f 129/195/129 97/196/99 80/180/83
f 80/180/83 111/179/113 129/195/129
f 101/172/101 68/171/73 97/197/99
f 97/197/99 129/198/129 101/172/101
f 118/199/118 86/200/89 98/201/100
f 98/201/100 130/202/130 118/199/118
f 130/202/130 98/201/100 92/186/94
f 92/186/94 123/185/124 130/202/130
f 108/148/110 107/147/109 45/53/53
f 45/53/53 67/108/70 108/148/110
f 163/203/131 133/204/132 136/205/133
f 136/205/133 162/206/134 163/203/131
f 162/206/134 136/205/133 131/207/135
f 131/207/135 161/208/136 162/206/134
f 159/209/137 158/210/138 140/211/139
f 140/211/139 141/212/140 159/209/137
f 160/213/141 159/209/137 141/212/140
f 141/212/140 138/214/142 160/213/141
f 148/215/143 143/216/144 144/217/145
f 144/217/145 147/218/146 148/215/143
f 156/219/147 155/220/148 148/215/143
f 148/215/143 147/218/146 156/219/147
f 143/216/144 154/221/149 153/222/150
f 153/222/150 144/217/145 143/216/144
f 146/223/151 145/224/152 141/212/140
f 141/212/140 140/211/139 146/223/151
f 147/218/146 144/217/145 145/224/152
f 145/224/152 146/223/151 147/218/146
f 143/216/144 148/215/143 134/225/153
f 134/225/153 135/226/154 143/216/144
f 157/227/155 146/223/151 140/211/139
f 140/211/139 158/210/138 157/227/155
f 156/219/147 147/218/146 146/223/151
f 146/223/151 157/227/155 156/219/147
f 163/203/131 155/220/148 151/228/156
f 151/228/156 133/204/132 163/203/131
f 145/224/152 152/229/157 138/214/142
f 138/214/142 141/212/140 145/224/152
f 144/217/145 153/222/150 152/229/157
f 152/229/157 145/224/152 144/217/145
f 154/221/149 143/216/144 135/226/154
f 135/226/154 132/230/158 154/221/149
f 134/225/153 163/203/131 162/206/134
f 162/206/134 135/226/154 134/225/153
f 135/226/154 162/206/134 161/208/136
f 161/208/136 132/230/158 135/226/154
f 158/210/138 159/209/137 142/231/159
f 142/231/159 139/232/160 158/210/138
f 159/209/137 160/213/141 137/233/161
f 137/233/161 142/231/159 159/209/137
f 155/220/148 156/219/147 150/234/162
f 150/234/162 151/228/156 155/220/148
f 149/235/163 157/227/155 158/210/138
f 158/210/138 139/232/160 149/235/163
f 150/234/162 156/219/147 157/227/155
f 157/227/155 149/235/163 150/234/162
f 155/220/148 163/203/131 134/225/153
f 134/225/153 148/215/143 155/220/148
f 169/236/164 166/237/165 196/238/166
f 196/238/166 195/239/167 169/236/164
f 164/240/168 169/236/164 195/239/167
f 195/239/167 194/241/169 164/240/168
f 173/242/170 191/243/171 192/244/172
f 192/244/172 174/245/173 173/242/170
f 174/245/173 192/244/172 193/246/174
f 193/246/174 171/247/175 174/245/173
f 177/248/176 176/249/177 181/250/178
f 181/250/178 180/251/179 177/248/176
f 181/250/178 188/252/180 189/253/181
f 189/253/181 180/251/179 181/250/178
f 186/254/182 187/255/183 176/249/177
f 176/249/177 177/248/176 186/254/182
f 174/245/173 178/256/184 179/257/185
f 179/257/185 173/242/170 174/245/173
f 178/256/184 177/248/176 180/251/179
f 180/251/179 179/257/185 178/256/184
f 167/258/186 181/250/178 176/249/177
f 176/249/177 168/259/187 167/258/186
f 173/242/170 179/257/185 190/260/188
f 190/260/188 191/243/171 173/242/170
f 179/257/185 180/251/179 189/253/181
f 189/253/181 190/260/188 179/257/185
f 184/261/189 188/252/180 196/238/166
f 196/238/166 166/237/165 184/261/189
f 171/247/175 185/262/190 178/256/184
f 178/256/184 174/245/173 171/247/175
f 185/262/190 186/254/182 177/248/176
f 177/248/176 178/256/184 185/262/190
f 168/259/187 176/249/177 187/255/183
f 187/255/183 165/263/191 168/259/187
f 195/239/167 196/238/166 167/258/186
f 167/258/186 168/259/187 195/239/167
f 194/241/169 195/239/167 168/259/187
f 168/259/187 165/263/191 194/241/169
f 175/264/192 192/244/172 191/243/171
f 191/243/171 172/265/193 175/264/192
f 170/266/194 193/246/174 192/244/172
f 192/244/172 175/264/192 170/266/194
f 183/267/195 189/253/181 188/252/180
f 188/252/180 184/261/189 183/267/195
f 191/243/171 190/260/188 182/268/196
f 182/268/196 172/265/193 191/243/171
f 190/260/188 189/253/181 183/267/195
f 183/267/195 182/268/196 190/260/188
f 167/258/186 196/238/166 188/252/180
f 188/252/180 181/250/178 167/258/186
f 166/269/197 169/270/198 136/271/199
f 136/271/199 133/272/200 166/269/197
f 164/273/201 194/274/202 161/275/203
f 161/275/203 131/276/204 164/273/201
f 169/270/198 164/277/205 131/278/206
f 131/278/206 136/271/199 169/270/198
f 171/279/207 193/280/208 160/281/209
f 160/281/209 138/282/210 171/279/207
f 187/283/211 186/284/212 153/285/213
f 153/285/213 154/286/214 187/283/211
f 184/287/215 166/269/197 133/272/200
f 133/272/200 151/288/216 184/287/215
f 185/289/217 171/279/207 138/282/210
f 138/282/210 152/290/218 185/289/217
f 186/284/212 185/289/217 152/290/218
f 152/290/218 153/285/213 186/284/212
f 165/291/219 187/283/211 154/286/214
f 154/286/214 132/292/220 165/291/219
f 194/274/202 165/291/219 132/292/220
f 132/292/220 161/275/203 194/274/202
f 175/293/221 172/294/222 139/295/223
f 139/295/223 142/296/224 175/293/221
f 170/297/225 175/293/221 142/296/224
f 142/296/224 137/298/226 170/297/225
f 193/280/208 170/299/227 137/300/228
f 137/300/228 160/281/209 193/280/208
f 183/301/229 184/287/215 151/288/216
f 151/288/216 150/302/230 183/301/229
f 172/294/222 182/303/231 149/304/232
f 149/304/232 139/295/223 172/294/222
f 182/303/231 183/301/229 150/302/230
f 150/302/230 149/304/232 182/303/231
g Rear_3
usemtl 3
f 199/305/233 200/306/233 197/307/234
f 197/307/234 198/308/234 199/305/233
f 203/309/233 204/310/233 201/311/233
f 201/311/233 202/312/235 203/309/233
f 207/313/233 208/314/233 205/315/236
f 205/315/236 206/316/237 207/313/233
f 211/317/233 212/318/235 209/319/235
f 209/319/235 210/320/235 211/317/233
f 215/321/233 216/322/238 213/323/233
f 213/323/233 214/324/233 215/321/233
f 219/325/233 220/326/233 217/327/233
f 217/327/233 218/328/233 219/325/233
f 219/325/233 198/308/234 197/307/234
f 197/307/234 220/326/233 219/325/233
f 199/305/233 202/312/235 201/311/233
f 201/311/233 200/306/233 199/305/233
f 203/309/233 208/314/233 207/313/233
f 207/313/233 204/310/233 203/309/233
f 222/329/235 210/320/235 209/319/235
f 209/319/235 221/330/235 222/329/235
f 211/317/233 214/324/233 213/323/233
f 213/323/233 212/318/235 211/317/233
f 215/321/233 218/328/233 217/327/233
f 217/327/233 216/322/238 215/321/233
f 223/331/235 224/332/239 218/328/233
f 218/328/233 215/321/233 223/331/235
f 225/333/233 226/334/235 211/317/233
f 211/317/233 210/320/235 225/333/233
f 203/309/233 224/332/239 223/331/235
f 223/331/235 208/314/233 203/309/233
f 227/335/233 228/336/238 208/314/233
f 208/314/233 223/331/235 227/335/233
f 229/337/240 230/338/241 199/339/241
f 199/339/241 198/340/240 229/337/240
f 231/341/242 232/342/243 197/343/243
f 197/343/243 200/344/244 231/341/242
f 233/345/245 234/346/246 203/347/246
f 203/347/246 202/348/245 233/345/245
f 235/349/247 236/350/248 201/351/248
f 201/351/248 204/352/247 235/349/247
f 205/353/249 208/354/250 237/355/250
f 237/355/250 238/356/249 205/353/249
f 239/357/251 240/358/252 207/359/252
f 207/359/252 206/360/253 239/357/251
f 241/361/254 242/362/255 209/363/255
f 209/363/255 212/364/254 241/361/254
f 243/365/256 244/366/257 215/367/258
f 215/367/258 214/368/256 243/365/256
f 245/369/259 246/370/260 213/371/260
f 213/371/260 216/372/259 245/369/259
f 247/373/261 248/374/262 219/375/263
f 219/375/263 218/376/261 247/373/261
f 249/377/264 250/378/265 217/379/265
f 217/379/265 220/380/264 249/377/264
f 232/342/243 249/377/264 220/380/264
f 220/380/264 197/343/243 232/342/243
f 248/374/262 229/337/240 198/340/240
f 198/340/240 219/375/263 248/374/262
f 236/381/248 231/341/242 200/344/244
f 200/344/244 201/382/248 236/381/248
f 230/338/241 233/383/245 202/384/245
f 202/384/245 199/339/241 230/338/241
f 240/358/252 235/349/247 204/352/247
f 204/352/247 207/359/252 240/358/252
f 221/385/249 209/363/255 242/362/255
f 242/362/255 251/386/249 221/385/249
f 252/387/253 253/388/266 210/389/267
f 210/389/267 222/390/253 252/387/253
f 246/391/260 241/361/254 212/364/254
f 212/364/254 213/392/260 246/391/260
f 254/393/268 243/365/256 214/368/256
f 214/368/256 211/394/268 254/393/268
f 250/378/265 245/369/259 216/372/259
f 216/372/259 217/379/265 250/378/265
f 244/395/269 255/396/269 223/397/269
f 223/397/269 215/398/269 244/395/269
f 256/399/270 247/400/270 218/401/270
f 218/401/270 224/402/270 256/399/270
f 253/403/271 257/404/271 225/405/271
f 225/405/271 210/406/271 253/403/271
f 258/407/272 254/408/272 211/409/272
f 211/409/272 226/410/272 258/407/272
f 257/411/249 259/412/249 260/413/249
f 260/413/249 225/414/249 257/411/249
f 226/415/251 261/416/253 262/417/253
f 262/417/253 258/418/251 226/415/251
f 234/419/270 256/399/270 224/402/270
f 224/402/270 203/420/270 234/419/270
f 255/421/273 263/422/273 227/423/273
f 227/423/273 223/424/273 255/421/273
f 264/425/274 237/426/274 208/427/274
f 208/427/274 228/428/274 264/425/274
f 263/429/275 265/430/249 266/431/276
f 266/431/276 227/432/275 263/429/275
f 228/433/277 267/434/251 268/435/251
f 268/435/251 264/436/278 228/433/277
f 269/437/233 261/438/236 226/334/235
f 269/437/233 226/334/235 225/333/233
f 269/437/233 225/333/233 260/439/279
f 270/440/233 267/441/233 228/336/238
f 270/440/233 228/336/238 227/335/233
f 270/440/233 227/335/233 266/442/233
f 272/443/233 273/444/233 274/445/233
f 274/445/233 271/446/233 272/443/233
f 276/447/233 277/448/233 278/449/233
f 278/449/233 275/450/235 276/447/233
f 205/315/236 279/451/233 280/452/233
f 280/452/233 206/316/237 205/315/236
f 282/453/235 283/454/235 284/455/233
f 284/455/233 281/456/233 282/453/235
f 286/457/233 287/458/234 288/459/233
f 288/459/233 285/460/233 286/457/233
f 290/461/233 291/462/233 292/463/233
f 292/463/233 289/464/233 290/461/233
f 272/443/233 271/446/233 292/463/233
f 292/463/233 291/462/233 272/443/233
f 276/447/233 275/450/235 274/445/233
f 274/445/233 273/444/233 276/447/233
f 280/452/233 279/451/233 278/449/233
f 278/449/233 277/448/233 280/452/233
f 282/453/235 281/456/233 222/329/235
f 222/329/235 221/330/235 282/453/235
f 286/457/233 285/460/233 284/455/233
f 284/455/233 283/454/235 286/457/233
f 290/461/233 289/464/233 288/459/233
f 288/459/233 287/458/234 290/461/233
f 289/464/233 293/465/280 294/466/235
f 294/466/235 288/459/233 289/464/233
f 284/455/233 295/467/235 296/468/234
f 296/468/234 281/456/233 284/455/233
f 294/466/235 293/465/280 278/449/233
f 278/449/233 279/451/233 294/466/235
f 279/451/233 297/469/234 298/470/233
f 298/470/233 294/466/235 279/451/233
f 274/471/281 299/472/282 300/473/283
f 300/473/283 271/474/283 274/471/281
f 272/475/284 301/476/284 302/477/285
f 302/477/285 273/478/286 272/475/284
f 278/479/287 303/480/287 304/481/288
f 304/481/288 275/482/288 278/479/287
f 276/483/289 305/484/289 306/485/290
f 306/485/290 277/486/290 276/483/289
f 307/487/291 279/488/291 205/353/292
f 205/353/249 238/356/249 307/487/293
f 280/489/294 308/490/294 239/491/251
f 239/491/251 206/492/253 280/489/294
f 282/493/295 309/494/295 310/495/296
f 310/495/296 283/496/296 282/493/295
f 288/497/297 311/498/298 312/499/299
f 312/499/299 285/500/299 288/497/297
f 286/501/300 313/502/300 314/503/301
f 314/503/301 287/504/301 286/501/300
f 292/505/302 315/506/302 316/507/303
f 316/507/303 289/508/303 292/505/304
f 290/509/305 317/510/305 318/511/306
f 318/511/306 291/512/306 290/509/305
f 291/512/306 318/511/306 301/476/284
f 301/476/284 272/475/284 291/512/306
f 271/474/283 300/473/283 315/506/302
f 315/506/302 292/505/302 271/474/283
f 273/478/286 302/477/285 305/513/289
f 305/513/289 276/514/289 273/478/286
f 275/515/288 304/516/288 299/472/282
f 299/472/282 274/471/281 275/515/288
f 277/486/290 306/485/290 308/490/294
f 308/490/294 280/489/294 277/486/290
f 309/494/295 282/493/295 221/385/249
f 221/385/249 251/386/249 309/494/295
f 281/517/307 319/518/308 252/387/253
f 252/387/253 222/390/253 281/517/307
f 283/519/296 310/520/296 313/521/300
f 313/521/300 286/522/300 283/519/296
f 285/500/299 312/499/299 320/523/309
f 320/523/310 284/524/310 285/500/311
f 287/504/301 314/503/301 317/510/305
f 317/510/305 290/509/305 287/504/301
f 294/525/312 321/526/312 311/527/312
f 311/527/312 288/528/312 294/525/312
f 289/529/313 316/530/313 322/531/313
f 322/531/313 293/532/313 289/529/313
f 296/533/314 323/534/314 319/535/314
f 319/535/314 281/536/314 296/533/314
f 284/537/315 320/538/315 324/539/315
f 324/539/316 295/540/316 284/537/316
f 323/541/249 296/542/249 260/413/249
f 260/413/249 259/412/249 323/541/249
f 295/543/253 324/544/253 262/417/253
f 262/417/253 261/416/253 295/543/253
f 293/532/313 322/531/313 303/545/313
f 303/545/313 278/546/313 293/532/313
f 298/547/317 325/548/317 321/549/317
f 321/549/317 294/550/317 298/547/317
f 279/551/318 307/552/318 326/553/318
f 326/553/318 297/554/318 279/551/318
f 325/555/292 298/556/292 266/431/319
f 266/431/276 265/430/249 325/555/292
f 297/557/320 326/558/321 268/435/251
f 268/435/251 267/434/251 297/557/320
f 295/467/235 261/438/236 269/437/233
f 296/468/234 295/467/235 269/437/233
f 296/468/234 269/437/233 260/439/279
f 297/469/234 267/441/233 270/440/233
f 298/470/233 297/469/234 270/440/233
f 298/470/233 270/440/233 266/442/233
f 328/559/322 327/560/322 330/561/322
f 330/561/322 329/562/322 328/559/322
f 332/563/323 331/564/324 334/565/324
f 334/565/324 333/566/323 332/563/323
f 333/567/325 334/568/325 336/569/325
f 336/569/325 335/570/325 333/567/325
f 338/571/322 337/572/322 331/573/322
f 331/573/322 332/574/322 338/571/322
f 335/575/326 336/576/327 340/577/327
f 340/577/327 339/578/326 335/575/326
f 333/579/328 341/580/329 330/581/329
f 330/581/329 332/582/328 333/579/328
f 335/570/325 342/583/325 341/584/325
f 341/584/325 333/567/325 335/570/325
f 332/574/322 330/561/322 327/560/322
f 327/560/322 338/571/322 332/574/322
f 339/585/326 343/586/330 342/587/330
f 342/587/330 335/588/326 339/585/326
f 340/589/325 344/590/325 343/591/325
f 343/591/325 339/592/325 340/589/325
f 338/571/322 327/560/322 345/593/322
f 345/593/322 337/572/322 338/571/322
f 345/593/322 348/594/322 347/595/322
f 347/595/322 346/596/322 345/593/322
f 327/560/322 328/559/322 348/594/322
f 348/594/322 345/593/322 327/560/322
f 329/597/331 330/581/329 341/580/329
f 341/580/329 349/598/331 329/597/331
f 350/599/325 349/600/325 341/584/325
f 341/584/325 342/583/325 350/599/325
f 352/601/332 351/602/322 354/603/322
f 354/603/322 353/604/322 352/601/332
f 355/605/333 350/606/333 342/587/330
f 342/587/330 343/586/330 355/605/333
f 356/607/325 355/608/334 343/591/325
f 343/591/325 344/590/325 356/607/325
f 359/609/335 358/610/336 357/611/337
f 357/611/337 351/612/337 359/609/335
f 358/613/325 361/614/325 360/615/325
f 360/615/325 357/616/325 358/613/325
f 362/617/322 359/618/322 351/602/322
f 351/602/322 352/601/332 362/617/322
f 361/619/338 364/620/338 363/621/339
f 363/621/339 360/622/339 361/619/338
f 347/595/322 348/594/322 352/601/332
f 352/601/332 353/604/322 347/595/322
f 358/623/340 359/624/340 329/597/331
f 329/597/331 349/598/331 358/623/340
f 361/614/325 358/613/325 349/600/325
f 349/600/325 350/599/325 361/614/325
f 359/618/322 362/617/322 328/559/322
f 328/559/322 329/562/322 359/618/322
f 364/625/338 361/626/338 350/606/333
f 350/606/333 355/605/333 364/625/338
f 363/627/325 364/628/334 355/608/334
f 355/608/334 356/607/325 363/627/325
f 362/617/322 352/601/332 348/594/322
f 348/594/322 328/559/322 362/617/322
f 366/629/325 365/630/325 356/607/325
f 356/607/325 344/590/325 366/629/325
f 368/631/334 367/632/325 357/616/325
f 357/616/325 360/615/325 368/631/334
f 369/633/341 368/634/341 360/622/339
f 360/622/339 363/621/339 369/633/341
f 365/630/325 369/635/325 363/627/325
f 363/627/325 356/607/325 365/630/325
f 371/636/342 370/637/342 334/565/324
f 334/565/324 331/564/324 371/636/342
f 373/638/322 372/639/322 375/640/322
f 375/640/322 374/641/322 373/638/322
f 376/642/332 371/643/322 331/573/322
f 331/573/322 337/572/322 376/642/332
f 378/644/343 377/645/343 370/637/342
f 370/637/342 371/636/342 378/644/343
f 377/646/325 380/647/325 379/648/325
f 379/648/325 370/649/325 377/646/325
f 381/650/332 378/651/322 371/643/322
f 371/643/322 376/642/332 381/650/332
f 380/652/344 383/653/345 382/654/346
f 382/654/346 379/655/346 380/652/344
f 346/596/322 376/642/332 337/572/322
f 337/572/322 345/593/322 346/596/322
f 377/656/347 378/657/347 373/658/348
f 373/658/348 384/659/348 377/656/347
f 380/647/325 377/646/325 384/660/349
f 384/660/349 385/661/349 380/647/325
f 378/651/322 381/650/332 372/639/322
f 372/639/322 373/638/322 378/651/322
f 383/662/345 380/663/344 385/664/350
f 385/664/350 386/665/350 383/662/345
f 382/666/325 383/667/334 386/668/334
f 386/668/334 366/629/325 382/666/325
f 381/650/332 376/642/332 346/596/322
f 346/596/322 372/639/322 381/650/332
f 336/569/325 334/568/325 370/649/325
f 370/649/325 379/648/325 336/569/325
f 340/577/327 336/576/327 379/655/346
f 379/655/346 382/654/346 340/577/327
f 340/589/325 382/666/325 366/629/325
f 366/629/325 344/590/325 340/589/325
f 347/595/322 375/640/322 372/639/322
f 372/639/322 346/596/322 347/595/322
f 357/611/337 367/669/351 354/670/351
f 354/670/351 351/612/337 357/611/337
f 374/671/352 387/672/352 384/659/348
f 384/659/348 373/658/348 374/671/352
f 384/660/349 387/673/325 388/674/325
f 388/674/325 385/661/349 384/660/349
f 385/664/350 388/675/353 389/676/353
f 389/676/353 386/665/350 385/664/350
f 386/668/334 389/677/325 365/630/325
f 365/630/325 366/629/325 386/668/334
f 390/678/354 354/670/351 367/669/351
f 367/669/351 391/679/355 390/678/354
f 391/680/325 367/632/325 368/631/334
f 368/631/334 392/681/325 391/680/325
f 393/682/322 353/604/322 354/603/322
f 354/603/322 390/683/322 393/682/322
f 392/684/356 368/634/341 369/633/341
f 369/633/341 394/685/356 392/684/356
f 391/686/357 387/672/352 374/671/352
f 374/671/352 390/687/357 391/686/357
f 392/681/325 388/674/325 387/673/325
f 387/673/325 391/680/325 392/681/325
f 390/683/322 374/641/322 375/640/322
f 375/640/322 393/682/322 390/683/322
f 394/688/356 389/676/353 388/675/353
f 388/675/353 392/689/356 394/688/356
f 369/635/325 365/630/325 389/677/325
f 389/677/325 394/690/325 369/635/325
f 393/682/322 375/640/322 347/595/322
f 347/595/322 353/604/322 393/682/322
f 483/815/393 458/816/394 461/817/395
f 461/817/395 482/818/396 483/815/393
f 482/819/396 461/820/395 460/821/397
f 460/821/397 485/822/398 482/819/396
f 484/823/399 485/824/398 460/825/397
f 460/825/397 459/826/400 484/823/399
f 484/827/399 459/828/400 458/829/394
f 458/829/394 483/830/393 484/827/399
f 466/831/401 467/832/402 463/833/403
f 463/833/403 462/834/404 466/831/401
f 466/835/401 462/836/404 464/837/405
f 464/837/405 468/838/406 466/835/401
f 468/839/406 464/840/405 465/841/407
f 465/841/407 469/842/408 468/839/406
f 469/843/408 465/844/407 463/845/403
f 463/845/403 467/846/402 469/843/408
f 472/847/409 473/848/410 470/849/411
f 470/849/411 471/850/412 472/847/409
f 475/851/413 472/852/409 471/853/412
f 471/853/412 474/854/414 475/851/413
f 477/855/415 475/856/413 474/857/414
f 474/857/414 476/858/416 477/855/415
f 473/859/410 477/860/415 476/861/416
f 476/861/416 470/862/411 473/859/410
f 470/849/411 467/832/402 466/831/401
f 466/831/401 471/850/412 470/849/411
f 466/835/401 468/838/406 474/854/414
f 474/854/414 471/853/412 466/835/401
f 468/839/406 469/842/408 476/858/416
f 476/858/416 474/857/414 468/839/406
f 469/843/408 467/846/402 470/862/411
f 470/862/411 476/861/416 469/843/408
f 478/863/417 479/864/418 473/848/410
f 473/848/410 472/847/409 478/863/417
f 480/865/419 478/866/417 472/867/409
f 472/867/409 475/868/413 480/865/419
f 481/869/420 480/870/419 475/856/413
f 475/856/413 477/855/415 481/869/420
f 479/871/418 481/872/420 477/873/415
f 477/873/415 473/874/410 479/871/418
f 463/833/403 483/815/393 482/818/396
f 482/818/396 462/834/404 463/833/403
f 482/819/396 485/822/398 464/837/405
f 464/837/405 462/836/404 482/819/396
f 485/824/398 484/823/399 465/841/407
f 465/841/407 464/840/405 485/824/398
f 484/827/399 483/830/393 463/845/403
f 463/845/403 465/844/407 484/827/399
f 488/815/421 487/818/398 486/817/397
f 486/817/397 489/816/400 488/815/421
f 487/819/398 491/822/396 490/821/395
f 490/821/395 486/820/397 487/819/398
f 493/823/393 492/826/394 490/825/395
f 490/825/395 491/824/396 493/823/393
f 493/827/393 488/830/421 489/829/400
f 489/829/400 492/828/394 493/827/393
f 496/831/406 495/834/405 494/833/407
f 494/833/407 497/832/422 496/831/406
f 496/835/406 499/838/401 498/837/404
f 498/837/404 495/836/405 496/835/406
f 499/839/401 501/842/423 500/841/403
f 500/841/403 498/840/404 499/839/401
f 501/843/423 497/846/422 494/845/407
f 494/845/407 500/844/403 501/843/423
f 504/847/424 503/850/414 502/849/416
f 502/849/416 505/848/415 504/847/424
f 507/851/425 506/854/412 503/853/414
f 503/853/414 504/852/424 507/851/425
f 509/855/410 508/858/411 506/857/412
f 506/857/412 507/856/425 509/855/410
f 505/859/415 502/862/416 508/861/411
f 508/861/411 509/860/410 505/859/415
f 502/849/416 503/850/414 496/831/406
f 496/831/406 497/832/422 502/849/416
f 496/835/406 503/853/414 506/854/412
f 506/854/412 499/838/401 496/835/406
f 499/839/401 506/857/412 508/858/411
f 508/858/411 501/842/423 499/839/401
f 501/843/423 508/861/411 502/862/416
f 502/862/416 497/846/422 501/843/423
f 510/863/419 504/847/424 505/848/415
f 505/848/415 511/864/426 510/863/419
f 512/865/417 507/868/425 504/867/424
f 504/867/424 510/866/419 512/865/417
f 513/869/427 509/855/410 507/856/425
f 507/856/425 512/870/417 513/869/427
f 511/871/426 505/874/415 509/873/410
f 509/873/410 513/872/427 511/871/426
f 494/833/407 495/834/405 487/818/398
f 487/818/398 488/815/421 494/833/407
f 487/819/398 495/836/405 498/837/404
f 498/837/404 491/822/396 487/819/398
f 491/824/396 498/840/404 500/841/403
f 500/841/403 493/823/393 491/824/396
f 493/827/393 500/844/403 494/845/407
f 494/845/407 488/830/421 493/827/393
g Rear_4
usemtl 4
f 405/691/358 403/692/358 411/693/358
f 411/693/358 404/694/358 405/691/358
f 408/695/358 409/696/358 403/692/358
f 403/692/358 407/697/358 408/695/358
f 406/698/358 407/697/358 403/692/358
f 403/692/358 405/691/358 406/698/358
f 410/699/358 411/693/358 403/692/358
f 403/692/358 409/696/358 410/699/358
f 397/700/264 401/701/264 405/702/264
f 405/702/264 404/703/264 397/700/264
f 401/701/264 395/704/264 406/705/264
f 406/705/264 405/702/264 401/701/264
f 412/706/359 413/707/359 416/708/360
f 416/708/360 417/709/360 412/706/359
f 413/707/359 414/710/359 415/711/360
f 415/711/360 416/708/360 413/707/359
f 396/712/306 402/713/306 409/714/306
f 409/714/306 408/715/306 396/712/306
f 402/713/306 398/716/306 410/717/306
f 410/717/306 409/714/306 402/713/306
f 398/718/361 399/719/361 411/720/361
f 411/720/361 410/721/361 398/718/361
f 399/719/361 397/722/361 404/723/361
f 404/723/361 411/720/361 399/719/361
f 395/724/362 400/725/362 413/726/362
f 413/726/362 412/727/362 395/724/362
f 400/725/362 396/728/362 414/729/362
f 414/729/362 413/726/362 400/725/362
f 396/712/306 408/715/306 415/730/306
f 415/730/306 414/731/306 396/712/306
f 406/705/264 395/704/264 412/732/264
f 412/732/264 417/733/264 406/705/264
f 407/734/363 406/735/363 419/736/364
f 419/736/364 418/737/364 407/734/363
f 406/705/264 417/733/264 420/738/264
f 420/738/264 419/739/264 406/705/264
f 417/709/360 416/708/360 421/740/365
f 421/740/365 420/741/365 417/709/360
f 416/708/360 415/711/360 422/742/365
f 422/742/365 421/740/365 416/708/360
f 415/730/306 408/715/306 423/743/306
f 423/743/306 422/744/306 415/730/306
f 408/745/363 407/734/363 418/737/364
f 418/737/364 423/746/364 408/745/363
f 418/737/364 419/736/364 425/747/366
f 425/747/366 424/748/367 418/737/364
f 419/739/264 420/738/264 426/749/368
f 426/749/368 425/750/369 419/739/264
f 420/741/365 421/740/365 427/751/370
f 427/751/370 426/752/371 420/741/365
f 421/740/365 422/742/365 428/753/371
f 428/753/371 427/751/370 421/740/365
f 422/744/306 423/743/306 429/754/372
f 429/754/372 428/755/373 422/744/306
f 423/746/364 418/737/364 424/748/367
f 424/748/367 429/756/366 423/746/364
f 424/748/367 425/747/366 431/757/374
f 431/757/374 430/758/375 424/748/367
f 425/750/369 426/749/368 432/759/376
f 432/759/376 431/760/377 425/750/369
f 426/752/371 427/751/370 433/761/378
f 433/761/378 432/762/379 426/752/371
f 427/751/370 428/753/371 434/763/379
f 434/763/379 433/761/378 427/751/370
f 428/755/373 429/754/372 435/764/380
f 435/764/380 434/765/381 428/755/373
f 429/756/366 424/748/367 430/758/375
f 430/758/375 435/766/374 429/756/366
f 430/758/375 431/757/374 437/767/382
f 437/767/382 436/768/382 430/758/375
f 431/760/377 432/759/376 438/769/383
f 438/769/383 437/770/384 431/760/377
f 432/771/379 433/772/378 439/773/385
f 439/773/385 438/774/385 432/771/379
f 433/772/378 434/775/379 440/776/385
f 440/776/385 439/773/385 433/772/378
f 434/765/381 435/764/380 441/777/386
f 441/777/386 440/778/387 434/765/381
f 435/766/374 430/758/375 436/768/382
f 436/768/382 441/779/382 435/766/374
f 436/768/388 439/780/388 440/781/388
f 440/781/388 441/779/388 436/768/388
f 439/780/388 436/768/388 437/767/388
f 437/767/388 438/782/388 439/780/388
f 442/783/306 443/784/389 451/785/389
f 451/785/389 450/786/306 442/783/306
f 443/787/389 444/788/361 452/789/361
f 452/789/361 451/790/389 443/787/389
f 444/788/361 445/791/390 453/792/390
f 453/792/390 452/789/361 444/788/361
f 445/793/390 446/794/264 454/795/264
f 454/795/264 453/796/390 445/793/390
f 446/794/264 447/797/391 455/798/391
f 455/798/391 454/795/264 446/794/264
f 447/799/391 448/800/359 456/801/359
f 456/801/359 455/802/391 447/799/391
f 448/800/359 449/803/392 457/804/392
f 457/804/392 456/801/359 448/800/359
f 449/805/392 442/783/306 450/786/306
f 450/786/306 457/806/392 449/805/392
f 450/807/358 451/808/358 452/809/358
f 452/809/358 453/810/358 454/811/358
f 454/811/358 455/812/358 456/813/358
f 452/809/358 454/811/358 456/813/358
f 450/807/358 452/809/358 456/813/358
f 457/814/358 450/807/358 456/813/358
