# Blender 5.0.1
# www.blender.org
mtllib rueda_derecha.mtl
g Wheel_B_R_Malla
v 0.409243 -0.051704 -0.133260
v 0.409243 0.040953 -0.140660
v 0.409244 0.040953 -0.156097
v 0.409244 -0.006762 -0.150304
v 0.409243 -0.091260 -0.105956
v 0.409243 0.040985 -0.111999
v 0.409243 -0.123134 -0.069978
v 0.409243 0.040953 -0.076113
v 0.409243 -0.145471 -0.027419
v 0.409243 0.040953 -0.028781
v 0.409243 -0.156974 0.019250
v 0.409243 0.040984 0.009297
v 0.409243 0.133610 -0.133260
v 0.409244 0.088668 -0.150304
v 0.409243 0.173167 -0.105955
v 0.409243 0.205040 -0.069978
v 0.409243 0.227377 -0.027419
v 0.409243 0.238880 0.019250
v 0.269632 0.292404 -0.435818
v 0.269632 0.170441 -0.482073
v 0.347392 0.145661 -0.381535
v 0.347392 0.244283 -0.344132
v 0.269632 0.399754 -0.361720
v 0.347392 0.331089 -0.284213
v 0.269632 0.486251 -0.264084
v 0.347391 0.401034 -0.205263
v 0.269632 0.546869 -0.148586
v 0.347392 0.450052 -0.111868
v 0.269632 0.578086 -0.021937
v 0.347392 0.475293 -0.009455
v 0.269632 -0.464964 -0.148587
v 0.269632 -0.496181 -0.021938
v 0.347392 -0.393389 -0.009456
v 0.347391 -0.368147 -0.111868
v 0.269632 -0.404346 -0.264084
v 0.347392 -0.319129 -0.205263
v 0.269632 -0.317848 -0.361720
v 0.347392 -0.249184 -0.284214
v 0.269632 -0.210499 -0.435818
v 0.347392 -0.162378 -0.344132
v 0.269632 -0.088535 -0.482073
v 0.347392 -0.063755 -0.381535
v 0.269632 0.040952 -0.497795
v 0.347392 0.040952 -0.394248
v 0.233869 0.349328 -0.544279
v 0.233869 0.199755 -0.601004
v 0.137932 0.185210 -0.541995
v 0.137932 0.321084 -0.490464
v 0.233869 0.480980 -0.453405
v 0.137932 0.440678 -0.407914
v 0.233869 0.587059 -0.333667
v 0.137932 0.537041 -0.299143
v 0.233869 0.661400 -0.192022
v 0.137932 0.604574 -0.170470
v 0.233869 0.699684 -0.036702
v 0.137932 0.639350 -0.029376
v 0.233869 -0.579495 -0.192022
v 0.233869 -0.617778 -0.036702
v 0.137932 -0.557445 -0.029377
v 0.137932 -0.522669 -0.170472
v 0.233869 -0.505154 -0.333668
v 0.137932 -0.455136 -0.299144
v 0.233869 -0.399075 -0.453406
v 0.137932 -0.358773 -0.407915
v 0.233869 -0.267423 -0.544279
v 0.137932 -0.239179 -0.490464
v 0.233869 -0.117849 -0.601004
v 0.137932 -0.103305 -0.541995
v 0.233869 0.040952 -0.620286
v 0.137932 0.040952 -0.559511
v 0.278682 0.384348 -0.611003
v 0.278682 0.217789 -0.674170
v 0.278682 0.530951 -0.509811
v 0.278682 0.649076 -0.376474
v 0.278682 0.731860 -0.218743
v 0.278682 0.774490 -0.045785
v 0.278682 -0.649954 -0.218745
v 0.278682 -0.692585 -0.045786
v 0.278682 -0.567170 -0.376475
v 0.278682 -0.449045 -0.509811
v 0.278682 -0.302443 -0.611003
v 0.278682 -0.135883 -0.674171
v 0.278682 0.040952 -0.695642
v 0.318106 0.234497 -0.741959
v 0.318106 0.416794 -0.672823
v 0.318106 0.577248 -0.562069
v 0.318106 0.706534 -0.416136
v 0.318106 0.797139 -0.243500
v 0.318106 0.843798 -0.054200
v 0.278682 0.774490 0.132351
v 0.318106 0.843798 0.140766
v 0.318106 -0.761893 -0.054201
v 0.318106 -0.715235 -0.243502
v 0.318106 -0.624629 -0.416136
v 0.318106 -0.495342 -0.562070
v 0.318106 -0.334888 -0.672823
v 0.318106 -0.152591 -0.741959
v 0.318106 0.040952 -0.765460
v 0.349599 0.139908 -0.358196
v 0.360320 0.139717 -0.357421
v 0.360320 0.232742 -0.322141
v 0.349599 0.233113 -0.322848
v 0.360320 0.314620 -0.265624
v 0.349599 0.315150 -0.266222
v 0.360319 0.380595 -0.191155
v 0.349599 0.381251 -0.191608
v 0.360320 0.426830 -0.103061
v 0.349599 0.427576 -0.103344
v 0.360320 0.450640 -0.006463
v 0.349599 0.451432 -0.006559
v 0.349599 -0.369527 -0.006559
v 0.360320 -0.368735 -0.006463
v 0.360319 -0.344925 -0.103061
v 0.349599 -0.345671 -0.103344
v 0.360320 -0.298690 -0.191156
v 0.349599 -0.299347 -0.191608
v 0.360320 -0.232716 -0.265625
v 0.349599 -0.233245 -0.266222
v 0.360319 -0.150836 -0.322142
v 0.349599 -0.151207 -0.322849
v 0.360320 -0.057812 -0.357421
v 0.349599 -0.058003 -0.358196
v 0.360320 0.040952 -0.369413
v 0.349599 0.040952 -0.370211
v 0.409243 -0.051704 0.219826
v 0.409243 -0.006762 0.236871
v 0.409244 0.040953 0.242663
v 0.409243 0.040953 0.227226
v 0.409243 -0.091260 0.192522
v 0.409243 0.040985 0.198564
v 0.409243 -0.123134 0.156544
v 0.409243 0.040953 0.162677
v 0.409243 -0.145471 0.113984
v 0.409243 0.040953 0.115346
v 0.409243 -0.156974 0.067316
v 0.409243 0.040984 0.077270
v 0.409244 0.088668 0.236871
v 0.409243 0.133610 0.219826
v 0.409243 0.173167 0.192521
v 0.409243 0.205040 0.156544
v 0.409243 0.227377 0.113984
v 0.409243 0.238880 0.067316
v 0.269632 0.292404 0.522385
v 0.347391 0.244284 0.430698
v 0.347391 0.145661 0.468101
v 0.269632 0.170441 0.568638
v 0.269632 0.399754 0.448286
v 0.347391 0.331089 0.370780
v 0.269632 0.486251 0.350651
v 0.347391 0.401034 0.291829
v 0.269632 0.546869 0.235152
v 0.347391 0.450052 0.198434
v 0.269632 0.578086 0.108502
v 0.347392 0.475294 0.096021
v 0.269632 -0.464964 0.235153
v 0.347391 -0.368147 0.198435
v 0.347392 -0.393389 0.096022
v 0.269632 -0.496181 0.108504
v 0.269632 -0.404346 0.350651
v 0.347391 -0.319129 0.291829
v 0.269632 -0.317848 0.448287
v 0.347391 -0.249184 0.370780
v 0.269632 -0.210499 0.522385
v 0.347391 -0.162378 0.430699
v 0.269632 -0.088535 0.568639
v 0.347391 -0.063755 0.468101
v 0.269632 0.040952 0.584362
v 0.347391 0.040952 0.480814
v 0.233869 0.349328 0.630845
v 0.137932 0.321084 0.577030
v 0.137932 0.185210 0.628560
v 0.233869 0.199755 0.687570
v 0.233869 0.480980 0.539972
v 0.137932 0.440679 0.494480
v 0.233869 0.587059 0.420234
v 0.137932 0.537041 0.385709
v 0.233869 0.661401 0.278588
v 0.137932 0.604574 0.257036
v 0.233869 0.699684 0.123268
v 0.137932 0.639350 0.115941
v 0.233869 -0.579495 0.278589
v 0.137932 -0.522669 0.257037
v 0.137932 -0.557445 0.115942
v 0.233869 -0.617778 0.123268
v 0.233869 -0.505154 0.420234
v 0.137932 -0.455136 0.385709
v 0.233869 -0.399075 0.539973
v 0.137932 -0.358773 0.494481
v 0.233869 -0.267423 0.630845
v 0.137932 -0.239179 0.577030
v 0.233869 -0.117849 0.687570
v 0.137932 -0.103305 0.628560
v 0.233869 0.040952 0.706852
v 0.137932 0.040952 0.646076
v 0.278682 0.384348 0.697569
v 0.278682 0.217789 0.760737
v 0.278682 0.530951 0.596377
v 0.278682 0.649076 0.463040
v 0.278682 0.731860 0.305310
v 0.278682 -0.649954 0.305310
v 0.278682 -0.692585 0.132351
v 0.278682 -0.567170 0.463042
v 0.278682 -0.449045 0.596377
v 0.278682 -0.302442 0.697570
v 0.278682 -0.135883 0.760738
v 0.278682 0.040952 0.782208
v 0.318106 0.234497 0.828526
v 0.318106 0.416794 0.759390
v 0.318106 0.577248 0.648636
v 0.318106 0.706534 0.502701
v 0.318106 0.797140 0.330066
v 0.318106 -0.761893 0.140767
v 0.318106 -0.715235 0.330068
v 0.318106 -0.624629 0.502702
v 0.318106 -0.495342 0.648636
v 0.318106 -0.334888 0.759390
v 0.318106 -0.152591 0.828526
v 0.318106 0.040952 0.852026
v 0.349599 0.139908 0.444762
v 0.349599 0.233113 0.409414
v 0.360320 0.232742 0.408707
v 0.360320 0.139717 0.443987
v 0.349599 0.315150 0.352788
v 0.360320 0.314620 0.352191
v 0.349599 0.381251 0.278174
v 0.360319 0.380595 0.277721
v 0.349599 0.427576 0.189911
v 0.360320 0.426830 0.189628
v 0.349599 0.451432 0.093124
v 0.360320 0.450640 0.093028
v 0.349599 -0.369527 0.093124
v 0.360320 -0.368735 0.093028
v 0.349599 -0.345671 0.189911
v 0.360319 -0.344925 0.189628
v 0.349599 -0.299347 0.278175
v 0.360320 -0.298690 0.277722
v 0.349599 -0.233245 0.352788
v 0.360320 -0.232716 0.352191
v 0.349599 -0.151207 0.409415
v 0.360319 -0.150836 0.408708
v 0.349599 -0.058003 0.444762
v 0.360320 -0.057812 0.443987
v 0.349599 0.040952 0.456777
v 0.360320 0.040952 0.455979
v 0.291265 0.237187 -0.752873
v 0.291265 0.422017 -0.682776
v 0.291265 0.584702 -0.570483
v 0.291265 0.715785 -0.422521
v 0.291265 0.807650 -0.247487
v 0.291265 0.854957 -0.055555
v 0.291265 0.854957 0.142121
v 0.291265 0.807650 0.334053
v 0.291265 0.715785 0.509087
v 0.291265 0.584702 0.657049
v 0.291265 0.422017 0.769342
v 0.291265 0.237187 0.839440
v 0.291265 0.040952 0.863267
v 0.291265 -0.155281 0.839440
v 0.291265 -0.340112 0.769343
v 0.291265 -0.502796 0.657050
v 0.291265 -0.633880 0.509088
v 0.291265 -0.725745 0.334054
v 0.291265 -0.773052 0.142122
v 0.291265 -0.773052 -0.055556
v 0.291265 -0.725745 -0.247489
v 0.291265 -0.633880 -0.422522
v 0.291265 -0.502796 -0.570484
v 0.291265 -0.340112 -0.682776
v 0.291265 -0.155281 -0.752874
v 0.291265 0.040952 -0.776700
v 0.209698 0.335642 -1.152321
v 0.209698 0.040952 -1.188102
v 0.263526 0.040952 -1.070094
v 0.263526 0.307400 -1.037741
v 0.209698 0.613205 -1.047056
v 0.263526 0.558364 -0.942564
v 0.209698 0.857511 -0.878423
v 0.263526 0.779257 -0.790092
v 0.209698 1.054362 -0.656223
v 0.263526 0.957242 -0.589187
v 0.209698 1.192317 -0.393373
v 0.263526 1.081977 -0.351526
v 0.209698 1.263359 -0.105145
v 0.263526 1.146210 -0.090921
v 0.209699 -1.181454 -0.105146
v 0.209698 -1.181454 0.191710
v 0.263526 -1.064306 0.177487
v 0.263526 -1.064306 -0.090922
v 0.209698 -1.110412 -0.393373
v 0.263526 -1.000072 -0.351527
v 0.209698 -0.972457 -0.656225
v 0.263526 -0.875337 -0.589188
v 0.209698 -0.775606 -0.878424
v 0.263526 -0.697351 -0.790092
v 0.209698 -0.531299 -1.047056
v 0.263526 -0.476458 -0.942564
v 0.209698 -0.253736 -1.152321
v 0.263526 -0.225494 -1.037742
v -0.035527 0.335642 -1.152321
v -0.035527 0.040952 -1.188102
v -0.035527 0.613205 -1.047056
v -0.035527 0.857511 -0.878423
v -0.035527 1.054362 -0.656224
v -0.035527 1.192317 -0.393373
v -0.035528 1.263359 -0.105145
v -0.035527 -1.181454 -0.105146
v -0.035527 -1.181454 0.191710
v -0.035527 -1.110412 -0.393373
v -0.035527 -0.972457 -0.656225
v -0.035527 -0.775606 -0.878424
v -0.035527 -0.531299 -1.047056
v -0.035527 -0.253736 -1.152321
v 0.291266 0.270927 -0.889765
v 0.291266 0.237187 -0.752874
v 0.291266 0.422017 -0.682777
v 0.291266 0.487538 -0.807615
v 0.291266 0.584702 -0.570484
v 0.291266 0.678194 -0.676016
v 0.291266 0.715785 -0.422522
v 0.291266 0.831816 -0.502612
v 0.291266 0.807650 -0.247488
v 0.291266 0.939476 -0.297483
v 0.291266 0.854957 -0.055556
v 0.291266 0.994917 -0.072550
v 0.291266 -0.913012 -0.072552
v 0.291266 -0.773052 -0.055556
v 0.291266 -0.725745 -0.247489
v 0.291266 -0.857571 -0.297484
v 0.291266 -0.633880 -0.422523
v 0.291266 -0.749911 -0.502612
v 0.291266 -0.502796 -0.570485
v 0.291266 -0.596288 -0.676016
v 0.291266 -0.340112 -0.682777
v 0.291266 -0.405632 -0.807616
v 0.291266 -0.155281 -0.752874
v 0.291266 -0.189022 -0.889765
v 0.291266 0.040952 -0.776701
v 0.291266 0.040952 -0.917689
v 0.209698 0.335642 1.238886
v 0.263526 0.307400 1.124305
v 0.263526 0.040952 1.156658
v 0.209698 0.040952 1.274667
v 0.209698 0.613205 1.133619
v 0.263526 0.558364 1.029128
v 0.209698 0.857511 0.964987
v 0.263526 0.779257 0.876657
v 0.209698 1.054362 0.742789
v 0.263526 0.957242 0.675752
v 0.209698 1.192317 0.479938
v 0.263526 1.081977 0.438091
v 0.209698 1.263359 0.191709
v 0.263526 1.146210 0.177485
v 0.209698 -1.110412 0.479939
v 0.263526 -1.000072 0.438092
v 0.209698 -0.972457 0.742790
v 0.263526 -0.875337 0.675753
v 0.209698 -0.775606 0.964989
v 0.263526 -0.697351 0.876657
v 0.209698 -0.531299 1.133620
v 0.263526 -0.476458 1.029129
v 0.209698 -0.253736 1.238886
v 0.263526 -0.225494 1.124306
v -0.035527 0.335642 1.238886
v -0.035527 0.040952 1.274667
v -0.035527 0.613205 1.133619
v -0.035527 0.857511 0.964987
v -0.035527 1.054362 0.742789
v -0.035527 1.192317 0.479938
v -0.035528 1.263359 0.191709
v -0.035527 -1.110412 0.479938
v -0.035527 -0.972457 0.742790
v -0.035527 -0.775606 0.964988
v -0.035527 -0.531299 1.133620
v -0.035527 -0.253736 1.238886
v 0.291266 0.270927 0.976330
v 0.291266 0.487538 0.894180
v 0.291266 0.422017 0.769342
v 0.291266 0.237187 0.839439
v 0.291266 0.678194 0.762580
v 0.291266 0.584702 0.657048
v 0.291266 0.831816 0.589176
v 0.291266 0.715785 0.509086
v 0.291266 0.939476 0.384048
v 0.291266 0.807650 0.334052
v 0.291266 0.994917 0.159115
v 0.291266 0.854957 0.142121
v 0.291266 -0.913012 0.159116
v 0.291266 -0.857571 0.384048
v 0.291266 -0.725745 0.334054
v 0.291266 -0.773052 0.142121
v 0.291266 -0.749911 0.589177
v 0.291266 -0.633880 0.509087
v 0.291266 -0.596288 0.762581
v 0.291266 -0.502796 0.657049
v 0.291266 -0.405632 0.894180
v 0.291266 -0.340112 0.769342
v 0.291266 -0.189022 0.976331
v 0.291266 -0.155281 0.839440
v 0.291266 0.040952 1.004254
v 0.291266 0.040952 0.863266
v -0.280753 0.335642 -1.152321
v -0.334580 0.307400 -1.037741
v -0.334580 0.040952 -1.070094
v -0.280753 0.040952 -1.188102
v -0.280753 0.613205 -1.047056
v -0.334580 0.558364 -0.942564
v -0.280753 0.857511 -0.878423
v -0.334580 0.779257 -0.790092
v -0.280753 1.054362 -0.656224
v -0.334580 0.957242 -0.589187
v -0.280753 1.192317 -0.393373
v -0.334581 1.081977 -0.351526
v -0.280753 1.263359 -0.105145
v -0.334581 1.146210 -0.090921
v -0.280752 -1.181454 -0.105146
v -0.334581 -1.064306 -0.090922
v -0.334581 -1.064306 0.177486
v -0.280752 -1.181454 0.191710
v -0.280753 -1.110412 -0.393373
v -0.334581 -1.000072 -0.351527
v -0.280753 -0.972457 -0.656225
v -0.334580 -0.875337 -0.589189
v -0.280753 -0.775606 -0.878424
v -0.334580 -0.697351 -0.790092
v -0.280753 -0.531299 -1.047056
v -0.334580 -0.476458 -0.942564
v -0.280753 -0.253736 -1.152321
v -0.334580 -0.225495 -1.037742
v -0.362320 0.270927 -0.889765
v -0.362320 0.487538 -0.807615
v -0.362320 0.422017 -0.682777
v -0.362320 0.237187 -0.752874
v -0.362320 0.678194 -0.676016
v -0.362320 0.584702 -0.570484
v -0.362320 0.831816 -0.502613
v -0.362320 0.715785 -0.422522
v -0.362320 0.939476 -0.297483
v -0.362320 0.807650 -0.247488
v -0.362320 0.994917 -0.072550
v -0.362320 0.854957 -0.055556
v -0.362320 -0.913012 -0.072551
v -0.362320 -0.857571 -0.297484
v -0.362320 -0.725745 -0.247489
v -0.362320 -0.773052 -0.055557
v -0.362320 -0.749911 -0.502613
v -0.362320 -0.633880 -0.422523
v -0.362320 -0.596288 -0.676016
v -0.362320 -0.502797 -0.570485
v -0.362320 -0.405632 -0.807616
v -0.362320 -0.340112 -0.682777
v -0.362320 -0.189022 -0.889765
v -0.362320 -0.155281 -0.752875
v -0.362320 0.040952 -0.917689
v -0.362320 0.040952 -0.776701
v -0.280753 0.335642 1.238886
v -0.280753 0.040952 1.274667
v -0.334581 0.040952 1.156658
v -0.334581 0.307400 1.124305
v -0.280753 0.613205 1.133619
v -0.334581 0.558364 1.029128
v -0.280753 0.857511 0.964987
v -0.334581 0.779257 0.876657
v -0.280753 1.054362 0.742789
v -0.334581 0.957242 0.675752
v -0.280753 1.192317 0.479938
v -0.334581 1.081977 0.438091
v -0.280753 1.263359 0.191709
v -0.334581 1.146210 0.177485
v -0.280753 -1.110412 0.479938
v -0.334581 -1.000072 0.438092
v -0.280753 -0.972457 0.742790
v -0.334581 -0.875337 0.675753
v -0.280753 -0.775606 0.964988
v -0.334581 -0.697351 0.876657
v -0.280753 -0.531299 1.133620
v -0.334581 -0.476458 1.029129
v -0.280753 -0.253736 1.238886
v -0.334581 -0.225495 1.124306
v -0.362320 0.270927 0.976330
v -0.362320 0.237187 0.839439
v -0.362320 0.422017 0.769341
v -0.362320 0.487538 0.894180
v -0.362320 0.584702 0.657048
v -0.362320 0.678194 0.762580
v -0.362320 0.715785 0.509086
v -0.362320 0.831816 0.589176
v -0.362320 0.807650 0.334052
v -0.362320 0.939476 0.384047
v -0.362320 0.854957 0.142120
v -0.362320 0.994917 0.159115
v -0.362320 -0.913012 0.159116
v -0.362320 -0.773052 0.142121
v -0.362320 -0.725745 0.334053
v -0.362320 -0.857571 0.384048
v -0.362320 -0.633880 0.509087
v -0.362320 -0.749911 0.589177
v -0.362320 -0.502797 0.657049
v -0.362320 -0.596288 0.762581
v -0.362320 -0.340112 0.769342
v -0.362320 -0.405632 0.894180
v -0.362320 -0.155281 0.839440
v -0.362320 -0.189022 0.976330
v -0.362320 0.040952 0.863266
v -0.362320 0.040952 1.004254
v -0.304925 0.349328 -0.544280
v -0.208988 0.212147 -0.282901
v -0.208988 0.129111 -0.314393
v -0.304925 0.199755 -0.601005
v -0.304925 0.480980 -0.453406
v -0.208988 0.285233 -0.232454
v -0.304925 0.587059 -0.333668
v -0.208988 0.344122 -0.165981
v -0.304925 0.661400 -0.192022
v -0.208988 0.385393 -0.087347
v -0.304925 0.699683 -0.036703
v -0.208988 0.406645 -0.001121
v -0.304925 -0.579495 -0.192023
v -0.208988 -0.303488 -0.087348
v -0.208988 -0.324741 -0.001121
v -0.304925 -0.617779 -0.036703
v -0.304925 -0.505154 -0.333669
v -0.208988 -0.262218 -0.165981
v -0.304925 -0.399075 -0.453407
v -0.208988 -0.203328 -0.232454
v -0.304925 -0.267423 -0.544280
v -0.208988 -0.130242 -0.282902
v -0.304925 -0.117849 -0.601005
v -0.208988 -0.047206 -0.314393
v -0.304925 0.040952 -0.620287
v -0.208988 0.040952 -0.325097
v -0.349737 0.384348 -0.611003
v -0.349737 0.217788 -0.674171
v -0.349737 0.530950 -0.509812
v -0.349737 0.649076 -0.376475
v -0.349737 0.731859 -0.218744
v -0.349737 0.774490 -0.045786
v -0.349737 -0.649955 -0.218745
v -0.349737 -0.692586 -0.045787
v -0.349737 -0.567171 -0.376476
v -0.349737 -0.449045 -0.509812
v -0.349737 -0.302443 -0.611004
v -0.349737 -0.135883 -0.674172
v -0.349737 0.040952 -0.695643
v -0.389162 0.234497 -0.741960
v -0.389162 0.416793 -0.672824
v -0.389162 0.577248 -0.562070
v -0.389162 0.706534 -0.416136
v -0.389162 0.797139 -0.243502
v -0.389162 0.843798 -0.054201
v -0.389162 0.843798 0.140765
v -0.349737 0.774490 0.132350
v -0.389162 -0.761893 -0.054202
v -0.389162 -0.715235 -0.243503
v -0.389162 -0.624629 -0.416136
v -0.389162 -0.495342 -0.562071
v -0.389162 -0.334888 -0.672824
v -0.389162 -0.152591 -0.741960
v -0.389162 0.040952 -0.765461
v -0.304925 0.349328 0.630844
v -0.304925 0.199755 0.687569
v -0.208988 0.129111 0.400957
v -0.208988 0.212147 0.369465
v -0.304925 0.480980 0.539971
v -0.208988 0.285233 0.319018
v -0.304925 0.587059 0.420233
v -0.208988 0.344122 0.252545
v -0.304925 0.661400 0.278587
v -0.208988 0.385393 0.173911
v -0.304925 0.699683 0.123267
v -0.208988 0.406645 0.087686
v -0.304925 -0.579495 0.278588
v -0.304925 -0.617779 0.123267
v -0.208988 -0.324741 0.087686
v -0.208988 -0.303488 0.173911
v -0.304925 -0.505154 0.420233
v -0.208988 -0.262218 0.252545
v -0.304925 -0.399075 0.539972
v -0.208988 -0.203328 0.319018
v -0.304925 -0.267423 0.630844
v -0.208988 -0.130242 0.369466
v -0.304925 -0.117849 0.687569
v -0.208988 -0.047206 0.400957
v -0.304925 0.040952 0.706851
v -0.208988 0.040952 0.411662
v -0.349737 0.384348 0.697568
v -0.349737 0.217788 0.760736
v -0.349737 0.530950 0.596376
v -0.349737 0.649076 0.463039
v -0.349737 0.731859 0.305309
v -0.349737 -0.649955 0.305310
v -0.349737 -0.692586 0.132350
v -0.349737 -0.567171 0.463041
v -0.349737 -0.449045 0.596376
v -0.349737 -0.302443 0.697569
v -0.349737 -0.135883 0.760737
v -0.349737 0.040952 0.782207
v -0.389162 0.234497 0.828525
v -0.389162 0.416793 0.759389
v -0.389162 0.577248 0.648635
v -0.389162 0.706534 0.502700
v -0.389162 0.797139 0.330066
v -0.389162 -0.761893 0.140766
v -0.389162 -0.715235 0.330067
v -0.389162 -0.624629 0.502701
v -0.389162 -0.495342 0.648635
v -0.389162 -0.334888 0.759389
v -0.389162 -0.152591 0.828525
v -0.389162 0.040952 0.852025
v -0.362320 0.237187 -0.752874
v -0.362320 0.422017 -0.682777
v -0.362320 0.584702 -0.570484
v -0.362320 0.715785 -0.422522
v -0.362320 0.807650 -0.247488
v -0.362320 0.854957 -0.055556
v -0.362320 0.854957 0.142120
v -0.362320 0.807650 0.334052
v -0.362320 0.715785 0.509086
v -0.362320 0.584702 0.657048
v -0.362320 0.422017 0.769341
v -0.362320 0.237187 0.839439
v -0.362320 0.040952 0.863266
v -0.362320 -0.155281 0.839440
v -0.362320 -0.340112 0.769342
v -0.362320 -0.502797 0.657049
v -0.362320 -0.633880 0.509087
v -0.362320 -0.725745 0.334053
v -0.362320 -0.773052 0.142121
v -0.362320 -0.773052 -0.055557
v -0.362320 -0.725745 -0.247489
v -0.362320 -0.633880 -0.422523
v -0.362320 -0.502797 -0.570485
v -0.362320 -0.340112 -0.682777
v -0.362320 -0.155281 -0.752875
v -0.362320 0.040952 -0.776701
v -0.208988 0.040952 0.369466
v -0.208988 0.040952 0.319018
v -0.208988 0.040952 0.252545
v -0.208988 0.040952 0.173911
v -0.208988 0.040952 0.087686
v -0.208988 0.040952 -0.001121
v -0.208988 0.040952 -0.087347
v -0.208988 0.040952 -0.165981
v -0.208988 0.040952 -0.232454
v -0.208988 0.040952 -0.282902
vn 0.9927 -0.0290 -0.1175
vn 1.0000 -0.0000 -0.0000
vn 0.9927 -0.0562 -0.1071
vn 0.9927 -0.0802 -0.0906
vn 0.9927 -0.0996 -0.0687
vn 0.9927 -0.1131 -0.0429
vn 0.9927 -0.1201 -0.0146
vn 0.9927 0.0290 -0.1175
vn 0.9927 -0.0000 -0.1210
vn 0.9927 0.0562 -0.1071
vn 0.9927 0.0802 -0.0906
vn 0.9927 0.0996 -0.0687
vn 0.9927 0.1131 -0.0429
vn 0.9260 0.1755 -0.3343
vn 0.6218 0.1874 -0.7605
vn 0.6218 0.3640 -0.6935
vn 0.6218 0.5194 -0.5862
vn 0.9260 0.2504 -0.2826
vn 0.9260 0.3108 -0.2145
vn 0.6218 0.6446 -0.4449
vn 0.6218 0.7323 -0.2777
vn 0.9260 0.3531 -0.1339
vn 0.6218 0.7775 -0.0944
vn 0.9260 0.3748 -0.0455
vn 0.9260 -0.3531 -0.1339
vn 0.6218 -0.7775 -0.0944
vn 0.6218 -0.7323 -0.2777
vn 0.6218 -0.6446 -0.4449
vn 0.9260 -0.3107 -0.2145
vn 0.6218 -0.5194 -0.5862
vn 0.9260 -0.2504 -0.2826
vn 0.9260 -0.1755 -0.3343
vn 0.6218 -0.3640 -0.6935
vn 0.6218 -0.1874 -0.7605
vn 0.9260 -0.0904 -0.3666
vn 0.6218 -0.0000 -0.7832
vn 0.9260 -0.0000 -0.3776
vn 0.9260 0.0904 -0.3666
vn 1.0000 -0.0020 0.0038
vn 0.7260 -0.1646 0.6677
vn 0.7260 -0.3196 0.6089
vn 0.7260 -0.4560 0.5147
vn 1.0000 -0.0028 0.0032
vn 1.0000 -0.0035 0.0024
vn 0.7260 -0.5659 0.3906
vn 1.0000 -0.0040 0.0015
vn 0.7260 -0.6430 0.2438
vn 0.7260 -0.6826 0.0829
vn 1.0000 -0.0042 0.0005
vn 1.0000 0.0042 0.0005
vn 0.7260 0.6430 0.2438
vn 1.0000 0.0040 0.0015
vn 0.7260 0.5659 0.3906
vn 1.0000 0.0035 0.0024
vn 0.7260 0.4560 0.5147
vn 1.0000 0.0028 0.0032
vn 0.7260 0.3196 0.6089
vn 1.0000 0.0020 0.0037
vn 1.0000 0.0010 0.0041
vn 0.7260 0.1646 0.6677
vn 1.0000 -0.0000 0.0042
vn 0.7260 -0.0000 0.6877
vn 1.0000 -0.0010 0.0041
vn 0.8656 -0.1198 0.4862
vn 0.8656 -0.2327 0.4434
vn 0.8656 -0.3321 0.3749
vn 0.8656 -0.4122 0.2845
vn 0.8656 -0.4683 0.1776
vn 0.8656 -0.4972 0.0604
vn 0.8656 0.4971 0.0604
vn 0.8656 0.4683 0.1776
vn 0.8656 0.4122 0.2845
vn 0.8656 0.3321 0.3749
vn 0.8656 0.2327 0.4434
vn 0.8656 0.1198 0.4862
vn 0.8656 -0.0000 0.5008
vn 0.9276 0.1736 -0.3308
vn 0.9276 0.0894 -0.3627
vn 0.9276 0.2477 -0.2796
vn 0.9276 0.3493 -0.1325
vn 0.9276 0.3075 -0.2122
vn 0.8656 -0.4972 -0.0604
vn 0.9276 0.3709 -0.0450
vn 0.9276 0.3709 0.0450
vn 0.9276 -0.3493 -0.1325
vn 0.9276 -0.3709 -0.0450
vn 0.9276 -0.3075 -0.2122
vn 0.9276 -0.2477 -0.2796
vn 0.9276 -0.1736 -0.3308
vn 0.9276 -0.0894 -0.3627
vn 0.9276 -0.0000 -0.3736
vn 0.6300 0.3609 -0.6876
vn 0.7267 0.1644 -0.6670
vn 0.7267 0.3193 -0.6083
vn 0.7267 0.4556 -0.5142
vn 0.7266 0.5654 -0.3903
vn 0.6300 0.5150 -0.5813
vn 0.7266 0.6424 -0.2436
vn 0.6300 0.6391 -0.4412
vn 0.6300 0.7710 -0.0936
vn 0.7266 0.6820 -0.0828
vn 0.6300 -0.7261 -0.2754
vn 0.7266 -0.6820 -0.0828
vn 0.7266 -0.6424 -0.2436
vn 0.7266 -0.5654 -0.3903
vn 0.7266 -0.4556 -0.5142
vn 0.6300 -0.6391 -0.4412
vn 0.6300 -0.3609 -0.6876
vn 0.7267 -0.3193 -0.6083
vn 0.7267 -0.1644 -0.6670
vn 0.7266 -0.0000 -0.6870
vn 0.6300 -0.1858 -0.7540
vn 0.6300 0.1859 -0.7540
vn 0.9927 -0.0290 0.1175
vn 0.9927 -0.0562 0.1072
vn 0.9927 -0.0802 0.0906
vn 0.9927 -0.0996 0.0687
vn 0.9927 -0.1131 0.0429
vn 0.9927 -0.1201 0.0146
vn 0.9927 0.0290 0.1175
vn 0.9927 -0.0000 0.1210
vn 0.9927 0.0562 0.1071
vn 0.9927 0.0802 0.0906
vn 0.9927 0.0996 0.0687
vn 0.9927 0.1131 0.0429
vn 0.9927 0.1201 0.0146
vn 0.9260 0.0904 0.3666
vn 0.6218 0.3640 0.6935
vn 0.6218 0.1874 0.7605
vn 0.9260 0.1755 0.3344
vn 0.6218 0.5194 0.5862
vn 0.9260 0.3108 0.2145
vn 0.6218 0.6446 0.4449
vn 0.6218 0.7323 0.2777
vn 0.9260 0.3531 0.1339
vn 0.6217 0.7775 0.0944
vn 0.9260 0.3748 0.0455
vn 0.6218 -0.7775 0.0944
vn 0.9260 -0.3531 0.1339
vn 0.6218 -0.7323 0.2777
vn 0.6218 -0.6446 0.4449
vn 0.9260 -0.2504 0.2826
vn 0.6218 -0.5194 0.5862
vn 0.9260 -0.1755 0.3344
vn 0.6218 -0.3640 0.6935
vn 0.6218 -0.1874 0.7605
vn 0.9260 -0.0904 0.3666
vn 0.6218 -0.0000 0.7832
vn 0.9260 -0.3748 0.0455
vn 0.7260 -0.1646 -0.6677
vn 1.0000 -0.0020 -0.0038
vn 0.7260 -0.3196 -0.6089
vn 0.7260 -0.4560 -0.5147
vn 1.0000 -0.0028 -0.0032
vn 0.7260 -0.5659 -0.3906
vn 1.0000 -0.0035 -0.0024
vn 0.7260 -0.6430 -0.2438
vn 1.0000 -0.0040 -0.0015
vn 0.7260 -0.6826 -0.0829
vn 1.0000 -0.0042 -0.0005
vn 1.0000 0.0042 -0.0005
vn 0.7260 0.6430 -0.2438
vn 0.7260 0.6826 -0.0829
vn 1.0000 0.0039 -0.0015
vn 0.7260 0.5659 -0.3906
vn 1.0000 0.0028 -0.0032
vn 0.7260 0.4560 -0.5147
vn 0.7260 0.3196 -0.6089
vn 1.0000 0.0010 -0.0041
vn 0.7260 0.1646 -0.6677
vn 1.0000 -0.0000 -0.0042
vn 0.7260 -0.0000 -0.6877
vn 1.0000 -0.0010 -0.0041
vn 0.7260 0.6826 0.0829
vn 0.8656 -0.2327 -0.4434
vn 0.8656 -0.1198 -0.4862
vn 0.8656 -0.3321 -0.3749
vn 0.8656 -0.4122 -0.2845
vn 0.8656 -0.4683 -0.1776
vn 0.8656 0.4683 -0.1776
vn 0.8656 0.4971 -0.0604
vn 0.8656 0.4121 -0.2845
vn 0.8656 0.3321 -0.3749
vn 0.8656 0.2327 -0.4434
vn 0.8656 0.1198 -0.4862
vn 0.8656 -0.0000 -0.5008
vn 0.9276 0.1736 0.3308
vn 0.9276 0.0894 0.3627
vn 0.9276 0.2478 0.2797
vn 0.9276 0.3075 0.2122
vn 0.9276 0.3493 0.1325
vn 0.9276 -0.3709 0.0450
vn 0.9276 -0.3493 0.1325
vn 0.9276 -0.3075 0.2122
vn 0.9276 -0.2477 0.2796
vn 0.9276 -0.1736 0.3308
vn 0.9276 -0.0894 0.3628
vn 0.9276 -0.0000 0.3736
vn 1.0000 0.0035 -0.0024
vn 1.0000 0.0020 -0.0037
vn 0.6300 0.3609 0.6876
vn 0.7266 0.1644 0.6671
vn 0.6300 0.1858 0.7540
vn 0.6300 0.5150 0.5813
vn 0.7266 0.3193 0.6083
vn 0.6300 0.6391 0.4412
vn 0.7266 0.4556 0.5142
vn 0.6300 0.7261 0.2754
vn 0.7266 0.5654 0.3903
vn 0.6300 0.7709 0.0936
vn 0.7266 0.6424 0.2436
vn 0.7266 0.6820 0.0828
vn 0.6300 -0.7709 -0.0936
vn 0.7266 -0.6820 0.0828
vn 0.6300 -0.7709 0.0936
vn 0.7266 -0.6424 0.2436
vn 0.6300 -0.7261 0.2754
vn 0.7266 -0.5654 0.3903
vn 0.6300 -0.6391 0.4412
vn 0.7266 -0.4556 0.5143
vn 0.6300 -0.3609 0.6876
vn 0.6300 -0.5150 0.5813
vn 0.7266 -0.1644 0.6671
vn 0.7267 -0.3193 0.6083
vn 0.6300 -0.1858 0.7540
vn 0.7266 -0.0000 0.6870
vn 0.6300 -0.0000 0.7766
vn 0.3863 0.2207 -0.8956
vn 0.3863 0.6117 -0.6904
vn 0.3863 0.4287 -0.8167
vn 0.3863 0.7591 -0.5240
vn 0.3863 0.8624 -0.3271
vn 0.3863 0.9157 -0.1112
vn 0.3863 0.9157 0.1112
vn 0.3863 0.8624 0.3271
vn 0.3863 0.6117 0.6904
vn 0.3863 0.7591 0.5240
vn 0.3862 0.4287 0.8167
vn 0.3863 0.2207 0.8956
vn 0.3863 -0.0000 0.9224
vn 0.3863 -0.4287 0.8167
vn 0.3863 -0.2207 0.8956
vn 0.3863 -0.6116 0.6904
vn 0.3863 -0.8624 0.3271
vn 0.3863 -0.7591 0.5240
vn 0.3863 -0.9157 0.1112
vn 0.3863 -0.9157 -0.1112
vn 0.3863 -0.8624 -0.3271
vn 0.3863 -0.7591 -0.5240
vn 0.3863 -0.6116 -0.6904
vn 0.3863 -0.4287 -0.8167
vn 0.3863 -0.0000 -0.9224
vn 0.3863 -0.2207 -0.8956
vn 0.6300 0.7261 -0.2754
vn 0.9927 0.1201 -0.0146
vn 0.6300 -0.5150 -0.5813
vn 0.6300 -0.0000 -0.7766
vn 0.9260 -0.3748 -0.0455
vn 0.9260 0.2504 0.2826
vn 0.9260 -0.3108 0.2145
vn 0.9260 -0.0000 0.3776
vn 0.9514 0.0737 -0.2990
vn 0.5227 -0.0000 -0.8525
vn 0.5227 0.2040 -0.8277
vn 0.9514 0.1431 -0.2727
vn 0.5227 0.3962 -0.7548
vn 0.5227 0.5653 -0.6381
vn 0.9514 0.2042 -0.2305
vn 0.5227 0.7016 -0.4843
vn 0.9514 0.2534 -0.1749
vn 0.9514 0.2879 -0.1092
vn 0.5227 0.7971 -0.3023
vn 0.9514 0.3057 -0.0371
vn 0.5227 0.8463 -0.1028
vn 0.9514 -0.3057 -0.0371
vn 0.5227 -0.8463 0.1028
vn 0.5227 -0.8463 -0.1028
vn 0.5227 -0.7971 -0.3023
vn 0.9514 -0.2879 -0.1092
vn 0.5227 -0.7016 -0.4843
vn 0.9514 -0.2534 -0.1749
vn 0.5227 -0.5653 -0.6381
vn 0.9514 -0.2042 -0.2305
vn 0.5227 -0.3962 -0.7548
vn 0.9514 -0.1431 -0.2727
vn 0.5227 -0.2040 -0.8277
vn 0.9514 -0.0737 -0.2990
vn 0.9514 -0.0000 -0.3079
vn -0.0000 0.2393 -0.9709
vn -0.0000 0.4647 -0.8855
vn -0.0000 0.6631 -0.7485
vn -0.0000 0.8230 -0.5681
vn -0.0000 0.9350 -0.3546
vn -0.0000 0.9927 -0.1205
vn -0.0000 -0.9927 0.1205
vn -0.0000 -0.9927 -0.1205
vn -0.0000 -0.9350 -0.3546
vn -0.0000 -0.8230 -0.5681
vn -0.0000 -0.6631 -0.7485
vn -0.0000 -0.4647 -0.8855
vn -0.0000 -0.2393 -0.9709
vn -0.0000 -0.0000 -1.0000
vn 0.9953 0.0450 -0.0857
vn 0.9953 0.0232 -0.0939
vn 0.9953 0.0642 -0.0724
vn 0.9953 0.0796 -0.0550
vn 0.9953 0.0905 -0.0343
vn 0.9953 0.0960 -0.0117
vn 0.9953 -0.0960 -0.0117
vn 0.9953 -0.0905 -0.0343
vn 0.9953 -0.0796 -0.0550
vn 0.9953 -0.0642 -0.0724
vn 0.9953 -0.0450 -0.0857
vn 0.9953 -0.0232 -0.0939
vn 0.9953 -0.0000 -0.0967
vn 0.9514 -0.0000 0.3079
vn 0.5227 0.2040 0.8277
vn 0.5227 -0.0000 0.8525
vn 0.9514 0.1431 0.2727
vn 0.5227 0.3962 0.7548
vn 0.9514 0.2042 0.2305
vn 0.5227 0.5653 0.6381
vn 0.9514 0.2534 0.1749
vn 0.5227 0.7016 0.4843
vn 0.5227 0.7971 0.3023
vn 0.9514 0.2879 0.1092
vn 0.5227 0.8463 0.1028
vn 0.9514 -0.3057 0.0371
vn 0.5227 -0.7971 0.3023
vn 0.9514 -0.2879 0.1092
vn 0.5227 -0.7016 0.4843
vn 0.9514 -0.2534 0.1749
vn 0.5227 -0.5653 0.6381
vn 0.9514 -0.2042 0.2305
vn 0.5227 -0.3962 0.7548
vn 0.9514 -0.1431 0.2727
vn 0.5227 -0.2040 0.8277
vn 0.9514 -0.0737 0.2990
vn -0.0000 0.2393 0.9709
vn -0.0000 -0.0000 1.0000
vn -0.0000 0.4647 0.8855
vn -0.0000 0.6631 0.7485
vn -0.0000 0.8230 0.5681
vn -0.0000 0.9350 0.3546
vn -0.0000 0.9927 0.1205
vn -0.0000 -0.9350 0.3546
vn -0.0000 -0.8230 0.5681
vn -0.0000 -0.6631 0.7485
vn -0.0000 -0.4647 0.8855
vn -0.0000 -0.2393 0.9709
vn 0.9953 0.0450 0.0857
vn 0.9953 0.0232 0.0939
vn 0.9953 0.0642 0.0724
vn 0.9953 0.0796 0.0550
vn 0.9953 0.0960 0.0117
vn 0.9953 0.0905 0.0343
vn 0.9953 -0.0905 0.0343
vn 0.9953 -0.0960 0.0117
vn 0.9953 -0.0796 0.0550
vn 0.9953 -0.0642 0.0724
vn 0.9953 -0.0450 0.0857
vn 0.9953 -0.0000 0.0967
vn 0.9953 -0.0232 0.0939
vn 0.9514 0.3057 0.0371
vn 0.9514 0.0737 0.2990
vn -0.5227 -0.0000 -0.8525
vn -0.9514 0.0737 -0.2990
vn -0.5227 0.2040 -0.8277
vn -0.9514 0.1431 -0.2727
vn -0.5227 0.3962 -0.7548
vn -0.5227 0.5653 -0.6381
vn -0.9514 0.2042 -0.2305
vn -0.5227 0.7016 -0.4843
vn -0.9514 0.2879 -0.1092
vn -0.5227 0.7971 -0.3023
vn -0.9514 0.3057 -0.0371
vn -0.5228 0.8463 -0.1028
vn -0.5227 -0.8463 0.1028
vn -0.9514 -0.3057 -0.0371
vn -0.5227 -0.8463 -0.1028
vn -0.5227 -0.7971 -0.3023
vn -0.9514 -0.2879 -0.1092
vn -0.5227 -0.7016 -0.4843
vn -0.9514 -0.2534 -0.1749
vn -0.5227 -0.5653 -0.6381
vn -0.9514 -0.1431 -0.2727
vn -0.5227 -0.3962 -0.7548
vn -0.9514 -0.0737 -0.2990
vn -0.5227 -0.2040 -0.8277
vn -1.0000 -0.0000 -0.0000
vn -0.9953 0.0450 -0.0857
vn -0.9953 0.0232 -0.0939
vn -0.9953 0.0796 -0.0550
vn -0.9953 0.0642 -0.0724
vn -0.9953 0.0905 -0.0343
vn -0.9953 0.0960 -0.0117
vn -0.9953 -0.0960 -0.0117
vn -0.9953 -0.0796 -0.0550
vn -0.9953 -0.0905 -0.0343
vn -0.9953 -0.0642 -0.0724
vn -0.9953 -0.0450 -0.0857
vn -0.9953 -0.0000 -0.0967
vn -0.9953 -0.0232 -0.0939
vn -0.9514 -0.0000 -0.3079
vn -0.9514 0.2534 -0.1749
vn -0.9514 -0.2042 -0.2305
vn -0.9514 -0.0000 0.3079
vn -0.5227 0.2040 0.8277
vn -0.9514 0.0737 0.2990
vn -0.9514 0.1431 0.2727
vn -0.5227 0.3962 0.7548
vn -0.9514 0.2042 0.2305
vn -0.5227 0.5653 0.6381
vn -0.9514 0.2534 0.1749
vn -0.5227 0.7016 0.4843
vn -0.5227 0.7971 0.3023
vn -0.9514 0.2879 0.1092
vn -0.9514 0.3057 0.0371
vn -0.5227 0.8463 0.1028
vn -0.9514 -0.3057 0.0371
vn -0.5227 -0.7971 0.3023
vn -0.9514 -0.2879 0.1092
vn -0.5227 -0.7016 0.4843
vn -0.9514 -0.2534 0.1749
vn -0.9514 -0.2042 0.2305
vn -0.5227 -0.5653 0.6381
vn -0.5227 -0.3962 0.7548
vn -0.9514 -0.1431 0.2727
vn -0.5227 -0.2040 0.8277
vn -0.9514 -0.0737 0.2990
vn -0.5227 -0.0000 0.8525
vn -0.9953 0.0450 0.0857
vn -0.9953 0.0232 0.0939
vn -0.9953 0.0642 0.0724
vn -0.9953 0.0796 0.0550
vn -0.9953 0.0905 0.0343
vn -0.9953 0.0960 0.0117
vn -0.9953 -0.0960 0.0117
vn -0.9953 -0.0905 0.0343
vn -0.9953 -0.0796 0.0550
vn -0.9953 -0.0642 0.0724
vn -0.9953 -0.0450 0.0857
vn -0.9953 -0.0232 0.0939
vn -0.9953 -0.0000 0.0967
vn -0.9858 -0.0402 0.1633
vn -0.9077 -0.1950 0.3716
vn -0.9077 -0.1004 0.4075
vn -0.9858 -0.0782 0.1489
vn -0.9077 -0.2783 0.3141
vn -0.9858 -0.1384 0.0955
vn -0.9077 -0.3454 0.2384
vn -0.9858 -0.1572 0.0596
vn -0.9077 -0.3924 0.1488
vn -0.9077 -0.4166 0.0506
vn -0.9858 0.1669 0.0203
vn -0.9077 0.3924 0.1488
vn -0.9077 0.4166 0.0506
vn -0.9858 0.1572 0.0596
vn -0.9077 0.3454 0.2384
vn -0.9858 0.1384 0.0955
vn -0.9077 0.2783 0.3141
vn -0.9858 0.0782 0.1489
vn -0.9077 0.1950 0.3716
vn -0.9858 0.0402 0.1633
vn -0.9077 0.1004 0.4075
vn -0.9077 -0.0000 0.4197
vn -0.9858 -0.0000 0.1682
vn -0.8656 -0.1198 0.4862
vn -0.8656 -0.2327 0.4434
vn -0.8656 -0.3321 0.3749
vn -0.8656 -0.4122 0.2845
vn -0.8656 -0.4683 0.1776
vn -0.8656 -0.4971 0.0604
vn -0.8656 0.4972 0.0604
vn -0.8656 0.4683 0.1776
vn -0.8656 0.4122 0.2845
vn -0.8656 0.3321 0.3749
vn -0.8656 0.2327 0.4434
vn -0.8656 0.1198 0.4862
vn -0.8656 -0.0000 0.5008
vn -0.9276 0.1736 -0.3308
vn -0.9276 0.0894 -0.3628
vn -0.9276 0.2477 -0.2796
vn -0.9276 0.3075 -0.2122
vn -0.9276 0.3493 -0.1325
vn -0.9276 0.3709 -0.0450
vn -0.8656 -0.4971 -0.0604
vn -0.9276 -0.3493 -0.1325
vn -0.9276 -0.3709 -0.0450
vn -0.9276 -0.3075 -0.2122
vn -0.9276 -0.2477 -0.2796
vn -0.9276 -0.1736 -0.3308
vn -0.9276 -0.0894 -0.3627
vn -0.9276 -0.0000 -0.3736
vn -0.9858 -0.0402 -0.1633
vn -0.9077 -0.1950 -0.3716
vn -0.9858 -0.0782 -0.1489
vn -0.9858 -0.1115 -0.1259
vn -0.9077 -0.2783 -0.3141
vn -0.9077 -0.3454 -0.2384
vn -0.9858 -0.1384 -0.0955
vn -0.9077 -0.3924 -0.1488
vn -0.9858 -0.1572 -0.0596
vn -0.9077 -0.4166 -0.0506
vn -0.9858 -0.1669 -0.0203
vn -0.9858 -0.1669 0.0203
vn -0.9858 0.1669 -0.0203
vn -0.9077 0.3924 -0.1488
vn -0.9858 0.1572 -0.0596
vn -0.9858 0.1384 -0.0955
vn -0.9077 0.3454 -0.2384
vn -0.9858 0.1115 -0.1259
vn -0.9077 0.2783 -0.3141
vn -0.9858 0.0782 -0.1489
vn -0.9077 0.1950 -0.3716
vn -0.9077 0.1004 -0.4075
vn -0.9858 0.0402 -0.1633
vn -0.9858 -0.0000 -0.1682
vn -0.9077 -0.0000 -0.4197
vn -0.9077 -0.1004 -0.4075
vn -0.9077 0.4166 -0.0506
vn -0.8656 -0.1198 -0.4862
vn -0.8656 -0.2327 -0.4434
vn -0.8656 -0.3321 -0.3749
vn -0.8656 -0.4122 -0.2845
vn -0.8656 -0.4683 -0.1776
vn -0.8656 0.4683 -0.1776
vn -0.8656 0.4122 -0.2845
vn -0.8656 0.3321 -0.3749
vn -0.8656 0.2327 -0.4434
vn -0.8656 0.1198 -0.4862
vn -0.8656 -0.0000 -0.5008
vn -0.8656 0.4972 -0.0604
vn -0.9276 0.1736 0.3308
vn -0.9276 0.0894 0.3627
vn -0.9276 0.2478 0.2797
vn -0.9276 0.3493 0.1325
vn -0.9276 0.3075 0.2122
vn -0.9276 -0.3709 0.0450
vn -0.9276 -0.3075 0.2122
vn -0.9276 -0.3493 0.1325
vn -0.9276 -0.2477 0.2796
vn -0.9276 -0.1736 0.3308
vn -0.9276 -0.0894 0.3627
vn -0.9276 -0.0000 0.3736
vn -0.3863 0.2207 -0.8956
vn -0.3863 0.4287 -0.8167
vn -0.3863 0.6117 -0.6904
vn -0.3863 0.7591 -0.5240
vn -0.3863 0.8624 -0.3271
vn -0.3863 0.9157 -0.1112
vn -0.3863 0.9157 0.1112
vn -0.9276 0.3709 0.0450
vn -0.3863 0.8624 0.3271
vn -0.3863 0.7591 0.5240
vn -0.3863 0.6117 0.6904
vn -0.3862 0.4287 0.8167
vn -0.3863 0.2207 0.8956
vn -0.3863 -0.0000 0.9224
vn -0.3863 -0.2207 0.8956
vn -0.3863 -0.4287 0.8167
vn -0.3863 -0.6117 0.6904
vn -0.3863 -0.7591 0.5240
vn -0.3863 -0.8624 0.3271
vn -0.3863 -0.9157 0.1112
vn -0.3863 -0.9157 -0.1112
vn -0.3863 -0.8624 -0.3271
vn -0.3863 -0.7591 -0.5240
vn -0.3863 -0.6117 -0.6904
vn -0.3863 -0.4287 -0.8167
vn -0.3863 -0.2207 -0.8956
vn -0.3862 -0.0000 -0.9224
vn -0.9858 0.1115 0.1259
vn -0.9858 -0.1115 0.1259
vt 0.543875 0.490380
vt 0.546967 0.505142
vt 0.537256 0.476707
vt 0.539691 0.505149
vt 0.529087 0.464443
vt 0.528951 0.505135
vt 0.519411 0.454280
vt 0.513841 0.505135
vt 0.508422 0.447031
vt 0.501552 0.505142
vt 0.496511 0.443299
vt 0.543875 0.519904
vt 0.548245 0.505142
vt 0.537248 0.533583
vt 0.529080 0.545848
vt 0.519404 0.556004
vt 0.508415 0.563239
vt 0.612611 0.569788
vt 0.671113 0.549219
vt 0.655375 0.590862
vt 0.630211 0.627829
vt 0.593530 0.597536
vt 0.568996 0.620587
vt 0.597015 0.658199
vt 0.557263 0.679947
vt 0.539733 0.637222
vt 0.513156 0.691191
vt 0.507151 0.645428
vt 0.539748 0.373048
vt 0.513177 0.319079
vt 0.557285 0.330338
vt 0.597030 0.352092
vt 0.568996 0.389697
vt 0.630226 0.382462
vt 0.593545 0.412749
vt 0.612617 0.440503
vt 0.655375 0.419436
vt 0.671113 0.461078
vt 0.624578 0.471900
vt 0.676475 0.505149
vt 0.628669 0.505142
vt 0.624578 0.538391
vt 0.635481 0.670838
vt 0.684483 0.652031
vt 0.656623 0.693157
vt 0.624999 0.711033
vt 0.607960 0.686409
vt 0.577919 0.698476
vt 0.590550 0.724890
vt 0.545978 0.706893
vt 0.554060 0.734517
vt 0.516290 0.739849
vt 0.512804 0.711580
vt 0.516089 0.318104
vt 0.565694 0.273817
vt 0.556504 0.325612
vt 0.610760 0.291154
vt 0.595568 0.340655
vt 0.653265 0.316814
vt 0.632403 0.362888
vt 0.692236 0.350185
vt 0.666185 0.391888
vt 0.696260 0.427105
vt 0.726732 0.390410
vt 0.722681 0.467587
vt 0.755994 0.436004
vt 0.659948 0.651994
vt 0.689017 0.647377
vt 0.808776 0.653810
vt 0.670892 0.708089
vt 0.636462 0.727525
vt 0.599057 0.742580
vt 0.559512 0.753034
vt 0.518649 0.758783
vt 0.521099 0.229671
vt 0.571858 0.239113
vt 0.620947 0.258007
vt 0.667268 0.285930
vt 0.709790 0.322279
vt 0.747525 0.366231
vt 0.779257 0.417191
vt 0.683803 0.721634
vt 0.716818 0.696279
vt 0.646827 0.742510
vt 0.564412 0.769845
vt 0.606739 0.758649
vt 0.477214 0.759753
vt 0.520734 0.775978
vt 0.476669 0.776972
vt 0.577451 0.207593
vt 0.522932 0.197451
vt 0.630181 0.227895
vt 0.679953 0.257897
vt 0.725689 0.296976
vt 0.766414 0.344443
vt 0.800756 0.400144
vt 0.694454 0.651995
vt 0.697945 0.653825
vt 0.711486 0.618492
vt 0.732265 0.563406
vt 0.633739 0.707680
vt 0.678111 0.667467
vt 0.580385 0.736510
vt 0.521090 0.258720
vt 0.580413 0.273780
vt 0.633761 0.302603
vt 0.678125 0.342831
vt 0.711486 0.391813
vt 0.739334 0.505149
vt 0.732272 0.446892
vt 0.603491 0.565397
vt 0.618430 0.536941
vt 0.606791 0.566909
vt 0.588496 0.593450
vt 0.565204 0.615703
vt 0.585712 0.591556
vt 0.537470 0.631887
vt 0.562926 0.613324
vt 0.505901 0.637027
vt 0.506401 0.639789
vt 0.535927 0.381248
vt 0.506415 0.370488
vt 0.537477 0.378390
vt 0.565211 0.394574
vt 0.588496 0.416834
vt 0.562933 0.396960
vt 0.603491 0.444895
vt 0.606791 0.443382
vt 0.618430 0.473350
vt 0.622515 0.505142
vt 0.615209 0.474175
vt 0.615209 0.536115
vt 0.433803 0.505128
vt 0.436902 0.490366
vt 0.443529 0.476693
vt 0.441079 0.505135
vt 0.451690 0.464429
vt 0.451825 0.505128
vt 0.461365 0.454266
vt 0.466928 0.505128
vt 0.472355 0.447024
vt 0.479217 0.505142
vt 0.484273 0.443299
vt 0.436902 0.519890
vt 0.432525 0.505128
vt 0.443529 0.533563
vt 0.451690 0.545827
vt 0.461365 0.555997
vt 0.472355 0.563232
vt 0.484273 0.566971
vt 0.356206 0.538370
vt 0.325402 0.590834
vt 0.309664 0.549192
vt 0.368166 0.569767
vt 0.350558 0.627808
vt 0.411775 0.620573
vt 0.383747 0.658178
vt 0.423492 0.679932
vt 0.441029 0.637215
vt 0.467592 0.691184
vt 0.473612 0.645428
vt 0.467613 0.319079
vt 0.441036 0.373041
vt 0.423506 0.330323
vt 0.383755 0.352071
vt 0.387247 0.412734
vt 0.350565 0.382441
vt 0.368166 0.440489
vt 0.325402 0.419415
vt 0.309664 0.461058
vt 0.356206 0.471879
vt 0.304302 0.505121
vt 0.473619 0.364835
vt 0.306740 0.679839
vt 0.355741 0.677625
vt 0.335577 0.700561
vt 0.367903 0.717498
vt 0.383701 0.692322
vt 0.402940 0.730153
vt 0.413962 0.703244
vt 0.439838 0.738160
vt 0.445900 0.710066
vt 0.477943 0.740904
vt 0.479118 0.712604
vt 0.475227 0.318246
vt 0.425418 0.274335
vt 0.471984 0.265314
vt 0.434845 0.326072
vt 0.380430 0.292007
vt 0.359116 0.363894
vt 0.338040 0.317974
vt 0.299227 0.351636
vt 0.295557 0.428578
vt 0.264916 0.392107
vt 0.269318 0.469255
vt 0.235860 0.437920
vt 0.282016 0.656121
vt 0.330610 0.659487
vt 0.519092 0.265149
vt 0.322009 0.715915
vt 0.290439 0.693271
vt 0.357312 0.734372
vt 0.395553 0.748205
vt 0.435799 0.757100
vt 0.419096 0.239676
vt 0.469807 0.229858
vt 0.370100 0.258932
vt 0.323906 0.287199
vt 0.281552 0.323857
vt 0.244011 0.368077
vt 0.212521 0.419267
vt 0.263590 0.666743
vt 0.309703 0.729833
vt 0.275625 0.705370
vt 0.347688 0.749683
vt 0.388811 0.764569
vt 0.432278 0.774210
vt 0.467824 0.197647
vt 0.413360 0.208198
vt 0.360722 0.228887
vt 0.311087 0.259256
vt 0.265529 0.298670
vt 0.225029 0.346440
vt 0.190941 0.402400
vt 0.246557 0.676369
vt 0.248512 0.563378
vt 0.269284 0.618457
vt 0.302644 0.667432
vt 0.347016 0.707660
vt 0.400364 0.736483
vt 0.459681 0.751550
vt 0.521068 0.751550
vt 0.459702 0.258720
vt 0.400378 0.273760
vt 0.347031 0.302590
vt 0.302659 0.342810
vt 0.269299 0.391785
vt 0.248512 0.446864
vt 0.241443 0.505121
vt 0.377286 0.565375
vt 0.362340 0.536920
vt 0.365568 0.536095
vt 0.395065 0.591542
vt 0.373993 0.566888
vt 0.417844 0.613310
vt 0.392281 0.593428
vt 0.444850 0.629022
vt 0.415566 0.615689
vt 0.474868 0.637020
vt 0.443300 0.631880
vt 0.474362 0.639782
vt 0.505909 0.373243
vt 0.474368 0.370481
vt 0.474876 0.373243
vt 0.443300 0.378383
vt 0.444850 0.381241
vt 0.415566 0.394567
vt 0.417851 0.396946
vt 0.392281 0.416820
vt 0.377286 0.444873
vt 0.395065 0.418714
vt 0.362340 0.473329
vt 0.373993 0.443368
vt 0.365574 0.474155
vt 0.358262 0.505121
vt 0.361319 0.505121
vt 1.512764 0.272171
vt 1.524228 0.274275
vt 1.512644 0.274529
vt 1.534846 0.271688
vt 1.524509 0.271914
vt 0.666999 0.876452
vt 0.714333 0.882401
vt 0.712010 0.892743
vt 0.613757 0.857179
vt 0.669938 0.866331
vt 0.555374 0.836047
vt 0.617427 0.847322
vt 0.495246 0.814280
vt 0.559846 0.826481
vt 0.442960 0.784171
vt 0.500537 0.805011
vt 0.436865 0.793144
vt 0.338612 0.757579
vt 0.383621 0.773874
vt 1.289255 0.281279
vt 1.279390 0.283634
vt 1.278916 0.281279
vt 1.301002 0.281279
vt 1.289587 0.283634
vt 1.313474 0.283634
vt 1.301173 0.283634
vt 1.313474 0.281279
vt 1.325774 0.283634
vt 1.337691 0.281279
vt 1.325945 0.281279
vt 1.348031 0.281279
vt 1.337360 0.283634
vt 1.528994 0.365756
vt 1.539103 0.368041
vt 1.529576 0.368167
vt 1.550080 0.365475
vt 1.538654 0.365628
vt 1.562611 0.365309
vt 1.550373 0.367891
vt 1.575516 0.365137
vt 1.562732 0.367726
vt 1.587817 0.367393
vt 1.575459 0.367557
vt 1.588046 0.364970
vt 1.599088 0.367243
vt 1.599473 0.364819
vt 1.608615 0.367116
vt 1.465744 0.273200
vt 1.476465 0.275321
vt 1.466269 0.275544
vt 1.476081 0.272974
vt 1.488048 0.275067
vt 1.500295 0.272444
vt 1.487826 0.272717
vt 1.500346 0.274798
vt 0.535920 0.629029
vt 0.496505 0.566971
vt 0.585712 0.418728
vt 0.619458 0.505142
vt 0.507165 0.364842
vt 0.387247 0.597521
vt 0.411781 0.389683
vt 0.352115 0.505121
vt 0.916855 0.617730
vt 0.982004 0.515136
vt 0.969825 0.630089
vt 0.880466 0.714296
vt 0.928637 0.738969
vt 0.862704 0.835048
vt 0.821917 0.799744
vt 0.775441 0.912888
vt 0.744397 0.868954
vt 0.652275 0.917692
vt 0.671696 0.967730
vt 0.550903 0.942878
vt 0.557514 0.996070
vt 0.550906 0.087394
vt 0.439764 0.034202
vt 0.557514 0.034202
vt 0.671700 0.062549
vt 0.652282 0.112583
vt 0.775445 0.117384
vt 0.744397 0.161321
vt 0.862707 0.195221
vt 0.821917 0.230528
vt 0.928637 0.291303
vt 0.880466 0.315976
vt 0.969825 0.400183
vt 0.916855 0.412539
vt 0.928321 0.515136
vt 1.464473 0.012008
vt 1.426221 0.043703
vt 1.426221 0.012008
vt 1.388030 0.043703
vt 1.388030 0.012008
vt 1.349949 0.043703
vt 1.349949 0.012008
vt 1.311998 0.043703
vt 1.311998 0.012008
vt 1.274172 0.043703
vt 1.274172 0.012008
vt 1.236432 0.012008
vt 1.236432 0.043703
vt 1.692514 0.012008
vt 1.730224 0.043703
vt 1.692514 0.043703
vt 1.654773 0.012008
vt 1.654773 0.043703
vt 1.616945 0.043703
vt 1.616945 0.012008
vt 1.578995 0.043703
vt 1.578995 0.012008
vt 1.540915 0.043703
vt 1.540915 0.012008
vt 1.502724 0.043703
vt 1.502724 0.012008
vt 1.464473 0.043703
vt 0.826095 0.686877
vt 0.804315 0.590574
vt 0.857416 0.603551
vt 0.734640 0.724373
vt 0.775682 0.760341
vt 0.709061 0.819682
vt 0.630079 0.861364
vt 0.677885 0.774990
vt 0.543338 0.882869
vt 0.610601 0.810529
vt 0.610608 0.219739
vt 0.543338 0.147406
vt 0.630079 0.168908
vt 0.709065 0.210590
vt 0.775686 0.269928
vt 0.677896 0.255282
vt 0.826102 0.343392
vt 0.734643 0.305899
vt 0.804322 0.439691
vt 0.857423 0.426718
vt 0.868006 0.515136
vt 0.813380 0.515136
vt 0.068974 0.515129
vt 0.027463 0.630082
vt 0.015291 0.515129
vt 0.116822 0.714289
vt 0.068654 0.738959
vt 0.175378 0.799733
vt 0.134577 0.835041
vt 0.252877 0.868944
vt 0.221833 0.912881
vt 0.325577 0.967723
vt 0.345003 0.917689
vt 0.439756 0.996070
vt 0.446371 0.087394
vt 0.325581 0.062542
vt 0.345009 0.112580
vt 0.221836 0.117381
vt 0.252877 0.161318
vt 0.134584 0.195217
vt 0.175378 0.230525
vt 0.068654 0.291296
vt 0.116822 0.315972
vt 0.027463 0.400176
vt 0.080437 0.412532
vt 1.958265 0.012008
vt 1.996517 0.043703
vt 1.958265 0.043703
vt 1.008933 0.012008
vt 1.047123 0.043703
vt 1.008933 0.043703
vt 1.047123 0.012008
vt 1.085204 0.043703
vt 1.085204 0.012008
vt 1.123155 0.043703
vt 1.123155 0.012008
vt 1.160981 0.043703
vt 1.198722 0.012008
vt 1.198722 0.043703
vt 1.730224 0.012008
vt 1.767965 0.043703
vt 1.767965 0.012008
vt 1.805791 0.043703
vt 1.805791 0.012008
vt 1.843741 0.043703
vt 1.843741 0.012008
vt 1.881824 0.043703
vt 1.881824 0.012008
vt 1.920014 0.043703
vt 1.920014 0.012008
vt 0.192970 0.590570
vt 0.171196 0.686863
vt 0.139872 0.603544
vt 0.219694 0.661681
vt 0.221606 0.760334
vt 0.319392 0.774983
vt 0.262641 0.724362
vt 0.386676 0.810529
vt 0.288216 0.819679
vt 0.453936 0.882866
vt 0.367194 0.861364
vt 0.536712 0.828863
vt 0.460561 0.828863
vt 0.460568 0.201406
vt 0.367198 0.168908
vt 0.453943 0.147406
vt 0.386676 0.219739
vt 0.288220 0.210590
vt 0.319392 0.255279
vt 0.221606 0.269924
vt 0.262645 0.305896
vt 0.171196 0.343388
vt 0.192970 0.439688
vt 0.219694 0.368581
vt 0.129281 0.515129
vt 0.139872 0.426710
vt 0.183908 0.515129
vt 0.446371 0.942878
vt 0.536712 0.201406
vt 0.080437 0.617723
vt 1.658739 0.858206
vt 1.640370 0.887418
vt 1.655306 0.890937
vt 1.630108 0.914913
vt 1.643692 0.921937
vt 1.625101 0.949294
vt 1.613600 0.939241
vt 1.600497 0.971458
vt 1.565770 0.972825
vt 1.571246 0.987071
vt 1.537188 0.979996
vt 1.539053 0.995140
vt 1.505854 0.721272
vt 1.537191 0.736417
vt 1.539054 0.721273
vt 1.571246 0.729343
vt 1.565771 0.743590
vt 1.600498 0.744957
vt 1.591746 0.757467
vt 1.625103 0.767119
vt 1.630111 0.801500
vt 1.643692 0.794476
vt 1.640370 0.828993
vt 1.655306 0.825476
vt 1.464473 0.075397
vt 1.426221 0.075397
vt 1.388030 0.075397
vt 1.349949 0.075397
vt 1.311998 0.075397
vt 1.274172 0.075397
vt 1.692514 0.075397
vt 1.654773 0.075397
vt 1.616945 0.075397
vt 1.578995 0.075397
vt 1.540915 0.075397
vt 1.502724 0.075397
vt 1.608641 0.879687
vt 1.614781 0.907106
vt 1.623613 0.883381
vt 1.588994 0.917782
vt 1.601104 0.899933
vt 1.581782 0.944919
vt 1.600565 0.928024
vt 1.572993 0.932195
vt 1.559512 0.956788
vt 1.554022 0.942314
vt 1.535056 0.962909
vt 1.554022 0.774099
vt 1.535056 0.753504
vt 1.533188 0.768879
vt 1.581785 0.771495
vt 1.559513 0.759627
vt 1.572993 0.784220
vt 1.600567 0.788391
vt 1.588997 0.798632
vt 1.614781 0.809307
vt 1.608641 0.836725
vt 1.601105 0.816479
vt 1.626597 0.858206
vt 1.623613 0.833031
vt 1.611194 0.858206
vt 1.643604 0.858206
vt 1.591745 0.958948
vt 1.613601 0.777172
vt 1.401308 0.858204
vt 1.389604 0.890934
vt 1.404539 0.887416
vt 1.414799 0.914911
vt 1.401217 0.921935
vt 1.431309 0.939239
vt 1.419806 0.949291
vt 1.453161 0.958946
vt 1.444407 0.971456
vt 1.473659 0.987070
vt 1.479135 0.972824
vt 1.507716 0.979995
vt 1.505851 0.995140
vt 1.507717 0.736417
vt 1.473659 0.729343
vt 1.479136 0.743589
vt 1.444409 0.744955
vt 1.453161 0.757466
vt 1.431309 0.777170
vt 1.419806 0.767119
vt 1.401217 0.794474
vt 1.414799 0.801499
vt 1.389604 0.825474
vt 1.404539 0.828992
vt 1.386171 0.858204
vt 1.958265 0.075397
vt 1.996517 0.075397
vt 1.008933 0.075397
vt 1.047123 0.075397
vt 1.085204 0.075397
vt 1.123155 0.075397
vt 1.160981 0.075397
vt 1.198722 0.075397
vt 1.730224 0.075397
vt 1.767965 0.075397
vt 1.805791 0.075397
vt 1.843741 0.075397
vt 1.881824 0.075397
vt 1.920014 0.075397
vt 1.430129 0.907103
vt 1.436269 0.879685
vt 1.421298 0.883379
vt 1.444343 0.928021
vt 1.443804 0.899932
vt 1.471913 0.932192
vt 1.463123 0.944918
vt 1.490885 0.942314
vt 1.485393 0.956786
vt 1.509851 0.962909
vt 1.533188 0.947535
vt 1.490886 0.774099
vt 1.509852 0.753504
vt 1.485393 0.759626
vt 1.471914 0.784219
vt 1.463125 0.771494
vt 1.444343 0.788389
vt 1.443804 0.816478
vt 1.430129 0.809306
vt 1.436269 0.836724
vt 1.421298 0.833029
vt 1.418314 0.858204
vt 1.433716 0.858204
vt 1.236432 0.075397
vt 1.500684 0.816036
vt 1.487972 0.826915
vt 1.485312 0.819515
vt 1.502189 0.820072
vt 1.492230 0.833550
vt 1.507351 0.826460
vt 1.497918 0.839022
vt 1.510741 0.828457
vt 1.504779 0.842946
vt 1.512426 0.844999
vt 1.514474 0.793961
vt 1.504779 0.780493
vt 1.512426 0.778439
vt 1.510741 0.794982
vt 1.497918 0.784417
vt 1.507351 0.796980
vt 1.492230 0.789890
vt 1.502189 0.803368
vt 1.487972 0.796525
vt 1.500684 0.807404
vt 1.485312 0.803925
vt 1.484422 0.811721
vt 1.500040 0.811720
vt 1.480744 0.820611
vt 1.483791 0.829042
vt 1.488678 0.836583
vt 1.495211 0.842794
vt 1.503087 0.847240
vt 1.511852 0.849564
vt 1.511851 0.773874
vt 1.503086 0.776199
vt 1.495211 0.780646
vt 1.488678 0.786858
vt 1.483791 0.794398
vt 1.480744 0.802830
vt 1.479745 0.811721
vt 1.479950 0.830970
vt 1.476563 0.821599
vt 1.485397 0.839347
vt 1.492693 0.846254
vt 1.501500 0.851206
vt 1.511309 0.853796
vt 1.520928 0.849564
vt 1.501499 0.772234
vt 1.511308 0.769642
vt 1.492692 0.777186
vt 1.485397 0.784093
vt 1.479950 0.792471
vt 1.476563 0.801842
vt 1.475446 0.811721
vt 1.532097 0.816035
vt 1.544809 0.826913
vt 1.530592 0.820071
vt 1.528330 0.823619
vt 1.540550 0.833549
vt 1.534862 0.839021
vt 1.525428 0.826459
vt 1.528000 0.842945
vt 1.522039 0.828456
vt 1.520352 0.844999
vt 1.518306 0.829477
vt 1.514474 0.829477
vt 1.518306 0.793961
vt 1.528000 0.780492
vt 1.522039 0.794981
vt 1.525428 0.796979
vt 1.534862 0.784416
vt 1.528330 0.799819
vt 1.540550 0.789889
vt 1.530592 0.803366
vt 1.544809 0.796524
vt 1.547468 0.803924
vt 1.532097 0.807402
vt 1.532740 0.811718
vt 1.548358 0.811718
vt 1.547468 0.819514
vt 1.520352 0.778439
vt 1.552036 0.820610
vt 1.548990 0.829041
vt 1.544102 0.836581
vt 1.537569 0.842793
vt 1.529693 0.847239
vt 1.529693 0.776198
vt 1.537569 0.780645
vt 1.544102 0.786856
vt 1.548990 0.794397
vt 1.552036 0.802828
vt 1.553035 0.811718
vt 1.520928 0.773874
vt 1.552831 0.830969
vt 1.556217 0.821598
vt 1.547383 0.839346
vt 1.531280 0.851204
vt 1.540087 0.846253
vt 1.521470 0.769642
vt 1.540087 0.777185
vt 1.531280 0.772233
vt 1.547383 0.784092
vt 1.552831 0.792469
vt 1.556217 0.801840
vt 1.557334 0.811718
vt 1.185965 0.291668
vt 1.173847 0.294168
vt 1.173494 0.291668
vt 1.163021 0.294168
vt 1.162518 0.291668
vt 1.248907 0.287438
vt 1.239234 0.284869
vt 1.249491 0.284869
vt 1.238792 0.287438
vt 1.227102 0.284869
vt 1.213705 0.287438
vt 1.213799 0.284869
vt 1.200097 0.284869
vt 1.200191 0.287438
vt 1.186793 0.284869
vt 1.175104 0.287438
vt 1.174661 0.284869
vt 1.164405 0.284869
vt 1.601987 0.374085
vt 1.591480 0.371724
vt 1.602455 0.371578
vt 1.591162 0.374229
vt 1.579010 0.371890
vt 1.565804 0.374566
vt 1.565771 0.372066
vt 1.552531 0.372242
vt 1.552746 0.374739
vt 1.540061 0.372407
vt 1.540447 0.374903
vt 1.529085 0.372553
vt 1.353461 0.290202
vt 1.343789 0.287633
vt 1.354045 0.287633
vt 1.343346 0.290202
vt 1.331657 0.287633
vt 1.318259 0.290202
vt 1.318353 0.287633
vt 1.304651 0.287633
vt 1.291624 0.290202
vt 1.291348 0.287633
vt 1.279658 0.290202
vt 1.279216 0.287633
vt 1.269543 0.290202
vt 1.268960 0.287633
vt 1.235893 0.291668
vt 1.224564 0.294168
vt 1.224917 0.291668
vt 1.212265 0.294168
vt 1.212446 0.291668
vt 1.199206 0.294168
vt 1.199206 0.291668
vt 1.186147 0.294168
vt 1.530929 0.811718
vt 1.528670 0.811718
vt 1.525625 0.811719
vt 1.522083 0.811719
vt 1.518320 0.811719
vt 1.514459 0.811719
vt 1.510696 0.811720
vt 1.507154 0.811720
vt 1.504449 0.799820
vt 1.504110 0.811720
vt 1.501850 0.811720
vt 1.504449 0.823620
vt 0.681411 0.630336
vt 0.395849 0.341387
vt 0.325468 0.393142
vt 0.308310 0.638441
vt 1.534424 0.274052
vt 1.347557 0.283634
vt 1.609133 0.364690
vt 0.777594 0.661688
vt 0.777598 0.368584
vt 1.996517 0.012008
vt 1.160981 0.012008
vt 1.455913 0.917781
vt 1.511719 0.947534
vt 1.511719 0.768879
vt 1.455915 0.798631
vt 1.521471 0.853796
vt 1.226826 0.287438
vt 1.187070 0.287438
vt 1.164988 0.287438
vt 1.578862 0.374392
vt 1.529621 0.375047
vt 1.331380 0.290202
vt 1.304745 0.290202
vt 1.235390 0.294168
s 1
g off
g Wheel_B_R_2.002
usemtl 2.002
f 4/1/1 2/2/2 1/3/3
f 1/3/3 6/4/2 5/5/4
f 5/5/4 8/6/2 7/7/5
f 7/7/5 10/8/2 9/9/6
f 9/9/6 12/10/2 11/11/7
f 14/12/8 2/2/2 3/13/9
f 13/14/10 6/4/2 2/2/2
f 15/15/11 8/6/2 6/4/2
f 16/16/12 10/8/2 8/6/2
f 17/17/13 12/10/2 10/8/2
f 22/18/14 20/19/15 19/20/16
f 22/18/14 23/21/17 24/22/18
f 26/23/19 23/21/17 25/24/20
f 26/23/19 27/25/21 28/26/22
f 28/26/22 29/27/23 30/28/24
f 34/29/25 32/30/26 31/31/27
f 34/29/25 35/32/28 36/33/29
f 36/33/29 37/34/30 38/35/31
f 40/36/32 37/34/30 39/37/33
f 40/36/32 41/38/34 42/39/35
f 42/39/35 43/40/36 44/41/37
f 21/42/38 43/40/36 20/19/15
f 48/43/39 46/44/40 45/45/41
f 48/43/39 49/46/42 50/47/43
f 52/48/44 49/46/42 51/49/45
f 54/50/46 51/49/45 53/51/47
f 54/50/46 55/52/48 56/53/49
f 59/54/50 57/55/51 60/56/52
f 60/56/52 61/57/53 62/58/54
f 62/58/54 63/59/55 64/60/56
f 64/60/56 65/61/57 66/62/58
f 68/63/59 65/61/57 67/64/60
f 70/65/61 67/64/60 69/66/62
f 47/67/63 69/68/62 46/44/40
f 45/45/41 72/69/64 71/70/65
f 45/45/41 73/71/66 49/46/42
f 49/46/42 74/72/67 51/49/45
f 51/49/45 75/73/68 53/51/47
f 55/52/48 75/73/68 76/74/69
f 57/55/51 78/75/70 77/76/71
f 61/57/53 77/76/71 79/77/72
f 63/59/55 79/77/72 80/78/73
f 63/59/55 81/79/74 65/61/57
f 65/61/57 82/80/75 67/64/60
f 69/66/62 82/80/75 83/81/76
f 69/68/62 72/69/64 46/44/40
f 85/82/77 72/69/64 84/83/78
f 85/82/77 73/71/66 71/70/65
f 86/84/79 74/72/67 73/71/66
f 88/85/80 74/72/67 87/86/81
f 88/85/80 76/74/69 75/73/68
f 90/87/82 89/88/83 91/89/84
f 93/90/85 78/75/70 92/91/86
f 94/92/87 77/76/71 93/90/85
f 95/93/88 79/77/72 94/92/87
f 96/94/89 80/78/73 95/93/88
f 97/95/90 81/79/74 96/94/89
f 98/96/91 82/80/75 97/95/90
f 98/97/91 72/69/64 83/98/76
f 48/99/39 20/19/15 47/100/63
f 48/99/39 23/21/17 19/20/16
f 52/101/44 23/21/17 50/102/43
f 52/101/44 27/25/21 25/24/20
f 54/103/46 29/27/23 27/25/21
f 59/104/50 31/31/27 32/30/26
f 60/105/52 35/32/28 31/31/27
f 62/106/54 37/34/30 35/32/28
f 64/107/56 39/37/33 37/34/30
f 66/108/58 41/38/34 39/37/33
f 70/109/61 41/38/34 68/110/59
f 70/109/61 20/19/15 43/40/36
f 101/111/92 99/112/93 102/113/94
f 104/114/95 101/111/92 102/113/94
f 106/115/96 103/116/97 104/114/95
f 108/117/98 105/118/99 106/115/96
f 109/119/100 108/117/98 110/120/101
f 113/121/102 111/122/103 114/123/104
f 116/124/105 113/121/102 114/123/104
f 118/125/106 115/126/107 116/124/105
f 119/127/108 118/125/106 120/128/109
f 122/129/110 119/127/108 120/128/109
f 124/130/111 121/131/112 122/129/110
f 100/132/113 124/130/111 99/112/93
f 128/133/2 126/134/114 125/135/115
f 130/136/2 125/135/115 129/137/116
f 132/138/2 129/137/116 131/139/117
f 134/140/2 131/139/117 133/141/118
f 136/142/2 133/141/118 135/143/119
f 128/133/2 137/144/120 127/145/121
f 130/136/2 138/146/122 128/133/2
f 132/138/2 139/147/123 130/136/2
f 134/140/2 140/148/124 132/138/2
f 136/142/2 141/149/125 134/140/2
f 12/10/2 142/150/126 136/142/2
f 12/10/2 135/143/119 11/11/7
f 145/151/127 143/152/128 146/153/129
f 144/154/130 147/155/131 143/152/128
f 147/155/131 150/156/132 149/157/133
f 150/156/132 151/158/134 149/157/133
f 152/159/135 153/160/136 151/158/134
f 154/161/137 29/27/23 153/160/136
f 158/162/138 156/163/139 155/164/140
f 156/163/139 159/165/141 155/164/140
f 159/165/141 162/166/142 161/167/143
f 161/167/143 164/168/144 163/169/145
f 164/168/144 165/170/146 163/169/145
f 166/171/147 167/172/148 165/170/146
f 167/172/148 145/151/127 146/153/129
f 32/30/26 157/173/149 158/162/138
f 172/174/150 170/175/151 169/176/152
f 170/175/151 173/177/153 169/176/152
f 174/178/154 175/179/155 173/177/153
f 176/180/156 177/181/157 175/179/155
f 178/182/158 179/183/159 177/181/157
f 180/184/160 55/52/48 179/183/159
f 183/185/161 181/186/162 184/187/163
f 182/188/164 185/189/165 181/186/162
f 185/189/165 188/190/166 187/191/167
f 188/190/166 189/192/168 187/191/167
f 189/192/168 192/193/169 191/194/170
f 191/194/170 194/195/171 193/196/172
f 193/197/172 171/198/173 172/174/150
f 58/199/174 183/185/161 184/187/163
f 172/174/150 195/200/175 196/201/176
f 195/200/175 173/177/153 197/202/177
f 197/202/177 175/179/155 198/203/178
f 198/203/178 177/181/157 199/204/179
f 199/204/179 179/183/159 90/87/82
f 55/52/48 90/87/82 179/183/159
f 184/187/163 200/205/180 201/206/181
f 200/205/180 185/189/165 202/207/182
f 185/189/165 203/208/183 202/207/182
f 203/208/183 189/192/168 204/209/184
f 189/192/168 205/210/185 204/209/184
f 191/194/170 206/211/186 205/210/185
f 193/197/172 196/201/176 206/212/186
f 58/199/174 201/206/181 78/75/70
f 196/201/176 208/213/187 207/214/188
f 195/200/175 209/215/189 208/213/187
f 209/215/189 198/203/178 210/216/190
f 210/216/190 199/204/179 211/217/191
f 211/217/191 90/87/82 91/89/84
f 92/91/86 201/206/181 212/218/192
f 212/218/192 200/205/180 213/219/193
f 213/219/193 202/207/182 214/220/194
f 202/207/182 215/221/195 214/220/194
f 203/208/183 216/222/196 215/221/195
f 204/209/184 217/223/197 216/222/196
f 205/210/185 218/224/198 217/223/197
f 218/225/198 196/201/176 207/214/188
f 171/226/173 143/152/128 170/227/151
f 170/227/151 147/155/131 174/228/154
f 174/228/154 149/157/133 176/229/156
f 176/229/156 151/158/134 178/230/158
f 178/230/158 153/160/136 180/231/160
f 153/160/136 56/232/49 180/231/160
f 32/30/26 183/233/161 59/104/50
f 158/162/138 182/234/164 183/233/161
f 182/234/164 159/165/141 186/235/199
f 186/235/199 161/167/143 188/236/166
f 161/167/143 190/237/200 188/236/166
f 163/169/145 192/238/169 190/237/200
f 165/170/146 194/239/171 192/238/169
f 167/172/148 171/226/173 194/239/171
f 221/240/201 219/241/202 222/242/203
f 224/243/204 220/244/205 221/240/201
f 226/245/206 223/246/207 224/243/204
f 228/247/208 225/248/209 226/245/206
f 230/249/210 227/250/211 228/247/208
f 109/119/100 229/251/212 230/249/210
f 112/252/213 231/253/214 111/122/103
f 232/254/215 233/255/216 231/253/214
f 234/256/217 235/257/218 233/255/216
f 236/258/219 237/259/220 235/257/218
f 240/260/221 237/259/220 238/261/222
f 240/260/221 241/262/223 239/263/224
f 242/264/225 243/265/226 241/262/223
f 244/266/227 219/241/202 243/265/226
f 245/267/228 85/268/77 84/269/78
f 247/270/229 85/268/77 246/271/230
f 248/272/231 86/273/79 247/274/229
f 249/275/232 87/276/81 248/272/231
f 250/277/233 88/278/80 249/275/232
f 251/279/234 89/280/83 250/277/233
f 251/279/234 211/281/191 91/282/84
f 252/283/235 210/216/190 211/281/191
f 254/284/236 210/216/190 253/285/237
f 255/286/238 209/287/189 254/288/236
f 256/289/239 208/290/187 255/286/238
f 256/289/239 218/291/198 207/292/188
f 257/293/240 217/294/197 218/291/198
f 259/295/241 217/294/197 258/296/242
f 260/297/243 216/298/196 259/295/241
f 260/299/243 214/300/194 215/301/195
f 262/302/244 214/300/194 261/303/245
f 263/304/246 213/305/193 262/302/244
f 264/306/247 212/307/192 263/304/246
f 264/306/247 93/308/85 92/309/86
f 265/310/248 94/311/87 93/308/85
f 266/312/249 95/313/88 94/311/87
f 267/314/250 96/315/89 95/316/88
f 268/317/251 97/318/90 96/315/89
f 270/319/252 97/318/90 269/320/253
f 245/267/228 98/321/91 270/319/252
f 13/14/10 100/132/113 101/111/92
f 13/14/10 103/116/97 15/15/11
f 15/15/11 105/118/99 16/16/12
f 16/16/12 107/322/254 17/17/13
f 17/17/13 109/119/100 18/323/255
f 11/11/7 113/121/102 9/9/6
f 9/9/6 115/126/107 7/7/5
f 7/7/5 117/324/256 5/5/4
f 5/5/4 119/127/108 1/3/3
f 1/3/3 121/131/112 4/1/1
f 4/1/1 123/325/257 3/13/9
f 3/13/9 100/132/113 14/12/8
f 137/144/120 221/240/201 222/242/203
f 138/146/122 224/243/204 221/240/201
f 139/147/123 226/245/206 224/243/204
f 140/148/124 228/247/208 226/245/206
f 141/149/125 230/249/210 228/247/208
f 142/150/126 109/119/100 230/249/210
f 11/11/7 232/254/215 112/252/213
f 135/143/119 234/256/217 232/254/215
f 133/141/118 236/258/219 234/256/217
f 129/137/116 236/258/219 131/139/117
f 129/137/116 240/260/221 238/261/222
f 125/135/115 242/264/225 240/260/221
f 126/134/114 244/266/227 242/264/225
f 137/144/120 244/266/227 127/145/121
f 102/113/94 21/42/38 22/18/14
f 104/114/95 22/18/14 24/22/18
f 106/115/96 24/22/18 26/23/19
f 108/117/98 26/23/19 28/26/22
f 110/120/101 28/26/22 30/28/24
f 114/123/104 33/326/258 34/29/25
f 116/124/105 34/29/25 36/33/29
f 116/124/105 38/35/31 118/125/106
f 118/125/106 40/36/32 120/128/109
f 120/128/109 42/39/35 122/129/110
f 124/130/111 42/39/35 44/41/37
f 99/112/93 44/41/37 21/42/38
f 220/244/205 145/151/127 219/241/202
f 223/246/207 144/154/130 220/244/205
f 223/246/207 150/156/132 148/327/259
f 227/250/211 150/156/132 225/248/209
f 229/251/212 152/159/135 227/250/211
f 229/251/212 30/28/24 154/161/137
f 233/255/216 157/173/149 231/253/214
f 235/257/218 156/163/139 233/255/216
f 235/257/218 162/166/142 160/328/260
f 237/259/220 164/168/144 162/166/142
f 239/263/224 166/171/147 164/168/144
f 243/265/226 166/171/147 241/262/223
f 219/241/202 168/329/261 243/265/226
f 231/253/214 33/326/258 111/122/103
f 274/330/262 272/331/263 271/332/264
f 276/333/265 271/332/264 275/334/266
f 276/333/265 277/335/267 278/336/268
f 278/336/268 279/337/269 280/338/270
f 282/339/271 279/337/269 281/340/272
f 284/341/273 281/340/272 283/342/274
f 288/343/275 286/344/276 285/345/277
f 288/343/275 289/346/278 290/347/279
f 290/347/279 291/348/280 292/349/281
f 292/349/281 293/350/282 294/351/283
f 294/351/283 295/352/284 296/353/285
f 296/353/285 297/354/286 298/355/287
f 298/355/287 272/331/263 273/356/288
f 272/357/263 299/358/289 271/359/264
f 271/359/264 301/360/290 275/361/266
f 275/361/266 302/362/291 277/363/267
f 277/363/267 303/364/292 279/365/269
f 279/365/269 304/366/293 281/367/272
f 283/368/274 304/366/293 305/369/294
f 285/370/277 307/371/295 306/372/296
f 289/373/278 306/372/296 308/374/297
f 289/373/278 309/375/298 291/376/280
f 291/376/280 310/377/299 293/378/282
f 293/378/282 311/379/300 295/380/284
f 295/380/284 312/381/301 297/382/286
f 297/382/286 300/383/302 272/357/263
f 316/384/303 314/385/2 313/386/304
f 317/387/2 316/384/303 318/388/305
f 320/389/306 317/387/2 318/388/305
f 322/390/307 319/391/2 320/389/306
f 324/392/308 321/393/2 322/390/307
f 327/394/2 325/395/309 328/396/310
f 330/397/311 327/394/2 328/396/310
f 332/398/312 329/399/2 330/397/311
f 334/400/313 331/401/2 332/398/312
f 335/402/2 334/400/313 336/403/314
f 338/404/315 335/402/2 336/403/314
f 313/386/304 337/405/2 338/404/315
f 338/404/315 274/330/262 313/386/304
f 313/386/304 276/333/265 316/384/303
f 316/384/303 278/336/268 318/388/305
f 320/389/306 278/336/268 280/338/270
f 322/390/307 280/338/270 282/339/271
f 322/390/307 284/341/273 324/392/308
f 325/395/309 290/347/279 328/396/310
f 330/397/311 290/347/279 292/349/281
f 332/398/312 292/349/281 294/351/283
f 334/400/313 294/351/283 296/353/285
f 336/403/314 296/353/285 298/355/287
f 338/404/315 298/355/287 273/356/288
f 341/406/316 339/407/317 342/408/318
f 339/407/317 344/409/319 343/410/320
f 343/410/320 346/411/321 345/412/322
f 345/412/322 348/413/323 347/414/324
f 348/413/323 349/415/325 347/414/324
f 350/416/326 351/417/327 349/415/325
f 287/418/328 353/419/329 286/344/276
f 354/420/330 355/421/331 353/419/329
f 356/422/332 357/423/333 355/421/331
f 358/424/334 359/425/335 357/423/333
f 360/426/336 361/427/337 359/425/335
f 362/428/338 342/408/318 361/427/337
f 342/429/318 363/430/339 364/431/340
f 339/432/317 365/433/341 363/434/339
f 343/435/320 366/436/342 365/433/341
f 345/437/322 367/438/343 366/436/342
f 347/439/324 368/440/344 367/438/343
f 368/440/344 351/441/327 369/442/345
f 286/443/276 370/444/346 307/371/295
f 353/445/329 371/446/347 370/444/346
f 355/447/331 372/448/348 371/446/347
f 357/449/333 373/450/349 372/448/348
f 359/451/335 374/452/350 373/450/349
f 361/453/337 364/431/340 374/452/350
f 378/454/2 376/455/351 375/456/352
f 377/457/2 379/458/353 376/455/351
f 382/459/2 379/458/353 380/460/2
f 384/461/2 381/462/354 382/459/2
f 384/461/2 385/463/355 383/464/356
f 323/465/2 385/463/355 386/466/2
f 390/467/2 388/468/357 387/469/358
f 389/470/2 391/471/359 388/468/357
f 392/472/2 393/473/360 391/471/359
f 394/474/2 395/475/361 393/473/360
f 398/476/2 395/475/361 396/477/2
f 398/476/2 399/478/362 397/479/363
f 400/480/2 375/456/352 399/478/362
f 352/481/364 324/392/308 284/341/273
f 305/369/294 351/441/327 283/368/274
f 326/482/2 387/469/358 325/395/309
f 399/478/362 340/483/365 341/406/316
f 340/483/365 376/455/351 344/409/319
f 376/455/351 346/411/321 344/409/319
f 379/458/353 348/413/323 346/411/321
f 381/462/354 350/416/326 348/413/323
f 350/416/326 385/463/355 352/481/364
f 288/343/275 387/469/358 287/418/328
f 287/418/328 388/468/357 354/420/330
f 388/468/357 356/422/332 354/420/330
f 356/422/332 393/473/360 358/424/334
f 358/424/334 395/475/361 360/426/336
f 360/426/336 397/479/363 362/428/338
f 362/428/338 399/478/362 341/406/316
f 284/341/273 351/417/327 352/481/364
f 404/484/366 402/485/367 401/486/368
f 401/486/368 406/487/369 405/488/370
f 406/487/369 407/489/371 405/488/370
f 408/490/372 409/491/373 407/489/371
f 409/491/373 412/492/374 411/493/375
f 411/493/375 414/494/376 413/495/377
f 418/496/378 416/497/379 415/498/380
f 416/497/379 419/499/381 415/498/380
f 420/500/382 421/501/383 419/499/381
f 422/502/384 423/503/385 421/501/383
f 423/503/385 426/504/386 425/505/387
f 425/505/387 428/506/388 427/507/389
f 428/506/388 404/484/366 427/507/389
f 404/508/366 299/358/289 300/383/302
f 401/509/368 301/360/290 299/358/289
f 405/510/370 302/362/291 301/360/290
f 407/511/371 303/364/292 302/362/291
f 409/512/373 304/366/293 303/364/292
f 411/513/375 305/369/294 304/366/293
f 307/371/295 415/514/380 306/372/296
f 415/514/380 308/374/297 306/372/296
f 419/515/381 309/375/298 308/374/297
f 421/516/383 310/377/299 309/375/298
f 423/517/385 311/379/300 310/377/299
f 425/518/387 312/381/301 311/379/300
f 427/519/389 300/383/302 312/381/301
f 432/520/390 430/521/391 429/522/392
f 434/523/390 430/521/391 431/524/390
f 434/523/390 435/525/393 433/526/394
f 436/527/390 437/528/395 435/525/393
f 438/529/390 439/530/396 437/528/395
f 443/531/390 441/532/397 444/533/390
f 443/531/390 445/534/398 442/535/399
f 446/536/390 447/537/400 445/534/398
f 448/538/390 449/539/401 447/537/400
f 452/540/390 449/539/401 450/541/390
f 452/540/390 453/542/402 451/543/403
f 454/544/390 429/522/392 453/542/402
f 403/545/404 429/522/392 402/485/367
f 402/485/367 430/521/391 406/487/369
f 430/521/391 408/490/372 406/487/369
f 408/490/372 435/525/393 410/546/405
f 410/546/405 437/528/395 412/492/374
f 437/528/395 414/494/376 412/492/374
f 416/497/379 442/535/399 420/500/382
f 420/500/382 445/534/398 422/502/384
f 422/502/384 447/537/400 424/547/406
f 424/547/406 449/539/401 426/504/386
f 426/504/386 451/543/403 428/506/388
f 428/506/388 453/542/402 403/545/404
f 457/548/407 455/549/408 458/550/409
f 460/551/410 455/549/408 459/552/411
f 462/553/412 459/552/411 461/554/413
f 464/555/414 461/554/413 463/556/415
f 464/555/414 465/557/416 466/558/417
f 468/559/418 465/557/416 467/560/419
f 417/561/420 469/562/421 470/563/422
f 470/563/422 471/564/423 472/565/424
f 474/566/425 471/564/423 473/567/426
f 474/566/425 475/568/427 476/569/428
f 476/569/428 477/570/429 478/571/430
f 457/548/407 477/570/429 456/572/431
f 456/573/431 363/430/339 455/574/408
f 455/575/408 365/433/341 459/576/411
f 459/576/411 366/436/342 461/577/413
f 461/577/413 367/438/343 463/578/415
f 463/578/415 368/440/344 465/579/416
f 465/579/416 369/442/345 467/580/419
f 418/581/378 370/444/346 469/582/421
f 469/582/421 371/446/347 471/583/423
f 471/583/423 372/448/348 473/584/426
f 473/584/426 373/450/349 475/585/427
f 475/585/427 374/452/350 477/586/429
f 477/586/429 364/431/340 456/573/431
f 482/587/432 480/588/390 479/589/433
f 484/590/434 481/591/390 482/587/432
f 485/592/390 484/590/434 486/593/435
f 487/594/390 486/593/435 488/595/436
f 490/596/437 487/594/390 488/595/436
f 440/597/390 490/596/437 439/530/396
f 493/598/390 491/599/438 494/600/439
f 495/601/390 494/600/439 496/602/440
f 498/603/441 495/601/390 496/602/440
f 499/604/390 498/603/441 500/605/442
f 501/606/390 500/605/442 502/607/443
f 504/608/444 501/606/390 502/607/443
f 479/589/433 503/609/390 504/608/444
f 468/559/418 439/530/396 490/596/437
f 467/580/419 305/369/294 413/610/377
f 491/599/438 444/533/390 441/532/397
f 479/589/433 457/548/407 458/550/409
f 482/587/432 458/550/409 460/551/410
f 482/587/432 462/553/412 484/590/434
f 484/590/434 464/555/414 486/593/435
f 486/593/435 466/558/417 488/595/436
f 488/595/436 468/559/418 490/596/437
f 491/599/438 416/497/379 417/561/420
f 494/600/439 417/561/420 470/563/422
f 496/602/440 470/563/422 472/565/424
f 496/602/440 474/566/425 498/603/441
f 498/603/441 476/569/428 500/605/442
f 502/607/443 476/569/428 478/571/430
f 504/608/444 478/571/430 457/548/407
f 467/560/419 414/494/376 468/559/418
f 507/611/445 505/612/446 508/613/447
f 506/614/448 509/615/449 505/612/446
f 509/615/449 512/616/450 511/617/451
f 511/617/451 514/618/452 513/619/453
f 514/618/452 515/620/454 513/619/453
f 519/621/455 517/622/456 520/623/457
f 518/624/458 521/625/459 517/622/456
f 522/626/460 523/627/461 521/625/459
f 523/627/461 526/628/462 525/629/463
f 525/629/463 528/630/464 527/631/465
f 528/630/464 529/632/466 527/631/465
f 530/633/467 508/613/447 529/632/466
f 532/634/468 505/612/446 531/635/469
f 505/612/446 533/636/470 531/635/469
f 509/615/449 534/637/471 533/636/470
f 511/617/451 535/638/472 534/637/471
f 535/638/472 515/620/454 536/639/473
f 538/640/474 517/622/456 537/641/475
f 537/641/475 521/625/459 539/642/476
f 521/625/459 540/643/477 539/642/476
f 540/643/477 525/629/463 541/644/478
f 525/629/463 542/645/479 541/644/478
f 542/645/479 529/632/466 543/646/480
f 529/632/466 532/634/468 543/646/480
f 532/634/468 545/647/481 544/648/482
f 545/647/481 533/636/470 546/649/483
f 533/636/470 547/650/484 546/649/483
f 534/637/471 548/651/485 547/650/484
f 535/638/472 549/652/486 548/651/485
f 551/653/487 549/652/486 536/639/473
f 538/640/474 553/654/488 552/655/489
f 537/641/475 554/656/490 553/654/488
f 539/642/476 555/657/491 554/656/490
f 540/643/477 556/658/492 555/657/491
f 541/644/478 557/659/493 556/658/492
f 557/659/493 543/646/480 558/660/494
f 543/646/480 544/648/482 558/660/494
f 561/661/495 559/662/496 562/663/497
f 564/664/498 559/662/496 563/665/499
f 564/664/498 565/666/500 566/667/501
f 566/667/501 567/668/502 568/669/503
f 568/669/503 569/670/504 570/671/505
f 516/672/506 569/670/504 515/620/454
f 573/673/507 571/674/508 574/675/509
f 576/676/510 571/674/508 575/677/511
f 578/678/512 575/677/511 577/679/513
f 580/680/514 577/679/513 579/681/515
f 580/680/514 581/682/516 582/683/517
f 584/684/518 581/682/516 583/685/519
f 584/684/518 560/686/520 561/661/495
f 519/621/455 572/687/521 573/673/507
f 559/662/496 586/688/522 585/689/523
f 559/662/496 587/690/524 563/665/499
f 565/666/500 587/690/524 588/691/525
f 567/668/502 588/691/525 589/692/526
f 569/670/504 589/692/526 551/653/487
f 515/620/454 551/653/487 536/639/473
f 572/687/521 590/693/527 571/674/508
f 575/677/511 590/693/527 592/694/528
f 575/677/511 593/695/529 577/679/513
f 579/681/515 593/695/529 594/696/530
f 581/682/516 594/696/530 595/697/531
f 581/682/516 596/698/532 583/685/519
f 583/685/519 586/688/522 560/686/520
f 520/623/457 591/699/533 572/687/521
f 598/700/534 586/688/522 597/701/535
f 599/702/536 585/689/523 598/700/534
f 599/702/536 588/691/525 587/690/524
f 601/703/537 588/691/525 600/704/538
f 601/703/537 551/653/487 589/692/526
f 552/655/489 591/699/533 538/640/474
f 602/705/539 590/693/527 591/699/533
f 604/706/540 590/693/527 603/707/541
f 605/708/542 592/694/528 604/706/540
f 606/709/543 593/695/529 605/708/542
f 607/710/544 594/696/530 606/709/543
f 608/711/545 595/697/531 607/710/544
f 608/711/545 586/688/522 596/698/532
f 609/712/546 545/713/481 610/714/547
f 610/714/547 546/715/483 611/716/548
f 546/717/483 612/718/549 611/719/548
f 547/720/484 613/721/550 612/718/549
f 613/721/550 549/722/486 614/723/551
f 549/722/486 615/724/552 614/723/551
f 550/725/553 616/726/554 615/724/552
f 616/726/554 600/727/538 617/728/555
f 600/727/538 618/729/556 617/728/555
f 599/730/536 619/731/557 618/732/556
f 598/733/534 620/734/558 619/731/557
f 620/734/558 608/735/545 621/736/559
f 608/735/545 622/737/560 621/736/559
f 607/738/544 623/739/561 622/737/560
f 606/740/543 624/741/562 623/739/561
f 605/742/542 625/743/563 624/744/562
f 604/745/540 626/746/564 625/743/563
f 626/746/564 602/747/539 627/748/565
f 602/747/539 628/749/566 627/748/565
f 628/749/566 553/750/488 629/751/567
f 629/751/567 554/752/490 630/753/568
f 630/753/568 555/754/491 631/755/569
f 631/756/569 556/757/492 632/758/570
f 632/758/570 557/759/493 633/760/571
f 633/760/571 558/761/494 634/762/572
f 634/762/572 544/763/482 609/712/546
f 582/683/517 635/764/390 580/680/514
f 580/680/514 636/765/390 578/678/512
f 578/678/512 637/766/390 576/676/510
f 576/676/510 638/767/390 574/675/509
f 574/675/509 639/768/390 573/673/507
f 639/768/390 519/621/455 573/673/507
f 518/624/458 640/769/390 641/770/390
f 522/626/460 641/770/390 642/771/390
f 524/772/573 642/771/390 643/773/390
f 526/628/462 643/773/390 644/774/390
f 528/630/464 644/774/390 530/633/467
f 561/661/495 635/764/390 584/684/518
f 562/663/497 636/765/390 635/764/390
f 564/664/498 637/766/390 636/765/390
f 566/667/501 638/767/390 637/766/390
f 568/669/503 639/768/390 638/767/390
f 516/672/506 639/768/390 570/671/505
f 640/769/390 514/618/452 641/770/390
f 641/770/390 512/616/450 642/771/390
f 642/771/390 510/775/574 643/773/390
f 643/773/390 506/614/448 644/774/390
f 644/774/390 507/611/445 530/633/467
f 4/1/1 3/13/9 2/2/2
f 1/3/3 2/2/2 6/4/2
f 5/5/4 6/4/2 8/6/2
f 7/7/5 8/6/2 10/8/2
f 9/9/6 10/8/2 12/10/2
f 14/12/8 13/14/10 2/2/2
f 13/14/10 15/15/11 6/4/2
f 15/15/11 16/16/12 8/6/2
f 16/16/12 17/17/13 10/8/2
f 17/17/13 18/323/255 12/10/2
f 22/18/14 21/42/38 20/19/15
f 22/18/14 19/20/16 23/21/17
f 26/23/19 24/22/18 23/21/17
f 26/23/19 25/24/20 27/25/21
f 28/26/22 27/25/21 29/27/23
f 34/29/25 33/326/258 32/30/26
f 34/29/25 31/31/27 35/32/28
f 36/33/29 35/32/28 37/34/30
f 40/36/32 38/35/31 37/34/30
f 40/36/32 39/37/33 41/38/34
f 42/39/35 41/38/34 43/40/36
f 21/42/38 44/41/37 43/40/36
f 48/43/39 47/67/63 46/44/40
f 48/43/39 45/45/41 49/46/42
f 52/48/44 50/47/43 49/46/42
f 54/50/46 52/48/44 51/49/45
f 54/50/46 53/51/47 55/52/48
f 59/54/50 58/199/174 57/55/51
f 60/56/52 57/55/51 61/57/53
f 62/58/54 61/57/53 63/59/55
f 64/60/56 63/59/55 65/61/57
f 68/63/59 66/62/58 65/61/57
f 70/65/61 68/63/59 67/64/60
f 47/67/63 70/776/61 69/68/62
f 45/45/41 46/44/40 72/69/64
f 45/45/41 71/70/65 73/71/66
f 49/46/42 73/71/66 74/72/67
f 51/49/45 74/72/67 75/73/68
f 55/52/48 53/51/47 75/73/68
f 57/55/51 58/199/174 78/75/70
f 61/57/53 57/55/51 77/76/71
f 63/59/55 61/57/53 79/77/72
f 63/59/55 80/78/73 81/79/74
f 65/61/57 81/79/74 82/80/75
f 69/66/62 67/64/60 82/80/75
f 69/68/62 83/98/76 72/69/64
f 85/82/77 71/70/65 72/69/64
f 85/82/77 86/84/79 73/71/66
f 86/84/79 87/86/81 74/72/67
f 88/85/80 75/73/68 74/72/67
f 88/85/80 89/88/83 76/74/69
f 90/87/82 76/74/69 89/88/83
f 93/90/85 77/76/71 78/75/70
f 94/92/87 79/77/72 77/76/71
f 95/93/88 80/78/73 79/77/72
f 96/94/89 81/79/74 80/78/73
f 97/95/90 82/80/75 81/79/74
f 98/96/91 83/81/76 82/80/75
f 98/97/91 84/83/78 72/69/64
f 48/99/39 19/20/16 20/19/15
f 48/99/39 50/102/43 23/21/17
f 52/101/44 25/24/20 23/21/17
f 52/101/44 54/103/46 27/25/21
f 54/103/46 56/232/49 29/27/23
f 59/104/50 60/105/52 31/31/27
f 60/105/52 62/106/54 35/32/28
f 62/106/54 64/107/56 37/34/30
f 64/107/56 66/108/58 39/37/33
f 66/108/58 68/110/59 41/38/34
f 70/109/61 43/40/36 41/38/34
f 70/109/61 47/100/63 20/19/15
f 101/111/92 100/132/113 99/112/93
f 104/114/95 103/116/97 101/111/92
f 106/115/96 105/118/99 103/116/97
f 108/117/98 107/322/254 105/118/99
f 109/119/100 107/322/254 108/117/98
f 113/121/102 112/252/213 111/122/103
f 116/124/105 115/126/107 113/121/102
f 118/125/106 117/324/256 115/126/107
f 119/127/108 117/324/256 118/125/106
f 122/129/110 121/131/112 119/127/108
f 124/130/111 123/325/257 121/131/112
f 100/132/113 123/325/257 124/130/111
f 128/133/2 127/145/121 126/134/114
f 130/136/2 128/133/2 125/135/115
f 132/138/2 130/136/2 129/137/116
f 134/140/2 132/138/2 131/139/117
f 136/142/2 134/140/2 133/141/118
f 128/133/2 138/146/122 137/144/120
f 130/136/2 139/147/123 138/146/122
f 132/138/2 140/148/124 139/147/123
f 134/140/2 141/149/125 140/148/124
f 136/142/2 142/150/126 141/149/125
f 12/10/2 18/323/255 142/150/126
f 12/10/2 136/142/2 135/143/119
f 145/151/127 144/154/130 143/152/128
f 144/154/130 148/327/259 147/155/131
f 147/155/131 148/327/259 150/156/132
f 150/156/132 152/159/135 151/158/134
f 152/159/135 154/161/137 153/160/136
f 154/161/137 30/28/24 29/27/23
f 158/162/138 157/173/149 156/163/139
f 156/163/139 160/328/260 159/165/141
f 159/165/141 160/328/260 162/166/142
f 161/167/143 162/166/142 164/168/144
f 164/168/144 166/171/147 165/170/146
f 166/171/147 168/329/261 167/172/148
f 167/172/148 168/329/261 145/151/127
f 32/30/26 33/326/258 157/173/149
f 172/174/150 171/198/173 170/175/151
f 170/175/151 174/178/154 173/177/153
f 174/178/154 176/180/156 175/179/155
f 176/180/156 178/182/158 177/181/157
f 178/182/158 180/184/160 179/183/159
f 180/184/160 56/53/49 55/52/48
f 183/185/161 182/188/164 181/186/162
f 182/188/164 186/777/199 185/189/165
f 185/189/165 186/777/199 188/190/166
f 188/190/166 190/778/200 189/192/168
f 189/192/168 190/778/200 192/193/169
f 191/194/170 192/193/169 194/195/171
f 193/197/172 194/779/171 171/198/173
f 58/199/174 59/54/50 183/185/161
f 172/174/150 169/176/152 195/200/175
f 195/200/175 169/176/152 173/177/153
f 197/202/177 173/177/153 175/179/155
f 198/203/178 175/179/155 177/181/157
f 199/204/179 177/181/157 179/183/159
f 55/52/48 76/74/69 90/87/82
f 184/187/163 181/186/162 200/205/180
f 200/205/180 181/186/162 185/189/165
f 185/189/165 187/191/167 203/208/183
f 203/208/183 187/191/167 189/192/168
f 189/192/168 191/194/170 205/210/185
f 191/194/170 193/196/172 206/211/186
f 193/197/172 172/174/150 196/201/176
f 58/199/174 184/187/163 201/206/181
f 196/201/176 195/200/175 208/213/187
f 195/200/175 197/202/177 209/215/189
f 209/215/189 197/202/177 198/203/178
f 210/216/190 198/203/178 199/204/179
f 211/217/191 199/204/179 90/87/82
f 92/91/86 78/75/70 201/206/181
f 212/218/192 201/206/181 200/205/180
f 213/219/193 200/205/180 202/207/182
f 202/207/182 203/208/183 215/221/195
f 203/208/183 204/209/184 216/222/196
f 204/209/184 205/210/185 217/223/197
f 205/210/185 206/211/186 218/224/198
f 218/225/198 206/212/186 196/201/176
f 171/226/173 146/153/129 143/152/128
f 170/227/151 143/152/128 147/155/131
f 174/228/154 147/155/131 149/157/133
f 176/229/156 149/157/133 151/158/134
f 178/230/158 151/158/134 153/160/136
f 153/160/136 29/27/23 56/232/49
f 32/30/26 158/162/138 183/233/161
f 158/162/138 155/164/140 182/234/164
f 182/234/164 155/164/140 159/165/141
f 186/235/199 159/165/141 161/167/143
f 161/167/143 163/169/145 190/237/200
f 163/169/145 165/170/146 192/238/169
f 165/170/146 167/172/148 194/239/171
f 167/172/148 146/153/129 171/226/173
f 221/240/201 220/244/205 219/241/202
f 224/243/204 223/246/207 220/244/205
f 226/245/206 225/248/209 223/246/207
f 228/247/208 227/250/211 225/248/209
f 230/249/210 229/251/212 227/250/211
f 109/119/100 110/120/101 229/251/212
f 112/252/213 232/254/215 231/253/214
f 232/254/215 234/256/217 233/255/216
f 234/256/217 236/258/219 235/257/218
f 236/258/219 238/261/222 237/259/220
f 240/260/221 239/263/224 237/259/220
f 240/260/221 242/264/225 241/262/223
f 242/264/225 244/266/227 243/265/226
f 244/266/227 222/242/203 219/241/202
f 245/267/228 246/271/230 85/268/77
f 247/270/229 86/780/79 85/268/77
f 248/272/231 87/276/81 86/273/79
f 249/275/232 88/278/80 87/276/81
f 250/277/233 89/280/83 88/278/80
f 251/279/234 91/282/84 89/280/83
f 251/279/234 252/283/235 211/281/191
f 252/283/235 253/285/237 210/216/190
f 254/284/236 209/215/189 210/216/190
f 255/286/238 208/290/187 209/287/189
f 256/289/239 207/292/188 208/290/187
f 256/289/239 257/293/240 218/291/198
f 257/293/240 258/296/242 217/294/197
f 259/295/241 216/298/196 217/294/197
f 260/297/243 215/781/195 216/298/196
f 260/299/243 261/303/245 214/300/194
f 262/302/244 213/305/193 214/300/194
f 263/304/246 212/307/192 213/305/193
f 264/306/247 92/309/86 212/307/192
f 264/306/247 265/310/248 93/308/85
f 265/310/248 266/312/249 94/311/87
f 266/312/249 267/782/250 95/313/88
f 267/314/250 268/317/251 96/315/89
f 268/317/251 269/320/253 97/318/90
f 270/319/252 98/321/91 97/318/90
f 245/267/228 84/269/78 98/321/91
f 13/14/10 14/12/8 100/132/113
f 13/14/10 101/111/92 103/116/97
f 15/15/11 103/116/97 105/118/99
f 16/16/12 105/118/99 107/322/254
f 17/17/13 107/322/254 109/119/100
f 11/11/7 112/252/213 113/121/102
f 9/9/6 113/121/102 115/126/107
f 7/7/5 115/126/107 117/324/256
f 5/5/4 117/324/256 119/127/108
f 1/3/3 119/127/108 121/131/112
f 4/1/1 121/131/112 123/325/257
f 3/13/9 123/325/257 100/132/113
f 137/144/120 138/146/122 221/240/201
f 138/146/122 139/147/123 224/243/204
f 139/147/123 140/148/124 226/245/206
f 140/148/124 141/149/125 228/247/208
f 141/149/125 142/150/126 230/249/210
f 142/150/126 18/323/255 109/119/100
f 11/11/7 135/143/119 232/254/215
f 135/143/119 133/141/118 234/256/217
f 133/141/118 131/139/117 236/258/219
f 129/137/116 238/261/222 236/258/219
f 129/137/116 125/135/115 240/260/221
f 125/135/115 126/134/114 242/264/225
f 126/134/114 127/145/121 244/266/227
f 137/144/120 222/242/203 244/266/227
f 102/113/94 99/112/93 21/42/38
f 104/114/95 102/113/94 22/18/14
f 106/115/96 104/114/95 24/22/18
f 108/117/98 106/115/96 26/23/19
f 110/120/101 108/117/98 28/26/22
f 114/123/104 111/122/103 33/326/258
f 116/124/105 114/123/104 34/29/25
f 116/124/105 36/33/29 38/35/31
f 118/125/106 38/35/31 40/36/32
f 120/128/109 40/36/32 42/39/35
f 124/130/111 122/129/110 42/39/35
f 99/112/93 124/130/111 44/41/37
f 220/244/205 144/154/130 145/151/127
f 223/246/207 148/327/259 144/154/130
f 223/246/207 225/248/209 150/156/132
f 227/250/211 152/159/135 150/156/132
f 229/251/212 154/161/137 152/159/135
f 229/251/212 110/120/101 30/28/24
f 233/255/216 156/163/139 157/173/149
f 235/257/218 160/328/260 156/163/139
f 235/257/218 237/259/220 162/166/142
f 237/259/220 239/263/224 164/168/144
f 239/263/224 241/262/223 166/171/147
f 243/265/226 168/329/261 166/171/147
f 219/241/202 145/151/127 168/329/261
f 231/253/214 157/173/149 33/326/258
f 274/330/262 273/356/288 272/331/263
f 276/333/265 274/330/262 271/332/264
f 276/333/265 275/334/266 277/335/267
f 278/336/268 277/335/267 279/337/269
f 282/339/271 280/338/270 279/337/269
f 284/341/273 282/339/271 281/340/272
f 288/343/275 287/418/328 286/344/276
f 288/343/275 285/345/277 289/346/278
f 290/347/279 289/346/278 291/348/280
f 292/349/281 291/348/280 293/350/282
f 294/351/283 293/350/282 295/352/284
f 296/353/285 295/352/284 297/354/286
f 298/355/287 297/354/286 272/331/263
f 272/357/263 300/383/302 299/358/289
f 271/359/264 299/358/289 301/360/290
f 275/361/266 301/360/290 302/362/291
f 277/363/267 302/362/291 303/364/292
f 279/365/269 303/364/292 304/366/293
f 283/368/274 281/367/272 304/366/293
f 285/370/277 286/443/276 307/371/295
f 289/373/278 285/370/277 306/372/296
f 289/373/278 308/374/297 309/375/298
f 291/376/280 309/375/298 310/377/299
f 293/378/282 310/377/299 311/379/300
f 295/380/284 311/379/300 312/381/301
f 297/382/286 312/381/301 300/383/302
f 316/384/303 315/783/2 314/385/2
f 317/387/2 315/783/2 316/384/303
f 320/389/306 319/391/2 317/387/2
f 322/390/307 321/393/2 319/391/2
f 324/392/308 323/465/2 321/393/2
f 327/394/2 326/482/2 325/395/309
f 330/397/311 329/399/2 327/394/2
f 332/398/312 331/401/2 329/399/2
f 334/400/313 333/784/2 331/401/2
f 335/402/2 333/784/2 334/400/313
f 338/404/315 337/405/2 335/402/2
f 313/386/304 314/385/2 337/405/2
f 338/404/315 273/356/288 274/330/262
f 313/386/304 274/330/262 276/333/265
f 316/384/303 276/333/265 278/336/268
f 320/389/306 318/388/305 278/336/268
f 322/390/307 320/389/306 280/338/270
f 322/390/307 282/339/271 284/341/273
f 325/395/309 288/343/275 290/347/279
f 330/397/311 328/396/310 290/347/279
f 332/398/312 330/397/311 292/349/281
f 334/400/313 332/398/312 294/351/283
f 336/403/314 334/400/313 296/353/285
f 338/404/315 336/403/314 298/355/287
f 341/406/316 340/483/365 339/407/317
f 339/407/317 340/483/365 344/409/319
f 343/410/320 344/409/319 346/411/321
f 345/412/322 346/411/321 348/413/323
f 348/413/323 350/416/326 349/415/325
f 350/416/326 352/481/364 351/417/327
f 287/418/328 354/420/330 353/419/329
f 354/420/330 356/422/332 355/421/331
f 356/422/332 358/424/334 357/423/333
f 358/424/334 360/426/336 359/425/335
f 360/426/336 362/428/338 361/427/337
f 362/428/338 341/406/316 342/408/318
f 342/429/318 339/785/317 363/430/339
f 339/432/317 343/435/320 365/433/341
f 343/435/320 345/437/322 366/436/342
f 345/437/322 347/439/324 367/438/343
f 347/439/324 349/786/325 368/440/344
f 368/440/344 349/786/325 351/441/327
f 286/443/276 353/445/329 370/444/346
f 353/445/329 355/447/331 371/446/347
f 355/447/331 357/449/333 372/448/348
f 357/449/333 359/451/335 373/450/349
f 359/451/335 361/453/337 374/452/350
f 361/453/337 342/429/318 364/431/340
f 378/454/2 377/457/2 376/455/351
f 377/457/2 380/460/2 379/458/353
f 382/459/2 381/462/354 379/458/353
f 384/461/2 383/464/356 381/462/354
f 384/461/2 386/466/2 385/463/355
f 323/465/2 324/392/308 385/463/355
f 390/467/2 389/470/2 388/468/357
f 389/470/2 392/472/2 391/471/359
f 392/472/2 394/474/2 393/473/360
f 394/474/2 396/477/2 395/475/361
f 398/476/2 397/479/363 395/475/361
f 398/476/2 400/480/2 399/478/362
f 400/480/2 378/454/2 375/456/352
f 352/481/364 385/463/355 324/392/308
f 305/369/294 369/442/345 351/441/327
f 326/482/2 390/467/2 387/469/358
f 399/478/362 375/456/352 340/483/365
f 340/483/365 375/456/352 376/455/351
f 376/455/351 379/458/353 346/411/321
f 379/458/353 381/462/354 348/413/323
f 381/462/354 383/464/356 350/416/326
f 350/416/326 383/464/356 385/463/355
f 288/343/275 325/395/309 387/469/358
f 287/418/328 387/469/358 388/468/357
f 388/468/357 391/471/359 356/422/332
f 356/422/332 391/471/359 393/473/360
f 358/424/334 393/473/360 395/475/361
f 360/426/336 395/475/361 397/479/363
f 362/428/338 397/479/363 399/478/362
f 284/341/273 283/342/274 351/417/327
f 404/484/366 403/545/404 402/485/367
f 401/486/368 402/485/367 406/487/369
f 406/487/369 408/490/372 407/489/371
f 408/490/372 410/546/405 409/491/373
f 409/491/373 410/546/405 412/492/374
f 411/493/375 412/492/374 414/494/376
f 418/496/378 417/561/420 416/497/379
f 416/497/379 420/500/382 419/499/381
f 420/500/382 422/502/384 421/501/383
f 422/502/384 424/547/406 423/503/385
f 423/503/385 424/547/406 426/504/386
f 425/505/387 426/504/386 428/506/388
f 428/506/388 403/545/404 404/484/366
f 404/508/366 401/509/368 299/358/289
f 401/509/368 405/510/370 301/360/290
f 405/510/370 407/511/371 302/362/291
f 407/511/371 409/512/373 303/364/292
f 409/512/373 411/513/375 304/366/293
f 411/513/375 413/610/377 305/369/294
f 307/371/295 418/581/378 415/514/380
f 415/514/380 419/515/381 308/374/297
f 419/515/381 421/516/383 309/375/298
f 421/516/383 423/517/385 310/377/299
f 423/517/385 425/518/387 311/379/300
f 425/518/387 427/519/389 312/381/301
f 427/519/389 404/508/366 300/383/302
f 432/520/390 431/524/390 430/521/391
f 434/523/390 433/526/394 430/521/391
f 434/523/390 436/527/390 435/525/393
f 436/527/390 438/529/390 437/528/395
f 438/529/390 440/597/390 439/530/396
f 443/531/390 442/535/399 441/532/397
f 443/531/390 446/536/390 445/534/398
f 446/536/390 448/538/390 447/537/400
f 448/538/390 450/541/390 449/539/401
f 452/540/390 451/543/403 449/539/401
f 452/540/390 454/544/390 453/542/402
f 454/544/390 432/520/390 429/522/392
f 403/545/404 453/542/402 429/522/392
f 402/485/367 429/522/392 430/521/391
f 430/521/391 433/526/394 408/490/372
f 408/490/372 433/526/394 435/525/393
f 410/546/405 435/525/393 437/528/395
f 437/528/395 439/530/396 414/494/376
f 416/497/379 441/532/397 442/535/399
f 420/500/382 442/535/399 445/534/398
f 422/502/384 445/534/398 447/537/400
f 424/547/406 447/537/400 449/539/401
f 426/504/386 449/539/401 451/543/403
f 428/506/388 451/543/403 453/542/402
f 457/548/407 456/572/431 455/549/408
f 460/551/410 458/550/409 455/549/408
f 462/553/412 460/551/410 459/552/411
f 464/555/414 462/553/412 461/554/413
f 464/555/414 463/556/415 465/557/416
f 468/559/418 466/558/417 465/557/416
f 417/561/420 418/496/378 469/562/421
f 470/563/422 469/562/421 471/564/423
f 474/566/425 472/565/424 471/564/423
f 474/566/425 473/567/426 475/568/427
f 476/569/428 475/568/427 477/570/429
f 457/548/407 478/571/430 477/570/429
f 456/573/431 364/431/340 363/430/339
f 455/575/408 363/434/339 365/433/341
f 459/576/411 365/433/341 366/436/342
f 461/577/413 366/436/342 367/438/343
f 463/578/415 367/438/343 368/440/344
f 465/579/416 368/440/344 369/442/345
f 418/581/378 307/371/295 370/444/346
f 469/582/421 370/444/346 371/446/347
f 471/583/423 371/446/347 372/448/348
f 473/584/426 372/448/348 373/450/349
f 475/585/427 373/450/349 374/452/350
f 477/586/429 374/452/350 364/431/340
f 482/587/432 481/591/390 480/588/390
f 484/590/434 483/787/390 481/591/390
f 485/592/390 483/787/390 484/590/434
f 487/594/390 485/592/390 486/593/435
f 490/596/437 489/788/390 487/594/390
f 440/597/390 489/788/390 490/596/437
f 493/598/390 492/789/390 491/599/438
f 495/601/390 493/598/390 494/600/439
f 498/603/441 497/790/390 495/601/390
f 499/604/390 497/790/390 498/603/441
f 501/606/390 499/604/390 500/605/442
f 504/608/444 503/609/390 501/606/390
f 479/589/433 480/588/390 503/609/390
f 468/559/418 414/494/376 439/530/396
f 467/580/419 369/442/345 305/369/294
f 491/599/438 492/789/390 444/533/390
f 479/589/433 504/608/444 457/548/407
f 482/587/432 479/589/433 458/550/409
f 482/587/432 460/551/410 462/553/412
f 484/590/434 462/553/412 464/555/414
f 486/593/435 464/555/414 466/558/417
f 488/595/436 466/558/417 468/559/418
f 491/599/438 441/532/397 416/497/379
f 494/600/439 491/599/438 417/561/420
f 496/602/440 494/600/439 470/563/422
f 496/602/440 472/565/424 474/566/425
f 498/603/441 474/566/425 476/569/428
f 502/607/443 500/605/442 476/569/428
f 504/608/444 502/607/443 478/571/430
f 467/560/419 413/495/377 414/494/376
f 507/611/445 506/614/448 505/612/446
f 506/614/448 510/775/574 509/615/449
f 509/615/449 510/775/574 512/616/450
f 511/617/451 512/616/450 514/618/452
f 514/618/452 516/672/506 515/620/454
f 519/621/455 518/624/458 517/622/456
f 518/624/458 522/626/460 521/625/459
f 522/626/460 524/772/573 523/627/461
f 523/627/461 524/772/573 526/628/462
f 525/629/463 526/628/462 528/630/464
f 528/630/464 530/633/467 529/632/466
f 530/633/467 507/611/445 508/613/447
f 532/634/468 508/613/447 505/612/446
f 505/612/446 509/615/449 533/636/470
f 509/615/449 511/617/451 534/637/471
f 511/617/451 513/619/453 535/638/472
f 535/638/472 513/619/453 515/620/454
f 538/640/474 520/623/457 517/622/456
f 537/641/475 517/622/456 521/625/459
f 521/625/459 523/627/461 540/643/477
f 540/643/477 523/627/461 525/629/463
f 525/629/463 527/631/465 542/645/479
f 542/645/479 527/631/465 529/632/466
f 529/632/466 508/613/447 532/634/468
f 532/634/468 531/635/469 545/647/481
f 545/647/481 531/635/469 533/636/470
f 533/636/470 534/637/471 547/650/484
f 534/637/471 535/638/472 548/651/485
f 535/638/472 536/639/473 549/652/486
f 551/653/487 550/791/553 549/652/486
f 538/640/474 537/641/475 553/654/488
f 537/641/475 539/642/476 554/656/490
f 539/642/476 540/643/477 555/657/491
f 540/643/477 541/644/478 556/658/492
f 541/644/478 542/645/479 557/659/493
f 557/659/493 542/645/479 543/646/480
f 543/646/480 532/634/468 544/648/482
f 561/661/495 560/686/520 559/662/496
f 564/664/498 562/663/497 559/662/496
f 564/664/498 563/665/499 565/666/500
f 566/667/501 565/666/500 567/668/502
f 568/669/503 567/668/502 569/670/504
f 516/672/506 570/671/505 569/670/504
f 573/673/507 572/687/521 571/674/508
f 576/676/510 574/675/509 571/674/508
f 578/678/512 576/676/510 575/677/511
f 580/680/514 578/678/512 577/679/513
f 580/680/514 579/681/515 581/682/516
f 584/684/518 582/683/517 581/682/516
f 584/684/518 583/685/519 560/686/520
f 519/621/455 520/623/457 572/687/521
f 559/662/496 560/686/520 586/688/522
f 559/662/496 585/689/523 587/690/524
f 565/666/500 563/665/499 587/690/524
f 567/668/502 565/666/500 588/691/525
f 569/670/504 567/668/502 589/692/526
f 515/620/454 569/670/504 551/653/487
f 572/687/521 591/699/533 590/693/527
f 575/677/511 571/674/508 590/693/527
f 575/677/511 592/694/528 593/695/529
f 579/681/515 577/679/513 593/695/529
f 581/682/516 579/681/515 594/696/530
f 581/682/516 595/697/531 596/698/532
f 583/685/519 596/698/532 586/688/522
f 520/623/457 538/640/474 591/699/533
f 598/700/534 585/689/523 586/688/522
f 599/702/536 587/690/524 585/689/523
f 599/702/536 600/704/538 588/691/525
f 601/703/537 589/692/526 588/691/525
f 601/703/537 550/791/553 551/653/487
f 552/655/489 602/705/539 591/699/533
f 602/705/539 603/707/541 590/693/527
f 604/706/540 592/694/528 590/693/527
f 605/708/542 593/695/529 592/694/528
f 606/709/543 594/696/530 593/695/529
f 607/710/544 595/697/531 594/696/530
f 608/711/545 596/698/532 595/697/531
f 608/711/545 597/701/535 586/688/522
f 609/712/546 544/763/482 545/713/481
f 610/714/547 545/713/481 546/715/483
f 546/717/483 547/720/484 612/718/549
f 547/720/484 548/792/485 613/721/550
f 613/721/550 548/792/485 549/722/486
f 549/722/486 550/725/553 615/724/552
f 550/725/553 601/793/537 616/726/554
f 616/726/554 601/793/537 600/727/538
f 600/727/538 599/794/536 618/729/556
f 599/730/536 598/733/534 619/731/557
f 598/733/534 597/795/535 620/734/558
f 620/734/558 597/795/535 608/735/545
f 608/735/545 607/738/544 622/737/560
f 607/738/544 606/740/543 623/739/561
f 606/740/543 605/796/542 624/741/562
f 605/742/542 604/745/540 625/743/563
f 604/745/540 603/797/541 626/746/564
f 626/746/564 603/797/541 602/747/539
f 602/747/539 552/798/489 628/749/566
f 628/749/566 552/798/489 553/750/488
f 629/751/567 553/750/488 554/752/490
f 630/753/568 554/752/490 555/754/491
f 631/756/569 555/799/491 556/757/492
f 632/758/570 556/757/492 557/759/493
f 633/760/571 557/759/493 558/761/494
f 634/762/572 558/761/494 544/763/482
f 582/683/517 584/684/518 635/764/390
f 580/680/514 635/764/390 636/765/390
f 578/678/512 636/765/390 637/766/390
f 576/676/510 637/766/390 638/767/390
f 574/675/509 638/767/390 639/768/390
f 639/768/390 640/769/390 519/621/455
f 518/624/458 519/621/455 640/769/390
f 522/626/460 518/624/458 641/770/390
f 524/772/573 522/626/460 642/771/390
f 526/628/462 524/772/573 643/773/390
f 528/630/464 526/628/462 644/774/390
f 561/661/495 562/663/497 635/764/390
f 562/663/497 564/664/498 636/765/390
f 564/664/498 566/667/501 637/766/390
f 566/667/501 568/669/503 638/767/390
f 568/669/503 570/671/505 639/768/390
f 516/672/506 640/769/390 639/768/390
f 640/769/390 516/672/506 514/618/452
f 641/770/390 514/618/452 512/616/450
f 642/771/390 512/616/450 510/775/574
f 643/773/390 510/775/574 506/614/448
f 644/774/390 506/614/448 507/611/445
