# Blender 5.0.1
# www.blender.org
mtllib rueda_izquierda.mtl
g Wheel_B_L_Malla
v -0.423677 0.063990 -0.169435
v -0.423677 0.108932 -0.186479
v -0.423677 0.156647 -0.192273
v -0.423677 0.156647 -0.176836
v -0.423677 0.024434 -0.142132
v -0.423677 0.156679 -0.148174
v -0.423677 -0.007440 -0.106153
v -0.423677 0.156647 -0.112288
v -0.423677 -0.029777 -0.063594
v -0.423677 0.156647 -0.064956
v -0.423677 -0.041280 -0.016926
v -0.423677 0.156679 -0.026878
v -0.423677 0.204362 -0.186479
v -0.423677 0.249304 -0.169435
v -0.423677 0.288861 -0.142131
v -0.423677 0.320734 -0.106153
v -0.423677 0.343071 -0.063594
v -0.423677 0.354574 -0.016926
v -0.284065 0.408098 -0.471994
v -0.361824 0.359978 -0.380308
v -0.361824 0.261355 -0.417710
v -0.284065 0.286135 -0.518248
v -0.284065 0.515448 -0.397895
v -0.361824 0.446784 -0.320389
v -0.284065 0.601945 -0.300260
v -0.361824 0.516728 -0.241439
v -0.284065 0.662563 -0.184762
v -0.361824 0.565746 -0.148043
v -0.284065 0.693780 -0.058112
v -0.361824 0.590988 -0.045631
v -0.284065 -0.349271 -0.184762
v -0.361824 -0.252453 -0.148044
v -0.361824 -0.277696 -0.045632
v -0.284065 -0.380487 -0.058113
v -0.284065 -0.288652 -0.300260
v -0.361824 -0.203435 -0.241440
v -0.284065 -0.202155 -0.397896
v -0.361825 -0.133491 -0.320390
v -0.284065 -0.094805 -0.471994
v -0.361824 -0.046685 -0.380308
v -0.284065 0.027159 -0.518248
v -0.361824 0.051939 -0.417710
v -0.284065 0.156646 -0.533970
v -0.361824 0.156646 -0.430424
v -0.248302 0.465022 -0.580454
v -0.152366 0.436778 -0.526639
v -0.152366 0.300904 -0.578170
v -0.248302 0.315449 -0.637179
v -0.248302 0.596674 -0.489581
v -0.152366 0.556373 -0.444090
v -0.248302 0.702753 -0.369842
v -0.152366 0.652735 -0.335318
v -0.248302 0.777094 -0.228197
v -0.152366 0.720268 -0.206646
v -0.248302 0.815378 -0.072877
v -0.152366 0.755045 -0.065551
v -0.248302 -0.463801 -0.228198
v -0.152366 -0.406975 -0.206647
v -0.152366 -0.441752 -0.065552
v -0.248302 -0.502084 -0.072877
v -0.248302 -0.389460 -0.369843
v -0.152366 -0.339442 -0.335319
v -0.248302 -0.283381 -0.489582
v -0.152366 -0.243079 -0.444091
v -0.248302 -0.151729 -0.580454
v -0.152366 -0.123485 -0.526640
v -0.248302 -0.002155 -0.637179
v -0.152366 0.012389 -0.578170
v -0.248302 0.156646 -0.656462
v -0.152366 0.156646 -0.595686
v -0.293115 0.500042 -0.647178
v -0.293115 0.333483 -0.710346
v -0.293115 0.646645 -0.545987
v -0.293115 0.764770 -0.412650
v -0.293115 0.847554 -0.254919
v -0.293115 0.890184 -0.081960
v -0.293115 -0.534261 -0.254920
v -0.293115 -0.576892 -0.081961
v -0.293115 -0.451477 -0.412651
v -0.293115 -0.333351 -0.545987
v -0.293115 -0.186749 -0.647179
v -0.293115 -0.020189 -0.710346
v -0.293115 0.156646 -0.731818
v -0.332540 0.350191 -0.778134
v -0.332540 0.532488 -0.708998
v -0.332540 0.692942 -0.598245
v -0.332540 0.822228 -0.452311
v -0.332540 0.912834 -0.279676
v -0.332540 0.959492 -0.090375
v -0.332540 0.959492 0.104591
v -0.293115 0.890184 0.096175
v -0.332540 -0.646199 -0.090376
v -0.332539 -0.599541 -0.279677
v -0.332540 -0.508935 -0.452311
v -0.332540 -0.379648 -0.598245
v -0.332540 -0.219195 -0.708998
v -0.332540 -0.036898 -0.778134
v -0.332540 0.156646 -0.801635
v -0.364033 0.255602 -0.394371
v -0.364033 0.348807 -0.359024
v -0.374753 0.348436 -0.358318
v -0.374753 0.255411 -0.393596
v -0.364033 0.430844 -0.302398
v -0.374753 0.430314 -0.301799
v -0.364033 0.496945 -0.227784
v -0.374753 0.496289 -0.227330
v -0.364033 0.543270 -0.139519
v -0.374753 0.542524 -0.139237
v -0.364033 0.567126 -0.042734
v -0.374753 0.566334 -0.042638
v -0.364033 -0.253834 -0.042734
v -0.364033 -0.229978 -0.139519
v -0.374753 -0.229231 -0.139237
v -0.374753 -0.253041 -0.042638
v -0.364033 -0.183653 -0.227784
v -0.374753 -0.182996 -0.227331
v -0.364033 -0.117551 -0.302398
v -0.374753 -0.117022 -0.301800
v -0.364033 -0.035514 -0.359025
v -0.374753 -0.035143 -0.358318
v -0.364033 0.057691 -0.394371
v -0.374753 0.057882 -0.393596
v -0.364033 0.156646 -0.406387
v -0.374753 0.156646 -0.405588
v -0.423677 0.063990 0.183650
v -0.423677 0.156647 0.191051
v -0.423677 0.156647 0.206488
v -0.423677 0.108932 0.200695
v -0.423677 0.024434 0.156347
v -0.423677 0.156679 0.162389
v -0.423677 -0.007440 0.120368
v -0.423677 0.156647 0.126502
v -0.423677 -0.029777 0.077809
v -0.423677 0.156647 0.079171
v -0.423677 -0.041280 0.031140
v -0.423677 0.156679 0.041094
v -0.423677 0.249304 0.183650
v -0.423677 0.204362 0.200695
v -0.423677 0.288861 0.156346
v -0.423677 0.320734 0.120368
v -0.423677 0.343071 0.077809
v -0.423677 0.354574 0.031140
v -0.284065 0.408098 0.486209
v -0.284065 0.286135 0.532463
v -0.361824 0.261355 0.431926
v -0.361824 0.359978 0.394523
v -0.284065 0.515448 0.412111
v -0.361824 0.446784 0.334605
v -0.284065 0.601945 0.314476
v -0.361824 0.516728 0.255654
v -0.284065 0.662563 0.198977
v -0.361824 0.565746 0.162259
v -0.284065 0.693780 0.072327
v -0.361824 0.590988 0.059846
v -0.284065 -0.349271 0.198977
v -0.284065 -0.380487 0.072329
v -0.361824 -0.277695 0.059846
v -0.361824 -0.252453 0.162260
v -0.284065 -0.288652 0.314476
v -0.361824 -0.203435 0.255655
v -0.284065 -0.202155 0.412112
v -0.361825 -0.133491 0.334605
v -0.284065 -0.094805 0.486210
v -0.361824 -0.046685 0.394524
v -0.284065 0.027159 0.532463
v -0.361824 0.051939 0.431926
v -0.284065 0.156646 0.548185
v -0.361824 0.156646 0.444639
v -0.248303 0.465022 0.594669
v -0.248303 0.315449 0.651395
v -0.152366 0.300904 0.592385
v -0.152366 0.436778 0.540855
v -0.248303 0.596674 0.503797
v -0.152366 0.556373 0.458305
v -0.248303 0.702753 0.384058
v -0.152366 0.652735 0.349533
v -0.248303 0.777095 0.242413
v -0.152366 0.720268 0.220861
v -0.248303 0.815378 0.087093
v -0.152366 0.755045 0.079766
v -0.248303 -0.463801 0.242414
v -0.248303 -0.502084 0.087093
v -0.152366 -0.441751 0.079767
v -0.152366 -0.406975 0.220862
v -0.248303 -0.389460 0.384059
v -0.152366 -0.339442 0.349534
v -0.248303 -0.283381 0.503797
v -0.152366 -0.243079 0.458306
v -0.248303 -0.151729 0.594669
v -0.152366 -0.123485 0.540855
v -0.248303 -0.002155 0.651395
v -0.152366 0.012389 0.592385
v -0.248303 0.156646 0.670677
v -0.152366 0.156646 0.609902
v -0.293115 0.500042 0.661394
v -0.293115 0.333483 0.724561
v -0.293115 0.646645 0.560202
v -0.293115 0.764770 0.426865
v -0.293115 0.847554 0.269134
v -0.293115 -0.534261 0.269135
v -0.293115 -0.576892 0.096176
v -0.293115 -0.451477 0.426867
v -0.293115 -0.333351 0.560202
v -0.293115 -0.186749 0.661395
v -0.293115 -0.020189 0.724562
v -0.293115 0.156646 0.746033
v -0.332540 0.350191 0.792350
v -0.332540 0.532488 0.723214
v -0.332540 0.692942 0.612461
v -0.332540 0.822228 0.466526
v -0.332540 0.912834 0.293891
v -0.332540 -0.646199 0.104592
v -0.332539 -0.599541 0.293893
v -0.332540 -0.508935 0.466526
v -0.332540 -0.379648 0.612461
v -0.332540 -0.219194 0.723214
v -0.332540 -0.036897 0.792350
v -0.332540 0.156646 0.815850
v -0.364033 0.255602 0.408586
v -0.374753 0.255411 0.407812
v -0.374753 0.348436 0.372533
v -0.364033 0.348807 0.373239
v -0.374753 0.430314 0.316015
v -0.364033 0.430844 0.316613
v -0.374753 0.496289 0.241546
v -0.364033 0.496945 0.241999
v -0.374753 0.542524 0.153452
v -0.364033 0.543270 0.153735
v -0.374753 0.566334 0.056853
v -0.364033 0.567126 0.056949
v -0.374753 -0.253041 0.056853
v -0.364033 -0.253834 0.056949
v -0.374753 -0.229231 0.153452
v -0.364033 -0.229978 0.153735
v -0.374753 -0.182996 0.241547
v -0.364033 -0.183653 0.242000
v -0.374753 -0.117022 0.316016
v -0.364033 -0.117551 0.316613
v -0.374753 -0.035143 0.372533
v -0.364033 -0.035514 0.373240
v -0.374753 0.057882 0.407812
v -0.364033 0.057691 0.408586
v -0.374753 0.156646 0.419803
v -0.364033 0.156646 0.420603
v -0.305698 0.352881 -0.789048
v -0.305698 0.537711 -0.718952
v -0.305698 0.700396 -0.606659
v -0.305698 0.831479 -0.458697
v -0.305698 0.923345 -0.283662
v -0.305698 0.970651 -0.091730
v -0.305698 0.970651 0.105946
v -0.305698 0.923345 0.297878
v -0.305698 0.831479 0.472912
v -0.305698 0.700396 0.620874
v -0.305698 0.537712 0.733168
v -0.305698 0.352881 0.803264
v -0.305698 0.156646 0.827091
v -0.305698 -0.039587 0.803265
v -0.305698 -0.224418 0.733168
v -0.305698 -0.387102 0.620875
v -0.305698 -0.518186 0.472913
v -0.305698 -0.610051 0.297879
v -0.305698 -0.657358 0.105947
v -0.305698 -0.657358 -0.091731
v -0.305698 -0.610051 -0.283664
v -0.305698 -0.518186 -0.458698
v -0.305698 -0.387102 -0.606660
v -0.305698 -0.224418 -0.718952
v -0.305698 -0.039588 -0.789049
v -0.305698 0.156646 -0.812876
v -0.224131 0.451335 -1.188496
v -0.277959 0.423094 -1.073916
v -0.277959 0.156646 -1.106269
v -0.224131 0.156646 -1.224277
v -0.224131 0.728899 -1.083231
v -0.277959 0.674057 -0.978738
v -0.224131 0.973205 -0.914598
v -0.277959 0.894951 -0.826267
v -0.224131 1.170056 -0.692399
v -0.277959 1.072936 -0.625362
v -0.224131 1.308011 -0.429547
v -0.277959 1.197670 -0.387702
v -0.224131 1.379053 -0.141320
v -0.277959 1.261904 -0.127096
v -0.224131 -1.065761 -0.141322
v -0.277959 -0.948612 -0.127097
v -0.277959 -0.948612 0.141311
v -0.224131 -1.065761 0.155535
v -0.224131 -0.994718 -0.429549
v -0.277959 -0.884378 -0.387703
v -0.224131 -0.856764 -0.692400
v -0.277959 -0.759644 -0.625364
v -0.224131 -0.659912 -0.914600
v -0.277958 -0.581658 -0.826267
v -0.224131 -0.415606 -1.083231
v -0.277958 -0.360764 -0.978739
v -0.224131 -0.138042 -1.188497
v -0.277959 -0.109801 -1.073917
v 0.021095 0.451335 -1.188496
v 0.021095 0.156646 -1.224277
v 0.021095 0.728899 -1.083231
v 0.021095 0.973205 -0.914598
v 0.021095 1.170056 -0.692398
v 0.021094 1.308011 -0.429547
v 0.021094 1.379053 -0.141320
v 0.021095 -1.065761 -0.141322
v 0.021095 -1.065761 0.155535
v 0.021095 -0.994718 -0.429549
v 0.021095 -0.856764 -0.692400
v 0.021095 -0.659912 -0.914600
v 0.021095 -0.415606 -1.083231
v 0.021095 -0.138042 -1.188497
v -0.305698 0.386621 -0.925941
v -0.305698 0.603231 -0.843791
v -0.305698 0.537711 -0.718953
v -0.305698 0.352881 -0.789049
v -0.305698 0.793887 -0.712190
v -0.305698 0.700396 -0.606660
v -0.305699 0.947510 -0.538788
v -0.305699 0.831479 -0.458698
v -0.305699 1.055170 -0.333659
v -0.305699 0.923344 -0.283663
v -0.305699 1.110611 -0.108725
v -0.305699 0.970650 -0.091731
v -0.305698 -0.797319 -0.108727
v -0.305698 -0.741878 -0.333659
v -0.305698 -0.610052 -0.283665
v -0.305698 -0.657359 -0.091732
v -0.305698 -0.634218 -0.538788
v -0.305698 -0.518187 -0.458698
v -0.305698 -0.480595 -0.712191
v -0.305698 -0.387103 -0.606660
v -0.305698 -0.289939 -0.843792
v -0.305698 -0.224419 -0.718953
v -0.305698 -0.073329 -0.925941
v -0.305698 -0.039588 -0.789050
v -0.305698 0.156646 -0.953865
v -0.305698 0.156646 -0.812876
v -0.224131 0.451335 1.202710
v -0.224131 0.156646 1.238492
v -0.277959 0.156646 1.120483
v -0.277959 0.423094 1.088130
v -0.224131 0.728899 1.097445
v -0.277959 0.674057 0.992952
v -0.224131 0.973205 0.928811
v -0.277959 0.894951 0.840481
v -0.224131 1.170056 0.706613
v -0.277959 1.072936 0.639576
v -0.224131 1.308011 0.443762
v -0.277959 1.197670 0.401915
v -0.224131 1.379053 0.155534
v -0.277959 1.261904 0.141310
v -0.224131 -0.994718 0.443763
v -0.277959 -0.884378 0.401916
v -0.224131 -0.856764 0.706614
v -0.277959 -0.759644 0.639578
v -0.224131 -0.659912 0.928813
v -0.277959 -0.581658 0.840481
v -0.224131 -0.415606 1.097445
v -0.277959 -0.360764 0.992953
v -0.224131 -0.138042 1.202710
v -0.277959 -0.109801 1.088130
v 0.021094 0.451335 1.202710
v 0.021094 0.156646 1.238492
v 0.021094 0.728899 1.097445
v 0.021094 0.973205 0.928812
v 0.021094 1.170056 0.706613
v 0.021094 1.308011 0.443762
v 0.021094 1.379053 0.155534
v 0.021095 -0.994718 0.443763
v 0.021095 -0.856764 0.706614
v 0.021095 -0.659912 0.928813
v 0.021095 -0.415606 1.097445
v 0.021095 -0.138042 1.202710
v -0.305699 0.386621 0.940154
v -0.305699 0.352880 0.803263
v -0.305699 0.537711 0.733167
v -0.305699 0.603231 0.858005
v -0.305699 0.700396 0.620873
v -0.305699 0.793887 0.726405
v -0.305699 0.831479 0.472911
v -0.305699 0.947510 0.553001
v -0.305699 0.923344 0.297877
v -0.305699 1.055170 0.347872
v -0.305699 0.970650 0.105945
v -0.305699 1.110611 0.122939
v -0.305698 -0.797319 0.122940
v -0.305698 -0.657359 0.105946
v -0.305698 -0.610052 0.297878
v -0.305698 -0.741878 0.347874
v -0.305698 -0.518187 0.472912
v -0.305699 -0.634218 0.553002
v -0.305699 -0.387103 0.620874
v -0.305699 -0.480595 0.726405
v -0.305699 -0.224419 0.733167
v -0.305699 -0.289939 0.858005
v -0.305699 -0.039588 0.803264
v -0.305699 -0.073329 0.940155
v -0.305699 0.156646 0.827091
v -0.305699 0.156646 0.968079
v 0.266320 0.451336 -1.188496
v 0.266320 0.156646 -1.224277
v 0.320148 0.156646 -1.106269
v 0.320148 0.423094 -1.073916
v 0.266320 0.728899 -1.083231
v 0.320148 0.674058 -0.978738
v 0.266320 0.973205 -0.914598
v 0.320148 0.894951 -0.826267
v 0.266320 1.170056 -0.692398
v 0.320148 1.072936 -0.625362
v 0.266320 1.308011 -0.429547
v 0.320148 1.197670 -0.387702
v 0.266320 1.379053 -0.141320
v 0.320148 1.261904 -0.127096
v 0.266321 -1.065760 -0.141322
v 0.266321 -1.065760 0.155535
v 0.320148 -0.948611 0.141311
v 0.320148 -0.948611 -0.127097
v 0.266320 -0.994718 -0.429549
v 0.320148 -0.884378 -0.387703
v 0.266320 -0.856763 -0.692400
v 0.320148 -0.759643 -0.625364
v 0.266321 -0.659912 -0.914600
v 0.320148 -0.581658 -0.826267
v 0.266321 -0.415606 -1.083231
v 0.320148 -0.360764 -0.978739
v 0.266321 -0.138042 -1.188497
v 0.320148 -0.109801 -1.073917
v 0.347888 0.386621 -0.925941
v 0.347888 0.352881 -0.789049
v 0.347888 0.537711 -0.718953
v 0.347888 0.603231 -0.843791
v 0.347888 0.700396 -0.606659
v 0.347888 0.793888 -0.712190
v 0.347888 0.831479 -0.458697
v 0.347888 0.947510 -0.538788
v 0.347888 0.923344 -0.283663
v 0.347888 1.055170 -0.333659
v 0.347888 0.970651 -0.091731
v 0.347888 1.110611 -0.108725
v 0.347888 -0.797318 -0.108727
v 0.347888 -0.657359 -0.091732
v 0.347888 -0.610052 -0.283665
v 0.347888 -0.741877 -0.333659
v 0.347888 -0.518187 -0.458697
v 0.347888 -0.634218 -0.538788
v 0.347888 -0.387103 -0.606660
v 0.347888 -0.480595 -0.712191
v 0.347888 -0.224419 -0.718953
v 0.347888 -0.289939 -0.843792
v 0.347888 -0.039588 -0.789050
v 0.347888 -0.073329 -0.925941
v 0.347888 0.156646 -0.812876
v 0.347888 0.156646 -0.953865
v 0.266320 0.451336 1.202710
v 0.320148 0.423094 1.088130
v 0.320148 0.156646 1.120483
v 0.266320 0.156646 1.238492
v 0.266320 0.728899 1.097445
v 0.320148 0.674057 0.992952
v 0.266320 0.973205 0.928812
v 0.320148 0.894951 0.840481
v 0.266320 1.170056 0.706613
v 0.320148 1.072936 0.639576
v 0.266320 1.308011 0.443762
v 0.320148 1.197670 0.401915
v 0.266320 1.379053 0.155534
v 0.320148 1.261904 0.141310
v 0.266320 -0.994718 0.443763
v 0.320148 -0.884378 0.401916
v 0.266320 -0.856763 0.706614
v 0.320148 -0.759643 0.639578
v 0.266320 -0.659912 0.928813
v 0.320148 -0.581658 0.840481
v 0.266320 -0.415606 1.097445
v 0.320148 -0.360764 0.992953
v 0.266320 -0.138042 1.202710
v 0.320148 -0.109801 1.088130
v 0.347888 0.386621 0.940154
v 0.347888 0.603231 0.858005
v 0.347888 0.537711 0.733167
v 0.347888 0.352880 0.803263
v 0.347888 0.793888 0.726405
v 0.347888 0.700396 0.620873
v 0.347888 0.947510 0.553002
v 0.347888 0.831479 0.472911
v 0.347888 1.055170 0.347872
v 0.347888 0.923344 0.297877
v 0.347888 1.110611 0.122940
v 0.347888 0.970651 0.105945
v 0.347888 -0.797318 0.122940
v 0.347888 -0.741877 0.347874
v 0.347888 -0.610052 0.297878
v 0.347888 -0.657359 0.105946
v 0.347888 -0.634218 0.553002
v 0.347888 -0.518187 0.472911
v 0.347888 -0.480595 0.726405
v 0.347888 -0.387103 0.620874
v 0.347888 -0.289939 0.858005
v 0.347888 -0.224419 0.733167
v 0.347888 -0.073329 0.940155
v 0.347888 -0.039588 0.803264
v 0.347888 0.156646 0.968079
v 0.347888 0.156646 0.827091
v 0.290492 0.465022 -0.580455
v 0.290492 0.315448 -0.637180
v 0.194556 0.244805 -0.350568
v 0.194555 0.327841 -0.319077
v 0.290492 0.596674 -0.489582
v 0.194555 0.400926 -0.268629
v 0.290492 0.702752 -0.369843
v 0.194555 0.459816 -0.202157
v 0.290492 0.777094 -0.228198
v 0.194555 0.501086 -0.123522
v 0.290492 0.815377 -0.072878
v 0.194555 0.522339 -0.037296
v 0.290492 -0.463802 -0.228198
v 0.290492 -0.502085 -0.072878
v 0.194556 -0.209048 -0.037296
v 0.194556 -0.187795 -0.123523
v 0.290492 -0.389461 -0.369844
v 0.194556 -0.146525 -0.202157
v 0.290492 -0.283382 -0.489582
v 0.194556 -0.087635 -0.268629
v 0.290492 -0.151730 -0.580455
v 0.194556 -0.014548 -0.319077
v 0.290492 -0.002156 -0.637180
v 0.194556 0.068487 -0.350568
v 0.290492 0.156646 -0.656463
v 0.194556 0.156646 -0.361272
v 0.335305 0.500042 -0.647179
v 0.335305 0.333482 -0.710346
v 0.335305 0.646644 -0.545987
v 0.335305 0.764769 -0.412651
v 0.335305 0.847554 -0.254919
v 0.335305 0.890184 -0.081961
v 0.335305 -0.534262 -0.254921
v 0.335305 -0.576892 -0.081962
v 0.335305 -0.451478 -0.412651
v 0.335305 -0.333352 -0.545987
v 0.335305 -0.186749 -0.647179
v 0.335305 -0.020190 -0.710347
v 0.335305 0.156646 -0.731818
v 0.374730 0.350191 -0.778135
v 0.374729 0.532487 -0.708999
v 0.374729 0.692941 -0.598245
v 0.374729 0.822228 -0.452312
v 0.374729 0.912833 -0.279677
v 0.374729 0.959492 -0.090376
v 0.335305 0.890184 0.096175
v 0.374729 0.959492 0.104590
v 0.374729 -0.646200 -0.090377
v 0.374729 -0.599541 -0.279678
v 0.374729 -0.508936 -0.452312
v 0.374729 -0.379649 -0.598246
v 0.374730 -0.219195 -0.708999
v 0.374730 -0.036898 -0.778135
v 0.374730 0.156646 -0.801636
v 0.290492 0.465022 0.594669
v 0.194555 0.327841 0.333290
v 0.194555 0.244805 0.364782
v 0.290492 0.315448 0.651394
v 0.290492 0.596674 0.503796
v 0.194555 0.400926 0.282843
v 0.290492 0.702752 0.384058
v 0.194555 0.459816 0.216370
v 0.290492 0.777094 0.242412
v 0.194555 0.501086 0.137736
v 0.290492 0.815377 0.087092
v 0.194555 0.522339 0.051511
v 0.290492 -0.463802 0.242413
v 0.194556 -0.187795 0.137736
v 0.194556 -0.209048 0.051511
v 0.290492 -0.502085 0.087092
v 0.290492 -0.389461 0.384058
v 0.194556 -0.146525 0.216370
v 0.290492 -0.283382 0.503797
v 0.194556 -0.087635 0.282843
v 0.290492 -0.151730 0.594669
v 0.194556 -0.014548 0.333291
v 0.290492 -0.002156 0.651394
v 0.194555 0.068487 0.364782
v 0.290492 0.156646 0.670676
v 0.194555 0.156646 0.375487
v 0.335305 0.500042 0.661393
v 0.335305 0.333482 0.724561
v 0.335305 0.646644 0.560201
v 0.335305 0.764769 0.426864
v 0.335305 0.847554 0.269134
v 0.335305 -0.534262 0.269134
v 0.335305 -0.576892 0.096175
v 0.335305 -0.451478 0.426866
v 0.335305 -0.333352 0.560201
v 0.335305 -0.186749 0.661394
v 0.335305 -0.020190 0.724561
v 0.335305 0.156646 0.746032
v 0.374729 0.350191 0.792349
v 0.374729 0.532487 0.723213
v 0.374729 0.692941 0.612460
v 0.374729 0.822228 0.466525
v 0.374729 0.912833 0.293890
v 0.374729 -0.646200 0.104591
v 0.374729 -0.599541 0.293892
v 0.374729 -0.508936 0.466525
v 0.374729 -0.379649 0.612460
v 0.374729 -0.219195 0.723213
v 0.374729 -0.036898 0.792349
v 0.374729 0.156646 0.815849
v 0.347888 0.352881 -0.789049
v 0.347888 0.537711 -0.718953
v 0.347888 0.700396 -0.606659
v 0.347888 0.831479 -0.458697
v 0.347888 0.923344 -0.283663
v 0.347888 0.970651 -0.091731
v 0.347888 0.970651 0.105945
v 0.347888 0.923344 0.297877
v 0.347888 0.831479 0.472911
v 0.347888 0.700396 0.620873
v 0.347888 0.537711 0.733167
v 0.347888 0.352880 0.803263
v 0.347888 0.156646 0.827091
v 0.347888 -0.039588 0.803264
v 0.347888 -0.224419 0.733167
v 0.347888 -0.387103 0.620874
v 0.347888 -0.518187 0.472911
v 0.347888 -0.610052 0.297878
v 0.347888 -0.657359 0.105946
v 0.347888 -0.657359 -0.091732
v 0.347888 -0.610052 -0.283665
v 0.347888 -0.518187 -0.458697
v 0.347888 -0.387103 -0.606660
v 0.347888 -0.224419 -0.718953
v 0.347888 -0.039588 -0.789050
v 0.347888 0.156646 -0.812876
v 0.194556 0.156646 0.333290
v 0.194556 0.156646 0.282843
v 0.194556 0.156646 0.216370
v 0.194556 0.156646 0.137736
v 0.194556 0.156646 0.051511
v 0.194556 0.156646 -0.037296
v 0.194556 0.156646 -0.123522
v 0.194556 0.156646 -0.202157
v 0.194556 0.156646 -0.268629
v 0.194556 0.156646 -0.319077
vn -1.0000 -0.0000 -0.0000
vn -0.9927 -0.0290 -0.1175
vn -0.9927 -0.0562 -0.1072
vn -0.9927 -0.0802 -0.0906
vn -0.9927 -0.0996 -0.0687
vn -0.9927 -0.1131 -0.0429
vn -0.9927 -0.1201 -0.0146
vn -0.9927 0.0290 -0.1175
vn -0.9927 -0.0000 -0.1210
vn -0.9927 0.0562 -0.1072
vn -0.9927 0.0802 -0.0906
vn -0.9927 0.0996 -0.0687
vn -0.9927 0.1131 -0.0429
vn -0.9260 0.0904 -0.3667
vn -0.6218 0.3640 -0.6935
vn -0.6218 0.1874 -0.7605
vn -0.9260 0.1755 -0.3344
vn -0.6218 0.5194 -0.5862
vn -0.9260 0.3108 -0.2145
vn -0.6218 0.6446 -0.4449
vn -0.9260 0.3531 -0.1339
vn -0.6218 0.7323 -0.2777
vn -0.6218 0.7775 -0.0944
vn -0.6218 -0.7775 -0.0944
vn -0.9260 -0.3531 -0.1339
vn -0.6218 -0.7323 -0.2777
vn -0.6218 -0.6446 -0.4449
vn -0.9260 -0.3108 -0.2145
vn -0.6218 -0.5194 -0.5862
vn -0.9260 -0.2504 -0.2826
vn -0.6218 -0.3640 -0.6935
vn -0.9260 -0.1755 -0.3344
vn -0.6218 -0.1874 -0.7605
vn -0.9260 -0.0904 -0.3667
vn -0.6218 -0.0000 -0.7832
vn -1.0000 -0.0010 0.0041
vn -0.7260 -0.3196 0.6089
vn -0.7260 -0.1646 0.6677
vn -1.0000 -0.0020 0.0037
vn -0.7260 -0.4560 0.5147
vn -1.0000 -0.0035 0.0024
vn -0.7260 -0.5659 0.3906
vn -1.0000 -0.0040 0.0015
vn -0.7260 -0.6430 0.2438
vn -1.0000 -0.0042 0.0005
vn -0.7260 -0.6826 0.0829
vn -1.0000 0.0042 0.0005
vn -0.7260 0.6430 0.2438
vn -0.7260 0.6826 0.0829
vn -1.0000 0.0040 0.0015
vn -0.7260 0.5659 0.3906
vn -1.0000 0.0035 0.0024
vn -0.7260 0.4560 0.5147
vn -1.0000 0.0028 0.0032
vn -0.7260 0.3196 0.6089
vn -1.0000 0.0010 0.0041
vn -0.7260 0.1646 0.6677
vn -0.7260 -0.0000 0.6877
vn -0.8656 -0.1199 0.4863
vn -0.8656 -0.2327 0.4434
vn -0.8656 -0.3321 0.3749
vn -0.8656 -0.4122 0.2845
vn -0.8656 -0.4683 0.1776
vn -0.8656 -0.4972 0.0604
vn -0.8656 0.4972 0.0604
vn -0.8656 0.4683 0.1776
vn -0.8656 0.4122 0.2845
vn -0.8656 0.3321 0.3749
vn -0.8656 0.2327 0.4434
vn -0.8656 0.1198 0.4863
vn -0.8656 -0.0000 0.5008
vn -0.9276 0.0894 -0.3628
vn -0.9276 0.1736 -0.3308
vn -0.9276 0.2477 -0.2796
vn -0.9276 0.3075 -0.2122
vn -0.9276 0.3493 -0.1325
vn -0.9276 0.3709 -0.0450
vn -0.8656 -0.4972 -0.0604
vn -0.9276 -0.3493 -0.1325
vn -0.9276 -0.3709 -0.0450
vn -0.9276 -0.3075 -0.2122
vn -0.9276 -0.2477 -0.2796
vn -0.9276 -0.1736 -0.3308
vn -0.9276 -0.0894 -0.3627
vn -0.9276 -0.0000 -0.3736
vn -1.0000 -0.0028 0.0032
vn -1.0000 0.0020 0.0037
vn -1.0000 -0.0000 0.0042
vn -0.6300 0.3609 -0.6876
vn -0.7266 0.1644 -0.6671
vn -0.6300 0.1858 -0.7540
vn -0.6300 0.5150 -0.5813
vn -0.7266 0.3193 -0.6084
vn -0.7266 0.5654 -0.3903
vn -0.7267 0.4556 -0.5142
vn -0.6300 0.6391 -0.4412
vn -0.7266 0.6424 -0.2436
vn -0.6300 0.7710 -0.0936
vn -0.6300 0.7261 -0.2754
vn -0.6300 -0.7709 -0.0936
vn -0.7266 -0.6424 -0.2436
vn -0.7266 -0.6820 -0.0828
vn -0.6300 -0.7261 -0.2754
vn -0.7266 -0.5654 -0.3903
vn -0.6300 -0.5150 -0.5813
vn -0.6300 -0.6391 -0.4412
vn -0.7266 -0.3193 -0.6083
vn -0.7266 -0.4556 -0.5142
vn -0.6300 -0.1858 -0.7540
vn -0.6300 -0.3609 -0.6876
vn -0.6300 -0.0000 -0.7766
vn -0.7266 -0.1644 -0.6671
vn -0.7267 -0.0000 -0.6870
vn -0.9927 -0.0290 0.1175
vn -0.9927 -0.0562 0.1072
vn -0.9927 -0.0802 0.0906
vn -0.9927 -0.0996 0.0687
vn -0.9927 -0.1131 0.0429
vn -0.9927 -0.1201 0.0146
vn -0.9927 0.0290 0.1175
vn -0.9927 -0.0000 0.1210
vn -0.9927 0.0562 0.1072
vn -0.9927 0.0802 0.0906
vn -0.9927 0.0996 0.0687
vn -0.9927 0.1131 0.0429
vn -0.9927 0.1201 0.0146
vn -0.9260 0.1755 0.3344
vn -0.6218 0.1874 0.7605
vn -0.6218 0.3640 0.6935
vn -0.6218 0.5194 0.5862
vn -0.9260 0.2504 0.2827
vn -0.6218 0.6446 0.4449
vn -0.9260 0.3108 0.2145
vn -0.6218 0.7323 0.2777
vn -0.9260 0.3531 0.1339
vn -0.9260 0.3749 0.0455
vn -0.6218 0.7775 0.0944
vn -0.9260 0.3749 -0.0455
vn -0.9260 -0.3531 0.1339
vn -0.6218 -0.7775 0.0944
vn -0.6218 -0.7323 0.2777
vn -0.6218 -0.6446 0.4449
vn -0.9260 -0.3108 0.2145
vn -0.6218 -0.5194 0.5862
vn -0.9260 -0.2504 0.2826
vn -0.9260 -0.1755 0.3344
vn -0.6218 -0.3640 0.6935
vn -0.6218 -0.1874 0.7605
vn -0.9260 -0.0904 0.3667
vn -0.6218 -0.0000 0.7832
vn -0.9260 -0.0000 0.3776
vn -0.9260 0.0904 0.3667
vn -0.9260 -0.3749 0.0455
vn -1.0000 -0.0010 -0.0041
vn -0.7260 -0.3196 -0.6089
vn -1.0000 -0.0020 -0.0037
vn -0.7260 -0.4560 -0.5147
vn -1.0000 -0.0028 -0.0032
vn -0.7260 -0.5659 -0.3906
vn -1.0000 -0.0035 -0.0024
vn -0.7260 -0.6430 -0.2438
vn -1.0000 -0.0040 -0.0015
vn -0.7260 -0.6826 -0.0829
vn -1.0000 -0.0042 -0.0005
vn -1.0000 0.0042 -0.0005
vn -0.7260 0.6430 -0.2438
vn -1.0000 0.0040 -0.0015
vn -1.0000 0.0035 -0.0024
vn -0.7260 0.5659 -0.3906
vn -1.0000 0.0028 -0.0032
vn -0.7260 0.4560 -0.5147
vn -0.7260 0.3196 -0.6089
vn -1.0000 0.0020 -0.0037
vn -1.0000 0.0010 -0.0041
vn -0.7260 0.1646 -0.6677
vn -1.0000 -0.0000 -0.0043
vn -0.7260 -0.0000 -0.6877
vn -0.7260 -0.1646 -0.6677
vn -0.7260 0.6826 -0.0829
vn -0.8656 -0.2327 -0.4434
vn -0.8656 -0.3321 -0.3749
vn -0.8656 -0.4122 -0.2845
vn -0.8656 -0.4683 -0.1776
vn -0.8656 0.4683 -0.1776
vn -0.8656 0.4122 -0.2845
vn -0.8656 0.3321 -0.3749
vn -0.8656 0.2327 -0.4434
vn -0.8656 0.1198 -0.4862
vn -0.8656 -0.0000 -0.5008
vn -0.8656 -0.1198 -0.4862
vn -0.8656 0.4972 -0.0604
vn -0.9276 0.1736 0.3308
vn -0.9276 0.0894 0.3627
vn -0.9276 0.2478 0.2797
vn -0.9276 0.3075 0.2122
vn -0.9276 0.3493 0.1325
vn -0.9276 -0.3493 0.1325
vn -0.9276 -0.3709 0.0450
vn -0.9276 -0.3075 0.2122
vn -0.9276 -0.2477 0.2796
vn -0.9276 -0.1736 0.3308
vn -0.9276 -0.0894 0.3627
vn -0.9276 -0.0000 0.3736
vn -0.6300 0.3609 0.6877
vn -0.7266 0.1644 0.6671
vn -0.7266 0.3193 0.6084
vn -0.6300 0.5150 0.5813
vn -0.7267 0.4556 0.5142
vn -0.6300 0.6391 0.4412
vn -0.7266 0.5654 0.3903
vn -0.6300 0.7261 0.2754
vn -0.7266 0.6424 0.2436
vn -0.6300 0.7709 0.0936
vn -0.7266 0.6820 0.0828
vn -0.7266 0.6820 -0.0828
vn -0.6300 -0.7709 0.0936
vn -0.7266 -0.6424 0.2436
vn -0.7266 -0.6820 0.0828
vn -0.7266 -0.5654 0.3903
vn -0.6300 -0.7261 0.2754
vn -0.7266 -0.4556 0.5143
vn -0.6300 -0.6391 0.4412
vn -0.7266 -0.3193 0.6083
vn -0.6300 -0.5150 0.5813
vn -0.7266 -0.1644 0.6671
vn -0.6300 -0.3609 0.6876
vn -0.6301 -0.0000 0.7766
vn -0.7267 -0.0000 0.6870
vn -0.3863 0.2207 -0.8956
vn -0.3863 0.4286 -0.8167
vn -0.3863 0.6117 -0.6904
vn -0.3863 0.7591 -0.5240
vn -0.3863 0.8624 -0.3271
vn -0.3863 0.9157 -0.1112
vn -0.3863 0.9157 0.1112
vn -0.3863 0.8624 0.3271
vn -0.3863 0.7591 0.5240
vn -0.3863 0.6117 0.6904
vn -0.3863 0.4286 0.8167
vn -0.3863 0.2207 0.8956
vn -0.3863 -0.0000 0.9224
vn -0.3863 -0.2207 0.8956
vn -0.3863 -0.4287 0.8167
vn -0.3863 -0.6117 0.6904
vn -0.3863 -0.7591 0.5240
vn -0.3863 -0.8624 0.3271
vn -0.3863 -0.9157 0.1112
vn -0.3863 -0.9157 -0.1112
vn -0.3863 -0.8624 -0.3271
vn -0.3863 -0.7591 -0.5240
vn -0.3863 -0.6116 -0.6904
vn -0.3863 -0.4287 -0.8167
vn -0.3863 -0.2207 -0.8956
vn -0.3863 -0.0000 -0.9224
vn -0.6300 0.1858 0.7540
vn -0.6300 -0.1858 0.7540
vn -0.9260 0.2504 -0.2827
vn -0.9260 -0.3749 -0.0455
vn -0.9260 -0.0000 -0.3776
vn -0.5227 -0.0000 -0.8525
vn -0.9514 0.0737 -0.2990
vn -0.5227 0.2040 -0.8277
vn -0.5227 0.3962 -0.7548
vn -0.9514 0.1431 -0.2727
vn -0.5227 0.5653 -0.6381
vn -0.9514 0.2042 -0.2305
vn -0.5227 0.7016 -0.4843
vn -0.9514 0.2879 -0.1092
vn -0.5227 0.7971 -0.3023
vn -0.9514 0.3057 -0.0371
vn -0.5228 0.8463 -0.1028
vn -0.5227 -0.8463 0.1028
vn -0.9514 -0.3057 -0.0371
vn -0.5227 -0.8463 -0.1028
vn -0.5227 -0.7971 -0.3023
vn -0.9514 -0.2879 -0.1092
vn -0.5227 -0.7016 -0.4843
vn -0.9514 -0.2042 -0.2305
vn -0.5227 -0.5653 -0.6381
vn -0.9514 -0.1431 -0.2727
vn -0.5227 -0.3962 -0.7548
vn -0.9514 -0.0737 -0.2990
vn -0.5227 -0.2040 -0.8277
vn -0.0000 0.2393 -0.9709
vn -0.0000 -0.0000 -1.0000
vn -0.0000 0.4647 -0.8855
vn -0.0000 0.6631 -0.7485
vn -0.0000 0.8230 -0.5681
vn -0.0000 0.9350 -0.3546
vn -0.0000 0.9927 -0.1205
vn -0.0000 -0.9927 0.1205
vn -0.0000 -0.9927 -0.1205
vn -0.0000 -0.9350 -0.3546
vn -0.0000 -0.8230 -0.5681
vn -0.0000 -0.6631 -0.7485
vn -0.0000 -0.4647 -0.8855
vn -0.0000 -0.2393 -0.9709
vn -0.9953 0.0450 -0.0857
vn -0.9953 0.0232 -0.0939
vn -0.9953 0.0642 -0.0724
vn -0.9953 0.0796 -0.0550
vn -0.9953 0.0960 -0.0117
vn -0.9953 0.0905 -0.0343
vn -0.9953 -0.0960 -0.0117
vn -0.9953 -0.0796 -0.0550
vn -0.9953 -0.0905 -0.0343
vn -0.9953 -0.0642 -0.0724
vn -0.9953 -0.0450 -0.0857
vn -0.9953 -0.0000 -0.0967
vn -0.9953 -0.0232 -0.0939
vn -0.9514 -0.0000 -0.3079
vn -0.9514 0.2534 -0.1749
vn -0.9514 -0.2534 -0.1749
vn -0.9514 -0.0000 0.3079
vn -0.5227 0.2040 0.8277
vn -0.9514 0.0737 0.2990
vn -0.5227 0.3962 0.7548
vn -0.9514 0.1431 0.2727
vn -0.9514 0.2042 0.2305
vn -0.5227 0.5653 0.6381
vn -0.5227 0.7016 0.4843
vn -0.9514 0.2534 0.1749
vn -0.9514 0.2879 0.1092
vn -0.5227 0.7971 0.3023
vn -0.9514 0.3057 0.0371
vn -0.5227 0.8463 0.1028
vn -0.9514 -0.3057 0.0371
vn -0.5227 -0.7971 0.3023
vn -0.9514 -0.2879 0.1092
vn -0.9514 -0.2534 0.1749
vn -0.5227 -0.7016 0.4843
vn -0.5227 -0.5653 0.6381
vn -0.9514 -0.2042 0.2305
vn -0.5227 -0.3962 0.7548
vn -0.9514 -0.1431 0.2727
vn -0.5227 -0.2040 0.8277
vn -0.9514 -0.0737 0.2990
vn -0.5227 -0.0000 0.8525
vn -0.0000 0.2393 0.9709
vn -0.0000 0.4647 0.8855
vn -0.0000 0.6631 0.7485
vn -0.0000 0.8230 0.5681
vn -0.0000 0.9350 0.3546
vn -0.0000 0.9927 0.1205
vn -0.0000 -0.9350 0.3546
vn -0.0000 -0.8230 0.5681
vn -0.0000 -0.6631 0.7485
vn -0.0000 -0.4647 0.8855
vn -0.0000 -0.2393 0.9709
vn -0.0000 -0.0000 1.0000
vn -0.9953 0.0232 0.0939
vn -0.9953 0.0450 0.0857
vn -0.9953 0.0642 0.0724
vn -0.9953 0.0796 0.0550
vn -0.9953 0.0905 0.0343
vn -0.9953 0.0960 0.0117
vn -0.9953 -0.0960 0.0117
vn -0.9953 -0.0905 0.0343
vn -0.9953 -0.0796 0.0550
vn -0.9953 -0.0642 0.0724
vn -0.9953 -0.0450 0.0857
vn -0.9953 -0.0232 0.0939
vn -0.9953 -0.0000 0.0967
vn 0.9514 0.0737 -0.2990
vn 0.5227 -0.0000 -0.8525
vn 0.5227 0.2040 -0.8277
vn 0.9514 0.1431 -0.2727
vn 0.5228 0.3962 -0.7548
vn 0.5227 0.5653 -0.6381
vn 0.9514 0.2042 -0.2305
vn 0.9514 0.2534 -0.1749
vn 0.5227 0.7016 -0.4843
vn 0.9514 0.2879 -0.1092
vn 0.5227 0.7971 -0.3023
vn 0.9514 0.3057 -0.0371
vn 0.5228 0.8463 -0.1028
vn 0.9514 -0.3057 -0.0371
vn 0.5227 -0.8463 0.1028
vn 0.5227 -0.8463 -0.1028
vn 0.5227 -0.7971 -0.3023
vn 0.9514 -0.2879 -0.1092
vn 0.5227 -0.7016 -0.4843
vn 0.9514 -0.2534 -0.1749
vn 0.9514 -0.2042 -0.2305
vn 0.5227 -0.5653 -0.6381
vn 0.9514 -0.1431 -0.2727
vn 0.5227 -0.3962 -0.7548
vn 0.5227 -0.2040 -0.8277
vn 0.9514 -0.0737 -0.2990
vn 0.9514 -0.0000 -0.3079
vn 0.9953 0.0450 -0.0857
vn 1.0000 -0.0000 -0.0000
vn 0.9953 0.0232 -0.0939
vn 0.9953 0.0642 -0.0724
vn 0.9953 0.0796 -0.0550
vn 0.9953 0.0905 -0.0343
vn 0.9953 0.0960 -0.0117
vn 0.9953 -0.0960 -0.0117
vn 0.9953 -0.0905 -0.0343
vn 0.9953 -0.0796 -0.0550
vn 0.9953 -0.0642 -0.0724
vn 0.9953 -0.0450 -0.0857
vn 0.9953 -0.0232 -0.0939
vn 0.9953 -0.0000 -0.0967
vn 0.5227 -0.0000 0.8525
vn 0.9514 0.0737 0.2990
vn 0.5227 0.2040 0.8277
vn 0.5227 0.3962 0.7548
vn 0.9514 0.2042 0.2305
vn 0.5227 0.5653 0.6381
vn 0.5227 0.7016 0.4843
vn 0.9514 0.2879 0.1092
vn 0.5227 0.7971 0.3023
vn 0.9514 0.3057 0.0371
vn 0.5227 0.8463 0.1028
vn 0.9514 -0.3057 0.0371
vn 0.5227 -0.7971 0.3023
vn 0.9514 -0.2879 0.1092
vn 0.5227 -0.7016 0.4843
vn 0.9514 -0.2534 0.1749
vn 0.5227 -0.5653 0.6381
vn 0.9514 -0.2042 0.2305
vn 0.5227 -0.3962 0.7548
vn 0.9514 -0.1431 0.2727
vn 0.5227 -0.2040 0.8277
vn 0.9514 -0.0000 0.3079
vn 0.9953 0.0232 0.0939
vn 0.9953 0.0642 0.0724
vn 0.9953 0.0450 0.0857
vn 0.9953 0.0796 0.0550
vn 0.9953 0.0905 0.0343
vn 0.9953 0.0960 0.0117
vn 0.9953 -0.0960 0.0117
vn 0.9953 -0.0905 0.0343
vn 0.9953 -0.0796 0.0550
vn 0.9953 -0.0450 0.0857
vn 0.9953 -0.0642 0.0724
vn 0.9953 -0.0000 0.0967
vn 0.9953 -0.0232 0.0939
vn 0.9514 0.1431 0.2727
vn 0.9514 0.2534 0.1749
vn 0.9514 -0.0737 0.2990
vn 0.9858 -0.0402 0.1633
vn 0.9077 -0.1950 0.3716
vn 0.9858 -0.0781 0.1489
vn 0.9077 -0.2783 0.3141
vn 0.9858 -0.1115 0.1259
vn 0.9858 -0.1384 0.0955
vn 0.9077 -0.3454 0.2384
vn 0.9077 -0.3924 0.1488
vn 0.9858 -0.1572 0.0596
vn 0.9077 -0.4166 0.0506
vn 0.9858 -0.1669 0.0203
vn 0.9858 0.1572 0.0596
vn 0.9077 0.4166 0.0506
vn 0.9077 0.3924 0.1488
vn 0.9858 0.1384 0.0955
vn 0.9077 0.3454 0.2384
vn 0.9077 0.2783 0.3141
vn 0.9858 0.1115 0.1259
vn 0.9858 0.0782 0.1489
vn 0.9077 0.1950 0.3716
vn 0.9077 0.1004 0.4075
vn 0.9858 0.0402 0.1633
vn 0.9858 -0.0000 0.1682
vn 0.9077 -0.0000 0.4197
vn 0.9077 -0.1004 0.4075
vn 0.8656 -0.1198 0.4863
vn 0.8656 -0.2327 0.4434
vn 0.8656 -0.3321 0.3749
vn 0.8656 -0.4121 0.2845
vn 0.8656 -0.4683 0.1776
vn 0.8656 -0.4971 0.0604
vn 0.8656 0.4971 0.0604
vn 0.8656 0.4683 0.1776
vn 0.8656 0.4122 0.2845
vn 0.8656 0.3321 0.3749
vn 0.8656 0.2327 0.4434
vn 0.8656 0.1199 0.4863
vn 0.8656 -0.0000 0.5008
vn 0.9276 0.0894 -0.3628
vn 0.9276 0.1736 -0.3308
vn 0.9276 0.3075 -0.2122
vn 0.9276 0.2477 -0.2796
vn 0.9276 0.3493 -0.1325
vn 0.8656 -0.4971 -0.0604
vn 0.9276 0.3709 -0.0450
vn 0.9276 0.3709 0.0450
vn 0.9276 -0.3493 -0.1325
vn 0.9276 -0.3709 -0.0450
vn 0.9276 -0.3075 -0.2122
vn 0.9276 -0.2477 -0.2796
vn 0.9276 -0.1736 -0.3308
vn 0.9276 -0.0894 -0.3628
vn 0.9276 -0.0000 -0.3736
vn 0.9858 -0.0402 -0.1633
vn 0.9077 -0.1950 -0.3716
vn 0.9077 -0.1004 -0.4075
vn 0.9858 -0.1115 -0.1259
vn 0.9077 -0.2783 -0.3141
vn 0.9858 -0.1384 -0.0955
vn 0.9077 -0.3454 -0.2384
vn 0.9077 -0.3924 -0.1488
vn 0.9858 -0.1572 -0.0596
vn 0.9077 -0.4166 -0.0506
vn 0.9858 -0.1669 -0.0203
vn 0.9858 0.1669 -0.0203
vn 0.9077 0.3924 -0.1488
vn 0.9077 0.4166 -0.0506
vn 0.9858 0.1384 -0.0955
vn 0.9077 0.3454 -0.2384
vn 0.9858 0.1115 -0.1259
vn 0.9077 0.2783 -0.3141
vn 0.9077 0.1950 -0.3716
vn 0.9858 0.0782 -0.1489
vn 0.9077 0.1004 -0.4075
vn 0.9858 -0.0000 -0.1682
vn 0.9077 -0.0000 -0.4197
vn 0.9858 0.1669 0.0203
vn 0.8656 -0.1198 -0.4862
vn 0.8656 -0.2327 -0.4434
vn 0.8656 -0.3321 -0.3749
vn 0.8656 -0.4121 -0.2845
vn 0.8656 -0.4683 -0.1776
vn 0.8656 0.4683 -0.1776
vn 0.8656 0.4971 -0.0604
vn 0.8656 0.4122 -0.2845
vn 0.8656 0.3321 -0.3749
vn 0.8656 0.2327 -0.4434
vn 0.8656 0.1198 -0.4862
vn 0.8656 -0.0000 -0.5008
vn 0.9276 0.0894 0.3628
vn 0.9276 0.1736 0.3308
vn 0.9276 0.2477 0.2796
vn 0.9276 0.3075 0.2122
vn 0.9276 0.3493 0.1325
vn 0.9276 -0.3709 0.0450
vn 0.9276 -0.3493 0.1325
vn 0.9276 -0.3075 0.2122
vn 0.9276 -0.2477 0.2796
vn 0.9276 -0.1736 0.3308
vn 0.9276 -0.0894 0.3627
vn 0.9276 -0.0000 0.3736
vn 0.3863 0.2207 -0.8956
vn 0.3863 0.6116 -0.6904
vn 0.3863 0.4286 -0.8167
vn 0.3863 0.7591 -0.5240
vn 0.3863 0.8624 -0.3271
vn 0.3863 0.9157 -0.1112
vn 0.3863 0.9157 0.1112
vn 0.3863 0.8624 0.3271
vn 0.3863 0.6117 0.6904
vn 0.3863 0.7591 0.5240
vn 0.3863 0.4287 0.8167
vn 0.3863 0.2207 0.8956
vn 0.3863 -0.2207 0.8956
vn 0.3863 -0.0000 0.9224
vn 0.3863 -0.4286 0.8167
vn 0.3863 -0.6117 0.6904
vn 0.3863 -0.7591 0.5240
vn 0.3863 -0.8624 0.3271
vn 0.3863 -0.9157 0.1112
vn 0.3863 -0.9157 -0.1112
vn 0.3863 -0.7591 -0.5240
vn 0.3863 -0.8624 -0.3271
vn 0.3863 -0.6117 -0.6904
vn 0.3863 -0.4287 -0.8167
vn 0.3863 -0.0000 -0.9224
vn 0.3863 -0.2207 -0.8956
vn 0.9858 0.0402 -0.1633
vn 0.9858 0.1572 -0.0596
vn 0.9858 -0.0781 -0.1489
vn -0.9927 0.1201 -0.0146
vn -0.9276 0.3709 0.0450
vt 0.539281 0.505141
vt 0.536610 0.491901
vt 0.530890 0.479638
vt 0.532994 0.505148
vt 0.523830 0.468638
vt 0.523713 0.505135
vt 0.515469 0.459523
vt 0.510656 0.505135
vt 0.505972 0.453021
vt 0.500036 0.505141
vt 0.495680 0.449673
vt 0.536610 0.518381
vt 0.540386 0.505141
vt 0.530883 0.530651
vt 0.523824 0.541651
vt 0.515463 0.550760
vt 0.505966 0.557249
vt 0.606350 0.534963
vt 0.632964 0.582025
vt 0.646564 0.544675
vt 0.596008 0.563123
vt 0.611218 0.615181
vt 0.558318 0.608685
vt 0.582532 0.642420
vt 0.533030 0.623605
vt 0.548179 0.661926
vt 0.510064 0.672011
vt 0.510082 0.338259
vt 0.533043 0.386665
vt 0.548198 0.348357
vt 0.582544 0.367869
vt 0.558318 0.401597
vt 0.611231 0.395108
vt 0.579533 0.422272
vt 0.632964 0.428270
vt 0.596014 0.447166
vt 0.646564 0.465620
vt 0.606350 0.475326
vt 0.651198 0.505148
vt 0.680557 0.652327
vt 0.676082 0.696195
vt 0.704954 0.673814
vt 0.655345 0.671950
vt 0.643671 0.714640
vt 0.596483 0.700294
vt 0.608517 0.728740
vt 0.564010 0.708637
vt 0.571417 0.738283
vt 0.530392 0.712974
vt 0.533143 0.743217
vt 0.508649 0.275753
vt 0.544129 0.251940
vt 0.509254 0.249144
vt 0.538893 0.278173
vt 0.578128 0.259126
vt 0.568365 0.284409
vt 0.610482 0.270563
vt 0.596403 0.294318
vt 0.640447 0.285978
vt 0.645796 0.324350
vt 0.667300 0.304972
vt 0.690430 0.326826
vt 0.729610 0.648253
vt 0.721629 0.687973
vt 0.690081 0.712420
vt 0.654795 0.732474
vt 0.616624 0.747791
vt 0.576419 0.758156
vt 0.535010 0.763472
vt 0.509656 0.231318
vt 0.547641 0.234363
vt 0.584676 0.242196
vt 0.619933 0.254639
vt 0.652627 0.271427
vt 0.682000 0.292179
vt 0.707128 0.316638
vt 0.748375 0.659398
vt 0.736766 0.700735
vt 0.702747 0.727135
vt 0.664850 0.748676
vt 0.623943 0.765097
vt 0.580909 0.776197
vt 0.536648 0.781868
vt 0.493153 0.763677
vt 0.550827 0.218400
vt 0.510027 0.215129
vt 0.590609 0.226816
vt 0.628493 0.240186
vt 0.663657 0.258234
vt 0.695358 0.280647
vt 0.722571 0.307393
vt 0.765717 0.669499
vt 0.681453 0.606806
vt 0.699409 0.557399
vt 0.652611 0.650733
vt 0.614267 0.686801
vt 0.568160 0.712658
vt 0.516901 0.726147
vt 0.516919 0.284123
vt 0.568184 0.297630
vt 0.614286 0.323482
vt 0.652624 0.359562
vt 0.681453 0.403495
vt 0.699416 0.452896
vt 0.705518 0.505148
vt 0.588128 0.559184
vt 0.601037 0.533662
vt 0.598254 0.532922
vt 0.572764 0.582647
vt 0.590979 0.560540
vt 0.555042 0.604305
vt 0.575170 0.584345
vt 0.553073 0.602171
vt 0.531074 0.618821
vt 0.503794 0.623431
vt 0.529736 0.616257
vt 0.503801 0.386839
vt 0.531081 0.391455
vt 0.504238 0.384369
vt 0.529741 0.394019
vt 0.555047 0.405971
vt 0.572764 0.427636
vt 0.553079 0.408111
vt 0.590979 0.449748
vt 0.575170 0.425937
vt 0.598254 0.477367
vt 0.588128 0.451105
vt 0.601926 0.505141
vt 0.601037 0.476627
vt 0.604567 0.505141
vt 0.444167 0.491889
vt 0.441489 0.505129
vt 0.449894 0.479625
vt 0.447777 0.505135
vt 0.456947 0.468625
vt 0.457064 0.505129
vt 0.465308 0.459510
vt 0.470115 0.505129
vt 0.474804 0.453014
vt 0.480735 0.505141
vt 0.485103 0.449673
vt 0.444167 0.518369
vt 0.440385 0.505129
vt 0.449894 0.530632
vt 0.456947 0.541632
vt 0.465308 0.550754
vt 0.474804 0.557243
vt 0.485103 0.560597
vt 0.384769 0.563104
vt 0.334213 0.544650
vt 0.347813 0.582000
vt 0.369552 0.615162
vt 0.401257 0.587998
vt 0.398233 0.642401
vt 0.422453 0.608673
vt 0.432579 0.661913
vt 0.447734 0.623599
vt 0.475891 0.630966
vt 0.470688 0.672005
vt 0.504874 0.630966
vt 0.447740 0.386658
vt 0.470707 0.338259
vt 0.432591 0.348344
vt 0.398240 0.367850
vt 0.422459 0.401585
vt 0.369558 0.395089
vt 0.401257 0.422260
vt 0.384769 0.447154
vt 0.347813 0.428252
vt 0.334213 0.465602
vt 0.374433 0.475307
vt 0.329579 0.505122
vt 0.370897 0.505122
vt 0.374433 0.534944
vt 0.475897 0.379298
vt 0.347879 0.653718
vt 0.351777 0.697657
vt 0.372756 0.673581
vt 0.383950 0.716384
vt 0.400583 0.689829
vt 0.418977 0.730594
vt 0.430835 0.702093
vt 0.456009 0.739881
vt 0.462892 0.710015
vt 0.494402 0.743573
vt 0.496357 0.713391
vt 0.478308 0.277177
vt 0.439970 0.256846
vt 0.448558 0.282432
vt 0.420069 0.291391
vt 0.407102 0.267182
vt 0.393480 0.303874
vt 0.376418 0.281585
vt 0.348628 0.299721
vt 0.369389 0.319630
vt 0.348263 0.338360
vt 0.324389 0.321117
vt 0.330026 0.359591
vt 0.304217 0.345013
vt 0.325938 0.630807
vt 0.323228 0.674962
vt 0.474275 0.250787
vt 0.337662 0.713773
vt 0.372800 0.734181
vt 0.411029 0.749713
vt 0.451417 0.760015
vt 0.434211 0.239705
vt 0.398416 0.250967
vt 0.364977 0.266647
vt 0.334649 0.286401
vt 0.308126 0.309781
vt 0.286312 0.336449
vt 0.298913 0.649149
vt 0.306406 0.688971
vt 0.471570 0.233111
vt 0.324860 0.728382
vt 0.291122 0.701587
vt 0.362668 0.750330
vt 0.403778 0.767043
vt 0.447397 0.778206
vt 0.428986 0.224137
vt 0.469109 0.217052
vt 0.390529 0.236238
vt 0.354601 0.253084
vt 0.321977 0.274323
vt 0.293366 0.299578
vt 0.269768 0.328720
vt 0.262566 0.670050
vt 0.280023 0.660118
vt 0.299318 0.606775
vt 0.281367 0.557374
vt 0.328147 0.650702
vt 0.366491 0.686782
vt 0.412593 0.712634
vt 0.463852 0.726147
vt 0.463870 0.284123
vt 0.366504 0.323469
vt 0.412604 0.297612
vt 0.299331 0.403470
vt 0.328159 0.359544
vt 0.281367 0.452871
vt 0.275259 0.505122
vt 0.392649 0.559165
vt 0.379733 0.533643
vt 0.389804 0.560522
vt 0.408013 0.582634
vt 0.405607 0.584327
vt 0.427698 0.602159
vt 0.425730 0.604292
vt 0.451036 0.616251
vt 0.449696 0.618815
vt 0.476976 0.623425
vt 0.476539 0.625901
vt 0.504226 0.625907
vt 0.476983 0.386839
vt 0.449696 0.391449
vt 0.476545 0.384363
vt 0.425730 0.405965
vt 0.451036 0.394013
vt 0.405607 0.425925
vt 0.427704 0.408099
vt 0.389804 0.449736
vt 0.408013 0.427623
vt 0.379733 0.476608
vt 0.392649 0.451086
vt 0.378851 0.505122
vt 0.376210 0.505122
vt 1.512764 0.272171
vt 1.524228 0.274275
vt 1.524509 0.271914
vt 1.534846 0.271688
vt 1.438469 0.529120
vt 1.447550 0.526589
vt 1.437890 0.526708
vt 1.447997 0.529003
vt 1.458977 0.526449
vt 1.459267 0.528865
vt 1.471507 0.526295
vt 1.471625 0.528713
vt 1.484412 0.526137
vt 1.496711 0.528405
vt 1.496942 0.525984
vt 1.507982 0.528267
vt 1.508369 0.525843
vt 1.518029 0.525725
vt 1.279390 0.283634
vt 1.289255 0.281279
vt 1.278916 0.281279
vt 1.301173 0.283634
vt 1.301002 0.281279
vt 1.313474 0.283634
vt 1.313474 0.281279
vt 1.325945 0.281279
vt 1.325774 0.283634
vt 1.337691 0.281279
vt 1.337360 0.283634
vt 1.348031 0.281279
vt 1.529576 0.368167
vt 1.538654 0.365628
vt 1.528994 0.365756
vt 1.539103 0.368041
vt 1.550080 0.365475
vt 1.550373 0.367891
vt 1.562611 0.365309
vt 1.562732 0.367726
vt 1.575516 0.365137
vt 1.587817 0.367393
vt 1.588046 0.364970
vt 1.599088 0.367243
vt 1.599473 0.364819
vt 1.608615 0.367116
vt 1.609133 0.364690
vt 1.465744 0.273200
vt 1.476465 0.275321
vt 1.476081 0.272974
vt 1.488048 0.275067
vt 1.487826 0.272717
vt 1.500346 0.274798
vt 1.500295 0.272444
vt 1.512644 0.274529
vt 0.382523 0.532903
vt 0.382529 0.477348
vt 0.579520 0.588010
vt 0.504886 0.379304
vt 0.609885 0.505141
vt 0.998464 0.499511
vt 0.931096 0.599519
vt 0.985870 0.611567
vt 0.943280 0.717703
vt 0.893468 0.693652
vt 0.875101 0.811360
vt 0.832925 0.776946
vt 0.784866 0.887238
vt 0.657506 0.891922
vt 0.677589 0.940698
vt 0.552682 0.916472
vt 0.559518 0.968323
vt 0.437758 0.030699
vt 0.552686 0.082550
vt 0.559518 0.030699
vt 0.677593 0.058331
vt 0.657513 0.107104
vt 0.784870 0.111784
vt 0.832925 0.222076
vt 0.875105 0.187659
vt 0.893468 0.305370
vt 0.943280 0.281319
vt 0.931096 0.399500
vt 0.985870 0.387455
vt 1.464473 0.012008
vt 1.426221 0.043703
vt 1.464473 0.043703
vt 1.426221 0.012008
vt 1.388030 0.043703
vt 1.388030 0.012008
vt 1.349949 0.043703
vt 1.349949 0.012008
vt 1.311998 0.043703
vt 1.311998 0.012008
vt 1.274172 0.043703
vt 1.274172 0.012008
vt 1.236432 0.043703
vt 1.730224 0.043703
vt 1.692514 0.012008
vt 1.692514 0.043703
vt 1.654773 0.043703
vt 1.654773 0.012008
vt 1.616945 0.043703
vt 1.616945 0.012008
vt 1.578995 0.043703
vt 1.578995 0.012008
vt 1.540915 0.043703
vt 1.540915 0.012008
vt 1.502724 0.043703
vt 1.502724 0.012008
vt 0.814723 0.573047
vt 0.837245 0.666923
vt 0.869633 0.585698
vt 0.742676 0.703474
vt 0.787093 0.642369
vt 0.683989 0.752816
vt 0.785116 0.738536
vt 0.614413 0.787459
vt 0.716226 0.796382
vt 0.544859 0.857976
vt 0.634555 0.837013
vt 0.614421 0.211559
vt 0.544859 0.141049
vt 0.538009 0.193688
vt 0.716230 0.202640
vt 0.634555 0.162009
vt 0.684000 0.246206
vt 0.785120 0.260483
vt 0.787097 0.356653
vt 0.742679 0.295548
vt 0.814731 0.425968
vt 0.837253 0.332095
vt 0.880584 0.499511
vt 0.869640 0.413321
vt 0.824097 0.499511
vt 0.942953 0.499511
vt 0.752765 0.844412
vt 0.752765 0.154614
vt 0.054342 0.499504
vt 0.011418 0.611560
vt 0.066195 0.599512
vt 0.054012 0.717692
vt 0.103820 0.693645
vt 0.164370 0.776935
vt 0.122179 0.811353
vt 0.212406 0.887231
vt 0.244508 0.844401
vt 0.339771 0.891918
vt 0.319684 0.940691
vt 0.444591 0.916472
vt 0.437751 0.968323
vt 0.444591 0.082550
vt 0.319688 0.058324
vt 0.339778 0.107100
vt 0.244508 0.154610
vt 0.212410 0.111781
vt 0.122186 0.187655
vt 0.164370 0.222073
vt 0.054012 0.281312
vt 0.103820 0.305367
vt 0.011418 0.387448
vt 0.066195 0.399493
vt -0.001169 0.499504
vt 1.958265 0.012008
vt 1.996517 0.043703
vt 1.996517 0.012008
vt 1.008933 0.012008
vt 1.047123 0.043703
vt 1.047123 0.012008
vt 1.085204 0.043703
vt 1.085204 0.012008
vt 1.123155 0.043703
vt 1.123155 0.012008
vt 1.160981 0.043703
vt 1.160981 0.012008
vt 1.198722 0.043703
vt 1.198722 0.012008
vt 1.730224 0.012008
vt 1.767965 0.043703
vt 1.767965 0.012008
vt 1.805791 0.043703
vt 1.805791 0.012008
vt 1.843741 0.043703
vt 1.843741 0.012008
vt 1.881824 0.043703
vt 1.881824 0.012008
vt 1.920014 0.043703
vt 1.920014 0.012008
vt 1.958265 0.043703
vt 0.210195 0.642362
vt 0.127655 0.585691
vt 0.160046 0.666910
vt 0.212172 0.738529
vt 0.281051 0.796378
vt 0.254604 0.703464
vt 0.382863 0.787459
vt 0.362718 0.837013
vt 0.452413 0.857973
vt 0.538009 0.805331
vt 0.382863 0.211559
vt 0.452421 0.141049
vt 0.362722 0.162009
vt 0.313288 0.246203
vt 0.281054 0.202640
vt 0.254608 0.295544
vt 0.212172 0.260479
vt 0.160046 0.332092
vt 0.182561 0.425964
vt 0.127655 0.413314
vt 0.116703 0.499504
vt 0.173190 0.499504
vt 1.236432 0.012008
vt 1.640370 0.887418
vt 1.658739 0.858206
vt 1.655306 0.890937
vt 1.630108 0.914913
vt 1.643692 0.921937
vt 1.625101 0.949294
vt 1.613600 0.939241
vt 1.591745 0.958948
vt 1.600497 0.971458
vt 1.565770 0.972825
vt 1.571246 0.987071
vt 1.537188 0.979996
vt 1.539053 0.995140
vt 1.537191 0.736417
vt 1.505854 0.721272
vt 1.539054 0.721273
vt 1.571246 0.729343
vt 1.565771 0.743590
vt 1.600498 0.744957
vt 1.591746 0.757467
vt 1.613601 0.777172
vt 1.625103 0.767119
vt 1.630111 0.801500
vt 1.643692 0.794476
vt 1.655306 0.825476
vt 1.640370 0.828993
vt 1.643604 0.858206
vt 1.464473 0.075397
vt 1.426221 0.075397
vt 1.388030 0.075397
vt 1.349949 0.075397
vt 1.311998 0.075397
vt 1.274172 0.075397
vt 1.236432 0.075397
vt 1.692514 0.075397
vt 1.654773 0.075397
vt 1.616945 0.075397
vt 1.578995 0.075397
vt 1.540915 0.075397
vt 1.502724 0.075397
vt 1.614781 0.907106
vt 1.608641 0.879687
vt 1.623613 0.883381
vt 1.588994 0.917782
vt 1.600565 0.928024
vt 1.572993 0.932195
vt 1.581782 0.944919
vt 1.559512 0.956788
vt 1.535056 0.962909
vt 1.554022 0.942314
vt 1.554022 0.774099
vt 1.535056 0.753504
vt 1.559513 0.759627
vt 1.581785 0.771495
vt 1.600567 0.788391
vt 1.572993 0.784220
vt 1.601105 0.816479
vt 1.614781 0.809307
vt 1.608641 0.836725
vt 1.623613 0.833031
vt 1.626597 0.858206
vt 1.611194 0.858206
vt 1.386171 0.858204
vt 1.404539 0.887416
vt 1.389604 0.890934
vt 1.401217 0.921935
vt 1.431309 0.939239
vt 1.419806 0.949291
vt 1.444407 0.971456
vt 1.479135 0.972824
vt 1.473659 0.987070
vt 1.507716 0.979995
vt 1.505851 0.995140
vt 1.507717 0.736417
vt 1.473659 0.729343
vt 1.479136 0.743589
vt 1.444409 0.744955
vt 1.453161 0.757466
vt 1.419806 0.767119
vt 1.431309 0.777170
vt 1.401217 0.794474
vt 1.414799 0.801499
vt 1.389604 0.825474
vt 1.401308 0.858204
vt 1.958265 0.075397
vt 1.008933 0.075397
vt 1.008933 0.043703
vt 1.047123 0.075397
vt 1.085204 0.075397
vt 1.123155 0.075397
vt 1.198722 0.075397
vt 1.767965 0.075397
vt 1.805791 0.075397
vt 1.843741 0.075397
vt 1.881824 0.075397
vt 1.443804 0.899932
vt 1.421298 0.883379
vt 1.436269 0.879685
vt 1.444343 0.928021
vt 1.430129 0.907103
vt 1.455913 0.917781
vt 1.463123 0.944918
vt 1.471913 0.932192
vt 1.485393 0.956786
vt 1.490885 0.942314
vt 1.509851 0.962909
vt 1.533188 0.947535
vt 1.511719 0.947534
vt 1.490886 0.774099
vt 1.509852 0.753504
vt 1.511719 0.768879
vt 1.471914 0.784219
vt 1.485393 0.759626
vt 1.455915 0.798631
vt 1.463125 0.771494
vt 1.430129 0.809306
vt 1.444343 0.788389
vt 1.436269 0.836724
vt 1.443804 0.816478
vt 1.418314 0.858204
vt 1.421298 0.833029
vt 1.433716 0.858204
vt 1.533188 0.768879
vt 1.414799 0.914911
vt 1.453161 0.958946
vt 1.404539 0.828992
vt 1.500684 0.816036
vt 1.487972 0.826915
vt 1.502189 0.820072
vt 1.492230 0.833550
vt 1.504449 0.823620
vt 1.507351 0.826460
vt 1.497918 0.839022
vt 1.504779 0.842946
vt 1.510741 0.828457
vt 1.512426 0.844999
vt 1.514474 0.829477
vt 1.510741 0.794982
vt 1.512426 0.778439
vt 1.504779 0.780493
vt 1.507351 0.796980
vt 1.497918 0.784417
vt 1.492230 0.789890
vt 1.504449 0.799820
vt 1.502189 0.803368
vt 1.487972 0.796525
vt 1.485312 0.803925
vt 1.500684 0.807404
vt 1.500040 0.811720
vt 1.484422 0.811721
vt 1.485312 0.819515
vt 1.480744 0.820611
vt 1.483791 0.829042
vt 1.488678 0.836583
vt 1.495211 0.842794
vt 1.503087 0.847240
vt 1.511852 0.849564
vt 1.511851 0.773874
vt 1.503086 0.776199
vt 1.495211 0.780646
vt 1.488678 0.786858
vt 1.483791 0.794398
vt 1.480744 0.802830
vt 1.479745 0.811721
vt 1.476563 0.821599
vt 1.479950 0.830970
vt 1.492693 0.846254
vt 1.485397 0.839347
vt 1.501500 0.851206
vt 1.520928 0.849564
vt 1.511309 0.853796
vt 1.521471 0.853796
vt 1.501499 0.772234
vt 1.511308 0.769642
vt 1.492692 0.777186
vt 1.485397 0.784093
vt 1.479950 0.792471
vt 1.476563 0.801842
vt 1.475446 0.811721
vt 1.532097 0.816035
vt 1.544809 0.826913
vt 1.547468 0.819514
vt 1.528330 0.823619
vt 1.540550 0.833549
vt 1.525428 0.826459
vt 1.534862 0.839021
vt 1.528000 0.842945
vt 1.522039 0.828456
vt 1.520352 0.844999
vt 1.518306 0.829477
vt 1.518306 0.793961
vt 1.528000 0.780492
vt 1.520352 0.778439
vt 1.525428 0.796979
vt 1.534862 0.784416
vt 1.528330 0.799819
vt 1.540550 0.789889
vt 1.544809 0.796524
vt 1.530592 0.803366
vt 1.547468 0.803924
vt 1.532740 0.811718
vt 1.548358 0.811718
vt 1.514474 0.793961
vt 1.552036 0.820610
vt 1.548990 0.829041
vt 1.544102 0.836581
vt 1.537569 0.842793
vt 1.529693 0.847239
vt 1.529693 0.776198
vt 1.520928 0.773874
vt 1.537569 0.780645
vt 1.544102 0.786856
vt 1.548990 0.794397
vt 1.552036 0.802828
vt 1.553035 0.811718
vt 1.556217 0.821598
vt 1.552831 0.830969
vt 1.547383 0.839346
vt 1.540087 0.846253
vt 1.531280 0.851204
vt 1.521470 0.769642
vt 1.531280 0.772233
vt 1.540087 0.777185
vt 1.547383 0.784092
vt 1.552831 0.792469
vt 1.556217 0.801840
vt 1.557334 0.811718
vt 1.185965 0.291668
vt 1.173847 0.294168
vt 1.186147 0.294168
vt 1.162518 0.291668
vt 1.173494 0.291668
vt 1.239234 0.284869
vt 1.248907 0.287438
vt 1.249491 0.284869
vt 1.227102 0.284869
vt 1.238792 0.287438
vt 1.213799 0.284869
vt 1.226826 0.287438
vt 1.200097 0.284869
vt 1.213705 0.287438
vt 1.187070 0.287438
vt 1.200191 0.287438
vt 1.186793 0.284869
vt 1.175104 0.287438
vt 1.164405 0.284869
vt 1.174661 0.284869
vt 1.602455 0.371578
vt 1.591162 0.374229
vt 1.601987 0.374085
vt 1.591480 0.371724
vt 1.578862 0.374392
vt 1.579010 0.371890
vt 1.565804 0.374566
vt 1.552531 0.372242
vt 1.565771 0.372066
vt 1.540061 0.372407
vt 1.552746 0.374739
vt 1.529085 0.372553
vt 1.540447 0.374903
vt 1.343789 0.287633
vt 1.353461 0.290202
vt 1.354045 0.287633
vt 1.331657 0.287633
vt 1.343346 0.290202
vt 1.318353 0.287633
vt 1.331380 0.290202
vt 1.304651 0.287633
vt 1.318259 0.290202
vt 1.291624 0.290202
vt 1.304745 0.290202
vt 1.279216 0.287633
vt 1.291348 0.287633
vt 1.269543 0.290202
vt 1.279658 0.290202
vt 1.235893 0.291668
vt 1.224564 0.294168
vt 1.235390 0.294168
vt 1.224917 0.291668
vt 1.212265 0.294168
vt 1.199206 0.291668
vt 1.212446 0.291668
vt 1.199206 0.294168
vt 1.530929 0.811718
vt 1.532097 0.807402
vt 1.528670 0.811718
vt 1.525625 0.811719
vt 1.522083 0.811719
vt 1.522039 0.794981
vt 1.518320 0.811719
vt 1.514459 0.811719
vt 1.510696 0.811720
vt 1.507154 0.811720
vt 1.504110 0.811720
vt 1.501850 0.811720
vt 1.530592 0.820071
vt 0.495674 0.560597
vt 0.627139 0.688016
vt 0.622380 0.307717
vt 0.666660 0.343740
vt 0.702814 0.629641
vt 0.492136 0.782045
vt 1.534424 0.274052
vt 1.484354 0.528557
vt 1.517509 0.528150
vt 1.289587 0.283634
vt 1.347557 0.283634
vt 1.575459 0.367557
vt 1.466269 0.275544
vt 0.182561 0.573044
vt 0.313288 0.752809
vt 0.459264 0.805331
vt 0.459272 0.193688
vt 0.210195 0.356649
vt 1.730224 0.075397
vt 1.601104 0.899933
vt 1.588997 0.798632
vt 1.996517 0.075397
vt 1.160981 0.075397
vt 1.920014 0.075397
vt 1.163021 0.294168
vt 1.164988 0.287438
vt 1.529621 0.375047
vt 1.268960 0.287633
s 1
g off
g Wheel_B_L_2.003
usemtl 2.003
f 4/1/1 2/2/2 1/3/3
f 6/4/1 1/3/3 5/5/4
f 8/6/1 5/5/4 7/7/5
f 10/8/1 7/7/5 9/9/6
f 12/10/1 9/9/6 11/11/7
f 4/1/1 13/12/8 3/13/9
f 6/4/1 14/14/10 4/1/1
f 8/6/1 15/15/11 6/4/1
f 10/8/1 16/16/12 8/6/1
f 12/10/1 17/17/13 10/8/1
f 21/18/14 19/19/15 22/20/16
f 20/21/17 23/22/18 19/19/15
f 23/22/18 26/23/19 25/24/20
f 25/24/20 28/25/21 27/26/22
f 28/25/21 29/27/23 27/26/22
f 34/28/24 32/29/25 31/30/26
f 32/29/25 35/31/27 31/30/26
f 36/32/28 37/33/29 35/31/27
f 38/34/30 39/35/31 37/33/29
f 40/36/32 41/37/33 39/35/31
f 42/38/34 43/39/35 41/37/33
f 43/39/35 21/18/14 22/20/16
f 47/40/36 45/41/37 48/42/38
f 46/43/39 49/44/40 45/41/37
f 49/44/40 52/45/41 51/46/42
f 51/46/42 54/47/43 53/48/44
f 53/48/44 56/49/45 55/50/46
f 59/51/47 57/52/48 60/53/49
f 58/54/50 61/55/51 57/52/48
f 62/56/52 63/57/53 61/55/51
f 64/58/54 65/59/55 63/57/53
f 65/59/55 68/60/56 67/61/57
f 68/60/56 69/62/58 67/61/57
f 69/63/58 47/40/36 48/42/38
f 72/64/59 45/41/37 71/65/60
f 45/41/37 73/66/61 71/65/60
f 49/44/40 74/67/62 73/66/61
f 74/67/62 53/48/44 75/68/63
f 75/68/63 55/50/46 76/69/64
f 78/70/65 57/52/48 77/71/66
f 77/71/66 61/55/51 79/72/67
f 79/72/67 63/57/53 80/73/68
f 63/57/53 81/74/69 80/73/68
f 65/59/55 82/75/70 81/74/69
f 67/61/57 83/76/71 82/75/70
f 69/63/58 72/64/59 83/77/71
f 84/78/72 71/65/60 85/79/73
f 85/79/73 73/66/61 86/80/74
f 86/80/74 74/67/62 87/81/75
f 74/67/62 88/82/76 87/81/75
f 88/82/76 76/69/64 89/83/77
f 91/84/78 89/83/77 76/69/64
f 78/70/65 93/85/79 92/86/80
f 77/71/66 94/87/81 93/85/79
f 79/72/67 95/88/82 94/87/81
f 80/73/68 96/89/83 95/88/82
f 81/74/69 97/90/84 96/89/83
f 97/90/84 83/76/71 98/91/85
f 83/77/71 84/78/72 98/92/85
f 22/20/16 46/93/39 47/94/36
f 46/93/39 23/22/18 50/95/86
f 23/22/18 52/96/41 50/95/86
f 52/96/41 27/26/22 54/97/43
f 54/97/43 29/27/23 56/98/45
f 59/99/47 31/30/26 58/100/50
f 31/30/26 62/101/52 58/100/50
f 62/101/52 37/33/29 64/102/54
f 64/102/54 39/35/31 66/103/87
f 66/103/87 41/37/33 68/104/56
f 68/104/56 43/39/35 70/105/88
f 43/39/35 47/94/36 70/105/88
f 101/106/89 99/107/90 102/108/91
f 104/109/92 100/110/93 101/106/89
f 104/109/92 105/111/94 103/112/95
f 106/113/96 107/114/97 105/111/94
f 110/115/98 107/114/97 108/116/99
f 114/117/100 112/118/101 111/119/102
f 113/120/103 115/121/104 112/118/101
f 118/122/105 115/121/104 116/123/106
f 118/122/105 119/124/107 117/125/108
f 122/126/109 119/124/107 120/127/110
f 124/128/111 121/129/112 122/126/109
f 124/128/111 99/107/90 123/130/113
f 128/131/114 126/132/1 125/133/115
f 125/133/115 130/134/1 129/135/116
f 129/135/116 132/136/1 131/137/117
f 131/137/117 134/138/1 133/139/118
f 133/139/118 136/140/1 135/141/119
f 138/142/120 126/132/1 127/143/121
f 137/144/122 130/134/1 126/132/1
f 139/145/123 132/136/1 130/134/1
f 140/146/124 134/138/1 132/136/1
f 141/147/125 136/140/1 134/138/1
f 142/148/126 12/10/1 136/140/1
f 135/141/119 12/10/1 11/11/7
f 146/149/127 144/150/128 143/151/129
f 146/149/127 147/152/130 148/153/131
f 148/153/131 149/154/132 150/155/133
f 150/155/133 151/156/134 152/157/135
f 154/158/136 151/156/134 153/159/137
f 30/160/138 153/159/137 29/27/23
f 158/161/139 156/162/140 155/163/141
f 158/161/139 159/164/142 160/165/143
f 160/165/143 161/166/144 162/167/145
f 164/168/146 161/166/144 163/169/147
f 164/168/146 165/170/148 166/171/149
f 166/171/149 167/172/150 168/173/151
f 145/174/152 167/172/150 144/150/128
f 157/175/153 34/28/24 156/162/140
f 171/176/154 169/177/155 172/178/156
f 172/178/156 173/179/157 174/180/158
f 174/180/158 175/181/159 176/182/160
f 176/182/160 177/183/161 178/184/162
f 178/184/162 179/185/163 180/186/164
f 55/50/46 180/186/164 179/185/163
f 183/187/165 181/188/166 184/189/167
f 186/190/168 181/188/166 185/191/169
f 188/192/170 185/191/169 187/193/171
f 188/192/170 189/194/172 190/195/173
f 192/196/174 189/194/172 191/197/175
f 194/198/176 191/197/175 193/199/177
f 194/200/176 170/201/178 171/176/154
f 183/187/165 60/53/49 182/202/179
f 170/201/178 195/203/180 169/177/155
f 169/177/155 197/204/181 173/179/157
f 175/181/159 197/204/181 198/205/182
f 177/183/161 198/205/182 199/206/183
f 179/185/163 199/206/183 91/84/78
f 55/50/46 91/84/78 76/69/64
f 182/202/179 200/207/184 181/188/166
f 181/188/166 202/208/185 185/191/169
f 185/191/169 203/209/186 187/193/171
f 187/193/171 204/210/187 189/194/172
f 191/197/175 204/210/187 205/211/188
f 191/197/175 206/212/189 193/199/177
f 193/213/177 196/214/190 170/201/178
f 60/53/49 201/215/191 182/202/179
f 208/216/192 196/214/190 207/217/193
f 209/218/194 195/203/180 208/216/192
f 210/219/195 197/204/181 209/218/194
f 210/219/195 199/206/183 198/205/182
f 211/220/196 91/84/78 199/206/183
f 92/86/80 201/215/191 78/70/65
f 213/221/197 201/215/191 212/222/198
f 214/223/199 200/207/184 213/221/197
f 215/224/200 202/208/185 214/223/199
f 216/225/201 203/209/186 215/224/200
f 217/226/202 204/210/187 216/225/201
f 218/227/203 205/211/188 217/226/202
f 218/228/203 196/214/190 206/229/189
f 172/230/156 144/150/128 171/231/154
f 172/230/156 147/152/130 143/151/129
f 174/232/158 149/154/132 147/152/130
f 176/233/160 151/156/134 149/154/132
f 178/234/162 153/159/137 151/156/134
f 56/98/45 153/159/137 180/235/164
f 183/236/165 34/28/24 59/99/47
f 183/236/165 155/163/141 156/162/140
f 186/237/168 155/163/141 184/238/167
f 186/237/168 161/166/144 159/164/142
f 190/239/173 161/166/144 188/240/170
f 192/241/174 163/169/147 190/239/173
f 192/241/174 167/172/150 165/170/148
f 171/231/154 167/172/150 194/242/176
f 221/243/204 219/244/205 222/245/206
f 223/246/207 222/245/206 224/247/208
f 225/248/209 224/247/208 226/249/210
f 227/250/211 226/249/210 228/251/212
f 229/252/213 228/251/212 230/253/214
f 110/115/98 230/253/214 109/254/215
f 111/119/102 231/255/216 114/117/100
f 234/256/217 231/255/216 232/257/218
f 236/258/219 233/259/220 234/256/217
f 238/260/221 235/261/222 236/258/219
f 240/262/223 237/263/224 238/260/221
f 242/264/225 239/265/226 240/262/223
f 243/266/227 242/264/225 244/267/228
f 219/244/205 243/266/227 244/267/228
f 245/268/229 85/269/73 246/270/230
f 85/269/73 247/271/231 246/270/230
f 86/272/74 248/273/232 247/274/231
f 87/275/75 249/276/233 248/273/232
f 88/277/76 250/278/234 249/276/233
f 89/279/77 251/280/235 250/278/234
f 251/280/235 211/281/196 252/282/236
f 252/282/236 210/283/195 253/284/237
f 210/283/195 254/285/238 253/284/237
f 209/286/194 255/287/239 254/288/238
f 255/287/239 207/289/193 256/290/240
f 256/290/240 218/291/203 257/292/241
f 218/291/203 258/293/242 257/292/241
f 217/294/202 259/295/243 258/293/242
f 216/296/201 260/297/244 259/295/243
f 215/298/200 261/299/245 260/300/244
f 214/301/199 262/302/246 261/299/245
f 213/303/197 263/304/247 262/302/246
f 212/305/198 264/306/248 263/304/247
f 264/306/248 93/307/79 265/308/249
f 265/308/249 94/309/81 266/310/250
f 266/310/250 95/311/82 267/312/251
f 267/313/251 96/314/83 268/315/252
f 268/315/252 97/316/84 269/317/253
f 269/317/253 98/318/85 270/319/254
f 270/319/254 84/320/72 245/268/229
f 102/108/91 14/14/10 101/106/89
f 14/14/10 104/109/92 101/106/89
f 104/109/92 16/16/12 106/113/96
f 16/16/12 108/116/99 106/113/96
f 17/17/13 110/115/98 108/116/99
f 11/11/7 113/120/103 114/117/100
f 113/120/103 7/7/5 116/123/106
f 116/123/106 5/5/4 118/122/105
f 5/5/4 120/127/110 118/122/105
f 1/3/3 122/126/109 120/127/110
f 2/2/2 124/128/111 122/126/109
f 124/128/111 13/12/8 102/108/91
f 221/243/204 138/142/120 220/321/255
f 223/246/207 137/144/122 221/243/204
f 225/248/209 139/145/123 223/246/207
f 227/250/211 140/146/124 225/248/209
f 229/252/213 141/147/125 227/250/211
f 110/115/98 142/148/126 229/252/213
f 135/141/119 114/117/100 231/255/216
f 233/259/220 135/141/119 231/255/216
f 131/137/117 233/259/220 235/261/222
f 129/135/116 235/261/222 237/263/224
f 239/265/226 129/135/116 237/263/224
f 128/131/114 239/265/226 241/322/256
f 243/266/227 128/131/114 241/322/256
f 138/142/120 243/266/227 220/321/255
f 21/18/14 100/110/93 20/21/17
f 20/21/17 103/112/95 24/323/257
f 24/323/257 105/111/94 26/23/19
f 26/23/19 107/114/97 28/25/21
f 28/25/21 109/254/215 30/160/138
f 33/324/258 112/118/101 32/29/25
f 32/29/25 115/121/104 36/32/28
f 36/32/28 117/125/108 38/34/30
f 117/125/108 40/36/32 38/34/30
f 119/124/107 42/38/34 40/36/32
f 42/38/34 123/130/113 44/325/259
f 44/325/259 99/107/90 21/18/14
f 146/149/127 219/244/205 145/174/152
f 224/247/208 146/149/127 148/153/131
f 150/155/133 224/247/208 148/153/131
f 228/251/212 150/155/133 152/157/135
f 230/253/214 152/157/135 154/158/136
f 30/160/138 230/253/214 154/158/136
f 234/256/217 157/175/153 158/161/139
f 236/258/219 158/161/139 160/165/143
f 162/167/145 236/258/219 160/165/143
f 240/262/223 162/167/145 164/168/146
f 166/171/149 240/262/223 164/168/146
f 244/267/228 166/171/149 168/173/151
f 145/174/152 244/267/228 168/173/151
f 157/175/153 111/119/102 33/324/258
f 274/326/260 272/327/261 271/328/262
f 272/327/261 275/329/263 271/328/262
f 276/330/264 277/331/265 275/329/263
f 278/332/266 279/333/267 277/331/265
f 279/333/267 282/334/268 281/335/269
f 281/335/269 284/336/270 283/337/271
f 288/338/272 286/339/273 285/340/274
f 286/339/273 289/341/275 285/340/274
f 290/342/276 291/343/277 289/341/275
f 291/343/277 294/344/278 293/345/279
f 293/345/279 296/346/280 295/347/281
f 295/347/281 298/348/282 297/349/283
f 298/348/282 274/326/260 297/349/283
f 274/350/260 299/351/284 300/352/285
f 271/353/262 301/354/286 299/351/284
f 275/355/263 302/356/287 301/354/286
f 277/357/265 303/358/288 302/356/287
f 279/359/267 304/360/289 303/358/288
f 281/361/269 305/362/290 304/360/289
f 307/363/291 285/364/274 306/365/292
f 285/364/274 308/366/293 306/365/292
f 289/367/275 309/368/294 308/366/293
f 291/369/277 310/370/295 309/368/294
f 293/371/279 311/372/296 310/370/295
f 295/373/281 312/374/297 311/372/296
f 297/375/283 300/352/285 312/374/297
f 316/376/1 314/377/298 313/378/299
f 318/379/1 314/377/298 315/380/1
f 320/381/1 317/382/300 318/379/1
f 322/383/1 319/384/301 320/381/1
f 322/383/1 323/385/302 321/386/303
f 327/387/1 325/388/304 328/389/1
f 327/387/1 329/390/305 326/391/306
f 330/392/1 331/393/307 329/390/305
f 334/394/1 331/393/307 332/395/1
f 336/396/1 333/397/308 334/394/1
f 336/396/1 337/398/309 335/399/310
f 338/400/1 313/378/299 337/398/309
f 273/401/311 313/378/299 272/327/261
f 313/378/299 276/330/264 272/327/261
f 276/330/264 317/382/300 278/332/266
f 278/332/266 319/384/301 280/402/312
f 280/402/312 321/386/303 282/334/268
f 321/386/303 284/336/270 282/334/268
f 325/388/304 290/342/276 286/339/273
f 326/391/306 292/403/313 290/342/276
f 329/390/305 294/344/278 292/403/313
f 331/393/307 296/346/280 294/344/278
f 333/397/308 298/348/282 296/346/280
f 298/348/282 337/398/309 273/401/311
f 341/404/314 339/405/315 342/406/316
f 342/406/316 343/407/317 344/408/318
f 346/409/319 343/407/317 345/410/320
f 346/409/319 347/411/321 348/412/322
f 350/413/323 347/411/321 349/414/324
f 352/415/325 349/414/324 351/416/326
f 287/417/327 353/418/328 354/419/329
f 356/420/330 353/418/328 355/421/331
f 356/420/330 357/422/332 358/423/333
f 358/423/333 359/424/334 360/425/335
f 360/425/335 361/426/336 362/427/337
f 341/404/314 361/426/336 340/428/338
f 340/429/338 363/430/339 339/431/315
f 339/432/315 365/433/340 343/434/317
f 343/434/317 366/435/341 345/436/320
f 345/436/320 367/437/342 347/438/321
f 347/438/321 368/439/343 349/440/324
f 349/440/324 369/441/344 351/442/326
f 288/443/272 370/444/345 353/445/328
f 353/445/328 371/446/346 355/447/331
f 355/447/331 372/448/347 357/449/332
f 357/449/332 373/450/348 359/451/334
f 359/451/334 374/452/349 361/453/336
f 361/453/336 364/454/350 340/429/338
f 377/455/1 375/456/351 378/457/352
f 380/458/353 377/455/1 378/457/352
f 382/459/354 379/460/1 380/458/353
f 383/461/1 382/459/354 384/462/355
f 386/463/356 383/461/1 384/462/355
f 324/464/1 386/463/356 323/385/302
f 389/465/1 387/466/357 390/467/358
f 391/468/1 390/467/358 392/469/359
f 393/470/1 392/469/359 394/471/360
f 396/472/361 393/470/1 394/471/360
f 397/473/1 396/472/361 398/474/362
f 400/475/363 397/473/1 398/474/362
f 375/456/351 399/476/1 400/475/363
f 352/415/325 323/385/302 386/463/356
f 351/442/326 305/362/290 283/477/271
f 387/466/357 328/389/1 325/388/304
f 375/456/351 341/404/314 342/406/316
f 378/457/352 342/406/316 344/408/318
f 380/458/353 344/408/318 346/409/319
f 382/459/354 346/409/319 348/412/322
f 384/462/355 348/412/322 350/413/323
f 384/462/355 352/415/325 386/463/356
f 387/466/357 286/339/273 287/417/327
f 387/466/357 354/419/329 390/467/358
f 390/467/358 356/420/330 392/469/359
f 392/469/359 358/423/333 394/471/360
f 396/472/361 358/423/333 360/425/335
f 398/474/362 360/425/335 362/427/337
f 400/475/363 362/427/337 341/404/314
f 351/416/326 284/336/270 352/415/325
f 404/478/364 402/479/365 401/480/366
f 406/481/367 401/480/366 405/482/368
f 406/481/367 407/483/369 408/484/370
f 410/485/371 407/483/369 409/486/372
f 412/487/373 409/486/372 411/488/374
f 414/489/375 411/488/374 413/490/376
f 418/491/377 416/492/378 415/493/379
f 418/491/377 419/494/380 420/495/381
f 420/495/381 421/496/382 422/497/383
f 424/498/384 421/496/382 423/499/385
f 426/500/386 423/499/385 425/501/387
f 426/500/386 427/502/388 428/503/389
f 403/504/390 427/502/388 402/479/365
f 402/505/365 299/351/284 401/506/366
f 401/506/366 301/354/286 405/507/368
f 407/508/369 301/354/286 302/356/287
f 407/508/369 303/358/288 409/509/372
f 409/509/372 304/360/289 411/510/374
f 411/510/374 305/362/290 413/511/376
f 415/512/379 307/363/291 306/365/292
f 415/512/379 308/366/293 419/513/380
f 419/513/380 309/368/294 421/514/382
f 421/514/382 310/370/295 423/515/385
f 423/515/385 311/372/296 425/516/387
f 425/516/387 312/374/297 427/517/388
f 402/505/365 312/374/297 300/352/285
f 432/518/391 430/519/392 429/520/393
f 433/521/392 432/518/391 434/522/394
f 435/523/392 434/522/394 436/524/395
f 438/525/396 435/523/392 436/524/395
f 440/526/397 437/527/392 438/525/396
f 443/528/392 441/529/398 444/530/399
f 446/531/400 443/528/392 444/530/399
f 448/532/401 445/533/392 446/531/400
f 449/534/392 448/532/401 450/535/402
f 451/536/392 450/535/402 452/537/403
f 454/538/404 451/536/392 452/537/403
f 429/520/393 453/539/392 454/538/404
f 429/520/393 403/504/390 404/478/364
f 432/518/391 404/478/364 406/481/367
f 432/518/391 408/484/370 434/522/394
f 436/524/395 408/484/370 410/485/371
f 438/525/396 410/485/371 412/487/373
f 438/525/396 414/489/375 440/526/397
f 441/529/398 420/495/381 444/530/399
f 446/531/400 420/495/381 422/497/383
f 446/531/400 424/498/384 448/532/401
f 448/532/401 426/500/386 450/535/402
f 450/535/402 428/503/389 452/537/403
f 454/538/404 428/503/389 403/504/390
f 458/540/405 456/541/406 455/542/407
f 456/541/406 459/543/408 455/542/407
f 459/543/408 462/544/409 461/545/410
f 462/544/409 463/546/411 461/545/410
f 463/546/411 466/547/412 465/548/413
f 465/548/413 468/549/414 467/550/415
f 417/551/416 469/552/417 416/492/378
f 470/553/418 471/554/419 469/552/417
f 472/555/420 473/556/421 471/554/419
f 474/557/422 475/558/423 473/556/421
f 476/559/424 477/560/425 475/558/423
f 477/560/425 457/561/426 458/540/405
f 458/562/405 363/430/339 364/454/350
f 455/563/407 365/433/340 363/564/339
f 459/565/408 366/435/341 365/433/340
f 461/566/410 367/437/342 366/435/341
f 463/567/411 368/439/343 367/437/342
f 368/439/343 467/568/415 369/441/344
f 307/363/291 469/569/417 370/444/345
f 469/569/417 371/446/346 370/444/345
f 471/570/419 372/448/347 371/446/346
f 473/571/421 373/450/348 372/448/347
f 475/572/423 374/452/349 373/450/348
f 374/452/349 458/562/405 364/454/350
f 481/573/392 479/574/427 482/575/392
f 481/573/392 483/576/428 480/577/429
f 484/578/392 485/579/430 483/576/428
f 486/580/392 487/581/431 485/579/430
f 488/582/392 489/583/432 487/581/431
f 439/584/392 489/583/432 490/585/392
f 493/586/392 491/587/433 494/588/392
f 496/589/392 492/590/434 493/586/392
f 498/591/392 495/592/435 496/589/392
f 498/591/392 499/593/436 497/594/437
f 502/595/392 499/593/436 500/596/392
f 502/595/392 503/597/438 501/598/439
f 504/599/392 479/574/427 503/597/438
f 468/549/414 440/526/397 414/489/375
f 305/362/290 467/568/415 413/511/376
f 442/600/392 491/587/433 441/529/398
f 503/597/438 456/541/406 457/561/426
f 456/541/406 480/577/429 460/601/440
f 460/601/440 483/576/428 462/544/409
f 483/576/428 464/602/441 462/544/409
f 464/602/441 487/581/431 466/547/412
f 487/581/431 468/549/414 466/547/412
f 418/491/377 491/587/433 417/551/416
f 491/587/433 470/553/418 417/551/416
f 492/590/434 472/555/420 470/553/418
f 495/592/435 474/557/422 472/555/420
f 474/557/422 499/593/436 476/559/424
f 476/559/424 501/598/439 478/603/442
f 478/603/442 503/597/438 457/561/426
f 414/489/375 467/550/415 468/549/414
f 507/604/443 505/605/444 508/606/445
f 508/606/445 509/607/446 510/608/447
f 512/609/448 509/607/446 511/610/449
f 512/609/448 513/611/450 514/612/451
f 514/612/451 515/613/452 516/614/453
f 520/615/454 518/616/455 517/617/456
f 522/618/457 517/617/456 521/619/458
f 522/618/457 523/620/459 524/621/460
f 526/622/461 523/620/459 525/623/462
f 526/622/461 527/624/463 528/625/464
f 530/626/465 527/624/463 529/627/466
f 507/604/443 529/627/466 506/628/467
f 505/605/444 532/629/468 531/630/469
f 505/605/444 533/631/470 509/607/446
f 509/607/446 534/632/471 511/610/449
f 513/611/450 534/632/471 535/633/472
f 515/613/452 535/633/472 536/634/473
f 517/617/456 538/635/474 537/636/475
f 521/619/458 537/636/475 539/637/476
f 523/620/459 539/637/476 540/638/477
f 523/620/459 541/639/478 525/623/462
f 527/624/463 541/639/478 542/640/479
f 529/627/466 542/640/479 543/641/480
f 506/628/467 543/641/480 532/629/468
f 544/642/481 531/630/469 532/629/468
f 545/643/482 533/631/470 531/630/469
f 547/644/483 533/631/470 546/645/484
f 548/646/485 534/632/471 547/644/483
f 548/646/485 536/634/473 535/633/472
f 550/647/486 549/648/487 551/649/488
f 553/650/489 538/635/474 552/651/490
f 554/652/491 537/636/475 553/650/489
f 555/653/492 539/637/476 554/652/491
f 556/654/493 540/638/477 555/653/492
f 557/655/494 541/639/478 556/654/493
f 557/655/494 543/641/480 542/640/479
f 544/642/481 543/641/480 558/656/495
f 561/657/496 559/658/497 562/659/498
f 559/658/497 564/660/499 563/661/500
f 563/661/500 566/662/501 565/663/502
f 566/662/501 567/664/503 565/663/502
f 568/665/504 569/666/505 567/664/503
f 516/614/453 569/666/505 570/667/506
f 573/668/507 571/669/508 574/670/509
f 571/669/508 576/671/510 575/672/511
f 575/672/511 578/673/512 577/674/513
f 578/673/512 579/675/514 577/674/513
f 580/676/515 581/677/516 579/675/514
f 581/677/516 584/678/517 583/679/518
f 584/678/517 562/659/498 583/679/518
f 519/680/519 574/670/509 518/616/455
f 586/681/520 559/658/497 585/682/521
f 559/658/497 587/683/522 585/682/521
f 563/661/500 588/684/523 587/683/522
f 588/684/523 567/664/503 589/685/524
f 589/685/524 569/666/505 550/647/486
f 515/613/452 550/647/486 569/666/505
f 574/670/509 590/686/525 591/687/526
f 590/686/525 575/672/511 592/688/527
f 575/672/511 593/689/528 592/688/527
f 577/674/513 594/690/529 593/689/528
f 594/690/529 581/677/516 595/691/530
f 595/691/530 583/679/518 596/692/531
f 583/679/518 586/681/520 596/692/531
f 518/616/455 591/687/526 538/635/474
f 597/693/532 585/682/521 598/694/533
f 598/694/533 587/683/522 599/695/534
f 587/683/522 600/696/535 599/695/534
f 600/696/535 589/685/524 601/697/536
f 601/697/536 550/647/486 551/649/488
f 552/651/490 591/687/526 602/698/537
f 602/698/537 590/686/525 603/699/538
f 590/686/525 604/700/539 603/699/538
f 592/688/527 605/701/540 604/700/539
f 593/689/528 606/702/541 605/701/540
f 594/690/529 607/703/542 606/702/541
f 595/691/530 608/704/543 607/703/542
f 596/692/531 597/693/532 608/704/543
f 609/705/544 545/706/482 544/707/481
f 611/708/545 545/706/482 610/709/546
f 612/710/547 546/711/484 611/712/545
f 613/713/548 547/714/483 612/710/547
f 614/715/549 548/716/485 613/713/548
f 615/717/550 549/718/487 614/715/549
f 615/717/550 601/719/536 551/720/488
f 616/721/551 600/722/535 601/719/536
f 618/723/552 600/722/535 617/724/553
f 618/725/552 598/726/533 599/727/534
f 619/728/554 597/729/532 598/726/533
f 620/730/555 608/731/543 597/729/532
f 622/732/556 608/731/543 621/733/557
f 623/734/558 607/735/542 622/732/556
f 624/736/559 606/737/541 623/734/558
f 625/738/560 605/739/540 624/740/559
f 626/741/561 604/742/539 625/738/560
f 627/743/562 603/744/538 626/741/561
f 628/745/563 602/746/537 627/743/562
f 628/745/563 553/747/489 552/748/490
f 630/749/564 553/747/489 629/750/565
f 630/749/564 555/751/492 554/752/491
f 631/753/566 556/754/493 555/755/492
f 632/756/567 557/757/494 556/754/493
f 634/758/568 557/757/494 633/759/569
f 609/705/544 558/760/495 634/758/568
f 635/761/392 582/762/570 580/676/515
f 636/763/392 580/676/515 578/673/512
f 637/764/392 578/673/512 576/671/510
f 638/765/392 576/671/510 572/766/571
f 639/767/392 572/766/571 573/668/507
f 639/767/392 519/680/519 640/768/392
f 520/615/454 640/768/392 519/680/519
f 522/618/457 641/769/392 520/615/454
f 524/621/460 642/770/392 522/618/457
f 526/622/461 643/771/392 524/621/460
f 528/625/464 644/772/392 526/622/461
f 635/761/392 561/657/496 584/678/517
f 636/763/392 560/773/572 635/761/392
f 637/764/392 564/660/499 636/763/392
f 638/765/392 566/662/501 637/764/392
f 639/767/392 568/665/504 638/765/392
f 516/614/453 639/767/392 640/768/392
f 640/768/392 514/612/451 516/614/453
f 641/769/392 512/609/448 514/612/451
f 642/770/392 510/608/447 512/609/448
f 643/771/392 508/606/445 510/608/447
f 644/772/392 507/604/443 508/606/445
f 4/1/1 3/13/9 2/2/2
f 6/4/1 4/1/1 1/3/3
f 8/6/1 6/4/1 5/5/4
f 10/8/1 8/6/1 7/7/5
f 12/10/1 10/8/1 9/9/6
f 4/1/1 14/14/10 13/12/8
f 6/4/1 15/15/11 14/14/10
f 8/6/1 16/16/12 15/15/11
f 10/8/1 17/17/13 16/16/12
f 12/10/1 18/774/573 17/17/13
f 21/18/14 20/21/17 19/19/15
f 20/21/17 24/323/257 23/22/18
f 23/22/18 24/323/257 26/23/19
f 25/24/20 26/23/19 28/25/21
f 28/25/21 30/160/138 29/27/23
f 34/28/24 33/324/258 32/29/25
f 32/29/25 36/32/28 35/31/27
f 36/32/28 38/34/30 37/33/29
f 38/34/30 40/36/32 39/35/31
f 40/36/32 42/38/34 41/37/33
f 42/38/34 44/325/259 43/39/35
f 43/39/35 44/325/259 21/18/14
f 47/40/36 46/43/39 45/41/37
f 46/43/39 50/775/86 49/44/40
f 49/44/40 50/775/86 52/45/41
f 51/46/42 52/45/41 54/47/43
f 53/48/44 54/47/43 56/49/45
f 59/51/47 58/54/50 57/52/48
f 58/54/50 62/56/52 61/55/51
f 62/56/52 64/58/54 63/57/53
f 64/58/54 66/776/87 65/59/55
f 65/59/55 66/776/87 68/60/56
f 68/60/56 70/777/88 69/62/58
f 69/63/58 70/778/88 47/40/36
f 72/64/59 48/42/38 45/41/37
f 45/41/37 49/44/40 73/66/61
f 49/44/40 51/46/42 74/67/62
f 74/67/62 51/46/42 53/48/44
f 75/68/63 53/48/44 55/50/46
f 78/70/65 60/53/49 57/52/48
f 77/71/66 57/52/48 61/55/51
f 79/72/67 61/55/51 63/57/53
f 63/57/53 65/59/55 81/74/69
f 65/59/55 67/61/57 82/75/70
f 67/61/57 69/62/58 83/76/71
f 69/63/58 48/42/38 72/64/59
f 84/78/72 72/64/59 71/65/60
f 85/79/73 71/65/60 73/66/61
f 86/80/74 73/66/61 74/67/62
f 74/67/62 75/68/63 88/82/76
f 88/82/76 75/68/63 76/69/64
f 91/84/78 90/779/574 89/83/77
f 78/70/65 77/71/66 93/85/79
f 77/71/66 79/72/67 94/87/81
f 79/72/67 80/73/68 95/88/82
f 80/73/68 81/74/69 96/89/83
f 81/74/69 82/75/70 97/90/84
f 97/90/84 82/75/70 83/76/71
f 83/77/71 72/64/59 84/78/72
f 22/20/16 19/19/15 46/93/39
f 46/93/39 19/19/15 23/22/18
f 23/22/18 25/24/20 52/96/41
f 52/96/41 25/24/20 27/26/22
f 54/97/43 27/26/22 29/27/23
f 59/99/47 34/28/24 31/30/26
f 31/30/26 35/31/27 62/101/52
f 62/101/52 35/31/27 37/33/29
f 64/102/54 37/33/29 39/35/31
f 66/103/87 39/35/31 41/37/33
f 68/104/56 41/37/33 43/39/35
f 43/39/35 22/20/16 47/94/36
f 101/106/89 100/110/93 99/107/90
f 104/109/92 103/112/95 100/110/93
f 104/109/92 106/113/96 105/111/94
f 106/113/96 108/116/99 107/114/97
f 110/115/98 109/254/215 107/114/97
f 114/117/100 113/120/103 112/118/101
f 113/120/103 116/123/106 115/121/104
f 118/122/105 117/125/108 115/121/104
f 118/122/105 120/127/110 119/124/107
f 122/126/109 121/129/112 119/124/107
f 124/128/111 123/130/113 121/129/112
f 124/128/111 102/108/91 99/107/90
f 128/131/114 127/143/121 126/132/1
f 125/133/115 126/132/1 130/134/1
f 129/135/116 130/134/1 132/136/1
f 131/137/117 132/136/1 134/138/1
f 133/139/118 134/138/1 136/140/1
f 138/142/120 137/144/122 126/132/1
f 137/144/122 139/145/123 130/134/1
f 139/145/123 140/146/124 132/136/1
f 140/146/124 141/147/125 134/138/1
f 141/147/125 142/148/126 136/140/1
f 142/148/126 18/774/573 12/10/1
f 135/141/119 136/140/1 12/10/1
f 146/149/127 145/174/152 144/150/128
f 146/149/127 143/151/129 147/152/130
f 148/153/131 147/152/130 149/154/132
f 150/155/133 149/154/132 151/156/134
f 154/158/136 152/157/135 151/156/134
f 30/160/138 154/158/136 153/159/137
f 158/161/139 157/175/153 156/162/140
f 158/161/139 155/163/141 159/164/142
f 160/165/143 159/164/142 161/166/144
f 164/168/146 162/167/145 161/166/144
f 164/168/146 163/169/147 165/170/148
f 166/171/149 165/170/148 167/172/150
f 145/174/152 168/173/151 167/172/150
f 157/175/153 33/324/258 34/28/24
f 171/176/154 170/201/178 169/177/155
f 172/178/156 169/177/155 173/179/157
f 174/180/158 173/179/157 175/181/159
f 176/182/160 175/181/159 177/183/161
f 178/184/162 177/183/161 179/185/163
f 55/50/46 56/49/45 180/186/164
f 183/187/165 182/202/179 181/188/166
f 186/190/168 184/189/167 181/188/166
f 188/192/170 186/190/168 185/191/169
f 188/192/170 187/193/171 189/194/172
f 192/196/174 190/195/173 189/194/172
f 194/198/176 192/196/174 191/197/175
f 194/200/176 193/213/177 170/201/178
f 183/187/165 59/51/47 60/53/49
f 170/201/178 196/214/190 195/203/180
f 169/177/155 195/203/180 197/204/181
f 175/181/159 173/179/157 197/204/181
f 177/183/161 175/181/159 198/205/182
f 179/185/163 177/183/161 199/206/183
f 55/50/46 179/185/163 91/84/78
f 182/202/179 201/215/191 200/207/184
f 181/188/166 200/207/184 202/208/185
f 185/191/169 202/208/185 203/209/186
f 187/193/171 203/209/186 204/210/187
f 191/197/175 189/194/172 204/210/187
f 191/197/175 205/211/188 206/212/189
f 193/213/177 206/229/189 196/214/190
f 60/53/49 78/70/65 201/215/191
f 208/216/192 195/203/180 196/214/190
f 209/218/194 197/204/181 195/203/180
f 210/219/195 198/205/182 197/204/181
f 210/219/195 211/220/196 199/206/183
f 211/220/196 90/779/574 91/84/78
f 92/86/80 212/222/198 201/215/191
f 213/221/197 200/207/184 201/215/191
f 214/223/199 202/208/185 200/207/184
f 215/224/200 203/209/186 202/208/185
f 216/225/201 204/210/187 203/209/186
f 217/226/202 205/211/188 204/210/187
f 218/227/203 206/212/189 205/211/188
f 218/228/203 207/217/193 196/214/190
f 172/230/156 143/151/129 144/150/128
f 172/230/156 174/232/158 147/152/130
f 174/232/158 176/233/160 149/154/132
f 176/233/160 178/234/162 151/156/134
f 178/234/162 180/235/164 153/159/137
f 56/98/45 29/27/23 153/159/137
f 183/236/165 156/162/140 34/28/24
f 183/236/165 184/238/167 155/163/141
f 186/237/168 159/164/142 155/163/141
f 186/237/168 188/240/170 161/166/144
f 190/239/173 163/169/147 161/166/144
f 192/241/174 165/170/148 163/169/147
f 192/241/174 194/242/176 167/172/150
f 171/231/154 144/150/128 167/172/150
f 221/243/204 220/321/255 219/244/205
f 223/246/207 221/243/204 222/245/206
f 225/248/209 223/246/207 224/247/208
f 227/250/211 225/248/209 226/249/210
f 229/252/213 227/250/211 228/251/212
f 110/115/98 229/252/213 230/253/214
f 111/119/102 232/257/218 231/255/216
f 234/256/217 233/259/220 231/255/216
f 236/258/219 235/261/222 233/259/220
f 238/260/221 237/263/224 235/261/222
f 240/262/223 239/265/226 237/263/224
f 242/264/225 241/322/256 239/265/226
f 243/266/227 241/322/256 242/264/225
f 219/244/205 220/321/255 243/266/227
f 245/268/229 84/320/72 85/269/73
f 85/269/73 86/780/74 247/271/231
f 86/272/74 87/275/75 248/273/232
f 87/275/75 88/277/76 249/276/233
f 88/277/76 89/279/77 250/278/234
f 89/279/77 90/781/574 251/280/235
f 251/280/235 90/781/574 211/281/196
f 252/282/236 211/281/196 210/283/195
f 210/283/195 209/782/194 254/285/238
f 209/286/194 208/783/192 255/287/239
f 255/287/239 208/783/192 207/289/193
f 256/290/240 207/289/193 218/291/203
f 218/291/203 217/294/202 258/293/242
f 217/294/202 216/296/201 259/295/243
f 216/296/201 215/784/200 260/297/244
f 215/298/200 214/301/199 261/299/245
f 214/301/199 213/303/197 262/302/246
f 213/303/197 212/305/198 263/304/247
f 212/305/198 92/785/80 264/306/248
f 264/306/248 92/785/80 93/307/79
f 265/308/249 93/307/79 94/309/81
f 266/310/250 94/309/81 95/311/82
f 267/313/251 95/786/82 96/314/83
f 268/315/252 96/314/83 97/316/84
f 269/317/253 97/316/84 98/318/85
f 270/319/254 98/318/85 84/320/72
f 102/108/91 13/12/8 14/14/10
f 14/14/10 15/15/11 104/109/92
f 104/109/92 15/15/11 16/16/12
f 16/16/12 17/17/13 108/116/99
f 17/17/13 18/774/573 110/115/98
f 11/11/7 9/9/6 113/120/103
f 113/120/103 9/9/6 7/7/5
f 116/123/106 7/7/5 5/5/4
f 5/5/4 1/3/3 120/127/110
f 1/3/3 2/2/2 122/126/109
f 2/2/2 3/13/9 124/128/111
f 124/128/111 3/13/9 13/12/8
f 221/243/204 137/144/122 138/142/120
f 223/246/207 139/145/123 137/144/122
f 225/248/209 140/146/124 139/145/123
f 227/250/211 141/147/125 140/146/124
f 229/252/213 142/148/126 141/147/125
f 110/115/98 18/774/573 142/148/126
f 135/141/119 11/11/7 114/117/100
f 233/259/220 133/139/118 135/141/119
f 131/137/117 133/139/118 233/259/220
f 129/135/116 131/137/117 235/261/222
f 239/265/226 125/133/115 129/135/116
f 128/131/114 125/133/115 239/265/226
f 243/266/227 127/143/121 128/131/114
f 138/142/120 127/143/121 243/266/227
f 21/18/14 99/107/90 100/110/93
f 20/21/17 100/110/93 103/112/95
f 24/323/257 103/112/95 105/111/94
f 26/23/19 105/111/94 107/114/97
f 28/25/21 107/114/97 109/254/215
f 33/324/258 111/119/102 112/118/101
f 32/29/25 112/118/101 115/121/104
f 36/32/28 115/121/104 117/125/108
f 117/125/108 119/124/107 40/36/32
f 119/124/107 121/129/112 42/38/34
f 42/38/34 121/129/112 123/130/113
f 44/325/259 123/130/113 99/107/90
f 146/149/127 222/245/206 219/244/205
f 224/247/208 222/245/206 146/149/127
f 150/155/133 226/249/210 224/247/208
f 228/251/212 226/249/210 150/155/133
f 230/253/214 228/251/212 152/157/135
f 30/160/138 109/254/215 230/253/214
f 234/256/217 232/257/218 157/175/153
f 236/258/219 234/256/217 158/161/139
f 162/167/145 238/260/221 236/258/219
f 240/262/223 238/260/221 162/167/145
f 166/171/149 242/264/225 240/262/223
f 244/267/228 242/264/225 166/171/149
f 145/174/152 219/244/205 244/267/228
f 157/175/153 232/257/218 111/119/102
f 274/326/260 273/401/311 272/327/261
f 272/327/261 276/330/264 275/329/263
f 276/330/264 278/332/266 277/331/265
f 278/332/266 280/402/312 279/333/267
f 279/333/267 280/402/312 282/334/268
f 281/335/269 282/334/268 284/336/270
f 288/338/272 287/417/327 286/339/273
f 286/339/273 290/342/276 289/341/275
f 290/342/276 292/403/313 291/343/277
f 291/343/277 292/403/313 294/344/278
f 293/345/279 294/344/278 296/346/280
f 295/347/281 296/346/280 298/348/282
f 298/348/282 273/401/311 274/326/260
f 274/350/260 271/353/262 299/351/284
f 271/353/262 275/355/263 301/354/286
f 275/355/263 277/357/265 302/356/287
f 277/357/265 279/359/267 303/358/288
f 279/359/267 281/361/269 304/360/289
f 281/361/269 283/477/271 305/362/290
f 307/363/291 288/443/272 285/364/274
f 285/364/274 289/367/275 308/366/293
f 289/367/275 291/369/277 309/368/294
f 291/369/277 293/371/279 310/370/295
f 293/371/279 295/373/281 311/372/296
f 295/373/281 297/375/283 312/374/297
f 297/375/283 274/350/260 300/352/285
f 316/376/1 315/380/1 314/377/298
f 318/379/1 317/382/300 314/377/298
f 320/381/1 319/384/301 317/382/300
f 322/383/1 321/386/303 319/384/301
f 322/383/1 324/464/1 323/385/302
f 327/387/1 326/391/306 325/388/304
f 327/387/1 330/392/1 329/390/305
f 330/392/1 332/395/1 331/393/307
f 334/394/1 333/397/308 331/393/307
f 336/396/1 335/399/310 333/397/308
f 336/396/1 338/400/1 337/398/309
f 338/400/1 316/376/1 313/378/299
f 273/401/311 337/398/309 313/378/299
f 313/378/299 314/377/298 276/330/264
f 276/330/264 314/377/298 317/382/300
f 278/332/266 317/382/300 319/384/301
f 280/402/312 319/384/301 321/386/303
f 321/386/303 323/385/302 284/336/270
f 325/388/304 326/391/306 290/342/276
f 326/391/306 329/390/305 292/403/313
f 329/390/305 331/393/307 294/344/278
f 331/393/307 333/397/308 296/346/280
f 333/397/308 335/399/310 298/348/282
f 298/348/282 335/399/310 337/398/309
f 341/404/314 340/428/338 339/405/315
f 342/406/316 339/405/315 343/407/317
f 346/409/319 344/408/318 343/407/317
f 346/409/319 345/410/320 347/411/321
f 350/413/323 348/412/322 347/411/321
f 352/415/325 350/413/323 349/414/324
f 287/417/327 288/338/272 353/418/328
f 356/420/330 354/419/329 353/418/328
f 356/420/330 355/421/331 357/422/332
f 358/423/333 357/422/332 359/424/334
f 360/425/335 359/424/334 361/426/336
f 341/404/314 362/427/337 361/426/336
f 340/429/338 364/454/350 363/430/339
f 339/432/315 363/564/339 365/433/340
f 343/434/317 365/433/340 366/435/341
f 345/436/320 366/435/341 367/437/342
f 347/438/321 367/437/342 368/439/343
f 349/440/324 368/439/343 369/441/344
f 288/443/272 307/363/291 370/444/345
f 353/445/328 370/444/345 371/446/346
f 355/447/331 371/446/346 372/448/347
f 357/449/332 372/448/347 373/450/348
f 359/451/334 373/450/348 374/452/349
f 361/453/336 374/452/349 364/454/350
f 377/455/1 376/787/1 375/456/351
f 380/458/353 379/460/1 377/455/1
f 382/459/354 381/788/1 379/460/1
f 383/461/1 381/788/1 382/459/354
f 386/463/356 385/789/1 383/461/1
f 324/464/1 385/789/1 386/463/356
f 389/465/1 388/790/1 387/466/357
f 391/468/1 389/465/1 390/467/358
f 393/470/1 391/468/1 392/469/359
f 396/472/361 395/791/1 393/470/1
f 397/473/1 395/791/1 396/472/361
f 400/475/363 399/476/1 397/473/1
f 375/456/351 376/787/1 399/476/1
f 352/415/325 284/336/270 323/385/302
f 351/442/326 369/441/344 305/362/290
f 387/466/357 388/790/1 328/389/1
f 375/456/351 400/475/363 341/404/314
f 378/457/352 375/456/351 342/406/316
f 380/458/353 378/457/352 344/408/318
f 382/459/354 380/458/353 346/409/319
f 384/462/355 382/459/354 348/412/322
f 384/462/355 350/413/323 352/415/325
f 387/466/357 325/388/304 286/339/273
f 387/466/357 287/417/327 354/419/329
f 390/467/358 354/419/329 356/420/330
f 392/469/359 356/420/330 358/423/333
f 396/472/361 394/471/360 358/423/333
f 398/474/362 396/472/361 360/425/335
f 400/475/363 398/474/362 362/427/337
f 351/416/326 283/337/271 284/336/270
f 404/478/364 403/504/390 402/479/365
f 406/481/367 404/478/364 401/480/366
f 406/481/367 405/482/368 407/483/369
f 410/485/371 408/484/370 407/483/369
f 412/487/373 410/485/371 409/486/372
f 414/489/375 412/487/373 411/488/374
f 418/491/377 417/551/416 416/492/378
f 418/491/377 415/493/379 419/494/380
f 420/495/381 419/494/380 421/496/382
f 424/498/384 422/497/383 421/496/382
f 426/500/386 424/498/384 423/499/385
f 426/500/386 425/501/387 427/502/388
f 403/504/390 428/503/389 427/502/388
f 402/505/365 300/352/285 299/351/284
f 401/506/366 299/351/284 301/354/286
f 407/508/369 405/507/368 301/354/286
f 407/508/369 302/356/287 303/358/288
f 409/509/372 303/358/288 304/360/289
f 411/510/374 304/360/289 305/362/290
f 415/512/379 416/792/378 307/363/291
f 415/512/379 306/365/292 308/366/293
f 419/513/380 308/366/293 309/368/294
f 421/514/382 309/368/294 310/370/295
f 423/515/385 310/370/295 311/372/296
f 425/516/387 311/372/296 312/374/297
f 402/505/365 427/517/388 312/374/297
f 432/518/391 431/793/392 430/519/392
f 433/521/392 431/793/392 432/518/391
f 435/523/392 433/521/392 434/522/394
f 438/525/396 437/527/392 435/523/392
f 440/526/397 439/584/392 437/527/392
f 443/528/392 442/600/392 441/529/398
f 446/531/400 445/533/392 443/528/392
f 448/532/401 447/794/392 445/533/392
f 449/534/392 447/794/392 448/532/401
f 451/536/392 449/534/392 450/535/402
f 454/538/404 453/539/392 451/536/392
f 429/520/393 430/519/392 453/539/392
f 429/520/393 454/538/404 403/504/390
f 432/518/391 429/520/393 404/478/364
f 432/518/391 406/481/367 408/484/370
f 436/524/395 434/522/394 408/484/370
f 438/525/396 436/524/395 410/485/371
f 438/525/396 412/487/373 414/489/375
f 441/529/398 418/491/377 420/495/381
f 446/531/400 444/530/399 420/495/381
f 446/531/400 422/497/383 424/498/384
f 448/532/401 424/498/384 426/500/386
f 450/535/402 426/500/386 428/503/389
f 454/538/404 452/537/403 428/503/389
f 458/540/405 457/561/426 456/541/406
f 456/541/406 460/601/440 459/543/408
f 459/543/408 460/601/440 462/544/409
f 462/544/409 464/602/441 463/546/411
f 463/546/411 464/602/441 466/547/412
f 465/548/413 466/547/412 468/549/414
f 417/551/416 470/553/418 469/552/417
f 470/553/418 472/555/420 471/554/419
f 472/555/420 474/557/422 473/556/421
f 474/557/422 476/559/424 475/558/423
f 476/559/424 478/603/442 477/560/425
f 477/560/425 478/603/442 457/561/426
f 458/562/405 455/795/407 363/430/339
f 455/563/407 459/565/408 365/433/340
f 459/565/408 461/566/410 366/435/341
f 461/566/410 463/567/411 367/437/342
f 463/567/411 465/796/413 368/439/343
f 368/439/343 465/796/413 467/568/415
f 307/363/291 416/792/378 469/569/417
f 469/569/417 471/570/419 371/446/346
f 471/570/419 473/571/421 372/448/347
f 473/571/421 475/572/423 373/450/348
f 475/572/423 477/797/425 374/452/349
f 374/452/349 477/797/425 458/562/405
f 481/573/392 480/577/429 479/574/427
f 481/573/392 484/578/392 483/576/428
f 484/578/392 486/580/392 485/579/430
f 486/580/392 488/582/392 487/581/431
f 488/582/392 490/585/392 489/583/432
f 439/584/392 440/526/397 489/583/432
f 493/586/392 492/590/434 491/587/433
f 496/589/392 495/592/435 492/590/434
f 498/591/392 497/594/437 495/592/435
f 498/591/392 500/596/392 499/593/436
f 502/595/392 501/598/439 499/593/436
f 502/595/392 504/599/392 503/597/438
f 504/599/392 482/575/392 479/574/427
f 468/549/414 489/583/432 440/526/397
f 305/362/290 369/441/344 467/568/415
f 442/600/392 494/588/392 491/587/433
f 503/597/438 479/574/427 456/541/406
f 456/541/406 479/574/427 480/577/429
f 460/601/440 480/577/429 483/576/428
f 483/576/428 485/579/430 464/602/441
f 464/602/441 485/579/430 487/581/431
f 487/581/431 489/583/432 468/549/414
f 418/491/377 441/529/398 491/587/433
f 491/587/433 492/590/434 470/553/418
f 492/590/434 495/592/435 472/555/420
f 495/592/435 497/594/437 474/557/422
f 474/557/422 497/594/437 499/593/436
f 476/559/424 499/593/436 501/598/439
f 478/603/442 501/598/439 503/597/438
f 414/489/375 413/490/376 467/550/415
f 507/604/443 506/628/467 505/605/444
f 508/606/445 505/605/444 509/607/446
f 512/609/448 510/608/447 509/607/446
f 512/609/448 511/610/449 513/611/450
f 514/612/451 513/611/450 515/613/452
f 520/615/454 519/680/519 518/616/455
f 522/618/457 520/615/454 517/617/456
f 522/618/457 521/619/458 523/620/459
f 526/622/461 524/621/460 523/620/459
f 526/622/461 525/623/462 527/624/463
f 530/626/465 528/625/464 527/624/463
f 507/604/443 530/626/465 529/627/466
f 505/605/444 506/628/467 532/629/468
f 505/605/444 531/630/469 533/631/470
f 509/607/446 533/631/470 534/632/471
f 513/611/450 511/610/449 534/632/471
f 515/613/452 513/611/450 535/633/472
f 517/617/456 518/616/455 538/635/474
f 521/619/458 517/617/456 537/636/475
f 523/620/459 521/619/458 539/637/476
f 523/620/459 540/638/477 541/639/478
f 527/624/463 525/623/462 541/639/478
f 529/627/466 527/624/463 542/640/479
f 506/628/467 529/627/466 543/641/480
f 544/642/481 545/643/482 531/630/469
f 545/643/482 546/645/484 533/631/470
f 547/644/483 534/632/471 533/631/470
f 548/646/485 535/633/472 534/632/471
f 548/646/485 549/648/487 536/634/473
f 550/647/486 536/634/473 549/648/487
f 553/650/489 537/636/475 538/635/474
f 554/652/491 539/637/476 537/636/475
f 555/653/492 540/638/477 539/637/476
f 556/654/493 541/639/478 540/638/477
f 557/655/494 542/640/479 541/639/478
f 557/655/494 558/656/495 543/641/480
f 544/642/481 532/629/468 543/641/480
f 561/657/496 560/773/572 559/658/497
f 559/658/497 560/773/572 564/660/499
f 563/661/500 564/660/499 566/662/501
f 566/662/501 568/665/504 567/664/503
f 568/665/504 570/667/506 569/666/505
f 516/614/453 515/613/452 569/666/505
f 573/668/507 572/766/571 571/669/508
f 571/669/508 572/766/571 576/671/510
f 575/672/511 576/671/510 578/673/512
f 578/673/512 580/676/515 579/675/514
f 580/676/515 582/762/570 581/677/516
f 581/677/516 582/762/570 584/678/517
f 584/678/517 561/657/496 562/659/498
f 519/680/519 573/668/507 574/670/509
f 586/681/520 562/659/498 559/658/497
f 559/658/497 563/661/500 587/683/522
f 563/661/500 565/663/502 588/684/523
f 588/684/523 565/663/502 567/664/503
f 589/685/524 567/664/503 569/666/505
f 515/613/452 536/634/473 550/647/486
f 574/670/509 571/669/508 590/686/525
f 590/686/525 571/669/508 575/672/511
f 575/672/511 577/674/513 593/689/528
f 577/674/513 579/675/514 594/690/529
f 594/690/529 579/675/514 581/677/516
f 595/691/530 581/677/516 583/679/518
f 583/679/518 562/659/498 586/681/520
f 518/616/455 574/670/509 591/687/526
f 597/693/532 586/681/520 585/682/521
f 598/694/533 585/682/521 587/683/522
f 587/683/522 588/684/523 600/696/535
f 600/696/535 588/684/523 589/685/524
f 601/697/536 589/685/524 550/647/486
f 552/651/490 538/635/474 591/687/526
f 602/698/537 591/687/526 590/686/525
f 590/686/525 592/688/527 604/700/539
f 592/688/527 593/689/528 605/701/540
f 593/689/528 594/690/529 606/702/541
f 594/690/529 595/691/530 607/703/542
f 595/691/530 596/692/531 608/704/543
f 596/692/531 586/681/520 597/693/532
f 609/705/544 610/709/546 545/706/482
f 611/708/545 546/798/484 545/706/482
f 612/710/547 547/714/483 546/711/484
f 613/713/548 548/716/485 547/714/483
f 614/715/549 549/718/487 548/716/485
f 615/717/550 551/720/488 549/718/487
f 615/717/550 616/721/551 601/719/536
f 616/721/551 617/724/553 600/722/535
f 618/723/552 599/799/534 600/722/535
f 618/725/552 619/728/554 598/726/533
f 619/728/554 620/730/555 597/729/532
f 620/730/555 621/733/557 608/731/543
f 622/732/556 607/735/542 608/731/543
f 623/734/558 606/737/541 607/735/542
f 624/736/559 605/800/540 606/737/541
f 625/738/560 604/742/539 605/739/540
f 626/741/561 603/744/538 604/742/539
f 627/743/562 602/746/537 603/744/538
f 628/745/563 552/748/490 602/746/537
f 628/745/563 629/750/565 553/747/489
f 630/749/564 554/752/491 553/747/489
f 630/749/564 631/801/566 555/751/492
f 631/753/566 632/756/567 556/754/493
f 632/756/567 633/759/569 557/757/494
f 634/758/568 558/760/495 557/757/494
f 609/705/544 544/707/481 558/760/495
f 635/761/392 584/678/517 582/762/570
f 636/763/392 635/761/392 580/676/515
f 637/764/392 636/763/392 578/673/512
f 638/765/392 637/764/392 576/671/510
f 639/767/392 638/765/392 572/766/571
f 639/767/392 573/668/507 519/680/519
f 520/615/454 641/769/392 640/768/392
f 522/618/457 642/770/392 641/769/392
f 524/621/460 643/771/392 642/770/392
f 526/622/461 644/772/392 643/771/392
f 528/625/464 530/626/465 644/772/392
f 635/761/392 560/773/572 561/657/496
f 636/763/392 564/660/499 560/773/572
f 637/764/392 566/662/501 564/660/499
f 638/765/392 568/665/504 566/662/501
f 639/767/392 570/667/506 568/665/504
f 516/614/453 570/667/506 639/767/392
f 640/768/392 641/769/392 514/612/451
f 641/769/392 642/770/392 512/609/448
f 642/770/392 643/771/392 510/608/447
f 643/771/392 644/772/392 508/606/445
f 644/772/392 530/626/465 507/604/443
